G75*
%MOIN*%
%OFA0B0*%
%FSLAX25Y25*%
%IPPOS*%
%LPD*%
%AMOC8*
5,1,8,0,0,1.08239X$1,22.5*
%
%ADD10C,0.06400*%
%ADD11OC8,0.06000*%
%ADD12R,0.35249X0.21272*%
%ADD13C,0.23800*%
%ADD14C,0.36233*%
%ADD15C,0.04343*%
%ADD16C,0.09200*%
%ADD17C,0.04369*%
D10*
X0066937Y0011496D02*
X0066937Y0017096D01*
X0076937Y0017096D02*
X0076937Y0011496D01*
X0076937Y0041496D02*
X0076937Y0047096D01*
X0066937Y0047096D02*
X0066937Y0041496D01*
X0086937Y0071496D02*
X0086937Y0077096D01*
X0096937Y0077096D02*
X0096937Y0071496D01*
X0096937Y0101496D02*
X0096937Y0107096D01*
X0086937Y0107096D02*
X0086937Y0101496D01*
X0106937Y0146496D02*
X0106937Y0152096D01*
X0116937Y0152096D02*
X0116937Y0146496D01*
X0126937Y0146496D02*
X0126937Y0152096D01*
X0136937Y0152096D02*
X0136937Y0146496D01*
X0174137Y0124296D02*
X0179737Y0124296D01*
X0179737Y0114296D02*
X0174137Y0114296D01*
X0151937Y0092096D02*
X0151937Y0086496D01*
X0141937Y0086496D02*
X0141937Y0092096D01*
X0151937Y0067096D02*
X0151937Y0061496D01*
X0161937Y0061496D02*
X0161937Y0067096D01*
X0174137Y0069296D02*
X0179737Y0069296D01*
X0179737Y0059296D02*
X0174137Y0059296D01*
X0076937Y0161496D02*
X0076937Y0167096D01*
X0066937Y0167096D02*
X0066937Y0161496D01*
D11*
X0136937Y0109296D03*
X0156937Y0109296D03*
X0096252Y0055966D03*
X0093327Y0043828D03*
X0066252Y0055966D03*
X0093327Y0013828D03*
D12*
X0026937Y0068037D03*
X0026937Y0110556D03*
D13*
X0166937Y0154296D03*
X0166937Y0024296D03*
D14*
X0026937Y0036796D03*
X0026937Y0141796D03*
D15*
X0115052Y0026204D03*
X0128832Y0026204D03*
D16*
X0071137Y0075517D02*
X0062737Y0075517D01*
X0062737Y0089296D02*
X0071137Y0089296D01*
X0071137Y0103076D02*
X0062737Y0103076D01*
D17*
X0041937Y0119296D03*
X0036937Y0119296D03*
X0031937Y0119296D03*
X0026937Y0119296D03*
X0021937Y0119296D03*
X0016937Y0119296D03*
X0011937Y0119296D03*
X0011937Y0124296D03*
X0041937Y0124296D03*
X0041937Y0059296D03*
X0041937Y0054296D03*
X0036937Y0059296D03*
X0031937Y0059296D03*
X0026937Y0059296D03*
X0021937Y0059296D03*
X0016937Y0059296D03*
X0011937Y0059296D03*
X0011937Y0054296D03*
M02*
