G75*
%MOIN*%
%OFA0B0*%
%FSLAX25Y25*%
%IPPOS*%
%LPD*%
%AMOC8*
5,1,8,0,0,1.08239X$1,22.5*
%
%ADD10R,0.20000X0.11000*%
%ADD11C,0.13398*%
%ADD12R,0.06706X0.05918*%
%ADD13R,0.05918X0.06706*%
%ADD14C,0.06400*%
%ADD15R,0.02375X0.05524*%
%ADD16OC8,0.06000*%
%ADD17C,0.36233*%
%ADD18R,0.35249X0.21272*%
%ADD19R,0.10643X0.09461*%
%ADD20R,0.02769X0.08674*%
%ADD21C,0.04343*%
%ADD22C,0.09200*%
%ADD23R,0.07100X0.05400*%
%ADD24R,0.07200X0.00600*%
%ADD25C,0.06000*%
%ADD26R,0.05400X0.07100*%
%ADD27R,0.00600X0.07200*%
%ADD28R,0.05600X0.05600*%
%ADD29C,0.05600*%
%ADD30C,0.04369*%
%ADD31C,0.26391*%
D10*
X0120084Y0023698D03*
X0143757Y0023618D03*
D11*
X0091937Y0023732D03*
X0091937Y0155732D03*
D12*
X0106937Y0113472D03*
X0106937Y0105992D03*
X0106937Y0073472D03*
X0106937Y0065992D03*
X0121937Y0063472D03*
X0121937Y0055992D03*
X0136937Y0055992D03*
X0136937Y0063472D03*
D13*
X0135677Y0124732D03*
X0128197Y0124732D03*
X0115677Y0124732D03*
X0108197Y0124732D03*
D14*
X0106937Y0146932D02*
X0106937Y0152532D01*
X0116937Y0152532D02*
X0116937Y0146932D01*
X0126937Y0146932D02*
X0126937Y0152532D01*
X0136937Y0152532D02*
X0136937Y0146932D01*
X0079737Y0144732D02*
X0074137Y0144732D01*
X0074137Y0134732D02*
X0079737Y0134732D01*
X0066937Y0161932D02*
X0066937Y0167532D01*
X0056937Y0167532D02*
X0056937Y0161932D01*
X0144137Y0089732D02*
X0149737Y0089732D01*
X0149737Y0079732D02*
X0144137Y0079732D01*
X0151937Y0057532D02*
X0151937Y0051932D01*
X0161937Y0051932D02*
X0161937Y0057532D01*
X0079737Y0044732D02*
X0074137Y0044732D01*
X0074137Y0034732D02*
X0079737Y0034732D01*
D15*
X0118098Y0081241D03*
X0120657Y0081241D03*
X0123217Y0081241D03*
X0125776Y0081241D03*
X0125776Y0098223D03*
X0123217Y0098223D03*
X0120657Y0098223D03*
X0118098Y0098223D03*
D16*
X0132937Y0110732D03*
X0152937Y0110732D03*
X0063413Y0055211D03*
X0063413Y0035211D03*
X0074834Y0021013D03*
X0044834Y0021013D03*
D17*
X0026937Y0037232D03*
X0026937Y0142232D03*
D18*
X0026937Y0110992D03*
X0026937Y0068472D03*
D19*
X0115406Y0034078D03*
X0115406Y0013211D03*
X0148477Y0013211D03*
X0148477Y0034078D03*
D20*
X0138241Y0035062D03*
X0135092Y0035062D03*
X0131942Y0035062D03*
X0128792Y0035062D03*
X0125643Y0035062D03*
D21*
X0125052Y0026204D03*
X0138832Y0026204D03*
D22*
X0066137Y0075952D02*
X0057737Y0075952D01*
X0057737Y0089732D02*
X0066137Y0089732D01*
X0066137Y0103511D02*
X0057737Y0103511D01*
D23*
X0106937Y0095232D03*
X0106937Y0089232D03*
X0146937Y0087732D03*
X0146937Y0081732D03*
X0076937Y0042732D03*
X0076937Y0036732D03*
D24*
X0076937Y0039732D03*
X0106937Y0092232D03*
X0146937Y0084732D03*
D25*
X0174337Y0084732D02*
X0179537Y0084732D01*
X0179537Y0094732D02*
X0174337Y0094732D01*
X0174337Y0104732D02*
X0179537Y0104732D01*
X0179537Y0114732D02*
X0174337Y0114732D01*
X0174337Y0074732D02*
X0179537Y0074732D01*
X0179537Y0064732D02*
X0174337Y0064732D01*
D26*
X0159937Y0054732D03*
X0153937Y0054732D03*
D27*
X0156937Y0054732D03*
D28*
X0105239Y0046952D03*
X0091937Y0074532D03*
X0091937Y0104932D03*
D29*
X0091937Y0114732D03*
X0091937Y0064732D03*
X0095439Y0046952D03*
D30*
X0125776Y0071935D03*
X0125776Y0075935D03*
X0041937Y0059732D03*
X0041937Y0054732D03*
X0036937Y0059732D03*
X0031937Y0059732D03*
X0026937Y0059732D03*
X0021937Y0059732D03*
X0016937Y0059732D03*
X0011937Y0059732D03*
X0011937Y0054732D03*
X0011937Y0119732D03*
X0016937Y0119732D03*
X0021937Y0119732D03*
X0026937Y0119732D03*
X0031937Y0119732D03*
X0036937Y0119732D03*
X0041937Y0119732D03*
X0041937Y0124732D03*
X0011937Y0124732D03*
D31*
X0171937Y0155732D03*
X0171937Y0023732D03*
M02*
