G75*
%MOIN*%
%OFA0B0*%
%FSLAX25Y25*%
%IPPOS*%
%LPD*%
%AMOC8*
5,1,8,0,0,1.08239X$1,22.5*
%
%ADD10C,0.00000*%
%ADD11R,0.05906X0.05118*%
%ADD12R,0.05118X0.05906*%
%ADD13C,0.05600*%
%ADD14R,0.01575X0.04724*%
%ADD15OC8,0.05200*%
%ADD16C,0.35433*%
%ADD17R,0.34449X0.20472*%
%ADD18R,0.09843X0.08661*%
%ADD19R,0.01969X0.07874*%
%ADD20C,0.08400*%
%ADD21R,0.06300X0.04600*%
%ADD22C,0.05200*%
%ADD23R,0.04600X0.06300*%
%ADD24R,0.04800X0.04800*%
%ADD25C,0.04800*%
%ADD26C,0.01000*%
%ADD27C,0.03569*%
%ADD28C,0.00600*%
%ADD29C,0.04000*%
%ADD30C,0.10000*%
%ADD31C,0.11000*%
%ADD32C,0.25591*%
D10*
X0001937Y0004732D02*
X0001937Y0174692D01*
X0190638Y0174692D01*
X0190638Y0004732D01*
X0001937Y0004732D01*
X0085638Y0023732D02*
X0085640Y0023890D01*
X0085646Y0024048D01*
X0085656Y0024206D01*
X0085670Y0024364D01*
X0085688Y0024521D01*
X0085709Y0024678D01*
X0085735Y0024834D01*
X0085765Y0024990D01*
X0085798Y0025145D01*
X0085836Y0025298D01*
X0085877Y0025451D01*
X0085922Y0025603D01*
X0085971Y0025754D01*
X0086024Y0025903D01*
X0086080Y0026051D01*
X0086140Y0026197D01*
X0086204Y0026342D01*
X0086272Y0026485D01*
X0086343Y0026627D01*
X0086417Y0026767D01*
X0086495Y0026904D01*
X0086577Y0027040D01*
X0086661Y0027174D01*
X0086750Y0027305D01*
X0086841Y0027434D01*
X0086936Y0027561D01*
X0087033Y0027686D01*
X0087134Y0027808D01*
X0087238Y0027927D01*
X0087345Y0028044D01*
X0087455Y0028158D01*
X0087568Y0028269D01*
X0087683Y0028378D01*
X0087801Y0028483D01*
X0087922Y0028585D01*
X0088045Y0028685D01*
X0088171Y0028781D01*
X0088299Y0028874D01*
X0088429Y0028964D01*
X0088562Y0029050D01*
X0088697Y0029134D01*
X0088833Y0029213D01*
X0088972Y0029290D01*
X0089113Y0029362D01*
X0089255Y0029432D01*
X0089399Y0029497D01*
X0089545Y0029559D01*
X0089692Y0029617D01*
X0089841Y0029672D01*
X0089991Y0029723D01*
X0090142Y0029770D01*
X0090294Y0029813D01*
X0090447Y0029852D01*
X0090602Y0029888D01*
X0090757Y0029919D01*
X0090913Y0029947D01*
X0091069Y0029971D01*
X0091226Y0029991D01*
X0091384Y0030007D01*
X0091541Y0030019D01*
X0091700Y0030027D01*
X0091858Y0030031D01*
X0092016Y0030031D01*
X0092174Y0030027D01*
X0092333Y0030019D01*
X0092490Y0030007D01*
X0092648Y0029991D01*
X0092805Y0029971D01*
X0092961Y0029947D01*
X0093117Y0029919D01*
X0093272Y0029888D01*
X0093427Y0029852D01*
X0093580Y0029813D01*
X0093732Y0029770D01*
X0093883Y0029723D01*
X0094033Y0029672D01*
X0094182Y0029617D01*
X0094329Y0029559D01*
X0094475Y0029497D01*
X0094619Y0029432D01*
X0094761Y0029362D01*
X0094902Y0029290D01*
X0095041Y0029213D01*
X0095177Y0029134D01*
X0095312Y0029050D01*
X0095445Y0028964D01*
X0095575Y0028874D01*
X0095703Y0028781D01*
X0095829Y0028685D01*
X0095952Y0028585D01*
X0096073Y0028483D01*
X0096191Y0028378D01*
X0096306Y0028269D01*
X0096419Y0028158D01*
X0096529Y0028044D01*
X0096636Y0027927D01*
X0096740Y0027808D01*
X0096841Y0027686D01*
X0096938Y0027561D01*
X0097033Y0027434D01*
X0097124Y0027305D01*
X0097213Y0027174D01*
X0097297Y0027040D01*
X0097379Y0026904D01*
X0097457Y0026767D01*
X0097531Y0026627D01*
X0097602Y0026485D01*
X0097670Y0026342D01*
X0097734Y0026197D01*
X0097794Y0026051D01*
X0097850Y0025903D01*
X0097903Y0025754D01*
X0097952Y0025603D01*
X0097997Y0025451D01*
X0098038Y0025298D01*
X0098076Y0025145D01*
X0098109Y0024990D01*
X0098139Y0024834D01*
X0098165Y0024678D01*
X0098186Y0024521D01*
X0098204Y0024364D01*
X0098218Y0024206D01*
X0098228Y0024048D01*
X0098234Y0023890D01*
X0098236Y0023732D01*
X0098234Y0023574D01*
X0098228Y0023416D01*
X0098218Y0023258D01*
X0098204Y0023100D01*
X0098186Y0022943D01*
X0098165Y0022786D01*
X0098139Y0022630D01*
X0098109Y0022474D01*
X0098076Y0022319D01*
X0098038Y0022166D01*
X0097997Y0022013D01*
X0097952Y0021861D01*
X0097903Y0021710D01*
X0097850Y0021561D01*
X0097794Y0021413D01*
X0097734Y0021267D01*
X0097670Y0021122D01*
X0097602Y0020979D01*
X0097531Y0020837D01*
X0097457Y0020697D01*
X0097379Y0020560D01*
X0097297Y0020424D01*
X0097213Y0020290D01*
X0097124Y0020159D01*
X0097033Y0020030D01*
X0096938Y0019903D01*
X0096841Y0019778D01*
X0096740Y0019656D01*
X0096636Y0019537D01*
X0096529Y0019420D01*
X0096419Y0019306D01*
X0096306Y0019195D01*
X0096191Y0019086D01*
X0096073Y0018981D01*
X0095952Y0018879D01*
X0095829Y0018779D01*
X0095703Y0018683D01*
X0095575Y0018590D01*
X0095445Y0018500D01*
X0095312Y0018414D01*
X0095177Y0018330D01*
X0095041Y0018251D01*
X0094902Y0018174D01*
X0094761Y0018102D01*
X0094619Y0018032D01*
X0094475Y0017967D01*
X0094329Y0017905D01*
X0094182Y0017847D01*
X0094033Y0017792D01*
X0093883Y0017741D01*
X0093732Y0017694D01*
X0093580Y0017651D01*
X0093427Y0017612D01*
X0093272Y0017576D01*
X0093117Y0017545D01*
X0092961Y0017517D01*
X0092805Y0017493D01*
X0092648Y0017473D01*
X0092490Y0017457D01*
X0092333Y0017445D01*
X0092174Y0017437D01*
X0092016Y0017433D01*
X0091858Y0017433D01*
X0091700Y0017437D01*
X0091541Y0017445D01*
X0091384Y0017457D01*
X0091226Y0017473D01*
X0091069Y0017493D01*
X0090913Y0017517D01*
X0090757Y0017545D01*
X0090602Y0017576D01*
X0090447Y0017612D01*
X0090294Y0017651D01*
X0090142Y0017694D01*
X0089991Y0017741D01*
X0089841Y0017792D01*
X0089692Y0017847D01*
X0089545Y0017905D01*
X0089399Y0017967D01*
X0089255Y0018032D01*
X0089113Y0018102D01*
X0088972Y0018174D01*
X0088833Y0018251D01*
X0088697Y0018330D01*
X0088562Y0018414D01*
X0088429Y0018500D01*
X0088299Y0018590D01*
X0088171Y0018683D01*
X0088045Y0018779D01*
X0087922Y0018879D01*
X0087801Y0018981D01*
X0087683Y0019086D01*
X0087568Y0019195D01*
X0087455Y0019306D01*
X0087345Y0019420D01*
X0087238Y0019537D01*
X0087134Y0019656D01*
X0087033Y0019778D01*
X0086936Y0019903D01*
X0086841Y0020030D01*
X0086750Y0020159D01*
X0086661Y0020290D01*
X0086577Y0020424D01*
X0086495Y0020560D01*
X0086417Y0020697D01*
X0086343Y0020837D01*
X0086272Y0020979D01*
X0086204Y0021122D01*
X0086140Y0021267D01*
X0086080Y0021413D01*
X0086024Y0021561D01*
X0085971Y0021710D01*
X0085922Y0021861D01*
X0085877Y0022013D01*
X0085836Y0022166D01*
X0085798Y0022319D01*
X0085765Y0022474D01*
X0085735Y0022630D01*
X0085709Y0022786D01*
X0085688Y0022943D01*
X0085670Y0023100D01*
X0085656Y0023258D01*
X0085646Y0023416D01*
X0085640Y0023574D01*
X0085638Y0023732D01*
X0123280Y0026204D02*
X0123282Y0026288D01*
X0123288Y0026371D01*
X0123298Y0026454D01*
X0123312Y0026537D01*
X0123329Y0026619D01*
X0123351Y0026700D01*
X0123376Y0026779D01*
X0123405Y0026858D01*
X0123438Y0026935D01*
X0123474Y0027010D01*
X0123514Y0027084D01*
X0123557Y0027156D01*
X0123604Y0027225D01*
X0123654Y0027292D01*
X0123707Y0027357D01*
X0123763Y0027419D01*
X0123821Y0027479D01*
X0123883Y0027536D01*
X0123947Y0027589D01*
X0124014Y0027640D01*
X0124083Y0027687D01*
X0124154Y0027732D01*
X0124227Y0027772D01*
X0124302Y0027809D01*
X0124379Y0027843D01*
X0124457Y0027873D01*
X0124536Y0027899D01*
X0124617Y0027922D01*
X0124699Y0027940D01*
X0124781Y0027955D01*
X0124864Y0027966D01*
X0124947Y0027973D01*
X0125031Y0027976D01*
X0125115Y0027975D01*
X0125198Y0027970D01*
X0125282Y0027961D01*
X0125364Y0027948D01*
X0125446Y0027932D01*
X0125527Y0027911D01*
X0125608Y0027887D01*
X0125686Y0027859D01*
X0125764Y0027827D01*
X0125840Y0027791D01*
X0125914Y0027752D01*
X0125986Y0027710D01*
X0126056Y0027664D01*
X0126124Y0027615D01*
X0126189Y0027563D01*
X0126252Y0027508D01*
X0126312Y0027450D01*
X0126370Y0027389D01*
X0126424Y0027325D01*
X0126476Y0027259D01*
X0126524Y0027191D01*
X0126569Y0027120D01*
X0126610Y0027047D01*
X0126649Y0026973D01*
X0126683Y0026897D01*
X0126714Y0026819D01*
X0126741Y0026740D01*
X0126765Y0026659D01*
X0126784Y0026578D01*
X0126800Y0026496D01*
X0126812Y0026413D01*
X0126820Y0026329D01*
X0126824Y0026246D01*
X0126824Y0026162D01*
X0126820Y0026079D01*
X0126812Y0025995D01*
X0126800Y0025912D01*
X0126784Y0025830D01*
X0126765Y0025749D01*
X0126741Y0025668D01*
X0126714Y0025589D01*
X0126683Y0025511D01*
X0126649Y0025435D01*
X0126610Y0025361D01*
X0126569Y0025288D01*
X0126524Y0025217D01*
X0126476Y0025149D01*
X0126424Y0025083D01*
X0126370Y0025019D01*
X0126312Y0024958D01*
X0126252Y0024900D01*
X0126189Y0024845D01*
X0126124Y0024793D01*
X0126056Y0024744D01*
X0125986Y0024698D01*
X0125914Y0024656D01*
X0125840Y0024617D01*
X0125764Y0024581D01*
X0125686Y0024549D01*
X0125608Y0024521D01*
X0125527Y0024497D01*
X0125446Y0024476D01*
X0125364Y0024460D01*
X0125282Y0024447D01*
X0125198Y0024438D01*
X0125115Y0024433D01*
X0125031Y0024432D01*
X0124947Y0024435D01*
X0124864Y0024442D01*
X0124781Y0024453D01*
X0124699Y0024468D01*
X0124617Y0024486D01*
X0124536Y0024509D01*
X0124457Y0024535D01*
X0124379Y0024565D01*
X0124302Y0024599D01*
X0124227Y0024636D01*
X0124154Y0024676D01*
X0124083Y0024721D01*
X0124014Y0024768D01*
X0123947Y0024819D01*
X0123883Y0024872D01*
X0123821Y0024929D01*
X0123763Y0024989D01*
X0123707Y0025051D01*
X0123654Y0025116D01*
X0123604Y0025183D01*
X0123557Y0025252D01*
X0123514Y0025324D01*
X0123474Y0025398D01*
X0123438Y0025473D01*
X0123405Y0025550D01*
X0123376Y0025629D01*
X0123351Y0025708D01*
X0123329Y0025789D01*
X0123312Y0025871D01*
X0123298Y0025954D01*
X0123288Y0026037D01*
X0123282Y0026120D01*
X0123280Y0026204D01*
X0137060Y0026204D02*
X0137062Y0026288D01*
X0137068Y0026371D01*
X0137078Y0026454D01*
X0137092Y0026537D01*
X0137109Y0026619D01*
X0137131Y0026700D01*
X0137156Y0026779D01*
X0137185Y0026858D01*
X0137218Y0026935D01*
X0137254Y0027010D01*
X0137294Y0027084D01*
X0137337Y0027156D01*
X0137384Y0027225D01*
X0137434Y0027292D01*
X0137487Y0027357D01*
X0137543Y0027419D01*
X0137601Y0027479D01*
X0137663Y0027536D01*
X0137727Y0027589D01*
X0137794Y0027640D01*
X0137863Y0027687D01*
X0137934Y0027732D01*
X0138007Y0027772D01*
X0138082Y0027809D01*
X0138159Y0027843D01*
X0138237Y0027873D01*
X0138316Y0027899D01*
X0138397Y0027922D01*
X0138479Y0027940D01*
X0138561Y0027955D01*
X0138644Y0027966D01*
X0138727Y0027973D01*
X0138811Y0027976D01*
X0138895Y0027975D01*
X0138978Y0027970D01*
X0139062Y0027961D01*
X0139144Y0027948D01*
X0139226Y0027932D01*
X0139307Y0027911D01*
X0139388Y0027887D01*
X0139466Y0027859D01*
X0139544Y0027827D01*
X0139620Y0027791D01*
X0139694Y0027752D01*
X0139766Y0027710D01*
X0139836Y0027664D01*
X0139904Y0027615D01*
X0139969Y0027563D01*
X0140032Y0027508D01*
X0140092Y0027450D01*
X0140150Y0027389D01*
X0140204Y0027325D01*
X0140256Y0027259D01*
X0140304Y0027191D01*
X0140349Y0027120D01*
X0140390Y0027047D01*
X0140429Y0026973D01*
X0140463Y0026897D01*
X0140494Y0026819D01*
X0140521Y0026740D01*
X0140545Y0026659D01*
X0140564Y0026578D01*
X0140580Y0026496D01*
X0140592Y0026413D01*
X0140600Y0026329D01*
X0140604Y0026246D01*
X0140604Y0026162D01*
X0140600Y0026079D01*
X0140592Y0025995D01*
X0140580Y0025912D01*
X0140564Y0025830D01*
X0140545Y0025749D01*
X0140521Y0025668D01*
X0140494Y0025589D01*
X0140463Y0025511D01*
X0140429Y0025435D01*
X0140390Y0025361D01*
X0140349Y0025288D01*
X0140304Y0025217D01*
X0140256Y0025149D01*
X0140204Y0025083D01*
X0140150Y0025019D01*
X0140092Y0024958D01*
X0140032Y0024900D01*
X0139969Y0024845D01*
X0139904Y0024793D01*
X0139836Y0024744D01*
X0139766Y0024698D01*
X0139694Y0024656D01*
X0139620Y0024617D01*
X0139544Y0024581D01*
X0139466Y0024549D01*
X0139388Y0024521D01*
X0139307Y0024497D01*
X0139226Y0024476D01*
X0139144Y0024460D01*
X0139062Y0024447D01*
X0138978Y0024438D01*
X0138895Y0024433D01*
X0138811Y0024432D01*
X0138727Y0024435D01*
X0138644Y0024442D01*
X0138561Y0024453D01*
X0138479Y0024468D01*
X0138397Y0024486D01*
X0138316Y0024509D01*
X0138237Y0024535D01*
X0138159Y0024565D01*
X0138082Y0024599D01*
X0138007Y0024636D01*
X0137934Y0024676D01*
X0137863Y0024721D01*
X0137794Y0024768D01*
X0137727Y0024819D01*
X0137663Y0024872D01*
X0137601Y0024929D01*
X0137543Y0024989D01*
X0137487Y0025051D01*
X0137434Y0025116D01*
X0137384Y0025183D01*
X0137337Y0025252D01*
X0137294Y0025324D01*
X0137254Y0025398D01*
X0137218Y0025473D01*
X0137185Y0025550D01*
X0137156Y0025629D01*
X0137131Y0025708D01*
X0137109Y0025789D01*
X0137092Y0025871D01*
X0137078Y0025954D01*
X0137068Y0026037D01*
X0137062Y0026120D01*
X0137060Y0026204D01*
X0085638Y0155732D02*
X0085640Y0155890D01*
X0085646Y0156048D01*
X0085656Y0156206D01*
X0085670Y0156364D01*
X0085688Y0156521D01*
X0085709Y0156678D01*
X0085735Y0156834D01*
X0085765Y0156990D01*
X0085798Y0157145D01*
X0085836Y0157298D01*
X0085877Y0157451D01*
X0085922Y0157603D01*
X0085971Y0157754D01*
X0086024Y0157903D01*
X0086080Y0158051D01*
X0086140Y0158197D01*
X0086204Y0158342D01*
X0086272Y0158485D01*
X0086343Y0158627D01*
X0086417Y0158767D01*
X0086495Y0158904D01*
X0086577Y0159040D01*
X0086661Y0159174D01*
X0086750Y0159305D01*
X0086841Y0159434D01*
X0086936Y0159561D01*
X0087033Y0159686D01*
X0087134Y0159808D01*
X0087238Y0159927D01*
X0087345Y0160044D01*
X0087455Y0160158D01*
X0087568Y0160269D01*
X0087683Y0160378D01*
X0087801Y0160483D01*
X0087922Y0160585D01*
X0088045Y0160685D01*
X0088171Y0160781D01*
X0088299Y0160874D01*
X0088429Y0160964D01*
X0088562Y0161050D01*
X0088697Y0161134D01*
X0088833Y0161213D01*
X0088972Y0161290D01*
X0089113Y0161362D01*
X0089255Y0161432D01*
X0089399Y0161497D01*
X0089545Y0161559D01*
X0089692Y0161617D01*
X0089841Y0161672D01*
X0089991Y0161723D01*
X0090142Y0161770D01*
X0090294Y0161813D01*
X0090447Y0161852D01*
X0090602Y0161888D01*
X0090757Y0161919D01*
X0090913Y0161947D01*
X0091069Y0161971D01*
X0091226Y0161991D01*
X0091384Y0162007D01*
X0091541Y0162019D01*
X0091700Y0162027D01*
X0091858Y0162031D01*
X0092016Y0162031D01*
X0092174Y0162027D01*
X0092333Y0162019D01*
X0092490Y0162007D01*
X0092648Y0161991D01*
X0092805Y0161971D01*
X0092961Y0161947D01*
X0093117Y0161919D01*
X0093272Y0161888D01*
X0093427Y0161852D01*
X0093580Y0161813D01*
X0093732Y0161770D01*
X0093883Y0161723D01*
X0094033Y0161672D01*
X0094182Y0161617D01*
X0094329Y0161559D01*
X0094475Y0161497D01*
X0094619Y0161432D01*
X0094761Y0161362D01*
X0094902Y0161290D01*
X0095041Y0161213D01*
X0095177Y0161134D01*
X0095312Y0161050D01*
X0095445Y0160964D01*
X0095575Y0160874D01*
X0095703Y0160781D01*
X0095829Y0160685D01*
X0095952Y0160585D01*
X0096073Y0160483D01*
X0096191Y0160378D01*
X0096306Y0160269D01*
X0096419Y0160158D01*
X0096529Y0160044D01*
X0096636Y0159927D01*
X0096740Y0159808D01*
X0096841Y0159686D01*
X0096938Y0159561D01*
X0097033Y0159434D01*
X0097124Y0159305D01*
X0097213Y0159174D01*
X0097297Y0159040D01*
X0097379Y0158904D01*
X0097457Y0158767D01*
X0097531Y0158627D01*
X0097602Y0158485D01*
X0097670Y0158342D01*
X0097734Y0158197D01*
X0097794Y0158051D01*
X0097850Y0157903D01*
X0097903Y0157754D01*
X0097952Y0157603D01*
X0097997Y0157451D01*
X0098038Y0157298D01*
X0098076Y0157145D01*
X0098109Y0156990D01*
X0098139Y0156834D01*
X0098165Y0156678D01*
X0098186Y0156521D01*
X0098204Y0156364D01*
X0098218Y0156206D01*
X0098228Y0156048D01*
X0098234Y0155890D01*
X0098236Y0155732D01*
X0098234Y0155574D01*
X0098228Y0155416D01*
X0098218Y0155258D01*
X0098204Y0155100D01*
X0098186Y0154943D01*
X0098165Y0154786D01*
X0098139Y0154630D01*
X0098109Y0154474D01*
X0098076Y0154319D01*
X0098038Y0154166D01*
X0097997Y0154013D01*
X0097952Y0153861D01*
X0097903Y0153710D01*
X0097850Y0153561D01*
X0097794Y0153413D01*
X0097734Y0153267D01*
X0097670Y0153122D01*
X0097602Y0152979D01*
X0097531Y0152837D01*
X0097457Y0152697D01*
X0097379Y0152560D01*
X0097297Y0152424D01*
X0097213Y0152290D01*
X0097124Y0152159D01*
X0097033Y0152030D01*
X0096938Y0151903D01*
X0096841Y0151778D01*
X0096740Y0151656D01*
X0096636Y0151537D01*
X0096529Y0151420D01*
X0096419Y0151306D01*
X0096306Y0151195D01*
X0096191Y0151086D01*
X0096073Y0150981D01*
X0095952Y0150879D01*
X0095829Y0150779D01*
X0095703Y0150683D01*
X0095575Y0150590D01*
X0095445Y0150500D01*
X0095312Y0150414D01*
X0095177Y0150330D01*
X0095041Y0150251D01*
X0094902Y0150174D01*
X0094761Y0150102D01*
X0094619Y0150032D01*
X0094475Y0149967D01*
X0094329Y0149905D01*
X0094182Y0149847D01*
X0094033Y0149792D01*
X0093883Y0149741D01*
X0093732Y0149694D01*
X0093580Y0149651D01*
X0093427Y0149612D01*
X0093272Y0149576D01*
X0093117Y0149545D01*
X0092961Y0149517D01*
X0092805Y0149493D01*
X0092648Y0149473D01*
X0092490Y0149457D01*
X0092333Y0149445D01*
X0092174Y0149437D01*
X0092016Y0149433D01*
X0091858Y0149433D01*
X0091700Y0149437D01*
X0091541Y0149445D01*
X0091384Y0149457D01*
X0091226Y0149473D01*
X0091069Y0149493D01*
X0090913Y0149517D01*
X0090757Y0149545D01*
X0090602Y0149576D01*
X0090447Y0149612D01*
X0090294Y0149651D01*
X0090142Y0149694D01*
X0089991Y0149741D01*
X0089841Y0149792D01*
X0089692Y0149847D01*
X0089545Y0149905D01*
X0089399Y0149967D01*
X0089255Y0150032D01*
X0089113Y0150102D01*
X0088972Y0150174D01*
X0088833Y0150251D01*
X0088697Y0150330D01*
X0088562Y0150414D01*
X0088429Y0150500D01*
X0088299Y0150590D01*
X0088171Y0150683D01*
X0088045Y0150779D01*
X0087922Y0150879D01*
X0087801Y0150981D01*
X0087683Y0151086D01*
X0087568Y0151195D01*
X0087455Y0151306D01*
X0087345Y0151420D01*
X0087238Y0151537D01*
X0087134Y0151656D01*
X0087033Y0151778D01*
X0086936Y0151903D01*
X0086841Y0152030D01*
X0086750Y0152159D01*
X0086661Y0152290D01*
X0086577Y0152424D01*
X0086495Y0152560D01*
X0086417Y0152697D01*
X0086343Y0152837D01*
X0086272Y0152979D01*
X0086204Y0153122D01*
X0086140Y0153267D01*
X0086080Y0153413D01*
X0086024Y0153561D01*
X0085971Y0153710D01*
X0085922Y0153861D01*
X0085877Y0154013D01*
X0085836Y0154166D01*
X0085798Y0154319D01*
X0085765Y0154474D01*
X0085735Y0154630D01*
X0085709Y0154786D01*
X0085688Y0154943D01*
X0085670Y0155100D01*
X0085656Y0155258D01*
X0085646Y0155416D01*
X0085640Y0155574D01*
X0085638Y0155732D01*
D11*
X0106937Y0113472D03*
X0106937Y0105992D03*
X0106937Y0073472D03*
X0106937Y0065992D03*
X0121937Y0063472D03*
X0121937Y0055992D03*
X0136937Y0055992D03*
X0136937Y0063472D03*
D12*
X0135677Y0124732D03*
X0128197Y0124732D03*
X0115677Y0124732D03*
X0108197Y0124732D03*
D13*
X0106937Y0146932D02*
X0106937Y0152532D01*
X0116937Y0152532D02*
X0116937Y0146932D01*
X0126937Y0146932D02*
X0126937Y0152532D01*
X0136937Y0152532D02*
X0136937Y0146932D01*
X0079737Y0144732D02*
X0074137Y0144732D01*
X0074137Y0134732D02*
X0079737Y0134732D01*
X0066937Y0161932D02*
X0066937Y0167532D01*
X0056937Y0167532D02*
X0056937Y0161932D01*
X0144137Y0089732D02*
X0149737Y0089732D01*
X0149737Y0079732D02*
X0144137Y0079732D01*
X0151937Y0057532D02*
X0151937Y0051932D01*
X0161937Y0051932D02*
X0161937Y0057532D01*
X0079737Y0044732D02*
X0074137Y0044732D01*
X0074137Y0034732D02*
X0079737Y0034732D01*
D14*
X0118098Y0081241D03*
X0120657Y0081241D03*
X0123217Y0081241D03*
X0125776Y0081241D03*
X0125776Y0098223D03*
X0123217Y0098223D03*
X0120657Y0098223D03*
X0118098Y0098223D03*
D15*
X0132937Y0110732D03*
X0152937Y0110732D03*
X0063413Y0055211D03*
X0063413Y0035211D03*
X0074834Y0021013D03*
X0044834Y0021013D03*
D16*
X0026937Y0037232D03*
X0026937Y0142232D03*
D17*
X0026937Y0110992D03*
X0026937Y0068472D03*
D18*
X0115406Y0034078D03*
X0115406Y0013211D03*
X0148477Y0013211D03*
X0148477Y0034078D03*
D19*
X0138241Y0035062D03*
X0135092Y0035062D03*
X0131942Y0035062D03*
X0128792Y0035062D03*
X0125643Y0035062D03*
D20*
X0066137Y0075952D02*
X0057737Y0075952D01*
X0057737Y0089732D02*
X0066137Y0089732D01*
X0066137Y0103511D02*
X0057737Y0103511D01*
D21*
X0106937Y0095232D03*
X0106937Y0089232D03*
X0146937Y0087732D03*
X0146937Y0081732D03*
X0076937Y0042732D03*
X0076937Y0036732D03*
D22*
X0174337Y0064732D02*
X0179537Y0064732D01*
X0179537Y0074732D02*
X0174337Y0074732D01*
X0174337Y0084732D02*
X0179537Y0084732D01*
X0179537Y0094732D02*
X0174337Y0094732D01*
X0174337Y0104732D02*
X0179537Y0104732D01*
X0179537Y0114732D02*
X0174337Y0114732D01*
D23*
X0159937Y0054732D03*
X0153937Y0054732D03*
D24*
X0105239Y0046952D03*
X0091937Y0074532D03*
X0091937Y0104932D03*
D25*
X0091937Y0114732D03*
X0091937Y0064732D03*
X0095439Y0046952D03*
D26*
X0105239Y0046952D02*
X0105362Y0047211D01*
X0114937Y0061732D01*
X0115049Y0061841D01*
X0115163Y0061946D01*
X0115279Y0062050D01*
X0115398Y0062150D01*
X0115520Y0062247D01*
X0115644Y0062341D01*
X0115770Y0062432D01*
X0115898Y0062521D01*
X0116028Y0062605D01*
X0116161Y0062687D01*
X0116295Y0062766D01*
X0116432Y0062841D01*
X0116570Y0062912D01*
X0116709Y0062981D01*
X0116851Y0063046D01*
X0116994Y0063107D01*
X0117138Y0063165D01*
X0117284Y0063219D01*
X0117431Y0063270D01*
X0117580Y0063317D01*
X0117729Y0063361D01*
X0117880Y0063400D01*
X0118031Y0063436D01*
X0118183Y0063469D01*
X0118336Y0063497D01*
X0118490Y0063522D01*
X0118644Y0063543D01*
X0118799Y0063561D01*
X0118954Y0063574D01*
X0119109Y0063584D01*
X0119264Y0063590D01*
X0119420Y0063592D01*
X0119576Y0063590D01*
X0119731Y0063585D01*
X0119887Y0063575D01*
X0120042Y0063562D01*
X0120196Y0063545D01*
X0120351Y0063525D01*
X0120504Y0063500D01*
X0120657Y0063472D01*
X0120657Y0081241D01*
X0120657Y0085511D01*
X0116937Y0089232D01*
X0106937Y0089232D01*
X0106937Y0095232D02*
X0106937Y0104732D01*
X0091937Y0104732D01*
X0091937Y0104932D01*
X0091937Y0104732D02*
X0066937Y0104732D01*
X0061937Y0103511D01*
X0061937Y0104732D01*
X0033197Y0104732D01*
X0026937Y0110992D01*
X0005437Y0110567D02*
X0048937Y0110567D01*
X0048937Y0111565D02*
X0005437Y0111565D01*
X0005437Y0112564D02*
X0048937Y0112564D01*
X0048937Y0113562D02*
X0005437Y0113562D01*
X0005437Y0114561D02*
X0048937Y0114561D01*
X0048937Y0115559D02*
X0005437Y0115559D01*
X0005437Y0116558D02*
X0048937Y0116558D01*
X0048937Y0117556D02*
X0005437Y0117556D01*
X0005437Y0118555D02*
X0048937Y0118555D01*
X0048937Y0119553D02*
X0005437Y0119553D01*
X0005437Y0120552D02*
X0048937Y0120552D01*
X0048937Y0121550D02*
X0005437Y0121550D01*
X0005437Y0122549D02*
X0048937Y0122549D01*
X0048937Y0123547D02*
X0005437Y0123547D01*
X0005437Y0124546D02*
X0048937Y0124546D01*
X0048937Y0125544D02*
X0005437Y0125544D01*
X0005437Y0126543D02*
X0048937Y0126543D01*
X0048937Y0127541D02*
X0005437Y0127541D01*
X0005437Y0128540D02*
X0048937Y0128540D01*
X0048937Y0129538D02*
X0005437Y0129538D01*
X0005437Y0130537D02*
X0048937Y0130537D01*
X0048937Y0131535D02*
X0005437Y0131535D01*
X0005437Y0132534D02*
X0048937Y0132534D01*
X0048937Y0133532D02*
X0005437Y0133532D01*
X0005437Y0134531D02*
X0048937Y0134531D01*
X0048937Y0135529D02*
X0005437Y0135529D01*
X0005437Y0136528D02*
X0048937Y0136528D01*
X0048937Y0137526D02*
X0005437Y0137526D01*
X0005437Y0138525D02*
X0048937Y0138525D01*
X0048937Y0139523D02*
X0005437Y0139523D01*
X0005437Y0140522D02*
X0048937Y0140522D01*
X0048937Y0141520D02*
X0005437Y0141520D01*
X0005437Y0142519D02*
X0048937Y0142519D01*
X0048937Y0143517D02*
X0005437Y0143517D01*
X0005437Y0144516D02*
X0048937Y0144516D01*
X0048937Y0145514D02*
X0005437Y0145514D01*
X0005437Y0146513D02*
X0048937Y0146513D01*
X0048937Y0147512D02*
X0005437Y0147512D01*
X0005437Y0148510D02*
X0048937Y0148510D01*
X0048937Y0149509D02*
X0005437Y0149509D01*
X0005437Y0150507D02*
X0048937Y0150507D01*
X0048937Y0151506D02*
X0005437Y0151506D01*
X0005437Y0152504D02*
X0048937Y0152504D01*
X0048937Y0153503D02*
X0005437Y0153503D01*
X0005437Y0154501D02*
X0048937Y0154501D01*
X0048937Y0155500D02*
X0005437Y0155500D01*
X0005437Y0156498D02*
X0048937Y0156498D01*
X0048937Y0157497D02*
X0005437Y0157497D01*
X0005437Y0158495D02*
X0048937Y0158495D01*
X0048937Y0159494D02*
X0005437Y0159494D01*
X0005437Y0160492D02*
X0048937Y0160492D01*
X0048937Y0161491D02*
X0005437Y0161491D01*
X0005437Y0162489D02*
X0048937Y0162489D01*
X0048937Y0163488D02*
X0005437Y0163488D01*
X0005437Y0164486D02*
X0048937Y0164486D01*
X0048937Y0165485D02*
X0005437Y0165485D01*
X0005437Y0166483D02*
X0048937Y0166483D01*
X0048937Y0167482D02*
X0005437Y0167482D01*
X0005437Y0168480D02*
X0048937Y0168480D01*
X0048937Y0169479D02*
X0005437Y0169479D01*
X0005437Y0170477D02*
X0048937Y0170477D01*
X0048937Y0171192D02*
X0048937Y0094732D01*
X0005437Y0094732D01*
X0005437Y0171192D01*
X0048937Y0171192D01*
X0116937Y0149732D02*
X0120657Y0144732D01*
X0120657Y0124732D01*
X0115677Y0124732D01*
X0120657Y0124732D02*
X0120657Y0098223D01*
X0118098Y0098223D02*
X0118098Y0098570D01*
X0111937Y0104732D01*
X0106937Y0104732D01*
X0106937Y0105992D01*
X0123217Y0098223D02*
X0123217Y0092232D01*
X0125717Y0089732D01*
X0146937Y0089732D01*
X0146937Y0087732D01*
X0146937Y0081732D02*
X0146937Y0079732D01*
X0156937Y0079732D01*
X0157077Y0079730D01*
X0157217Y0079724D01*
X0157357Y0079714D01*
X0157497Y0079701D01*
X0157636Y0079683D01*
X0157775Y0079661D01*
X0157912Y0079636D01*
X0158050Y0079607D01*
X0158186Y0079574D01*
X0158321Y0079537D01*
X0158455Y0079496D01*
X0158588Y0079451D01*
X0158720Y0079403D01*
X0158850Y0079351D01*
X0158979Y0079296D01*
X0159106Y0079237D01*
X0159232Y0079174D01*
X0159356Y0079108D01*
X0159477Y0079039D01*
X0159597Y0078966D01*
X0159715Y0078889D01*
X0159830Y0078810D01*
X0159944Y0078727D01*
X0160054Y0078641D01*
X0160163Y0078552D01*
X0160269Y0078460D01*
X0160372Y0078365D01*
X0160473Y0078268D01*
X0160570Y0078167D01*
X0160665Y0078064D01*
X0160757Y0077958D01*
X0160846Y0077849D01*
X0160932Y0077739D01*
X0161015Y0077625D01*
X0161094Y0077510D01*
X0161171Y0077392D01*
X0161244Y0077272D01*
X0161313Y0077151D01*
X0161379Y0077027D01*
X0161442Y0076901D01*
X0161501Y0076774D01*
X0161556Y0076645D01*
X0161608Y0076515D01*
X0161656Y0076383D01*
X0161701Y0076250D01*
X0161742Y0076116D01*
X0161779Y0075981D01*
X0161812Y0075845D01*
X0161841Y0075707D01*
X0161866Y0075570D01*
X0161888Y0075431D01*
X0161906Y0075292D01*
X0161919Y0075152D01*
X0161929Y0075012D01*
X0161935Y0074872D01*
X0161937Y0074732D01*
X0161937Y0054732D01*
X0159937Y0054732D01*
X0161937Y0054732D02*
X0161937Y0050382D01*
X0161949Y0050243D01*
X0161957Y0050103D01*
X0161961Y0049963D01*
X0161962Y0049823D01*
X0161958Y0049683D01*
X0161951Y0049543D01*
X0161939Y0049404D01*
X0161924Y0049265D01*
X0161905Y0049126D01*
X0161883Y0048988D01*
X0161856Y0048850D01*
X0161826Y0048714D01*
X0161792Y0048578D01*
X0161754Y0048443D01*
X0161712Y0048310D01*
X0161667Y0048177D01*
X0161619Y0048046D01*
X0161566Y0047916D01*
X0161510Y0047788D01*
X0161451Y0047661D01*
X0161388Y0047536D01*
X0161321Y0047413D01*
X0161252Y0047292D01*
X0161179Y0047172D01*
X0161102Y0047055D01*
X0161023Y0046940D01*
X0160940Y0046827D01*
X0160855Y0046716D01*
X0160766Y0046608D01*
X0160674Y0046502D01*
X0160580Y0046399D01*
X0160482Y0046298D01*
X0160382Y0046201D01*
X0160279Y0046106D01*
X0160174Y0046013D01*
X0160066Y0045924D01*
X0159956Y0045838D01*
X0159843Y0045755D01*
X0159728Y0045675D01*
X0159611Y0045598D01*
X0159492Y0045524D01*
X0159371Y0045454D01*
X0159248Y0045387D01*
X0159124Y0045324D01*
X0158997Y0045264D01*
X0158869Y0045207D01*
X0158739Y0045154D01*
X0158608Y0045105D01*
X0158476Y0045059D01*
X0158343Y0045017D01*
X0158208Y0044979D01*
X0158073Y0044944D01*
X0157936Y0044913D01*
X0157799Y0044886D01*
X0157661Y0044863D01*
X0157522Y0044843D01*
X0157383Y0044828D01*
X0156937Y0044732D01*
X0129937Y0044732D01*
X0129807Y0044730D01*
X0129678Y0044724D01*
X0129548Y0044714D01*
X0129419Y0044701D01*
X0129291Y0044683D01*
X0129163Y0044662D01*
X0129036Y0044636D01*
X0128909Y0044607D01*
X0128784Y0044574D01*
X0128660Y0044538D01*
X0128536Y0044497D01*
X0128414Y0044453D01*
X0128294Y0044405D01*
X0128175Y0044354D01*
X0128057Y0044299D01*
X0127941Y0044240D01*
X0127828Y0044178D01*
X0127716Y0044113D01*
X0127606Y0044044D01*
X0127498Y0043972D01*
X0127392Y0043897D01*
X0127289Y0043818D01*
X0127188Y0043737D01*
X0127090Y0043652D01*
X0126994Y0043565D01*
X0126901Y0043474D01*
X0126810Y0043381D01*
X0126723Y0043285D01*
X0126638Y0043187D01*
X0126557Y0043086D01*
X0126478Y0042983D01*
X0126403Y0042877D01*
X0126331Y0042769D01*
X0126262Y0042659D01*
X0126197Y0042547D01*
X0126135Y0042434D01*
X0126076Y0042318D01*
X0126021Y0042200D01*
X0125970Y0042081D01*
X0125922Y0041961D01*
X0125878Y0041839D01*
X0125837Y0041715D01*
X0125801Y0041591D01*
X0125768Y0041466D01*
X0125739Y0041339D01*
X0125713Y0041212D01*
X0125692Y0041084D01*
X0125674Y0040956D01*
X0125661Y0040827D01*
X0125651Y0040697D01*
X0125645Y0040568D01*
X0125643Y0040438D01*
X0125643Y0035062D01*
X0151937Y0054732D02*
X0151995Y0054884D01*
X0152050Y0055037D01*
X0152102Y0055191D01*
X0152149Y0055346D01*
X0152193Y0055502D01*
X0152233Y0055660D01*
X0152269Y0055818D01*
X0152301Y0055978D01*
X0152329Y0056137D01*
X0152354Y0056298D01*
X0152374Y0056459D01*
X0152391Y0056621D01*
X0152404Y0056783D01*
X0152413Y0056945D01*
X0152418Y0057107D01*
X0152419Y0057270D01*
X0152416Y0057432D01*
X0152409Y0057594D01*
X0152399Y0057756D01*
X0152384Y0057918D01*
X0152365Y0058080D01*
X0152343Y0058241D01*
X0152317Y0058401D01*
X0152286Y0058560D01*
X0152252Y0058719D01*
X0152215Y0058877D01*
X0152173Y0059034D01*
X0152127Y0059190D01*
X0152078Y0059345D01*
X0152025Y0059499D01*
X0151969Y0059651D01*
X0151908Y0059802D01*
X0151845Y0059951D01*
X0151777Y0060099D01*
X0151706Y0060245D01*
X0151631Y0060389D01*
X0151553Y0060532D01*
X0151472Y0060672D01*
X0151387Y0060811D01*
X0151299Y0060947D01*
X0151208Y0061081D01*
X0151113Y0061214D01*
X0151015Y0061343D01*
X0150914Y0061471D01*
X0150810Y0061595D01*
X0150703Y0061718D01*
X0150594Y0061837D01*
X0150481Y0061954D01*
X0150365Y0062069D01*
X0150247Y0062180D01*
X0150126Y0062288D01*
X0150003Y0062394D01*
X0149877Y0062496D01*
X0149748Y0062596D01*
X0149618Y0062692D01*
X0149484Y0062785D01*
X0149349Y0062875D01*
X0149212Y0062962D01*
X0149072Y0063045D01*
X0148931Y0063125D01*
X0148787Y0063201D01*
X0148642Y0063274D01*
X0148495Y0063344D01*
X0148347Y0063410D01*
X0148197Y0063472D01*
X0136937Y0063472D01*
X0121937Y0063472D01*
X0120657Y0063472D01*
X0111589Y0074732D02*
X0106937Y0074732D01*
X0091937Y0074732D01*
X0091937Y0074532D01*
X0091937Y0074732D02*
X0068157Y0074732D01*
X0068045Y0074659D01*
X0067932Y0074590D01*
X0067817Y0074525D01*
X0067699Y0074462D01*
X0067580Y0074404D01*
X0067459Y0074348D01*
X0067337Y0074297D01*
X0067213Y0074249D01*
X0067088Y0074205D01*
X0066961Y0074164D01*
X0066834Y0074127D01*
X0066705Y0074094D01*
X0066575Y0074065D01*
X0066445Y0074040D01*
X0066314Y0074018D01*
X0066182Y0074001D01*
X0066050Y0073987D01*
X0065918Y0073978D01*
X0065785Y0073972D01*
X0065652Y0073970D01*
X0065519Y0073972D01*
X0065387Y0073978D01*
X0065254Y0073988D01*
X0065122Y0074002D01*
X0064990Y0074020D01*
X0064859Y0074042D01*
X0064729Y0074067D01*
X0064599Y0074097D01*
X0064471Y0074130D01*
X0064343Y0074167D01*
X0064217Y0074208D01*
X0064092Y0074252D01*
X0063968Y0074300D01*
X0063846Y0074352D01*
X0063725Y0074408D01*
X0063606Y0074467D01*
X0063489Y0074529D01*
X0063374Y0074595D01*
X0063260Y0074665D01*
X0063149Y0074737D01*
X0063040Y0074813D01*
X0062933Y0074892D01*
X0062829Y0074975D01*
X0062727Y0075060D01*
X0062628Y0075148D01*
X0062532Y0075240D01*
X0062438Y0075334D01*
X0062347Y0075430D01*
X0062259Y0075530D01*
X0062174Y0075632D01*
X0062091Y0075736D01*
X0062013Y0075843D01*
X0061937Y0075952D01*
X0061937Y0074732D01*
X0026937Y0074732D01*
X0005437Y0074620D02*
X0048937Y0074620D01*
X0048937Y0073622D02*
X0005437Y0073622D01*
X0005437Y0072623D02*
X0048937Y0072623D01*
X0048937Y0071625D02*
X0005437Y0071625D01*
X0005437Y0070626D02*
X0048937Y0070626D01*
X0048937Y0069628D02*
X0005437Y0069628D01*
X0005437Y0068629D02*
X0048937Y0068629D01*
X0048937Y0067631D02*
X0005437Y0067631D01*
X0005437Y0066632D02*
X0048937Y0066632D01*
X0048937Y0065634D02*
X0005437Y0065634D01*
X0005437Y0064635D02*
X0048937Y0064635D01*
X0048937Y0063637D02*
X0005437Y0063637D01*
X0005437Y0062638D02*
X0048937Y0062638D01*
X0048937Y0061640D02*
X0005437Y0061640D01*
X0005437Y0060641D02*
X0048937Y0060641D01*
X0048937Y0059643D02*
X0005437Y0059643D01*
X0005437Y0058644D02*
X0048937Y0058644D01*
X0048937Y0057645D02*
X0005437Y0057645D01*
X0005437Y0056647D02*
X0048937Y0056647D01*
X0048937Y0055648D02*
X0005437Y0055648D01*
X0005437Y0054650D02*
X0048937Y0054650D01*
X0048937Y0053651D02*
X0005437Y0053651D01*
X0005437Y0052653D02*
X0048937Y0052653D01*
X0048937Y0051654D02*
X0005437Y0051654D01*
X0005437Y0050656D02*
X0048937Y0050656D01*
X0048937Y0049657D02*
X0005437Y0049657D01*
X0005437Y0048659D02*
X0048937Y0048659D01*
X0048937Y0047660D02*
X0005437Y0047660D01*
X0005437Y0046662D02*
X0048937Y0046662D01*
X0048937Y0045663D02*
X0005437Y0045663D01*
X0005437Y0044665D02*
X0048937Y0044665D01*
X0048937Y0043666D02*
X0005437Y0043666D01*
X0005437Y0042668D02*
X0048937Y0042668D01*
X0048937Y0041669D02*
X0005437Y0041669D01*
X0005437Y0040671D02*
X0048937Y0040671D01*
X0048937Y0039672D02*
X0005437Y0039672D01*
X0005437Y0038674D02*
X0048937Y0038674D01*
X0048937Y0037675D02*
X0005437Y0037675D01*
X0005437Y0036677D02*
X0048937Y0036677D01*
X0048937Y0035678D02*
X0005437Y0035678D01*
X0005437Y0034680D02*
X0048937Y0034680D01*
X0048937Y0033681D02*
X0005437Y0033681D01*
X0005437Y0032683D02*
X0048937Y0032683D01*
X0048937Y0031684D02*
X0005437Y0031684D01*
X0005437Y0030686D02*
X0048937Y0030686D01*
X0048937Y0029687D02*
X0005437Y0029687D01*
X0005437Y0028689D02*
X0048937Y0028689D01*
X0048937Y0027690D02*
X0005437Y0027690D01*
X0005437Y0026692D02*
X0048937Y0026692D01*
X0048937Y0025693D02*
X0005437Y0025693D01*
X0005437Y0024695D02*
X0048937Y0024695D01*
X0048937Y0023696D02*
X0005437Y0023696D01*
X0005437Y0022698D02*
X0048937Y0022698D01*
X0048937Y0021699D02*
X0005437Y0021699D01*
X0005437Y0020701D02*
X0048937Y0020701D01*
X0048937Y0019702D02*
X0005437Y0019702D01*
X0005437Y0018704D02*
X0048937Y0018704D01*
X0048937Y0017705D02*
X0005437Y0017705D01*
X0005437Y0016707D02*
X0048937Y0016707D01*
X0048937Y0015708D02*
X0005437Y0015708D01*
X0005437Y0014710D02*
X0048937Y0014710D01*
X0048937Y0013711D02*
X0005437Y0013711D01*
X0005437Y0012712D02*
X0048937Y0012712D01*
X0048937Y0011714D02*
X0005437Y0011714D01*
X0005437Y0010715D02*
X0048937Y0010715D01*
X0048937Y0009717D02*
X0005437Y0009717D01*
X0005437Y0008718D02*
X0048937Y0008718D01*
X0048937Y0008232D02*
X0005437Y0008232D01*
X0005437Y0084732D01*
X0048937Y0084732D01*
X0048937Y0008232D01*
X0063413Y0032434D02*
X0063413Y0035211D01*
X0076937Y0035211D01*
X0076937Y0034732D01*
X0076937Y0036732D01*
X0063413Y0032434D02*
X0063416Y0032158D01*
X0063426Y0031882D01*
X0063443Y0031607D01*
X0063466Y0031332D01*
X0063496Y0031057D01*
X0063533Y0030784D01*
X0063576Y0030511D01*
X0063626Y0030240D01*
X0063682Y0029970D01*
X0063745Y0029701D01*
X0063814Y0029434D01*
X0063890Y0029168D01*
X0063972Y0028905D01*
X0064060Y0028643D01*
X0064155Y0028384D01*
X0064256Y0028127D01*
X0064363Y0027873D01*
X0064477Y0027621D01*
X0064596Y0027372D01*
X0064721Y0027126D01*
X0064852Y0026884D01*
X0064989Y0026644D01*
X0065132Y0026408D01*
X0065281Y0026175D01*
X0065435Y0025946D01*
X0065594Y0025721D01*
X0065759Y0025500D01*
X0065929Y0025282D01*
X0066105Y0025069D01*
X0066285Y0024860D01*
X0066471Y0024656D01*
X0066661Y0024456D01*
X0066856Y0024261D01*
X0067056Y0024071D01*
X0067260Y0023885D01*
X0067469Y0023705D01*
X0067682Y0023529D01*
X0067900Y0023359D01*
X0068121Y0023194D01*
X0068346Y0023035D01*
X0068575Y0022881D01*
X0068808Y0022732D01*
X0069044Y0022589D01*
X0069284Y0022452D01*
X0069526Y0022321D01*
X0069772Y0022196D01*
X0070021Y0022077D01*
X0070273Y0021963D01*
X0070527Y0021856D01*
X0070784Y0021755D01*
X0071043Y0021660D01*
X0071305Y0021572D01*
X0071568Y0021490D01*
X0071834Y0021414D01*
X0072101Y0021345D01*
X0072370Y0021282D01*
X0072640Y0021226D01*
X0072911Y0021176D01*
X0073184Y0021133D01*
X0073457Y0021096D01*
X0073732Y0021066D01*
X0074007Y0021043D01*
X0074282Y0021026D01*
X0074558Y0021016D01*
X0074834Y0021013D01*
X0076937Y0042732D02*
X0076937Y0044732D01*
X0106937Y0073472D02*
X0106937Y0074732D01*
X0111589Y0074732D02*
X0118098Y0081241D01*
X0123217Y0098223D02*
X0123217Y0124732D01*
X0128197Y0124732D01*
X0123217Y0124732D02*
X0123217Y0134732D01*
X0161937Y0134732D01*
X0162299Y0134728D01*
X0162662Y0134714D01*
X0163024Y0134693D01*
X0163385Y0134662D01*
X0163745Y0134623D01*
X0164104Y0134575D01*
X0164462Y0134518D01*
X0164819Y0134453D01*
X0165174Y0134379D01*
X0165527Y0134296D01*
X0165878Y0134205D01*
X0166226Y0134106D01*
X0166572Y0133998D01*
X0166916Y0133882D01*
X0167256Y0133757D01*
X0167593Y0133625D01*
X0167927Y0133484D01*
X0168258Y0133335D01*
X0168585Y0133178D01*
X0168908Y0133014D01*
X0169227Y0132842D01*
X0169541Y0132662D01*
X0169852Y0132474D01*
X0170157Y0132279D01*
X0170458Y0132077D01*
X0170754Y0131867D01*
X0171044Y0131651D01*
X0171330Y0131427D01*
X0171610Y0131197D01*
X0171884Y0130960D01*
X0172152Y0130716D01*
X0172415Y0130466D01*
X0172671Y0130210D01*
X0172921Y0129947D01*
X0173165Y0129679D01*
X0173402Y0129405D01*
X0173632Y0129125D01*
X0173856Y0128839D01*
X0174072Y0128549D01*
X0174282Y0128253D01*
X0174484Y0127952D01*
X0174679Y0127647D01*
X0174867Y0127336D01*
X0175047Y0127022D01*
X0175219Y0126703D01*
X0175383Y0126380D01*
X0175540Y0126053D01*
X0175689Y0125722D01*
X0175830Y0125388D01*
X0175962Y0125051D01*
X0176087Y0124711D01*
X0176203Y0124367D01*
X0176311Y0124021D01*
X0176410Y0123673D01*
X0176501Y0123322D01*
X0176584Y0122969D01*
X0176658Y0122614D01*
X0176723Y0122257D01*
X0176780Y0121899D01*
X0176828Y0121540D01*
X0176867Y0121180D01*
X0176898Y0120819D01*
X0176919Y0120457D01*
X0176933Y0120094D01*
X0176937Y0119732D01*
X0176937Y0114732D01*
X0176937Y0104732D02*
X0161937Y0104732D01*
X0161753Y0104697D01*
X0161567Y0104667D01*
X0161381Y0104642D01*
X0161195Y0104621D01*
X0161008Y0104604D01*
X0160820Y0104593D01*
X0160633Y0104586D01*
X0160445Y0104583D01*
X0160257Y0104585D01*
X0160070Y0104592D01*
X0159882Y0104603D01*
X0159695Y0104619D01*
X0159509Y0104640D01*
X0159323Y0104665D01*
X0159137Y0104694D01*
X0158953Y0104728D01*
X0158769Y0104767D01*
X0158586Y0104810D01*
X0158405Y0104858D01*
X0158224Y0104910D01*
X0158045Y0104967D01*
X0157868Y0105027D01*
X0157692Y0105093D01*
X0157517Y0105162D01*
X0157345Y0105236D01*
X0157174Y0105314D01*
X0157005Y0105396D01*
X0156838Y0105482D01*
X0156674Y0105573D01*
X0156511Y0105667D01*
X0156352Y0105765D01*
X0156194Y0105868D01*
X0156039Y0105974D01*
X0155887Y0106084D01*
X0155737Y0106197D01*
X0155591Y0106314D01*
X0155447Y0106435D01*
X0155306Y0106559D01*
X0155169Y0106687D01*
X0155034Y0106818D01*
X0154903Y0106952D01*
X0154775Y0107089D01*
X0154650Y0107230D01*
X0154529Y0107373D01*
X0154412Y0107520D01*
X0154298Y0107669D01*
X0154188Y0107821D01*
X0154082Y0107976D01*
X0153979Y0108133D01*
X0153880Y0108293D01*
X0153786Y0108455D01*
X0153695Y0108619D01*
X0153608Y0108786D01*
X0153526Y0108954D01*
X0153447Y0109125D01*
X0153373Y0109297D01*
X0153303Y0109472D01*
X0153238Y0109648D01*
X0153177Y0109825D01*
X0153120Y0110004D01*
X0153067Y0110184D01*
X0153019Y0110366D01*
X0152976Y0110548D01*
X0152937Y0110732D01*
X0132937Y0110731D02*
X0132764Y0110729D01*
X0132591Y0110723D01*
X0132418Y0110712D01*
X0132246Y0110698D01*
X0132074Y0110679D01*
X0131902Y0110656D01*
X0131731Y0110629D01*
X0131561Y0110598D01*
X0131392Y0110562D01*
X0131223Y0110523D01*
X0131056Y0110479D01*
X0130889Y0110432D01*
X0130724Y0110381D01*
X0130560Y0110325D01*
X0130398Y0110266D01*
X0130237Y0110202D01*
X0130077Y0110135D01*
X0129919Y0110064D01*
X0129763Y0109989D01*
X0129609Y0109911D01*
X0129457Y0109828D01*
X0129307Y0109743D01*
X0129159Y0109653D01*
X0129013Y0109560D01*
X0128869Y0109463D01*
X0128728Y0109363D01*
X0128589Y0109260D01*
X0128453Y0109153D01*
X0128319Y0109043D01*
X0128188Y0108930D01*
X0128060Y0108814D01*
X0127935Y0108694D01*
X0127813Y0108572D01*
X0127693Y0108447D01*
X0127577Y0108319D01*
X0127464Y0108188D01*
X0127354Y0108054D01*
X0127247Y0107918D01*
X0127144Y0107779D01*
X0127044Y0107638D01*
X0126947Y0107494D01*
X0126854Y0107348D01*
X0126764Y0107200D01*
X0126679Y0107050D01*
X0126596Y0106898D01*
X0126518Y0106744D01*
X0126443Y0106588D01*
X0126372Y0106430D01*
X0126305Y0106270D01*
X0126241Y0106109D01*
X0126182Y0105947D01*
X0126126Y0105783D01*
X0126075Y0105618D01*
X0126028Y0105451D01*
X0125984Y0105284D01*
X0125945Y0105115D01*
X0125909Y0104946D01*
X0125878Y0104776D01*
X0125851Y0104605D01*
X0125828Y0104433D01*
X0125809Y0104261D01*
X0125795Y0104089D01*
X0125784Y0103916D01*
X0125778Y0103743D01*
X0125776Y0103570D01*
X0125776Y0098223D01*
X0125776Y0098570D01*
X0161937Y0074732D02*
X0176937Y0074732D01*
X0153937Y0054732D02*
X0151937Y0054732D01*
X0123217Y0134732D02*
X0123217Y0144732D01*
X0126937Y0149732D01*
X0048937Y0109568D02*
X0005437Y0109568D01*
X0005437Y0108570D02*
X0048937Y0108570D01*
X0048937Y0107571D02*
X0005437Y0107571D01*
X0005437Y0106573D02*
X0048937Y0106573D01*
X0048937Y0105574D02*
X0005437Y0105574D01*
X0005437Y0104576D02*
X0048937Y0104576D01*
X0048937Y0103577D02*
X0005437Y0103577D01*
X0005437Y0102579D02*
X0048937Y0102579D01*
X0048937Y0101580D02*
X0005437Y0101580D01*
X0005437Y0100581D02*
X0048937Y0100581D01*
X0048937Y0099583D02*
X0005437Y0099583D01*
X0005437Y0098584D02*
X0048937Y0098584D01*
X0048937Y0097586D02*
X0005437Y0097586D01*
X0005437Y0096587D02*
X0048937Y0096587D01*
X0048937Y0095589D02*
X0005437Y0095589D01*
X0005437Y0084605D02*
X0048937Y0084605D01*
X0048937Y0083607D02*
X0005437Y0083607D01*
X0005437Y0082608D02*
X0048937Y0082608D01*
X0048937Y0081610D02*
X0005437Y0081610D01*
X0005437Y0080611D02*
X0048937Y0080611D01*
X0048937Y0079613D02*
X0005437Y0079613D01*
X0005437Y0078614D02*
X0048937Y0078614D01*
X0048937Y0077616D02*
X0005437Y0077616D01*
X0005437Y0076617D02*
X0048937Y0076617D01*
X0048937Y0075619D02*
X0005437Y0075619D01*
D27*
X0011937Y0059732D03*
X0016937Y0059732D03*
X0011937Y0054732D03*
X0021937Y0059732D03*
X0026937Y0059732D03*
X0031937Y0059732D03*
X0036937Y0059732D03*
X0041937Y0059732D03*
X0041937Y0054732D03*
X0041937Y0119732D03*
X0041937Y0124732D03*
X0036937Y0119732D03*
X0031937Y0119732D03*
X0026937Y0119732D03*
X0021937Y0119732D03*
X0016937Y0119732D03*
X0011937Y0119732D03*
X0011937Y0124732D03*
X0125776Y0075935D03*
X0125776Y0071935D03*
D28*
X0122457Y0072152D02*
X0160137Y0072152D01*
X0160137Y0072750D02*
X0122457Y0072750D01*
X0122457Y0073349D02*
X0160137Y0073349D01*
X0160137Y0073947D02*
X0122457Y0073947D01*
X0122457Y0074546D02*
X0160137Y0074546D01*
X0160137Y0074732D02*
X0160137Y0061224D01*
X0159615Y0061008D01*
X0158461Y0059854D01*
X0158183Y0059182D01*
X0157099Y0059182D01*
X0156937Y0059020D01*
X0156775Y0059182D01*
X0155691Y0059182D01*
X0155413Y0059854D01*
X0154259Y0061008D01*
X0153155Y0061465D01*
X0152865Y0062143D01*
X0152865Y0062143D01*
X0150440Y0064512D01*
X0149209Y0065006D01*
X0148942Y0065272D01*
X0148544Y0065272D01*
X0148174Y0065420D01*
X0147828Y0065272D01*
X0141190Y0065272D01*
X0141190Y0066570D01*
X0140428Y0067331D01*
X0133446Y0067331D01*
X0132684Y0066570D01*
X0132684Y0065272D01*
X0126190Y0065272D01*
X0126190Y0066570D01*
X0125428Y0067331D01*
X0122457Y0067331D01*
X0122457Y0077579D01*
X0124542Y0077579D01*
X0124600Y0077637D01*
X0124817Y0077579D01*
X0125682Y0077579D01*
X0125682Y0081147D01*
X0125869Y0081147D01*
X0125869Y0077579D01*
X0126734Y0077579D01*
X0127065Y0077667D01*
X0127361Y0077838D01*
X0127603Y0078080D01*
X0127774Y0078377D01*
X0127863Y0078708D01*
X0127863Y0081147D01*
X0125869Y0081147D01*
X0125869Y0081335D01*
X0125682Y0081335D01*
X0125682Y0084903D01*
X0124817Y0084903D01*
X0124600Y0084845D01*
X0124542Y0084903D01*
X0122457Y0084903D01*
X0122457Y0086257D01*
X0121403Y0087311D01*
X0117683Y0091032D01*
X0111387Y0091032D01*
X0111387Y0092070D01*
X0111225Y0092232D01*
X0111387Y0092393D01*
X0111387Y0098070D01*
X0110625Y0098832D01*
X0108737Y0098832D01*
X0108737Y0102133D01*
X0110428Y0102133D01*
X0111190Y0102894D01*
X0111190Y0102932D01*
X0111191Y0102932D01*
X0116011Y0098112D01*
X0116011Y0095322D01*
X0116773Y0094561D01*
X0121417Y0094561D01*
X0121417Y0091486D01*
X0124971Y0087932D01*
X0140445Y0087932D01*
X0140661Y0087409D01*
X0141815Y0086256D01*
X0142487Y0085977D01*
X0142487Y0084893D01*
X0142649Y0084732D01*
X0142487Y0084570D01*
X0142487Y0083486D01*
X0141815Y0083208D01*
X0140661Y0082054D01*
X0140037Y0080547D01*
X0140037Y0078916D01*
X0140661Y0077409D01*
X0141815Y0076256D01*
X0143321Y0075632D01*
X0150553Y0075632D01*
X0152059Y0076256D01*
X0153213Y0077409D01*
X0153429Y0077932D01*
X0156937Y0077932D01*
X0157561Y0077870D01*
X0158715Y0077393D01*
X0159598Y0076510D01*
X0160076Y0075356D01*
X0160137Y0074732D01*
X0160096Y0075144D02*
X0122457Y0075144D01*
X0122457Y0075743D02*
X0143054Y0075743D01*
X0141729Y0076341D02*
X0122457Y0076341D01*
X0122457Y0076940D02*
X0141131Y0076940D01*
X0140608Y0077538D02*
X0122457Y0077538D01*
X0125682Y0078137D02*
X0125869Y0078137D01*
X0125869Y0078735D02*
X0125682Y0078735D01*
X0125682Y0079334D02*
X0125869Y0079334D01*
X0125869Y0079932D02*
X0125682Y0079932D01*
X0125682Y0080531D02*
X0125869Y0080531D01*
X0125869Y0081129D02*
X0125682Y0081129D01*
X0125869Y0081335D02*
X0125869Y0084903D01*
X0126734Y0084903D01*
X0127065Y0084814D01*
X0127361Y0084643D01*
X0127603Y0084401D01*
X0127774Y0084105D01*
X0127863Y0083774D01*
X0127863Y0081335D01*
X0125869Y0081335D01*
X0125869Y0081728D02*
X0125682Y0081728D01*
X0125682Y0082326D02*
X0125869Y0082326D01*
X0125869Y0082925D02*
X0125682Y0082925D01*
X0125682Y0083523D02*
X0125869Y0083523D01*
X0125869Y0084122D02*
X0125682Y0084122D01*
X0125682Y0084720D02*
X0125869Y0084720D01*
X0127228Y0084720D02*
X0142637Y0084720D01*
X0142487Y0084122D02*
X0127765Y0084122D01*
X0127863Y0083523D02*
X0142487Y0083523D01*
X0141532Y0082925D02*
X0127863Y0082925D01*
X0127863Y0082326D02*
X0140933Y0082326D01*
X0140526Y0081728D02*
X0127863Y0081728D01*
X0127863Y0081129D02*
X0140278Y0081129D01*
X0140037Y0080531D02*
X0127863Y0080531D01*
X0127863Y0079932D02*
X0140037Y0079932D01*
X0140037Y0079334D02*
X0127863Y0079334D01*
X0127863Y0078735D02*
X0140112Y0078735D01*
X0140360Y0078137D02*
X0127636Y0078137D01*
X0122457Y0071553D02*
X0160137Y0071553D01*
X0160137Y0070955D02*
X0122457Y0070955D01*
X0122457Y0070356D02*
X0160137Y0070356D01*
X0160137Y0069758D02*
X0122457Y0069758D01*
X0122457Y0069159D02*
X0160137Y0069159D01*
X0160137Y0068561D02*
X0122457Y0068561D01*
X0122457Y0067962D02*
X0160137Y0067962D01*
X0160137Y0067364D02*
X0122457Y0067364D01*
X0125994Y0066765D02*
X0132880Y0066765D01*
X0132684Y0066167D02*
X0126190Y0066167D01*
X0126190Y0065568D02*
X0132684Y0065568D01*
X0132684Y0061672D02*
X0132684Y0060374D01*
X0133365Y0059694D01*
X0133186Y0059591D01*
X0132944Y0059349D01*
X0132773Y0059053D01*
X0132684Y0058722D01*
X0132684Y0056292D01*
X0136637Y0056292D01*
X0136637Y0055692D01*
X0132684Y0055692D01*
X0132684Y0053261D01*
X0132773Y0052931D01*
X0132944Y0052634D01*
X0133186Y0052392D01*
X0133482Y0052221D01*
X0133813Y0052133D01*
X0136637Y0052133D01*
X0136637Y0055692D01*
X0137237Y0055692D01*
X0137237Y0056292D01*
X0141190Y0056292D01*
X0141190Y0058722D01*
X0141101Y0059053D01*
X0140930Y0059349D01*
X0140688Y0059591D01*
X0140509Y0059694D01*
X0141190Y0060374D01*
X0141190Y0061672D01*
X0147776Y0061672D01*
X0148384Y0061356D01*
X0149183Y0060576D01*
X0148461Y0059854D01*
X0147837Y0058347D01*
X0147837Y0051116D01*
X0148461Y0049609D01*
X0149615Y0048456D01*
X0151121Y0047832D01*
X0152753Y0047832D01*
X0154259Y0048456D01*
X0155413Y0049609D01*
X0155691Y0050282D01*
X0156775Y0050282D01*
X0156937Y0050443D01*
X0157099Y0050282D01*
X0158183Y0050282D01*
X0158461Y0049609D01*
X0159615Y0048456D01*
X0159789Y0048384D01*
X0159775Y0048338D01*
X0158964Y0047348D01*
X0157836Y0046745D01*
X0157757Y0046729D01*
X0157733Y0046744D01*
X0157104Y0046609D01*
X0156464Y0046546D01*
X0156452Y0046532D01*
X0129191Y0046532D01*
X0128725Y0046532D01*
X0128725Y0046532D01*
X0126485Y0045604D01*
X0126485Y0045604D01*
X0124771Y0043890D01*
X0124771Y0043890D01*
X0123843Y0041650D01*
X0123843Y0040022D01*
X0123358Y0039537D01*
X0123358Y0030991D01*
X0122179Y0030503D01*
X0121628Y0029952D01*
X0121628Y0038947D01*
X0120866Y0039708D01*
X0109947Y0039708D01*
X0109185Y0038947D01*
X0109185Y0029208D01*
X0109947Y0028447D01*
X0120492Y0028447D01*
X0119980Y0027212D01*
X0119980Y0025195D01*
X0120172Y0024732D01*
X0116660Y0024732D01*
X0116484Y0024556D01*
X0116484Y0018842D01*
X0109947Y0018842D01*
X0109185Y0018081D01*
X0109185Y0008342D01*
X0109496Y0008032D01*
X0058237Y0008032D01*
X0058237Y0070452D01*
X0067231Y0070452D01*
X0069252Y0071290D01*
X0070800Y0072837D01*
X0070839Y0072932D01*
X0088237Y0072932D01*
X0088237Y0071593D01*
X0088999Y0070832D01*
X0094875Y0070832D01*
X0095637Y0071593D01*
X0095637Y0072932D01*
X0102684Y0072932D01*
X0102684Y0070374D01*
X0103365Y0069694D01*
X0103186Y0069591D01*
X0102944Y0069349D01*
X0102773Y0069053D01*
X0102684Y0068722D01*
X0102684Y0066292D01*
X0106637Y0066292D01*
X0106637Y0065692D01*
X0102684Y0065692D01*
X0102684Y0063261D01*
X0102773Y0062931D01*
X0102944Y0062634D01*
X0103186Y0062392D01*
X0103482Y0062221D01*
X0103813Y0062133D01*
X0106637Y0062133D01*
X0106637Y0065692D01*
X0107237Y0065692D01*
X0107237Y0066292D01*
X0111190Y0066292D01*
X0111190Y0068722D01*
X0111101Y0069053D01*
X0110930Y0069349D01*
X0110688Y0069591D01*
X0110509Y0069694D01*
X0111190Y0070374D01*
X0111190Y0072932D01*
X0112335Y0072932D01*
X0113389Y0073986D01*
X0116982Y0077579D01*
X0118857Y0077579D01*
X0118857Y0067331D01*
X0118446Y0067331D01*
X0117684Y0066570D01*
X0117684Y0065232D01*
X0117024Y0065144D01*
X0114614Y0063955D01*
X0114046Y0063386D01*
X0113845Y0063345D01*
X0113535Y0062875D01*
X0113137Y0062477D01*
X0113137Y0062272D01*
X0105475Y0050652D01*
X0102301Y0050652D01*
X0101539Y0049890D01*
X0101539Y0044013D01*
X0102301Y0043252D01*
X0108178Y0043252D01*
X0108939Y0044013D01*
X0108939Y0049366D01*
X0116310Y0060544D01*
X0116776Y0060940D01*
X0117684Y0061388D01*
X0117684Y0060374D01*
X0118365Y0059694D01*
X0118186Y0059591D01*
X0117944Y0059349D01*
X0117773Y0059053D01*
X0117684Y0058722D01*
X0117684Y0056292D01*
X0121637Y0056292D01*
X0121637Y0055692D01*
X0117684Y0055692D01*
X0117684Y0053261D01*
X0117773Y0052931D01*
X0117944Y0052634D01*
X0118186Y0052392D01*
X0118482Y0052221D01*
X0118813Y0052133D01*
X0121637Y0052133D01*
X0121637Y0055692D01*
X0122237Y0055692D01*
X0122237Y0056292D01*
X0126190Y0056292D01*
X0126190Y0058722D01*
X0126101Y0059053D01*
X0125930Y0059349D01*
X0125688Y0059591D01*
X0125509Y0059694D01*
X0126190Y0060374D01*
X0126190Y0061672D01*
X0132684Y0061672D01*
X0132684Y0061379D02*
X0126190Y0061379D01*
X0126190Y0060780D02*
X0132684Y0060780D01*
X0132877Y0060181D02*
X0125997Y0060181D01*
X0125696Y0059583D02*
X0133178Y0059583D01*
X0132755Y0058984D02*
X0126119Y0058984D01*
X0126190Y0058386D02*
X0132684Y0058386D01*
X0132684Y0057787D02*
X0126190Y0057787D01*
X0126190Y0057189D02*
X0132684Y0057189D01*
X0132684Y0056590D02*
X0126190Y0056590D01*
X0126190Y0055692D02*
X0122237Y0055692D01*
X0122237Y0052133D01*
X0125061Y0052133D01*
X0125392Y0052221D01*
X0125688Y0052392D01*
X0125930Y0052634D01*
X0126101Y0052931D01*
X0126190Y0053261D01*
X0126190Y0055692D01*
X0126190Y0055393D02*
X0132684Y0055393D01*
X0132684Y0054795D02*
X0126190Y0054795D01*
X0126190Y0054196D02*
X0132684Y0054196D01*
X0132684Y0053598D02*
X0126190Y0053598D01*
X0126120Y0052999D02*
X0132754Y0052999D01*
X0133178Y0052401D02*
X0125696Y0052401D01*
X0122237Y0052401D02*
X0121637Y0052401D01*
X0121637Y0052999D02*
X0122237Y0052999D01*
X0122237Y0053598D02*
X0121637Y0053598D01*
X0121637Y0054196D02*
X0122237Y0054196D01*
X0122237Y0054795D02*
X0121637Y0054795D01*
X0121637Y0055393D02*
X0122237Y0055393D01*
X0122237Y0055992D02*
X0136637Y0055992D01*
X0136637Y0055393D02*
X0137237Y0055393D01*
X0137237Y0055692D02*
X0137237Y0052133D01*
X0140061Y0052133D01*
X0140392Y0052221D01*
X0140688Y0052392D01*
X0140930Y0052634D01*
X0141101Y0052931D01*
X0141190Y0053261D01*
X0141190Y0055692D01*
X0137237Y0055692D01*
X0137237Y0055992D02*
X0147837Y0055992D01*
X0147837Y0056590D02*
X0141190Y0056590D01*
X0141190Y0057189D02*
X0147837Y0057189D01*
X0147837Y0057787D02*
X0141190Y0057787D01*
X0141190Y0058386D02*
X0147853Y0058386D01*
X0148101Y0058984D02*
X0141119Y0058984D01*
X0140696Y0059583D02*
X0148349Y0059583D01*
X0148788Y0060181D02*
X0140997Y0060181D01*
X0141190Y0060780D02*
X0148973Y0060780D01*
X0148341Y0061379D02*
X0141190Y0061379D01*
X0141190Y0065568D02*
X0160137Y0065568D01*
X0160137Y0064970D02*
X0149299Y0064970D01*
X0150440Y0064512D02*
X0150440Y0064512D01*
X0150585Y0064371D02*
X0160137Y0064371D01*
X0160137Y0063773D02*
X0151197Y0063773D01*
X0151810Y0063174D02*
X0160137Y0063174D01*
X0160137Y0062576D02*
X0152422Y0062576D01*
X0152936Y0061977D02*
X0160137Y0061977D01*
X0160137Y0061379D02*
X0153364Y0061379D01*
X0154487Y0060780D02*
X0159387Y0060780D01*
X0158788Y0060181D02*
X0155086Y0060181D01*
X0155525Y0059583D02*
X0158349Y0059583D01*
X0163737Y0061224D02*
X0163737Y0072932D01*
X0170861Y0072932D01*
X0171031Y0072523D01*
X0172128Y0071426D01*
X0173561Y0070832D01*
X0180313Y0070832D01*
X0181746Y0071426D01*
X0182843Y0072523D01*
X0183437Y0073956D01*
X0183437Y0075508D01*
X0182843Y0076941D01*
X0181746Y0078038D01*
X0180313Y0078632D01*
X0173561Y0078632D01*
X0172128Y0078038D01*
X0171031Y0076941D01*
X0170861Y0076532D01*
X0163552Y0076532D01*
X0162702Y0078584D01*
X0160789Y0080497D01*
X0158290Y0081532D01*
X0153429Y0081532D01*
X0153213Y0082054D01*
X0152059Y0083208D01*
X0151387Y0083486D01*
X0151387Y0084570D01*
X0151225Y0084732D01*
X0151387Y0084893D01*
X0151387Y0085977D01*
X0152059Y0086256D01*
X0153213Y0087409D01*
X0153837Y0088916D01*
X0153837Y0090547D01*
X0153213Y0092054D01*
X0152059Y0093208D01*
X0150553Y0093832D01*
X0143321Y0093832D01*
X0141815Y0093208D01*
X0140661Y0092054D01*
X0140445Y0091532D01*
X0126462Y0091532D01*
X0125017Y0092977D01*
X0125017Y0094561D01*
X0127101Y0094561D01*
X0127863Y0095322D01*
X0127863Y0101123D01*
X0127576Y0101411D01*
X0127576Y0103570D01*
X0127642Y0104409D01*
X0128160Y0106004D01*
X0129146Y0107362D01*
X0130099Y0108054D01*
X0131322Y0106832D01*
X0134552Y0106832D01*
X0136837Y0109116D01*
X0136837Y0112347D01*
X0134552Y0114632D01*
X0131322Y0114632D01*
X0129037Y0112347D01*
X0129037Y0111726D01*
X0128818Y0111655D01*
X0126521Y0109986D01*
X0125017Y0107915D01*
X0125017Y0120562D01*
X0125099Y0120479D01*
X0131294Y0120479D01*
X0131975Y0121159D01*
X0132078Y0120981D01*
X0132320Y0120739D01*
X0132616Y0120568D01*
X0132947Y0120479D01*
X0135377Y0120479D01*
X0135377Y0124432D01*
X0135977Y0124432D01*
X0135977Y0120479D01*
X0138407Y0120479D01*
X0138738Y0120568D01*
X0139034Y0120739D01*
X0139276Y0120981D01*
X0139448Y0121277D01*
X0139536Y0121608D01*
X0139536Y0124432D01*
X0135977Y0124432D01*
X0135977Y0125032D01*
X0135377Y0125032D01*
X0135377Y0128985D01*
X0132947Y0128985D01*
X0132616Y0128896D01*
X0132320Y0128725D01*
X0132078Y0128483D01*
X0131975Y0128304D01*
X0131294Y0128985D01*
X0125099Y0128985D01*
X0125017Y0128902D01*
X0125017Y0132932D01*
X0161937Y0132932D01*
X0163660Y0132819D01*
X0166988Y0131927D01*
X0169973Y0130204D01*
X0172409Y0127767D01*
X0174132Y0124783D01*
X0175024Y0121455D01*
X0175137Y0119732D01*
X0175137Y0118632D01*
X0173561Y0118632D01*
X0172128Y0118038D01*
X0171031Y0116941D01*
X0170437Y0115508D01*
X0170437Y0113956D01*
X0171031Y0112523D01*
X0172128Y0111426D01*
X0173561Y0110832D01*
X0180313Y0110832D01*
X0181746Y0111426D01*
X0182843Y0112523D01*
X0183437Y0113956D01*
X0183437Y0115508D01*
X0182843Y0116941D01*
X0181746Y0118038D01*
X0180313Y0118632D01*
X0178737Y0118632D01*
X0178737Y0121944D01*
X0177592Y0126216D01*
X0175380Y0130047D01*
X0175380Y0130047D01*
X0172252Y0133175D01*
X0168422Y0135387D01*
X0168422Y0135387D01*
X0164149Y0136532D01*
X0125017Y0136532D01*
X0125017Y0143290D01*
X0126121Y0142832D01*
X0127753Y0142832D01*
X0129259Y0143456D01*
X0130413Y0144609D01*
X0131037Y0146116D01*
X0131037Y0153347D01*
X0130413Y0154854D01*
X0129259Y0156008D01*
X0127753Y0156632D01*
X0126121Y0156632D01*
X0124615Y0156008D01*
X0123461Y0154854D01*
X0122837Y0153347D01*
X0122837Y0147237D01*
X0121937Y0146028D01*
X0121037Y0147237D01*
X0121037Y0153347D01*
X0120413Y0154854D01*
X0119259Y0156008D01*
X0117753Y0156632D01*
X0116121Y0156632D01*
X0114615Y0156008D01*
X0113461Y0154854D01*
X0112837Y0153347D01*
X0112837Y0146116D01*
X0113461Y0144609D01*
X0114615Y0143456D01*
X0116121Y0142832D01*
X0117753Y0142832D01*
X0118857Y0143290D01*
X0118857Y0128902D01*
X0118775Y0128985D01*
X0112580Y0128985D01*
X0111899Y0128304D01*
X0111796Y0128483D01*
X0111554Y0128725D01*
X0111258Y0128896D01*
X0110927Y0128985D01*
X0108497Y0128985D01*
X0108497Y0125032D01*
X0107897Y0125032D01*
X0107897Y0128985D01*
X0105467Y0128985D01*
X0105136Y0128896D01*
X0104840Y0128725D01*
X0104598Y0128483D01*
X0104426Y0128186D01*
X0104338Y0127856D01*
X0104338Y0125032D01*
X0107897Y0125032D01*
X0107897Y0124432D01*
X0108497Y0124432D01*
X0108497Y0120479D01*
X0110927Y0120479D01*
X0111258Y0120568D01*
X0111554Y0120739D01*
X0111796Y0120981D01*
X0111899Y0121159D01*
X0112580Y0120479D01*
X0118775Y0120479D01*
X0118857Y0120562D01*
X0118857Y0101885D01*
X0117329Y0101885D01*
X0113737Y0105477D01*
X0112683Y0106532D01*
X0111190Y0106532D01*
X0111190Y0109089D01*
X0110509Y0109770D01*
X0110688Y0109873D01*
X0110930Y0110115D01*
X0111101Y0110411D01*
X0111190Y0110742D01*
X0111190Y0113172D01*
X0107237Y0113172D01*
X0107237Y0113772D01*
X0106637Y0113772D01*
X0106637Y0117331D01*
X0103813Y0117331D01*
X0103482Y0117242D01*
X0103186Y0117071D01*
X0102944Y0116829D01*
X0102773Y0116533D01*
X0102684Y0116202D01*
X0102684Y0113772D01*
X0106637Y0113772D01*
X0106637Y0113172D01*
X0102684Y0113172D01*
X0102684Y0110742D01*
X0102773Y0110411D01*
X0102944Y0110115D01*
X0103186Y0109873D01*
X0103365Y0109770D01*
X0102684Y0109089D01*
X0102684Y0106532D01*
X0095637Y0106532D01*
X0095637Y0107870D01*
X0094875Y0108632D01*
X0088999Y0108632D01*
X0088237Y0107870D01*
X0088237Y0106532D01*
X0070839Y0106532D01*
X0070800Y0106627D01*
X0069252Y0108174D01*
X0067231Y0109011D01*
X0058237Y0109011D01*
X0058237Y0149932D01*
X0082268Y0149932D01*
X0082737Y0150400D01*
X0082737Y0152859D01*
X0083799Y0150294D01*
X0086499Y0147594D01*
X0090028Y0146133D01*
X0093846Y0146133D01*
X0097375Y0147594D01*
X0100075Y0150294D01*
X0101536Y0153822D01*
X0101536Y0157641D01*
X0100075Y0161169D01*
X0097375Y0163870D01*
X0093846Y0165331D01*
X0090028Y0165331D01*
X0086499Y0163870D01*
X0083799Y0161169D01*
X0082737Y0158605D01*
X0082737Y0171392D01*
X0186937Y0171392D01*
X0186937Y0008032D01*
X0154388Y0008032D01*
X0154699Y0008342D01*
X0154699Y0018081D01*
X0153937Y0018842D01*
X0147399Y0018842D01*
X0147399Y0024556D01*
X0147224Y0024732D01*
X0143712Y0024732D01*
X0143903Y0025195D01*
X0143903Y0027212D01*
X0143392Y0028447D01*
X0153937Y0028447D01*
X0154699Y0029208D01*
X0154699Y0038947D01*
X0153937Y0039708D01*
X0143018Y0039708D01*
X0142256Y0038947D01*
X0142256Y0029952D01*
X0141705Y0030503D01*
X0140525Y0030991D01*
X0140525Y0034870D01*
X0138433Y0034870D01*
X0138433Y0035254D01*
X0138049Y0035254D01*
X0138049Y0040299D01*
X0137086Y0040299D01*
X0136755Y0040210D01*
X0136722Y0040191D01*
X0136614Y0040299D01*
X0133569Y0040299D01*
X0133517Y0040247D01*
X0133465Y0040299D01*
X0130419Y0040299D01*
X0130367Y0040247D01*
X0130315Y0040299D01*
X0127443Y0040299D01*
X0127443Y0040438D01*
X0127491Y0040924D01*
X0127863Y0041823D01*
X0128551Y0042511D01*
X0129450Y0042884D01*
X0129937Y0042932D01*
X0156406Y0042932D01*
X0156587Y0042815D01*
X0157128Y0042932D01*
X0157683Y0042932D01*
X0157812Y0043061D01*
X0158922Y0043171D01*
X0161335Y0044462D01*
X0163070Y0046578D01*
X0163070Y0046578D01*
X0163549Y0048162D01*
X0164259Y0048456D01*
X0165413Y0049609D01*
X0166037Y0051116D01*
X0166037Y0058347D01*
X0165413Y0059854D01*
X0164259Y0061008D01*
X0163737Y0061224D01*
X0163737Y0061379D02*
X0172336Y0061379D01*
X0172490Y0061276D02*
X0173199Y0060982D01*
X0173953Y0060832D01*
X0176637Y0060832D01*
X0176637Y0064432D01*
X0170437Y0064432D01*
X0170437Y0064348D01*
X0170587Y0063594D01*
X0170881Y0062884D01*
X0171308Y0062246D01*
X0171851Y0061703D01*
X0172490Y0061276D01*
X0171576Y0061977D02*
X0163737Y0061977D01*
X0163737Y0062576D02*
X0171087Y0062576D01*
X0170761Y0063174D02*
X0163737Y0063174D01*
X0163737Y0063773D02*
X0170551Y0063773D01*
X0170437Y0064371D02*
X0163737Y0064371D01*
X0163737Y0064970D02*
X0176637Y0064970D01*
X0176637Y0065032D02*
X0176637Y0064432D01*
X0177237Y0064432D01*
X0177237Y0065032D01*
X0176637Y0065032D01*
X0176637Y0068632D01*
X0173953Y0068632D01*
X0173199Y0068482D01*
X0172490Y0068188D01*
X0171851Y0067761D01*
X0171308Y0067218D01*
X0170881Y0066579D01*
X0170587Y0065869D01*
X0170437Y0065116D01*
X0170437Y0065032D01*
X0176637Y0065032D01*
X0176637Y0065568D02*
X0177237Y0065568D01*
X0177237Y0065032D02*
X0177237Y0068632D01*
X0179921Y0068632D01*
X0180675Y0068482D01*
X0181384Y0068188D01*
X0182023Y0067761D01*
X0182566Y0067218D01*
X0182993Y0066579D01*
X0183287Y0065869D01*
X0183437Y0065116D01*
X0183437Y0065032D01*
X0177237Y0065032D01*
X0177237Y0064970D02*
X0186937Y0064970D01*
X0186937Y0065568D02*
X0183347Y0065568D01*
X0183164Y0066167D02*
X0186937Y0066167D01*
X0186937Y0066765D02*
X0182869Y0066765D01*
X0182421Y0067364D02*
X0186937Y0067364D01*
X0186937Y0067962D02*
X0181722Y0067962D01*
X0180279Y0068561D02*
X0186937Y0068561D01*
X0186937Y0069159D02*
X0163737Y0069159D01*
X0163737Y0068561D02*
X0173595Y0068561D01*
X0172152Y0067962D02*
X0163737Y0067962D01*
X0163737Y0067364D02*
X0171453Y0067364D01*
X0171005Y0066765D02*
X0163737Y0066765D01*
X0163737Y0066167D02*
X0170710Y0066167D01*
X0170527Y0065568D02*
X0163737Y0065568D01*
X0160137Y0066167D02*
X0141190Y0066167D01*
X0140994Y0066765D02*
X0160137Y0066765D01*
X0163737Y0069758D02*
X0186937Y0069758D01*
X0186937Y0070356D02*
X0163737Y0070356D01*
X0163737Y0070955D02*
X0173265Y0070955D01*
X0172000Y0071553D02*
X0163737Y0071553D01*
X0163737Y0072152D02*
X0171402Y0072152D01*
X0170936Y0072750D02*
X0163737Y0072750D01*
X0163383Y0076940D02*
X0171030Y0076940D01*
X0171628Y0077538D02*
X0163135Y0077538D01*
X0162887Y0078137D02*
X0172366Y0078137D01*
X0173561Y0080832D02*
X0180313Y0080832D01*
X0181746Y0081426D01*
X0182843Y0082523D01*
X0183437Y0083956D01*
X0183437Y0085508D01*
X0182843Y0086941D01*
X0181746Y0088038D01*
X0180313Y0088632D01*
X0173561Y0088632D01*
X0172128Y0088038D01*
X0171031Y0086941D01*
X0170437Y0085508D01*
X0170437Y0083956D01*
X0171031Y0082523D01*
X0172128Y0081426D01*
X0173561Y0080832D01*
X0172843Y0081129D02*
X0159261Y0081129D01*
X0160706Y0080531D02*
X0186937Y0080531D01*
X0186937Y0081129D02*
X0181031Y0081129D01*
X0182048Y0081728D02*
X0186937Y0081728D01*
X0186937Y0082326D02*
X0182647Y0082326D01*
X0183010Y0082925D02*
X0186937Y0082925D01*
X0186937Y0083523D02*
X0183258Y0083523D01*
X0183437Y0084122D02*
X0186937Y0084122D01*
X0186937Y0084720D02*
X0183437Y0084720D01*
X0183437Y0085319D02*
X0186937Y0085319D01*
X0186937Y0085917D02*
X0183267Y0085917D01*
X0183019Y0086516D02*
X0186937Y0086516D01*
X0186937Y0087114D02*
X0182670Y0087114D01*
X0182071Y0087713D02*
X0186937Y0087713D01*
X0186937Y0088312D02*
X0181086Y0088312D01*
X0180313Y0090832D02*
X0181746Y0091426D01*
X0182843Y0092523D01*
X0183437Y0093956D01*
X0183437Y0095508D01*
X0182843Y0096941D01*
X0181746Y0098038D01*
X0180313Y0098632D01*
X0173561Y0098632D01*
X0172128Y0098038D01*
X0171031Y0096941D01*
X0170437Y0095508D01*
X0170437Y0093956D01*
X0171031Y0092523D01*
X0172128Y0091426D01*
X0173561Y0090832D01*
X0180313Y0090832D01*
X0181453Y0091304D02*
X0186937Y0091304D01*
X0186937Y0090706D02*
X0153771Y0090706D01*
X0153837Y0090107D02*
X0186937Y0090107D01*
X0186937Y0089509D02*
X0153837Y0089509D01*
X0153834Y0088910D02*
X0186937Y0088910D01*
X0186937Y0091903D02*
X0182223Y0091903D01*
X0182822Y0092501D02*
X0186937Y0092501D01*
X0186937Y0093100D02*
X0183082Y0093100D01*
X0183330Y0093698D02*
X0186937Y0093698D01*
X0186937Y0094297D02*
X0183437Y0094297D01*
X0183437Y0094895D02*
X0186937Y0094895D01*
X0186937Y0095494D02*
X0183437Y0095494D01*
X0183195Y0096092D02*
X0186937Y0096092D01*
X0186937Y0096691D02*
X0182947Y0096691D01*
X0182495Y0097289D02*
X0186937Y0097289D01*
X0186937Y0097888D02*
X0181897Y0097888D01*
X0180664Y0098486D02*
X0186937Y0098486D01*
X0186937Y0099085D02*
X0127863Y0099085D01*
X0127863Y0099683D02*
X0186937Y0099683D01*
X0186937Y0100282D02*
X0127863Y0100282D01*
X0127863Y0100880D02*
X0173444Y0100880D01*
X0173561Y0100832D02*
X0180313Y0100832D01*
X0181746Y0101426D01*
X0182843Y0102523D01*
X0183437Y0103956D01*
X0183437Y0105508D01*
X0182843Y0106941D01*
X0181746Y0108038D01*
X0180313Y0108632D01*
X0173561Y0108632D01*
X0172128Y0108038D01*
X0171031Y0106941D01*
X0170861Y0106532D01*
X0162482Y0106532D01*
X0162315Y0106643D01*
X0161759Y0106532D01*
X0161191Y0106532D01*
X0161109Y0106450D01*
X0160443Y0106383D01*
X0158205Y0106826D01*
X0156306Y0108092D01*
X0156108Y0108387D01*
X0156837Y0109116D01*
X0156837Y0112347D01*
X0154552Y0114632D01*
X0151322Y0114632D01*
X0149037Y0112347D01*
X0149037Y0109116D01*
X0151322Y0106832D01*
X0152682Y0106832D01*
X0153632Y0105413D01*
X0153632Y0105413D01*
X0156760Y0103328D01*
X0160447Y0102598D01*
X0162115Y0102932D01*
X0170861Y0102932D01*
X0171031Y0102523D01*
X0172128Y0101426D01*
X0173561Y0100832D01*
X0172075Y0101479D02*
X0127576Y0101479D01*
X0127576Y0102077D02*
X0171476Y0102077D01*
X0170967Y0102676D02*
X0160835Y0102676D01*
X0160447Y0102598D02*
X0160447Y0102598D01*
X0160055Y0102676D02*
X0127576Y0102676D01*
X0127576Y0103274D02*
X0157029Y0103274D01*
X0156760Y0103328D02*
X0156760Y0103328D01*
X0155942Y0103873D02*
X0127599Y0103873D01*
X0127662Y0104471D02*
X0155044Y0104471D01*
X0154146Y0105070D02*
X0127856Y0105070D01*
X0128051Y0105668D02*
X0153461Y0105668D01*
X0153060Y0106267D02*
X0128351Y0106267D01*
X0128785Y0106865D02*
X0131288Y0106865D01*
X0130690Y0107464D02*
X0129287Y0107464D01*
X0127169Y0110456D02*
X0125017Y0110456D01*
X0125017Y0109858D02*
X0126428Y0109858D01*
X0126521Y0109986D02*
X0126521Y0109986D01*
X0126521Y0109986D01*
X0125993Y0109259D02*
X0125017Y0109259D01*
X0125017Y0108661D02*
X0125559Y0108661D01*
X0125124Y0108062D02*
X0125017Y0108062D01*
X0125017Y0111055D02*
X0127993Y0111055D01*
X0128816Y0111653D02*
X0125017Y0111653D01*
X0125017Y0112252D02*
X0129037Y0112252D01*
X0128818Y0111655D02*
X0128818Y0111655D01*
X0129540Y0112850D02*
X0125017Y0112850D01*
X0125017Y0113449D02*
X0130139Y0113449D01*
X0130737Y0114048D02*
X0125017Y0114048D01*
X0125017Y0114646D02*
X0170437Y0114646D01*
X0170437Y0114048D02*
X0155137Y0114048D01*
X0155735Y0113449D02*
X0170647Y0113449D01*
X0170895Y0112850D02*
X0156334Y0112850D01*
X0156837Y0112252D02*
X0171301Y0112252D01*
X0171900Y0111653D02*
X0156837Y0111653D01*
X0156837Y0111055D02*
X0173023Y0111055D01*
X0172187Y0108062D02*
X0156350Y0108062D01*
X0156381Y0108661D02*
X0186937Y0108661D01*
X0186937Y0109259D02*
X0156837Y0109259D01*
X0156837Y0109858D02*
X0186937Y0109858D01*
X0186937Y0110456D02*
X0156837Y0110456D01*
X0157248Y0107464D02*
X0171554Y0107464D01*
X0170999Y0106865D02*
X0158146Y0106865D01*
X0151288Y0106865D02*
X0134586Y0106865D01*
X0135184Y0107464D02*
X0150690Y0107464D01*
X0150091Y0108062D02*
X0135783Y0108062D01*
X0136381Y0108661D02*
X0149493Y0108661D01*
X0149037Y0109259D02*
X0136837Y0109259D01*
X0136837Y0109858D02*
X0149037Y0109858D01*
X0149037Y0110456D02*
X0136837Y0110456D01*
X0136837Y0111055D02*
X0149037Y0111055D01*
X0149037Y0111653D02*
X0136837Y0111653D01*
X0136837Y0112252D02*
X0149037Y0112252D01*
X0149540Y0112850D02*
X0136334Y0112850D01*
X0135735Y0113449D02*
X0150139Y0113449D01*
X0150737Y0114048D02*
X0135137Y0114048D01*
X0135377Y0120631D02*
X0135977Y0120631D01*
X0135977Y0121230D02*
X0135377Y0121230D01*
X0135377Y0121828D02*
X0135977Y0121828D01*
X0135977Y0122427D02*
X0135377Y0122427D01*
X0135377Y0123025D02*
X0135977Y0123025D01*
X0135977Y0123624D02*
X0135377Y0123624D01*
X0135377Y0124222D02*
X0135977Y0124222D01*
X0135977Y0124821D02*
X0174111Y0124821D01*
X0174283Y0124222D02*
X0139536Y0124222D01*
X0139536Y0123624D02*
X0174443Y0123624D01*
X0174603Y0123025D02*
X0139536Y0123025D01*
X0139536Y0122427D02*
X0174764Y0122427D01*
X0174924Y0121828D02*
X0139536Y0121828D01*
X0139420Y0121230D02*
X0175039Y0121230D01*
X0175078Y0120631D02*
X0138848Y0120631D01*
X0139536Y0125032D02*
X0135977Y0125032D01*
X0135977Y0128985D01*
X0138407Y0128985D01*
X0138738Y0128896D01*
X0139034Y0128725D01*
X0139276Y0128483D01*
X0139448Y0128186D01*
X0139536Y0127856D01*
X0139536Y0125032D01*
X0139536Y0125419D02*
X0173765Y0125419D01*
X0173419Y0126018D02*
X0139536Y0126018D01*
X0139536Y0126616D02*
X0173074Y0126616D01*
X0172728Y0127215D02*
X0139536Y0127215D01*
X0139536Y0127813D02*
X0172363Y0127813D01*
X0171765Y0128412D02*
X0139317Y0128412D01*
X0135977Y0128412D02*
X0135377Y0128412D01*
X0135377Y0127813D02*
X0135977Y0127813D01*
X0135977Y0127215D02*
X0135377Y0127215D01*
X0135377Y0126616D02*
X0135977Y0126616D01*
X0135977Y0126018D02*
X0135377Y0126018D01*
X0135377Y0125419D02*
X0135977Y0125419D01*
X0132037Y0128412D02*
X0131867Y0128412D01*
X0125017Y0129010D02*
X0171166Y0129010D01*
X0170568Y0129609D02*
X0125017Y0129609D01*
X0125017Y0130207D02*
X0169967Y0130207D01*
X0168930Y0130806D02*
X0125017Y0130806D01*
X0125017Y0131404D02*
X0167894Y0131404D01*
X0166706Y0132003D02*
X0125017Y0132003D01*
X0125017Y0132601D02*
X0164472Y0132601D01*
X0165415Y0136192D02*
X0186937Y0136192D01*
X0186937Y0135594D02*
X0167649Y0135594D01*
X0169100Y0134995D02*
X0186937Y0134995D01*
X0186937Y0134397D02*
X0170136Y0134397D01*
X0171173Y0133798D02*
X0186937Y0133798D01*
X0186937Y0133200D02*
X0172210Y0133200D01*
X0172252Y0133175D02*
X0172252Y0133175D01*
X0172826Y0132601D02*
X0186937Y0132601D01*
X0186937Y0132003D02*
X0173425Y0132003D01*
X0174023Y0131404D02*
X0186937Y0131404D01*
X0186937Y0130806D02*
X0174622Y0130806D01*
X0175220Y0130207D02*
X0186937Y0130207D01*
X0186937Y0129609D02*
X0175634Y0129609D01*
X0175979Y0129010D02*
X0186937Y0129010D01*
X0186937Y0128412D02*
X0176325Y0128412D01*
X0176670Y0127813D02*
X0186937Y0127813D01*
X0186937Y0127215D02*
X0177016Y0127215D01*
X0177361Y0126616D02*
X0186937Y0126616D01*
X0186937Y0126018D02*
X0177645Y0126018D01*
X0177592Y0126216D02*
X0177592Y0126216D01*
X0177806Y0125419D02*
X0186937Y0125419D01*
X0186937Y0124821D02*
X0177966Y0124821D01*
X0178126Y0124222D02*
X0186937Y0124222D01*
X0186937Y0123624D02*
X0178287Y0123624D01*
X0178447Y0123025D02*
X0186937Y0123025D01*
X0186937Y0122427D02*
X0178608Y0122427D01*
X0178737Y0121828D02*
X0186937Y0121828D01*
X0186937Y0121230D02*
X0178737Y0121230D01*
X0178737Y0120631D02*
X0186937Y0120631D01*
X0186937Y0120033D02*
X0178737Y0120033D01*
X0178737Y0119434D02*
X0186937Y0119434D01*
X0186937Y0118836D02*
X0178737Y0118836D01*
X0181266Y0118237D02*
X0186937Y0118237D01*
X0186937Y0117639D02*
X0182146Y0117639D01*
X0182744Y0117040D02*
X0186937Y0117040D01*
X0186937Y0116442D02*
X0183050Y0116442D01*
X0183298Y0115843D02*
X0186937Y0115843D01*
X0186937Y0115245D02*
X0183437Y0115245D01*
X0183437Y0114646D02*
X0186937Y0114646D01*
X0186937Y0114048D02*
X0183437Y0114048D01*
X0183227Y0113449D02*
X0186937Y0113449D01*
X0186937Y0112850D02*
X0182979Y0112850D01*
X0182573Y0112252D02*
X0186937Y0112252D01*
X0186937Y0111653D02*
X0181974Y0111653D01*
X0180851Y0111055D02*
X0186937Y0111055D01*
X0186937Y0108062D02*
X0181688Y0108062D01*
X0182320Y0107464D02*
X0186937Y0107464D01*
X0186937Y0106865D02*
X0182875Y0106865D01*
X0183123Y0106267D02*
X0186937Y0106267D01*
X0186937Y0105668D02*
X0183370Y0105668D01*
X0183437Y0105070D02*
X0186937Y0105070D01*
X0186937Y0104471D02*
X0183437Y0104471D01*
X0183402Y0103873D02*
X0186937Y0103873D01*
X0186937Y0103274D02*
X0183155Y0103274D01*
X0182907Y0102676D02*
X0186937Y0102676D01*
X0186937Y0102077D02*
X0182398Y0102077D01*
X0181799Y0101479D02*
X0186937Y0101479D01*
X0186937Y0100880D02*
X0180430Y0100880D01*
X0173210Y0098486D02*
X0127863Y0098486D01*
X0127863Y0097888D02*
X0171977Y0097888D01*
X0171379Y0097289D02*
X0127863Y0097289D01*
X0127863Y0096691D02*
X0170927Y0096691D01*
X0170679Y0096092D02*
X0127863Y0096092D01*
X0127863Y0095494D02*
X0170437Y0095494D01*
X0170437Y0094895D02*
X0127436Y0094895D01*
X0125017Y0094297D02*
X0170437Y0094297D01*
X0170544Y0093698D02*
X0150875Y0093698D01*
X0152167Y0093100D02*
X0170792Y0093100D01*
X0171052Y0092501D02*
X0152766Y0092501D01*
X0153276Y0091903D02*
X0171651Y0091903D01*
X0172421Y0091304D02*
X0153524Y0091304D01*
X0153586Y0088312D02*
X0172788Y0088312D01*
X0171803Y0087713D02*
X0153339Y0087713D01*
X0152918Y0087114D02*
X0171204Y0087114D01*
X0170855Y0086516D02*
X0152319Y0086516D01*
X0151387Y0085917D02*
X0170607Y0085917D01*
X0170437Y0085319D02*
X0151387Y0085319D01*
X0151237Y0084720D02*
X0170437Y0084720D01*
X0170437Y0084122D02*
X0151387Y0084122D01*
X0151387Y0083523D02*
X0170616Y0083523D01*
X0170864Y0082925D02*
X0152342Y0082925D01*
X0152941Y0082326D02*
X0171227Y0082326D01*
X0171826Y0081728D02*
X0153348Y0081728D01*
X0153266Y0077538D02*
X0158363Y0077538D01*
X0159168Y0076940D02*
X0152743Y0076940D01*
X0152145Y0076341D02*
X0159667Y0076341D01*
X0159915Y0075743D02*
X0150820Y0075743D01*
X0160789Y0080497D02*
X0160789Y0080497D01*
X0160789Y0080497D01*
X0161353Y0079932D02*
X0186937Y0079932D01*
X0186937Y0079334D02*
X0161952Y0079334D01*
X0162550Y0078735D02*
X0186937Y0078735D01*
X0186937Y0078137D02*
X0181508Y0078137D01*
X0182246Y0077538D02*
X0186937Y0077538D01*
X0186937Y0076940D02*
X0182844Y0076940D01*
X0183092Y0076341D02*
X0186937Y0076341D01*
X0186937Y0075743D02*
X0183340Y0075743D01*
X0183437Y0075144D02*
X0186937Y0075144D01*
X0186937Y0074546D02*
X0183437Y0074546D01*
X0183433Y0073947D02*
X0186937Y0073947D01*
X0186937Y0073349D02*
X0183185Y0073349D01*
X0182938Y0072750D02*
X0186937Y0072750D01*
X0186937Y0072152D02*
X0182472Y0072152D01*
X0181874Y0071553D02*
X0186937Y0071553D01*
X0186937Y0070955D02*
X0180609Y0070955D01*
X0177237Y0068561D02*
X0176637Y0068561D01*
X0176637Y0067962D02*
X0177237Y0067962D01*
X0177237Y0067364D02*
X0176637Y0067364D01*
X0176637Y0066765D02*
X0177237Y0066765D01*
X0177237Y0066167D02*
X0176637Y0066167D01*
X0176637Y0064371D02*
X0177237Y0064371D01*
X0177237Y0064432D02*
X0177237Y0060832D01*
X0179921Y0060832D01*
X0180675Y0060982D01*
X0181384Y0061276D01*
X0182023Y0061703D01*
X0182566Y0062246D01*
X0182993Y0062884D01*
X0183287Y0063594D01*
X0183437Y0064348D01*
X0183437Y0064432D01*
X0177237Y0064432D01*
X0177237Y0063773D02*
X0176637Y0063773D01*
X0176637Y0063174D02*
X0177237Y0063174D01*
X0177237Y0062576D02*
X0176637Y0062576D01*
X0176637Y0061977D02*
X0177237Y0061977D01*
X0177237Y0061379D02*
X0176637Y0061379D01*
X0181538Y0061379D02*
X0186937Y0061379D01*
X0186937Y0061977D02*
X0182298Y0061977D01*
X0182787Y0062576D02*
X0186937Y0062576D01*
X0186937Y0063174D02*
X0183113Y0063174D01*
X0183323Y0063773D02*
X0186937Y0063773D01*
X0186937Y0064371D02*
X0183437Y0064371D01*
X0186937Y0060780D02*
X0164487Y0060780D01*
X0165086Y0060181D02*
X0186937Y0060181D01*
X0186937Y0059583D02*
X0165525Y0059583D01*
X0165773Y0058984D02*
X0186937Y0058984D01*
X0186937Y0058386D02*
X0166021Y0058386D01*
X0166037Y0057787D02*
X0186937Y0057787D01*
X0186937Y0057189D02*
X0166037Y0057189D01*
X0166037Y0056590D02*
X0186937Y0056590D01*
X0186937Y0055992D02*
X0166037Y0055992D01*
X0166037Y0055393D02*
X0186937Y0055393D01*
X0186937Y0054795D02*
X0166037Y0054795D01*
X0166037Y0054196D02*
X0186937Y0054196D01*
X0186937Y0053598D02*
X0166037Y0053598D01*
X0166037Y0052999D02*
X0186937Y0052999D01*
X0186937Y0052401D02*
X0166037Y0052401D01*
X0166037Y0051802D02*
X0186937Y0051802D01*
X0186937Y0051204D02*
X0166037Y0051204D01*
X0165825Y0050605D02*
X0186937Y0050605D01*
X0186937Y0050007D02*
X0165577Y0050007D01*
X0165212Y0049408D02*
X0186937Y0049408D01*
X0186937Y0048810D02*
X0164613Y0048810D01*
X0163669Y0048211D02*
X0186937Y0048211D01*
X0186937Y0047613D02*
X0163383Y0047613D01*
X0163202Y0047014D02*
X0186937Y0047014D01*
X0186937Y0046416D02*
X0162936Y0046416D01*
X0162446Y0045817D02*
X0186937Y0045817D01*
X0186937Y0045219D02*
X0161955Y0045219D01*
X0161464Y0044620D02*
X0186937Y0044620D01*
X0186937Y0044022D02*
X0160511Y0044022D01*
X0161335Y0044462D02*
X0161335Y0044462D01*
X0159393Y0043423D02*
X0186937Y0043423D01*
X0186937Y0042825D02*
X0156630Y0042825D01*
X0156572Y0042825D02*
X0129307Y0042825D01*
X0128266Y0042226D02*
X0186937Y0042226D01*
X0186937Y0041628D02*
X0127782Y0041628D01*
X0127534Y0041029D02*
X0186937Y0041029D01*
X0186937Y0040431D02*
X0127443Y0040431D01*
X0124329Y0042825D02*
X0083385Y0042825D01*
X0083213Y0042409D02*
X0083837Y0043916D01*
X0083837Y0045547D01*
X0083213Y0047054D01*
X0082059Y0048208D01*
X0080553Y0048832D01*
X0073321Y0048832D01*
X0071815Y0048208D01*
X0070661Y0047054D01*
X0070037Y0045547D01*
X0070037Y0043916D01*
X0070661Y0042409D01*
X0071815Y0041256D01*
X0072487Y0040977D01*
X0072487Y0039893D01*
X0072649Y0039732D01*
X0072487Y0039570D01*
X0072487Y0038486D01*
X0071815Y0038208D01*
X0070661Y0037054D01*
X0070643Y0037011D01*
X0067129Y0037011D01*
X0065029Y0039111D01*
X0061798Y0039111D01*
X0059513Y0036826D01*
X0059513Y0033595D01*
X0061613Y0031495D01*
X0061613Y0030340D01*
X0062908Y0026357D01*
X0065369Y0022969D01*
X0065369Y0022969D01*
X0065369Y0022969D01*
X0068757Y0020507D01*
X0070934Y0019800D01*
X0070934Y0019398D01*
X0073219Y0017113D01*
X0076449Y0017113D01*
X0078734Y0019398D01*
X0078734Y0022629D01*
X0076449Y0024913D01*
X0073219Y0024913D01*
X0071750Y0023445D01*
X0070466Y0023862D01*
X0068031Y0025631D01*
X0066262Y0028066D01*
X0065332Y0030929D01*
X0065282Y0031564D01*
X0067129Y0033411D01*
X0070246Y0033411D01*
X0070661Y0032409D01*
X0071815Y0031256D01*
X0073321Y0030632D01*
X0080553Y0030632D01*
X0082059Y0031256D01*
X0083213Y0032409D01*
X0083837Y0033916D01*
X0083837Y0035547D01*
X0083213Y0037054D01*
X0082059Y0038208D01*
X0081387Y0038486D01*
X0081387Y0039570D01*
X0081225Y0039732D01*
X0081387Y0039893D01*
X0081387Y0040977D01*
X0082059Y0041256D01*
X0083213Y0042409D01*
X0083030Y0042226D02*
X0124081Y0042226D01*
X0123843Y0041628D02*
X0082431Y0041628D01*
X0081512Y0041029D02*
X0123843Y0041029D01*
X0123843Y0040431D02*
X0081387Y0040431D01*
X0081326Y0039832D02*
X0123653Y0039832D01*
X0123358Y0039234D02*
X0121341Y0039234D01*
X0121628Y0038635D02*
X0123358Y0038635D01*
X0123358Y0038037D02*
X0121628Y0038037D01*
X0121628Y0037438D02*
X0123358Y0037438D01*
X0123358Y0036840D02*
X0121628Y0036840D01*
X0121628Y0036241D02*
X0123358Y0036241D01*
X0123358Y0035643D02*
X0121628Y0035643D01*
X0121628Y0035044D02*
X0123358Y0035044D01*
X0123358Y0034445D02*
X0121628Y0034445D01*
X0121628Y0033847D02*
X0123358Y0033847D01*
X0123358Y0033248D02*
X0121628Y0033248D01*
X0121628Y0032650D02*
X0123358Y0032650D01*
X0123358Y0032051D02*
X0121628Y0032051D01*
X0121628Y0031453D02*
X0123358Y0031453D01*
X0123028Y0030854D02*
X0121628Y0030854D01*
X0121628Y0030256D02*
X0121932Y0030256D01*
X0120250Y0027862D02*
X0100616Y0027862D01*
X0100368Y0028460D02*
X0109933Y0028460D01*
X0109335Y0029059D02*
X0100121Y0029059D01*
X0100075Y0029169D02*
X0097375Y0031870D01*
X0093846Y0033331D01*
X0090028Y0033331D01*
X0086499Y0031870D01*
X0083799Y0029169D01*
X0082338Y0025641D01*
X0082338Y0021822D01*
X0083799Y0018294D01*
X0086499Y0015594D01*
X0090028Y0014133D01*
X0093846Y0014133D01*
X0097375Y0015594D01*
X0100075Y0018294D01*
X0101536Y0021822D01*
X0101536Y0025641D01*
X0100075Y0029169D01*
X0099587Y0029657D02*
X0109185Y0029657D01*
X0109185Y0030256D02*
X0098988Y0030256D01*
X0098390Y0030854D02*
X0109185Y0030854D01*
X0109185Y0031453D02*
X0097791Y0031453D01*
X0096936Y0032051D02*
X0109185Y0032051D01*
X0109185Y0032650D02*
X0095491Y0032650D01*
X0094046Y0033248D02*
X0109185Y0033248D01*
X0109185Y0033847D02*
X0083808Y0033847D01*
X0083837Y0034445D02*
X0109185Y0034445D01*
X0109185Y0035044D02*
X0083837Y0035044D01*
X0083798Y0035643D02*
X0109185Y0035643D01*
X0109185Y0036241D02*
X0083550Y0036241D01*
X0083302Y0036840D02*
X0109185Y0036840D01*
X0109185Y0037438D02*
X0082829Y0037438D01*
X0082231Y0038037D02*
X0109185Y0038037D01*
X0109185Y0038635D02*
X0081387Y0038635D01*
X0081387Y0039234D02*
X0109472Y0039234D01*
X0108349Y0043423D02*
X0124577Y0043423D01*
X0124903Y0044022D02*
X0108939Y0044022D01*
X0108939Y0044620D02*
X0125501Y0044620D01*
X0126100Y0045219D02*
X0108939Y0045219D01*
X0108939Y0045817D02*
X0127000Y0045817D01*
X0128444Y0046416D02*
X0108939Y0046416D01*
X0108939Y0047014D02*
X0158340Y0047014D01*
X0159181Y0047613D02*
X0108939Y0047613D01*
X0108939Y0048211D02*
X0150205Y0048211D01*
X0149261Y0048810D02*
X0108939Y0048810D01*
X0108967Y0049408D02*
X0148662Y0049408D01*
X0148297Y0050007D02*
X0109362Y0050007D01*
X0109756Y0050605D02*
X0148049Y0050605D01*
X0147837Y0051204D02*
X0110151Y0051204D01*
X0110546Y0051802D02*
X0147837Y0051802D01*
X0147837Y0052401D02*
X0140696Y0052401D01*
X0141120Y0052999D02*
X0147837Y0052999D01*
X0147837Y0053598D02*
X0141190Y0053598D01*
X0141190Y0054196D02*
X0147837Y0054196D01*
X0147837Y0054795D02*
X0141190Y0054795D01*
X0141190Y0055393D02*
X0147837Y0055393D01*
X0153669Y0048211D02*
X0159672Y0048211D01*
X0159261Y0048810D02*
X0154613Y0048810D01*
X0155212Y0049408D02*
X0158662Y0049408D01*
X0158297Y0050007D02*
X0155577Y0050007D01*
X0158922Y0043171D02*
X0158922Y0043171D01*
X0154412Y0039234D02*
X0186937Y0039234D01*
X0186937Y0039832D02*
X0140231Y0039832D01*
X0140266Y0039797D02*
X0140024Y0040039D01*
X0139727Y0040210D01*
X0139397Y0040299D01*
X0138433Y0040299D01*
X0138433Y0035254D01*
X0140525Y0035254D01*
X0140525Y0039170D01*
X0140437Y0039501D01*
X0140266Y0039797D01*
X0140508Y0039234D02*
X0142543Y0039234D01*
X0142256Y0038635D02*
X0140525Y0038635D01*
X0140525Y0038037D02*
X0142256Y0038037D01*
X0142256Y0037438D02*
X0140525Y0037438D01*
X0140525Y0036840D02*
X0142256Y0036840D01*
X0142256Y0036241D02*
X0140525Y0036241D01*
X0140525Y0035643D02*
X0142256Y0035643D01*
X0142256Y0035044D02*
X0138433Y0035044D01*
X0138433Y0035643D02*
X0138049Y0035643D01*
X0138049Y0036241D02*
X0138433Y0036241D01*
X0138433Y0036840D02*
X0138049Y0036840D01*
X0138049Y0037438D02*
X0138433Y0037438D01*
X0138433Y0038037D02*
X0138049Y0038037D01*
X0138049Y0038635D02*
X0138433Y0038635D01*
X0138433Y0039234D02*
X0138049Y0039234D01*
X0138049Y0039832D02*
X0138433Y0039832D01*
X0140525Y0034445D02*
X0142256Y0034445D01*
X0142256Y0033847D02*
X0140525Y0033847D01*
X0140525Y0033248D02*
X0142256Y0033248D01*
X0142256Y0032650D02*
X0140525Y0032650D01*
X0140525Y0032051D02*
X0142256Y0032051D01*
X0142256Y0031453D02*
X0140525Y0031453D01*
X0140856Y0030854D02*
X0142256Y0030854D01*
X0142256Y0030256D02*
X0141952Y0030256D01*
X0143634Y0027862D02*
X0186937Y0027862D01*
X0186937Y0028460D02*
X0153951Y0028460D01*
X0154549Y0029059D02*
X0186937Y0029059D01*
X0186937Y0029657D02*
X0154699Y0029657D01*
X0154699Y0030256D02*
X0186937Y0030256D01*
X0186937Y0030854D02*
X0154699Y0030854D01*
X0154699Y0031453D02*
X0186937Y0031453D01*
X0186937Y0032051D02*
X0154699Y0032051D01*
X0154699Y0032650D02*
X0186937Y0032650D01*
X0186937Y0033248D02*
X0154699Y0033248D01*
X0154699Y0033847D02*
X0186937Y0033847D01*
X0186937Y0034445D02*
X0154699Y0034445D01*
X0154699Y0035044D02*
X0186937Y0035044D01*
X0186937Y0035643D02*
X0154699Y0035643D01*
X0154699Y0036241D02*
X0186937Y0036241D01*
X0186937Y0036840D02*
X0154699Y0036840D01*
X0154699Y0037438D02*
X0186937Y0037438D01*
X0186937Y0038037D02*
X0154699Y0038037D01*
X0154699Y0038635D02*
X0186937Y0038635D01*
X0186937Y0027263D02*
X0143882Y0027263D01*
X0143903Y0026665D02*
X0186937Y0026665D01*
X0186937Y0026066D02*
X0143903Y0026066D01*
X0143903Y0025468D02*
X0186937Y0025468D01*
X0186937Y0024869D02*
X0143769Y0024869D01*
X0147399Y0024271D02*
X0186937Y0024271D01*
X0186937Y0023672D02*
X0147399Y0023672D01*
X0147399Y0023074D02*
X0186937Y0023074D01*
X0186937Y0022475D02*
X0147399Y0022475D01*
X0147399Y0021877D02*
X0186937Y0021877D01*
X0186937Y0021278D02*
X0147399Y0021278D01*
X0147399Y0020680D02*
X0186937Y0020680D01*
X0186937Y0020081D02*
X0147399Y0020081D01*
X0147399Y0019483D02*
X0186937Y0019483D01*
X0186937Y0018884D02*
X0147399Y0018884D01*
X0154494Y0018286D02*
X0186937Y0018286D01*
X0186937Y0017687D02*
X0154699Y0017687D01*
X0154699Y0017089D02*
X0186937Y0017089D01*
X0186937Y0016490D02*
X0154699Y0016490D01*
X0154699Y0015892D02*
X0186937Y0015892D01*
X0186937Y0015293D02*
X0154699Y0015293D01*
X0154699Y0014695D02*
X0186937Y0014695D01*
X0186937Y0014096D02*
X0154699Y0014096D01*
X0154699Y0013498D02*
X0186937Y0013498D01*
X0186937Y0012899D02*
X0154699Y0012899D01*
X0154699Y0012301D02*
X0186937Y0012301D01*
X0186937Y0011702D02*
X0154699Y0011702D01*
X0154699Y0011104D02*
X0186937Y0011104D01*
X0186937Y0010505D02*
X0154699Y0010505D01*
X0154699Y0009907D02*
X0186937Y0009907D01*
X0186937Y0009308D02*
X0154699Y0009308D01*
X0154699Y0008710D02*
X0186937Y0008710D01*
X0186937Y0008111D02*
X0154467Y0008111D01*
X0120115Y0024869D02*
X0101536Y0024869D01*
X0101536Y0024271D02*
X0116484Y0024271D01*
X0116484Y0023672D02*
X0101536Y0023672D01*
X0101536Y0023074D02*
X0116484Y0023074D01*
X0116484Y0022475D02*
X0101536Y0022475D01*
X0101536Y0021877D02*
X0116484Y0021877D01*
X0116484Y0021278D02*
X0101311Y0021278D01*
X0101063Y0020680D02*
X0116484Y0020680D01*
X0116484Y0020081D02*
X0100815Y0020081D01*
X0100567Y0019483D02*
X0116484Y0019483D01*
X0116484Y0018884D02*
X0100319Y0018884D01*
X0100066Y0018286D02*
X0109390Y0018286D01*
X0109185Y0017687D02*
X0099468Y0017687D01*
X0098869Y0017089D02*
X0109185Y0017089D01*
X0109185Y0016490D02*
X0098271Y0016490D01*
X0097672Y0015892D02*
X0109185Y0015892D01*
X0109185Y0015293D02*
X0096648Y0015293D01*
X0095203Y0014695D02*
X0109185Y0014695D01*
X0109185Y0014096D02*
X0058237Y0014096D01*
X0058237Y0013498D02*
X0109185Y0013498D01*
X0109185Y0012899D02*
X0058237Y0012899D01*
X0058237Y0012301D02*
X0109185Y0012301D01*
X0109185Y0011702D02*
X0058237Y0011702D01*
X0058237Y0011104D02*
X0109185Y0011104D01*
X0109185Y0010505D02*
X0058237Y0010505D01*
X0058237Y0009907D02*
X0109185Y0009907D01*
X0109185Y0009308D02*
X0058237Y0009308D01*
X0058237Y0008710D02*
X0109185Y0008710D01*
X0109416Y0008111D02*
X0058237Y0008111D01*
X0058237Y0014695D02*
X0088671Y0014695D01*
X0087226Y0015293D02*
X0058237Y0015293D01*
X0058237Y0015892D02*
X0086202Y0015892D01*
X0085603Y0016490D02*
X0058237Y0016490D01*
X0058237Y0017089D02*
X0085005Y0017089D01*
X0084406Y0017687D02*
X0077023Y0017687D01*
X0077622Y0018286D02*
X0083808Y0018286D01*
X0083555Y0018884D02*
X0078220Y0018884D01*
X0078734Y0019483D02*
X0083307Y0019483D01*
X0083059Y0020081D02*
X0078734Y0020081D01*
X0078734Y0020680D02*
X0082811Y0020680D01*
X0082563Y0021278D02*
X0078734Y0021278D01*
X0078734Y0021877D02*
X0082338Y0021877D01*
X0082338Y0022475D02*
X0078734Y0022475D01*
X0078289Y0023074D02*
X0082338Y0023074D01*
X0082338Y0023672D02*
X0077690Y0023672D01*
X0077092Y0024271D02*
X0082338Y0024271D01*
X0082338Y0024869D02*
X0076493Y0024869D01*
X0073175Y0024869D02*
X0069080Y0024869D01*
X0069903Y0024271D02*
X0072576Y0024271D01*
X0071978Y0023672D02*
X0071050Y0023672D01*
X0068256Y0025468D02*
X0082338Y0025468D01*
X0082514Y0026066D02*
X0067715Y0026066D01*
X0067280Y0026665D02*
X0082762Y0026665D01*
X0083010Y0027263D02*
X0066845Y0027263D01*
X0066410Y0027862D02*
X0083258Y0027862D01*
X0083506Y0028460D02*
X0066134Y0028460D01*
X0065939Y0029059D02*
X0083753Y0029059D01*
X0084287Y0029657D02*
X0065745Y0029657D01*
X0065550Y0030256D02*
X0084886Y0030256D01*
X0085484Y0030854D02*
X0081090Y0030854D01*
X0082256Y0031453D02*
X0086083Y0031453D01*
X0086938Y0032051D02*
X0082855Y0032051D01*
X0083312Y0032650D02*
X0088383Y0032650D01*
X0089828Y0033248D02*
X0083560Y0033248D01*
X0072784Y0030854D02*
X0065356Y0030854D01*
X0065291Y0031453D02*
X0071618Y0031453D01*
X0071019Y0032051D02*
X0065769Y0032051D01*
X0066368Y0032650D02*
X0070562Y0032650D01*
X0070314Y0033248D02*
X0066966Y0033248D01*
X0066702Y0037438D02*
X0071045Y0037438D01*
X0071643Y0038037D02*
X0066103Y0038037D01*
X0065505Y0038635D02*
X0072487Y0038635D01*
X0072487Y0039234D02*
X0058237Y0039234D01*
X0058237Y0039832D02*
X0072548Y0039832D01*
X0072487Y0040431D02*
X0058237Y0040431D01*
X0058237Y0041029D02*
X0072362Y0041029D01*
X0071443Y0041628D02*
X0058237Y0041628D01*
X0058237Y0042226D02*
X0070844Y0042226D01*
X0070489Y0042825D02*
X0058237Y0042825D01*
X0058237Y0043423D02*
X0070241Y0043423D01*
X0070037Y0044022D02*
X0058237Y0044022D01*
X0058237Y0044620D02*
X0070037Y0044620D01*
X0070037Y0045219D02*
X0058237Y0045219D01*
X0058237Y0045817D02*
X0070149Y0045817D01*
X0070397Y0046416D02*
X0058237Y0046416D01*
X0058237Y0047014D02*
X0070645Y0047014D01*
X0071220Y0047613D02*
X0058237Y0047613D01*
X0058237Y0048211D02*
X0071823Y0048211D01*
X0073268Y0048810D02*
X0058237Y0048810D01*
X0058237Y0049408D02*
X0092663Y0049408D01*
X0092565Y0049311D02*
X0092160Y0048705D01*
X0091881Y0048031D01*
X0091739Y0047316D01*
X0091739Y0047252D01*
X0095139Y0047252D01*
X0095139Y0046652D01*
X0091739Y0046652D01*
X0091739Y0046588D01*
X0091881Y0045873D01*
X0092160Y0045199D01*
X0092565Y0044593D01*
X0093080Y0044078D01*
X0093687Y0043673D01*
X0094360Y0043394D01*
X0095075Y0043252D01*
X0095139Y0043252D01*
X0095139Y0046652D01*
X0095739Y0046652D01*
X0095739Y0043252D01*
X0095804Y0043252D01*
X0096518Y0043394D01*
X0097192Y0043673D01*
X0097798Y0044078D01*
X0098313Y0044593D01*
X0098718Y0045199D01*
X0098997Y0045873D01*
X0099139Y0046588D01*
X0099139Y0046652D01*
X0095739Y0046652D01*
X0095739Y0047252D01*
X0095139Y0047252D01*
X0095139Y0050652D01*
X0095075Y0050652D01*
X0094360Y0050510D01*
X0093687Y0050231D01*
X0093080Y0049826D01*
X0092565Y0049311D01*
X0092231Y0048810D02*
X0080606Y0048810D01*
X0082051Y0048211D02*
X0091956Y0048211D01*
X0091798Y0047613D02*
X0082654Y0047613D01*
X0083229Y0047014D02*
X0095139Y0047014D01*
X0095139Y0046416D02*
X0095739Y0046416D01*
X0095739Y0047014D02*
X0101539Y0047014D01*
X0101539Y0046416D02*
X0099105Y0046416D01*
X0098974Y0045817D02*
X0101539Y0045817D01*
X0101539Y0045219D02*
X0098726Y0045219D01*
X0098331Y0044620D02*
X0101539Y0044620D01*
X0101539Y0044022D02*
X0097713Y0044022D01*
X0096588Y0043423D02*
X0102129Y0043423D01*
X0101539Y0047613D02*
X0099080Y0047613D01*
X0099139Y0047316D02*
X0098997Y0048031D01*
X0098718Y0048705D01*
X0098313Y0049311D01*
X0097798Y0049826D01*
X0097192Y0050231D01*
X0096518Y0050510D01*
X0095804Y0050652D01*
X0095739Y0050652D01*
X0095739Y0047252D01*
X0099139Y0047252D01*
X0099139Y0047316D01*
X0098922Y0048211D02*
X0101539Y0048211D01*
X0101539Y0048810D02*
X0098648Y0048810D01*
X0098215Y0049408D02*
X0101539Y0049408D01*
X0101655Y0050007D02*
X0097527Y0050007D01*
X0096038Y0050605D02*
X0102254Y0050605D01*
X0105839Y0051204D02*
X0058237Y0051204D01*
X0058237Y0051802D02*
X0061306Y0051802D01*
X0061798Y0051311D02*
X0059513Y0053595D01*
X0059513Y0054911D01*
X0063113Y0054911D01*
X0063113Y0055511D01*
X0059513Y0055511D01*
X0059513Y0056826D01*
X0061798Y0059111D01*
X0063113Y0059111D01*
X0063113Y0055511D01*
X0063713Y0055511D01*
X0063713Y0059111D01*
X0065029Y0059111D01*
X0067313Y0056826D01*
X0067313Y0055511D01*
X0063713Y0055511D01*
X0063713Y0054911D01*
X0063713Y0051311D01*
X0065029Y0051311D01*
X0067313Y0053595D01*
X0067313Y0054911D01*
X0063713Y0054911D01*
X0063113Y0054911D01*
X0063113Y0051311D01*
X0061798Y0051311D01*
X0063113Y0051802D02*
X0063713Y0051802D01*
X0063713Y0052401D02*
X0063113Y0052401D01*
X0063113Y0052999D02*
X0063713Y0052999D01*
X0063713Y0053598D02*
X0063113Y0053598D01*
X0063113Y0054196D02*
X0063713Y0054196D01*
X0063713Y0054795D02*
X0063113Y0054795D01*
X0063113Y0055393D02*
X0058237Y0055393D01*
X0058237Y0054795D02*
X0059513Y0054795D01*
X0059513Y0054196D02*
X0058237Y0054196D01*
X0058237Y0053598D02*
X0059513Y0053598D01*
X0060109Y0052999D02*
X0058237Y0052999D01*
X0058237Y0052401D02*
X0060708Y0052401D01*
X0058237Y0050605D02*
X0094840Y0050605D01*
X0095139Y0050605D02*
X0095739Y0050605D01*
X0095739Y0050007D02*
X0095139Y0050007D01*
X0095139Y0049408D02*
X0095739Y0049408D01*
X0095739Y0048810D02*
X0095139Y0048810D01*
X0095139Y0048211D02*
X0095739Y0048211D01*
X0095739Y0047613D02*
X0095139Y0047613D01*
X0095139Y0045817D02*
X0095739Y0045817D01*
X0095739Y0045219D02*
X0095139Y0045219D01*
X0095139Y0044620D02*
X0095739Y0044620D01*
X0095739Y0044022D02*
X0095139Y0044022D01*
X0095139Y0043423D02*
X0095739Y0043423D01*
X0094290Y0043423D02*
X0083633Y0043423D01*
X0083837Y0044022D02*
X0093165Y0044022D01*
X0092547Y0044620D02*
X0083837Y0044620D01*
X0083837Y0045219D02*
X0092152Y0045219D01*
X0091904Y0045817D02*
X0083725Y0045817D01*
X0083477Y0046416D02*
X0091773Y0046416D01*
X0093351Y0050007D02*
X0058237Y0050007D01*
X0058237Y0055992D02*
X0059513Y0055992D01*
X0059513Y0056590D02*
X0058237Y0056590D01*
X0058237Y0057189D02*
X0059876Y0057189D01*
X0060475Y0057787D02*
X0058237Y0057787D01*
X0058237Y0058386D02*
X0061073Y0058386D01*
X0061672Y0058984D02*
X0058237Y0058984D01*
X0058237Y0059583D02*
X0111364Y0059583D01*
X0111759Y0060181D02*
X0058237Y0060181D01*
X0058237Y0060780D02*
X0112153Y0060780D01*
X0112548Y0061379D02*
X0093510Y0061379D01*
X0093690Y0061453D02*
X0093016Y0061174D01*
X0092301Y0061032D01*
X0092237Y0061032D01*
X0092237Y0064432D01*
X0092237Y0065032D01*
X0091637Y0065032D01*
X0091637Y0068432D01*
X0091573Y0068432D01*
X0090858Y0068290D01*
X0090184Y0068011D01*
X0089578Y0067606D01*
X0089063Y0067090D01*
X0088658Y0066484D01*
X0088379Y0065811D01*
X0088237Y0065096D01*
X0088237Y0065032D01*
X0091637Y0065032D01*
X0091637Y0064432D01*
X0088237Y0064432D01*
X0088237Y0064367D01*
X0088379Y0063653D01*
X0088658Y0062979D01*
X0089063Y0062373D01*
X0089578Y0061858D01*
X0090184Y0061453D01*
X0090858Y0061174D01*
X0091573Y0061032D01*
X0091637Y0061032D01*
X0091637Y0064432D01*
X0092237Y0064432D01*
X0095637Y0064432D01*
X0095637Y0064367D01*
X0095495Y0063653D01*
X0095216Y0062979D01*
X0094811Y0062373D01*
X0094296Y0061858D01*
X0093690Y0061453D01*
X0094415Y0061977D02*
X0112943Y0061977D01*
X0113235Y0062576D02*
X0110871Y0062576D01*
X0110930Y0062634D02*
X0111101Y0062931D01*
X0111190Y0063261D01*
X0111190Y0065692D01*
X0107237Y0065692D01*
X0107237Y0062133D01*
X0110061Y0062133D01*
X0110392Y0062221D01*
X0110688Y0062392D01*
X0110930Y0062634D01*
X0111166Y0063174D02*
X0113732Y0063174D01*
X0114432Y0063773D02*
X0111190Y0063773D01*
X0111190Y0064371D02*
X0115458Y0064371D01*
X0114614Y0063955D02*
X0114614Y0063955D01*
X0116670Y0064970D02*
X0111190Y0064970D01*
X0111190Y0065568D02*
X0117684Y0065568D01*
X0117684Y0066167D02*
X0107237Y0066167D01*
X0107237Y0065568D02*
X0106637Y0065568D01*
X0106637Y0064970D02*
X0107237Y0064970D01*
X0107237Y0064371D02*
X0106637Y0064371D01*
X0106637Y0063773D02*
X0107237Y0063773D01*
X0107237Y0063174D02*
X0106637Y0063174D01*
X0106637Y0062576D02*
X0107237Y0062576D01*
X0106637Y0066167D02*
X0095348Y0066167D01*
X0095216Y0066484D02*
X0094811Y0067090D01*
X0094296Y0067606D01*
X0093690Y0068011D01*
X0093016Y0068290D01*
X0092301Y0068432D01*
X0092237Y0068432D01*
X0092237Y0065032D01*
X0095637Y0065032D01*
X0095637Y0065096D01*
X0095495Y0065811D01*
X0095216Y0066484D01*
X0095028Y0066765D02*
X0102684Y0066765D01*
X0102684Y0067364D02*
X0094538Y0067364D01*
X0093762Y0067962D02*
X0102684Y0067962D01*
X0102684Y0068561D02*
X0058237Y0068561D01*
X0058237Y0069159D02*
X0102834Y0069159D01*
X0103301Y0069758D02*
X0058237Y0069758D01*
X0058237Y0070356D02*
X0102703Y0070356D01*
X0102684Y0070955D02*
X0094998Y0070955D01*
X0095597Y0071553D02*
X0102684Y0071553D01*
X0102684Y0072152D02*
X0095637Y0072152D01*
X0095637Y0072750D02*
X0102684Y0072750D01*
X0102684Y0076532D02*
X0095637Y0076532D01*
X0095637Y0077470D01*
X0094875Y0078232D01*
X0088999Y0078232D01*
X0088237Y0077470D01*
X0088237Y0076532D01*
X0071637Y0076532D01*
X0071637Y0077046D01*
X0070800Y0079068D01*
X0069252Y0080615D01*
X0067231Y0081452D01*
X0058237Y0081452D01*
X0058237Y0084232D01*
X0061637Y0084232D01*
X0061637Y0089432D01*
X0062237Y0089432D01*
X0062237Y0090032D01*
X0061637Y0090032D01*
X0061637Y0095232D01*
X0058237Y0095232D01*
X0058237Y0098011D01*
X0067231Y0098011D01*
X0069252Y0098849D01*
X0070800Y0100396D01*
X0071637Y0102417D01*
X0071637Y0102932D01*
X0088237Y0102932D01*
X0088237Y0101993D01*
X0088999Y0101232D01*
X0094875Y0101232D01*
X0095637Y0101993D01*
X0095637Y0102932D01*
X0102684Y0102932D01*
X0102684Y0102894D01*
X0103446Y0102133D01*
X0105137Y0102133D01*
X0105137Y0098832D01*
X0103249Y0098832D01*
X0102487Y0098070D01*
X0102487Y0092393D01*
X0102649Y0092232D01*
X0102487Y0092070D01*
X0102487Y0086393D01*
X0103249Y0085632D01*
X0110625Y0085632D01*
X0111387Y0086393D01*
X0111387Y0087432D01*
X0116191Y0087432D01*
X0118720Y0084903D01*
X0116773Y0084903D01*
X0116011Y0084142D01*
X0116011Y0081699D01*
X0111036Y0076724D01*
X0110428Y0077331D01*
X0103446Y0077331D01*
X0102684Y0076570D01*
X0102684Y0076532D01*
X0103055Y0076940D02*
X0095637Y0076940D01*
X0095569Y0077538D02*
X0111850Y0077538D01*
X0111252Y0076940D02*
X0110819Y0076940D01*
X0112449Y0078137D02*
X0094970Y0078137D01*
X0088904Y0078137D02*
X0071185Y0078137D01*
X0070937Y0078735D02*
X0113047Y0078735D01*
X0113646Y0079334D02*
X0070534Y0079334D01*
X0069935Y0079932D02*
X0114244Y0079932D01*
X0114843Y0080531D02*
X0069337Y0080531D01*
X0068011Y0081129D02*
X0115441Y0081129D01*
X0116011Y0081728D02*
X0058237Y0081728D01*
X0058237Y0082326D02*
X0116011Y0082326D01*
X0116011Y0082925D02*
X0058237Y0082925D01*
X0058237Y0083523D02*
X0116011Y0083523D01*
X0116011Y0084122D02*
X0058237Y0084122D01*
X0061637Y0084720D02*
X0062237Y0084720D01*
X0062237Y0084232D02*
X0066570Y0084232D01*
X0067425Y0084367D01*
X0068248Y0084635D01*
X0069020Y0085028D01*
X0069720Y0085537D01*
X0070332Y0086149D01*
X0070841Y0086849D01*
X0071234Y0087621D01*
X0071502Y0088444D01*
X0071637Y0089299D01*
X0071637Y0089432D01*
X0062237Y0089432D01*
X0062237Y0084232D01*
X0062237Y0085319D02*
X0061637Y0085319D01*
X0061637Y0085917D02*
X0062237Y0085917D01*
X0062237Y0086516D02*
X0061637Y0086516D01*
X0061637Y0087114D02*
X0062237Y0087114D01*
X0062237Y0087713D02*
X0061637Y0087713D01*
X0061637Y0088312D02*
X0062237Y0088312D01*
X0062237Y0088910D02*
X0061637Y0088910D01*
X0062237Y0089509D02*
X0102487Y0089509D01*
X0102487Y0090107D02*
X0071637Y0090107D01*
X0071637Y0090165D02*
X0071502Y0091020D01*
X0071234Y0091843D01*
X0070841Y0092614D01*
X0070332Y0093315D01*
X0069720Y0093927D01*
X0069020Y0094436D01*
X0068248Y0094829D01*
X0067425Y0095096D01*
X0066570Y0095232D01*
X0062237Y0095232D01*
X0062237Y0090032D01*
X0071637Y0090032D01*
X0071637Y0090165D01*
X0071551Y0090706D02*
X0102487Y0090706D01*
X0102487Y0091304D02*
X0071409Y0091304D01*
X0071204Y0091903D02*
X0102487Y0091903D01*
X0102487Y0092501D02*
X0070899Y0092501D01*
X0070489Y0093100D02*
X0102487Y0093100D01*
X0102487Y0093698D02*
X0069949Y0093698D01*
X0069211Y0094297D02*
X0102487Y0094297D01*
X0102487Y0094895D02*
X0068044Y0094895D01*
X0068377Y0098486D02*
X0102903Y0098486D01*
X0102487Y0097888D02*
X0058237Y0097888D01*
X0058237Y0097289D02*
X0102487Y0097289D01*
X0102487Y0096691D02*
X0058237Y0096691D01*
X0058237Y0096092D02*
X0102487Y0096092D01*
X0102487Y0095494D02*
X0058237Y0095494D01*
X0061637Y0094895D02*
X0062237Y0094895D01*
X0062237Y0094297D02*
X0061637Y0094297D01*
X0061637Y0093698D02*
X0062237Y0093698D01*
X0062237Y0093100D02*
X0061637Y0093100D01*
X0061637Y0092501D02*
X0062237Y0092501D01*
X0062237Y0091903D02*
X0061637Y0091903D01*
X0061637Y0091304D02*
X0062237Y0091304D01*
X0062237Y0090706D02*
X0061637Y0090706D01*
X0061637Y0090107D02*
X0062237Y0090107D01*
X0068416Y0084720D02*
X0116590Y0084720D01*
X0117706Y0085917D02*
X0110911Y0085917D01*
X0111387Y0086516D02*
X0117107Y0086516D01*
X0116509Y0087114D02*
X0111387Y0087114D01*
X0111387Y0091304D02*
X0121599Y0091304D01*
X0121417Y0091903D02*
X0111387Y0091903D01*
X0111387Y0092501D02*
X0121417Y0092501D01*
X0121417Y0093100D02*
X0111387Y0093100D01*
X0111387Y0093698D02*
X0121417Y0093698D01*
X0121417Y0094297D02*
X0111387Y0094297D01*
X0111387Y0094895D02*
X0116438Y0094895D01*
X0116011Y0095494D02*
X0111387Y0095494D01*
X0111387Y0096092D02*
X0116011Y0096092D01*
X0116011Y0096691D02*
X0111387Y0096691D01*
X0111387Y0097289D02*
X0116011Y0097289D01*
X0116011Y0097888D02*
X0111387Y0097888D01*
X0110971Y0098486D02*
X0115637Y0098486D01*
X0115039Y0099085D02*
X0108737Y0099085D01*
X0108737Y0099683D02*
X0114440Y0099683D01*
X0113842Y0100282D02*
X0108737Y0100282D01*
X0108737Y0100880D02*
X0113243Y0100880D01*
X0112644Y0101479D02*
X0108737Y0101479D01*
X0108737Y0102077D02*
X0112046Y0102077D01*
X0111447Y0102676D02*
X0110971Y0102676D01*
X0113546Y0105668D02*
X0118857Y0105668D01*
X0118857Y0105070D02*
X0114145Y0105070D01*
X0114743Y0104471D02*
X0118857Y0104471D01*
X0118857Y0103873D02*
X0115342Y0103873D01*
X0115940Y0103274D02*
X0118857Y0103274D01*
X0118857Y0102676D02*
X0116539Y0102676D01*
X0117137Y0102077D02*
X0118857Y0102077D01*
X0118857Y0106267D02*
X0112948Y0106267D01*
X0111190Y0106865D02*
X0118857Y0106865D01*
X0118857Y0107464D02*
X0111190Y0107464D01*
X0111190Y0108062D02*
X0118857Y0108062D01*
X0118857Y0108661D02*
X0111190Y0108661D01*
X0111020Y0109259D02*
X0118857Y0109259D01*
X0118857Y0109858D02*
X0110662Y0109858D01*
X0111113Y0110456D02*
X0118857Y0110456D01*
X0118857Y0111055D02*
X0111190Y0111055D01*
X0111190Y0111653D02*
X0118857Y0111653D01*
X0118857Y0112252D02*
X0111190Y0112252D01*
X0111190Y0112850D02*
X0118857Y0112850D01*
X0118857Y0113449D02*
X0107237Y0113449D01*
X0107237Y0113772D02*
X0111190Y0113772D01*
X0111190Y0116202D01*
X0111101Y0116533D01*
X0110930Y0116829D01*
X0110688Y0117071D01*
X0110392Y0117242D01*
X0110061Y0117331D01*
X0107237Y0117331D01*
X0107237Y0113772D01*
X0107237Y0114048D02*
X0106637Y0114048D01*
X0106637Y0114646D02*
X0107237Y0114646D01*
X0107237Y0115245D02*
X0106637Y0115245D01*
X0106637Y0115843D02*
X0107237Y0115843D01*
X0107237Y0116442D02*
X0106637Y0116442D01*
X0106637Y0117040D02*
X0107237Y0117040D01*
X0110719Y0117040D02*
X0118857Y0117040D01*
X0118857Y0116442D02*
X0111126Y0116442D01*
X0111190Y0115843D02*
X0118857Y0115843D01*
X0118857Y0115245D02*
X0111190Y0115245D01*
X0111190Y0114646D02*
X0118857Y0114646D01*
X0118857Y0114048D02*
X0111190Y0114048D01*
X0106637Y0113449D02*
X0095410Y0113449D01*
X0095495Y0113653D02*
X0095637Y0114367D01*
X0095637Y0114432D01*
X0092237Y0114432D01*
X0092237Y0115032D01*
X0091637Y0115032D01*
X0091637Y0118432D01*
X0091573Y0118432D01*
X0090858Y0118290D01*
X0090184Y0118011D01*
X0089578Y0117606D01*
X0089063Y0117090D01*
X0088658Y0116484D01*
X0088379Y0115811D01*
X0088237Y0115096D01*
X0088237Y0115032D01*
X0091637Y0115032D01*
X0091637Y0114432D01*
X0088237Y0114432D01*
X0088237Y0114367D01*
X0088379Y0113653D01*
X0088658Y0112979D01*
X0089063Y0112373D01*
X0089578Y0111858D01*
X0090184Y0111453D01*
X0090858Y0111174D01*
X0091573Y0111032D01*
X0091637Y0111032D01*
X0091637Y0114432D01*
X0092237Y0114432D01*
X0092237Y0111032D01*
X0092301Y0111032D01*
X0093016Y0111174D01*
X0093690Y0111453D01*
X0094296Y0111858D01*
X0094811Y0112373D01*
X0095216Y0112979D01*
X0095495Y0113653D01*
X0095573Y0114048D02*
X0102684Y0114048D01*
X0102684Y0114646D02*
X0092237Y0114646D01*
X0092237Y0115032D02*
X0095637Y0115032D01*
X0095637Y0115096D01*
X0095495Y0115811D01*
X0095216Y0116484D01*
X0094811Y0117090D01*
X0094296Y0117606D01*
X0093690Y0118011D01*
X0093016Y0118290D01*
X0092301Y0118432D01*
X0092237Y0118432D01*
X0092237Y0115032D01*
X0092237Y0115245D02*
X0091637Y0115245D01*
X0091637Y0115843D02*
X0092237Y0115843D01*
X0092237Y0116442D02*
X0091637Y0116442D01*
X0091637Y0117040D02*
X0092237Y0117040D01*
X0092237Y0117639D02*
X0091637Y0117639D01*
X0091637Y0118237D02*
X0092237Y0118237D01*
X0093143Y0118237D02*
X0118857Y0118237D01*
X0118857Y0117639D02*
X0094247Y0117639D01*
X0094845Y0117040D02*
X0103155Y0117040D01*
X0102748Y0116442D02*
X0095234Y0116442D01*
X0095482Y0115843D02*
X0102684Y0115843D01*
X0102684Y0115245D02*
X0095608Y0115245D01*
X0095130Y0112850D02*
X0102684Y0112850D01*
X0102684Y0112252D02*
X0094690Y0112252D01*
X0093990Y0111653D02*
X0102684Y0111653D01*
X0102684Y0111055D02*
X0092418Y0111055D01*
X0092237Y0111055D02*
X0091637Y0111055D01*
X0091456Y0111055D02*
X0058237Y0111055D01*
X0058237Y0111653D02*
X0089884Y0111653D01*
X0089184Y0112252D02*
X0058237Y0112252D01*
X0058237Y0112850D02*
X0088744Y0112850D01*
X0088464Y0113449D02*
X0058237Y0113449D01*
X0058237Y0114048D02*
X0088301Y0114048D01*
X0088267Y0115245D02*
X0058237Y0115245D01*
X0058237Y0115843D02*
X0088392Y0115843D01*
X0088640Y0116442D02*
X0058237Y0116442D01*
X0058237Y0117040D02*
X0089029Y0117040D01*
X0089627Y0117639D02*
X0058237Y0117639D01*
X0058237Y0118237D02*
X0090731Y0118237D01*
X0091637Y0114646D02*
X0058237Y0114646D01*
X0058237Y0118836D02*
X0118857Y0118836D01*
X0118857Y0119434D02*
X0058237Y0119434D01*
X0058237Y0120033D02*
X0118857Y0120033D01*
X0125017Y0120033D02*
X0175117Y0120033D01*
X0175137Y0119434D02*
X0125017Y0119434D01*
X0125017Y0118836D02*
X0175137Y0118836D01*
X0172608Y0118237D02*
X0125017Y0118237D01*
X0125017Y0117639D02*
X0171728Y0117639D01*
X0171130Y0117040D02*
X0125017Y0117040D01*
X0125017Y0116442D02*
X0170824Y0116442D01*
X0170576Y0115843D02*
X0125017Y0115843D01*
X0125017Y0115245D02*
X0170437Y0115245D01*
X0186937Y0136791D02*
X0125017Y0136791D01*
X0125017Y0137389D02*
X0186937Y0137389D01*
X0186937Y0137988D02*
X0125017Y0137988D01*
X0125017Y0138586D02*
X0186937Y0138586D01*
X0186937Y0139185D02*
X0125017Y0139185D01*
X0125017Y0139783D02*
X0186937Y0139783D01*
X0186937Y0140382D02*
X0125017Y0140382D01*
X0125017Y0140981D02*
X0186937Y0140981D01*
X0186937Y0141579D02*
X0125017Y0141579D01*
X0125017Y0142178D02*
X0186937Y0142178D01*
X0186937Y0142776D02*
X0125017Y0142776D01*
X0129063Y0143375D02*
X0134888Y0143375D01*
X0134788Y0143425D02*
X0135363Y0143132D01*
X0135977Y0142933D01*
X0136614Y0142832D01*
X0136637Y0142832D01*
X0136637Y0149432D01*
X0132837Y0149432D01*
X0132837Y0146609D01*
X0132938Y0145972D01*
X0133137Y0145358D01*
X0133430Y0144783D01*
X0133810Y0144261D01*
X0134266Y0143805D01*
X0134788Y0143425D01*
X0134097Y0143973D02*
X0129777Y0143973D01*
X0130375Y0144572D02*
X0133584Y0144572D01*
X0133233Y0145170D02*
X0130645Y0145170D01*
X0130893Y0145769D02*
X0133004Y0145769D01*
X0132875Y0146367D02*
X0131037Y0146367D01*
X0131037Y0146966D02*
X0132837Y0146966D01*
X0132837Y0147564D02*
X0131037Y0147564D01*
X0131037Y0148163D02*
X0132837Y0148163D01*
X0132837Y0148761D02*
X0131037Y0148761D01*
X0131037Y0149360D02*
X0132837Y0149360D01*
X0132837Y0150032D02*
X0136637Y0150032D01*
X0136637Y0156632D01*
X0136614Y0156632D01*
X0135977Y0156531D01*
X0135363Y0156331D01*
X0134788Y0156038D01*
X0134266Y0155659D01*
X0133810Y0155203D01*
X0133430Y0154681D01*
X0133137Y0154106D01*
X0132938Y0153492D01*
X0132837Y0152855D01*
X0132837Y0150032D01*
X0132837Y0150557D02*
X0131037Y0150557D01*
X0131037Y0151155D02*
X0132837Y0151155D01*
X0132837Y0151754D02*
X0131037Y0151754D01*
X0131037Y0152352D02*
X0132837Y0152352D01*
X0132852Y0152951D02*
X0131037Y0152951D01*
X0130953Y0153549D02*
X0132957Y0153549D01*
X0133159Y0154148D02*
X0130705Y0154148D01*
X0130458Y0154746D02*
X0133478Y0154746D01*
X0133952Y0155345D02*
X0129922Y0155345D01*
X0129324Y0155943D02*
X0134657Y0155943D01*
X0136046Y0156542D02*
X0127970Y0156542D01*
X0125904Y0156542D02*
X0117970Y0156542D01*
X0119324Y0155943D02*
X0124550Y0155943D01*
X0123952Y0155345D02*
X0119922Y0155345D01*
X0120458Y0154746D02*
X0123416Y0154746D01*
X0123169Y0154148D02*
X0120705Y0154148D01*
X0120953Y0153549D02*
X0122921Y0153549D01*
X0122837Y0152951D02*
X0121037Y0152951D01*
X0121037Y0152352D02*
X0122837Y0152352D01*
X0122837Y0151754D02*
X0121037Y0151754D01*
X0121037Y0151155D02*
X0122837Y0151155D01*
X0122837Y0150557D02*
X0121037Y0150557D01*
X0121037Y0149958D02*
X0122837Y0149958D01*
X0122837Y0149360D02*
X0121037Y0149360D01*
X0121037Y0148761D02*
X0122837Y0148761D01*
X0122837Y0148163D02*
X0121037Y0148163D01*
X0121037Y0147564D02*
X0122837Y0147564D01*
X0122635Y0146966D02*
X0121239Y0146966D01*
X0121684Y0146367D02*
X0122190Y0146367D01*
X0118857Y0142776D02*
X0083342Y0142776D01*
X0083244Y0142583D02*
X0083537Y0143158D01*
X0083736Y0143772D01*
X0083837Y0144409D01*
X0083837Y0144432D01*
X0077237Y0144432D01*
X0077237Y0145032D01*
X0076637Y0145032D01*
X0076637Y0148832D01*
X0073814Y0148832D01*
X0073177Y0148731D01*
X0072563Y0148531D01*
X0071988Y0148238D01*
X0071466Y0147859D01*
X0071010Y0147403D01*
X0070630Y0146881D01*
X0070337Y0146306D01*
X0070138Y0145692D01*
X0070037Y0145055D01*
X0070037Y0145032D01*
X0076637Y0145032D01*
X0076637Y0144432D01*
X0070037Y0144432D01*
X0070037Y0144409D01*
X0070138Y0143772D01*
X0070337Y0143158D01*
X0070630Y0142583D01*
X0071010Y0142061D01*
X0071466Y0141605D01*
X0071988Y0141225D01*
X0072563Y0140932D01*
X0073177Y0140733D01*
X0073814Y0140632D01*
X0076637Y0140632D01*
X0076637Y0144432D01*
X0077237Y0144432D01*
X0077237Y0140632D01*
X0080060Y0140632D01*
X0080697Y0140733D01*
X0081311Y0140932D01*
X0081886Y0141225D01*
X0082408Y0141605D01*
X0082864Y0142061D01*
X0083244Y0142583D01*
X0082949Y0142178D02*
X0118857Y0142178D01*
X0118857Y0141579D02*
X0082373Y0141579D01*
X0081406Y0140981D02*
X0118857Y0140981D01*
X0118857Y0140382D02*
X0058237Y0140382D01*
X0058237Y0139783D02*
X0118857Y0139783D01*
X0118857Y0139185D02*
X0058237Y0139185D01*
X0058237Y0138586D02*
X0072732Y0138586D01*
X0072563Y0138531D02*
X0071988Y0138238D01*
X0071466Y0137859D01*
X0071010Y0137403D01*
X0070630Y0136881D01*
X0070337Y0136306D01*
X0070138Y0135692D01*
X0070037Y0135055D01*
X0070037Y0135032D01*
X0076637Y0135032D01*
X0076637Y0138832D01*
X0073814Y0138832D01*
X0073177Y0138731D01*
X0072563Y0138531D01*
X0071643Y0137988D02*
X0058237Y0137988D01*
X0058237Y0137389D02*
X0071000Y0137389D01*
X0070585Y0136791D02*
X0058237Y0136791D01*
X0058237Y0136192D02*
X0070301Y0136192D01*
X0070122Y0135594D02*
X0058237Y0135594D01*
X0058237Y0134995D02*
X0076637Y0134995D01*
X0076637Y0135032D02*
X0076637Y0134432D01*
X0070037Y0134432D01*
X0070037Y0134409D01*
X0070138Y0133772D01*
X0070337Y0133158D01*
X0070630Y0132583D01*
X0071010Y0132061D01*
X0071466Y0131605D01*
X0071988Y0131225D01*
X0072563Y0130932D01*
X0073177Y0130733D01*
X0073814Y0130632D01*
X0076637Y0130632D01*
X0076637Y0134432D01*
X0077237Y0134432D01*
X0077237Y0135032D01*
X0076637Y0135032D01*
X0076637Y0135594D02*
X0077237Y0135594D01*
X0077237Y0135032D02*
X0077237Y0138832D01*
X0080060Y0138832D01*
X0080697Y0138731D01*
X0081311Y0138531D01*
X0081886Y0138238D01*
X0082408Y0137859D01*
X0082864Y0137403D01*
X0083244Y0136881D01*
X0083537Y0136306D01*
X0083736Y0135692D01*
X0083837Y0135055D01*
X0083837Y0135032D01*
X0077237Y0135032D01*
X0077237Y0134995D02*
X0118857Y0134995D01*
X0118857Y0134397D02*
X0083835Y0134397D01*
X0083837Y0134409D02*
X0083837Y0134432D01*
X0077237Y0134432D01*
X0077237Y0130632D01*
X0080060Y0130632D01*
X0080697Y0130733D01*
X0081311Y0130932D01*
X0081886Y0131225D01*
X0082408Y0131605D01*
X0082864Y0132061D01*
X0083244Y0132583D01*
X0083537Y0133158D01*
X0083736Y0133772D01*
X0083837Y0134409D01*
X0083740Y0133798D02*
X0118857Y0133798D01*
X0118857Y0133200D02*
X0083550Y0133200D01*
X0083253Y0132601D02*
X0118857Y0132601D01*
X0118857Y0132003D02*
X0082806Y0132003D01*
X0082132Y0131404D02*
X0118857Y0131404D01*
X0118857Y0130806D02*
X0080922Y0130806D01*
X0077237Y0130806D02*
X0076637Y0130806D01*
X0076637Y0131404D02*
X0077237Y0131404D01*
X0077237Y0132003D02*
X0076637Y0132003D01*
X0076637Y0132601D02*
X0077237Y0132601D01*
X0077237Y0133200D02*
X0076637Y0133200D01*
X0076637Y0133798D02*
X0077237Y0133798D01*
X0077237Y0134397D02*
X0076637Y0134397D01*
X0076637Y0136192D02*
X0077237Y0136192D01*
X0077237Y0136791D02*
X0076637Y0136791D01*
X0076637Y0137389D02*
X0077237Y0137389D01*
X0077237Y0137988D02*
X0076637Y0137988D01*
X0076637Y0138586D02*
X0077237Y0138586D01*
X0077237Y0140981D02*
X0076637Y0140981D01*
X0076637Y0141579D02*
X0077237Y0141579D01*
X0077237Y0142178D02*
X0076637Y0142178D01*
X0076637Y0142776D02*
X0077237Y0142776D01*
X0077237Y0143375D02*
X0076637Y0143375D01*
X0076637Y0143973D02*
X0077237Y0143973D01*
X0077237Y0144572D02*
X0103584Y0144572D01*
X0103430Y0144783D02*
X0103810Y0144261D01*
X0104266Y0143805D01*
X0104788Y0143425D01*
X0105363Y0143132D01*
X0105977Y0142933D01*
X0106614Y0142832D01*
X0106637Y0142832D01*
X0106637Y0149432D01*
X0102837Y0149432D01*
X0102837Y0146609D01*
X0102938Y0145972D01*
X0103137Y0145358D01*
X0103430Y0144783D01*
X0103233Y0145170D02*
X0083819Y0145170D01*
X0083837Y0145055D02*
X0083736Y0145692D01*
X0083537Y0146306D01*
X0083244Y0146881D01*
X0082864Y0147403D01*
X0082408Y0147859D01*
X0081886Y0148238D01*
X0081311Y0148531D01*
X0080697Y0148731D01*
X0080060Y0148832D01*
X0077237Y0148832D01*
X0077237Y0145032D01*
X0083837Y0145032D01*
X0083837Y0145055D01*
X0083711Y0145769D02*
X0103004Y0145769D01*
X0102875Y0146367D02*
X0094412Y0146367D01*
X0095857Y0146966D02*
X0102837Y0146966D01*
X0102837Y0147564D02*
X0097302Y0147564D01*
X0097943Y0148163D02*
X0102837Y0148163D01*
X0102837Y0148761D02*
X0098542Y0148761D01*
X0099140Y0149360D02*
X0102837Y0149360D01*
X0102837Y0150032D02*
X0106637Y0150032D01*
X0106637Y0156632D01*
X0106614Y0156632D01*
X0105977Y0156531D01*
X0105363Y0156331D01*
X0104788Y0156038D01*
X0104266Y0155659D01*
X0103810Y0155203D01*
X0103430Y0154681D01*
X0103137Y0154106D01*
X0102938Y0153492D01*
X0102837Y0152855D01*
X0102837Y0150032D01*
X0102837Y0150557D02*
X0100183Y0150557D01*
X0100431Y0151155D02*
X0102837Y0151155D01*
X0102837Y0151754D02*
X0100679Y0151754D01*
X0100927Y0152352D02*
X0102837Y0152352D01*
X0102852Y0152951D02*
X0101175Y0152951D01*
X0101423Y0153549D02*
X0102957Y0153549D01*
X0103159Y0154148D02*
X0101536Y0154148D01*
X0101536Y0154746D02*
X0103478Y0154746D01*
X0103952Y0155345D02*
X0101536Y0155345D01*
X0101536Y0155943D02*
X0104657Y0155943D01*
X0106046Y0156542D02*
X0101536Y0156542D01*
X0101536Y0157140D02*
X0186937Y0157140D01*
X0186937Y0156542D02*
X0137828Y0156542D01*
X0137897Y0156531D02*
X0137260Y0156632D01*
X0137237Y0156632D01*
X0137237Y0150032D01*
X0136637Y0150032D01*
X0136637Y0149432D01*
X0137237Y0149432D01*
X0137237Y0150032D01*
X0141037Y0150032D01*
X0141037Y0152855D01*
X0140936Y0153492D01*
X0140737Y0154106D01*
X0140444Y0154681D01*
X0140064Y0155203D01*
X0139608Y0155659D01*
X0139086Y0156038D01*
X0138511Y0156331D01*
X0137897Y0156531D01*
X0137237Y0156542D02*
X0136637Y0156542D01*
X0136637Y0155943D02*
X0137237Y0155943D01*
X0137237Y0155345D02*
X0136637Y0155345D01*
X0136637Y0154746D02*
X0137237Y0154746D01*
X0137237Y0154148D02*
X0136637Y0154148D01*
X0136637Y0153549D02*
X0137237Y0153549D01*
X0137237Y0152951D02*
X0136637Y0152951D01*
X0136637Y0152352D02*
X0137237Y0152352D01*
X0137237Y0151754D02*
X0136637Y0151754D01*
X0136637Y0151155D02*
X0137237Y0151155D01*
X0137237Y0150557D02*
X0136637Y0150557D01*
X0136637Y0149958D02*
X0131037Y0149958D01*
X0136637Y0149360D02*
X0137237Y0149360D01*
X0137237Y0149432D02*
X0137237Y0142832D01*
X0137260Y0142832D01*
X0137897Y0142933D01*
X0138511Y0143132D01*
X0139086Y0143425D01*
X0139608Y0143805D01*
X0140064Y0144261D01*
X0140444Y0144783D01*
X0140737Y0145358D01*
X0140936Y0145972D01*
X0141037Y0146609D01*
X0141037Y0149432D01*
X0137237Y0149432D01*
X0137237Y0149958D02*
X0186937Y0149958D01*
X0186937Y0149360D02*
X0141037Y0149360D01*
X0141037Y0148761D02*
X0186937Y0148761D01*
X0186937Y0148163D02*
X0141037Y0148163D01*
X0141037Y0147564D02*
X0186937Y0147564D01*
X0186937Y0146966D02*
X0141037Y0146966D01*
X0140999Y0146367D02*
X0186937Y0146367D01*
X0186937Y0145769D02*
X0140870Y0145769D01*
X0140641Y0145170D02*
X0186937Y0145170D01*
X0186937Y0144572D02*
X0140290Y0144572D01*
X0139777Y0143973D02*
X0186937Y0143973D01*
X0186937Y0143375D02*
X0138986Y0143375D01*
X0137237Y0143375D02*
X0136637Y0143375D01*
X0136637Y0143973D02*
X0137237Y0143973D01*
X0137237Y0144572D02*
X0136637Y0144572D01*
X0136637Y0145170D02*
X0137237Y0145170D01*
X0137237Y0145769D02*
X0136637Y0145769D01*
X0136637Y0146367D02*
X0137237Y0146367D01*
X0137237Y0146966D02*
X0136637Y0146966D01*
X0136637Y0147564D02*
X0137237Y0147564D01*
X0137237Y0148163D02*
X0136637Y0148163D01*
X0136637Y0148761D02*
X0137237Y0148761D01*
X0141037Y0150557D02*
X0186937Y0150557D01*
X0186937Y0151155D02*
X0141037Y0151155D01*
X0141037Y0151754D02*
X0186937Y0151754D01*
X0186937Y0152352D02*
X0141037Y0152352D01*
X0141022Y0152951D02*
X0186937Y0152951D01*
X0186937Y0153549D02*
X0140917Y0153549D01*
X0140715Y0154148D02*
X0186937Y0154148D01*
X0186937Y0154746D02*
X0140396Y0154746D01*
X0139922Y0155345D02*
X0186937Y0155345D01*
X0186937Y0155943D02*
X0139217Y0155943D01*
X0118857Y0138586D02*
X0081142Y0138586D01*
X0082231Y0137988D02*
X0118857Y0137988D01*
X0118857Y0137389D02*
X0082874Y0137389D01*
X0083289Y0136791D02*
X0118857Y0136791D01*
X0118857Y0136192D02*
X0083573Y0136192D01*
X0083752Y0135594D02*
X0118857Y0135594D01*
X0118857Y0130207D02*
X0058237Y0130207D01*
X0058237Y0129609D02*
X0118857Y0129609D01*
X0118857Y0129010D02*
X0058237Y0129010D01*
X0058237Y0128412D02*
X0104557Y0128412D01*
X0104338Y0127813D02*
X0058237Y0127813D01*
X0058237Y0127215D02*
X0104338Y0127215D01*
X0104338Y0126616D02*
X0058237Y0126616D01*
X0058237Y0126018D02*
X0104338Y0126018D01*
X0104338Y0125419D02*
X0058237Y0125419D01*
X0058237Y0124821D02*
X0107897Y0124821D01*
X0107897Y0124432D02*
X0104338Y0124432D01*
X0104338Y0121608D01*
X0104426Y0121277D01*
X0104598Y0120981D01*
X0104840Y0120739D01*
X0105136Y0120568D01*
X0105467Y0120479D01*
X0107897Y0120479D01*
X0107897Y0124432D01*
X0107897Y0124222D02*
X0108497Y0124222D01*
X0108497Y0123624D02*
X0107897Y0123624D01*
X0107897Y0123025D02*
X0108497Y0123025D01*
X0108497Y0122427D02*
X0107897Y0122427D01*
X0107897Y0121828D02*
X0108497Y0121828D01*
X0108497Y0121230D02*
X0107897Y0121230D01*
X0107897Y0120631D02*
X0108497Y0120631D01*
X0105026Y0120631D02*
X0058237Y0120631D01*
X0058237Y0121230D02*
X0104454Y0121230D01*
X0104338Y0121828D02*
X0058237Y0121828D01*
X0058237Y0122427D02*
X0104338Y0122427D01*
X0104338Y0123025D02*
X0058237Y0123025D01*
X0058237Y0123624D02*
X0104338Y0123624D01*
X0104338Y0124222D02*
X0058237Y0124222D01*
X0058237Y0130806D02*
X0072952Y0130806D01*
X0071742Y0131404D02*
X0058237Y0131404D01*
X0058237Y0132003D02*
X0071068Y0132003D01*
X0070621Y0132601D02*
X0058237Y0132601D01*
X0058237Y0133200D02*
X0070324Y0133200D01*
X0070134Y0133798D02*
X0058237Y0133798D01*
X0058237Y0134397D02*
X0070039Y0134397D01*
X0072468Y0140981D02*
X0058237Y0140981D01*
X0058237Y0141579D02*
X0071501Y0141579D01*
X0070925Y0142178D02*
X0058237Y0142178D01*
X0058237Y0142776D02*
X0070532Y0142776D01*
X0070267Y0143375D02*
X0058237Y0143375D01*
X0058237Y0143973D02*
X0070106Y0143973D01*
X0070055Y0145170D02*
X0058237Y0145170D01*
X0058237Y0144572D02*
X0076637Y0144572D01*
X0076637Y0145170D02*
X0077237Y0145170D01*
X0077237Y0145769D02*
X0076637Y0145769D01*
X0076637Y0146367D02*
X0077237Y0146367D01*
X0077237Y0146966D02*
X0076637Y0146966D01*
X0076637Y0147564D02*
X0077237Y0147564D01*
X0077237Y0148163D02*
X0076637Y0148163D01*
X0076637Y0148761D02*
X0077237Y0148761D01*
X0080506Y0148761D02*
X0085332Y0148761D01*
X0084734Y0149360D02*
X0058237Y0149360D01*
X0058237Y0148761D02*
X0073368Y0148761D01*
X0071884Y0148163D02*
X0058237Y0148163D01*
X0058237Y0147564D02*
X0071171Y0147564D01*
X0070692Y0146966D02*
X0058237Y0146966D01*
X0058237Y0146367D02*
X0070369Y0146367D01*
X0070163Y0145769D02*
X0058237Y0145769D01*
X0081990Y0148163D02*
X0085931Y0148163D01*
X0086572Y0147564D02*
X0082703Y0147564D01*
X0083182Y0146966D02*
X0088017Y0146966D01*
X0089461Y0146367D02*
X0083505Y0146367D01*
X0083768Y0143973D02*
X0104097Y0143973D01*
X0104888Y0143375D02*
X0083607Y0143375D01*
X0084135Y0149958D02*
X0082295Y0149958D01*
X0082737Y0150557D02*
X0083691Y0150557D01*
X0083443Y0151155D02*
X0082737Y0151155D01*
X0082737Y0151754D02*
X0083195Y0151754D01*
X0082947Y0152352D02*
X0082737Y0152352D01*
X0082737Y0158936D02*
X0082874Y0158936D01*
X0082737Y0159534D02*
X0083122Y0159534D01*
X0083370Y0160133D02*
X0082737Y0160133D01*
X0082737Y0160731D02*
X0083618Y0160731D01*
X0083960Y0161330D02*
X0082737Y0161330D01*
X0082737Y0161928D02*
X0084558Y0161928D01*
X0085157Y0162527D02*
X0082737Y0162527D01*
X0082737Y0163125D02*
X0085755Y0163125D01*
X0086354Y0163724D02*
X0082737Y0163724D01*
X0082737Y0164322D02*
X0087593Y0164322D01*
X0089038Y0164921D02*
X0082737Y0164921D01*
X0082737Y0165519D02*
X0186937Y0165519D01*
X0186937Y0164921D02*
X0094836Y0164921D01*
X0096281Y0164322D02*
X0186937Y0164322D01*
X0186937Y0163724D02*
X0097520Y0163724D01*
X0098119Y0163125D02*
X0186937Y0163125D01*
X0186937Y0162527D02*
X0098717Y0162527D01*
X0099316Y0161928D02*
X0186937Y0161928D01*
X0186937Y0161330D02*
X0099914Y0161330D01*
X0100256Y0160731D02*
X0186937Y0160731D01*
X0186937Y0160133D02*
X0100504Y0160133D01*
X0100752Y0159534D02*
X0186937Y0159534D01*
X0186937Y0158936D02*
X0101000Y0158936D01*
X0101248Y0158337D02*
X0186937Y0158337D01*
X0186937Y0157739D02*
X0101496Y0157739D01*
X0106637Y0156542D02*
X0107237Y0156542D01*
X0107237Y0156632D02*
X0107237Y0150032D01*
X0106637Y0150032D01*
X0106637Y0149432D01*
X0107237Y0149432D01*
X0107237Y0150032D01*
X0111037Y0150032D01*
X0111037Y0152855D01*
X0110936Y0153492D01*
X0110737Y0154106D01*
X0110444Y0154681D01*
X0110064Y0155203D01*
X0109608Y0155659D01*
X0109086Y0156038D01*
X0108511Y0156331D01*
X0107897Y0156531D01*
X0107260Y0156632D01*
X0107237Y0156632D01*
X0107828Y0156542D02*
X0115904Y0156542D01*
X0114550Y0155943D02*
X0109217Y0155943D01*
X0109922Y0155345D02*
X0113952Y0155345D01*
X0113416Y0154746D02*
X0110396Y0154746D01*
X0110715Y0154148D02*
X0113169Y0154148D01*
X0112921Y0153549D02*
X0110917Y0153549D01*
X0111022Y0152951D02*
X0112837Y0152951D01*
X0112837Y0152352D02*
X0111037Y0152352D01*
X0111037Y0151754D02*
X0112837Y0151754D01*
X0112837Y0151155D02*
X0111037Y0151155D01*
X0111037Y0150557D02*
X0112837Y0150557D01*
X0112837Y0149958D02*
X0107237Y0149958D01*
X0107237Y0149432D02*
X0111037Y0149432D01*
X0111037Y0146609D01*
X0110936Y0145972D01*
X0110737Y0145358D01*
X0110444Y0144783D01*
X0110064Y0144261D01*
X0109608Y0143805D01*
X0109086Y0143425D01*
X0108511Y0143132D01*
X0107897Y0142933D01*
X0107260Y0142832D01*
X0107237Y0142832D01*
X0107237Y0149432D01*
X0107237Y0149360D02*
X0106637Y0149360D01*
X0106637Y0149958D02*
X0099739Y0149958D01*
X0106637Y0150557D02*
X0107237Y0150557D01*
X0107237Y0151155D02*
X0106637Y0151155D01*
X0106637Y0151754D02*
X0107237Y0151754D01*
X0107237Y0152352D02*
X0106637Y0152352D01*
X0106637Y0152951D02*
X0107237Y0152951D01*
X0107237Y0153549D02*
X0106637Y0153549D01*
X0106637Y0154148D02*
X0107237Y0154148D01*
X0107237Y0154746D02*
X0106637Y0154746D01*
X0106637Y0155345D02*
X0107237Y0155345D01*
X0107237Y0155943D02*
X0106637Y0155943D01*
X0106637Y0148761D02*
X0107237Y0148761D01*
X0107237Y0148163D02*
X0106637Y0148163D01*
X0106637Y0147564D02*
X0107237Y0147564D01*
X0107237Y0146966D02*
X0106637Y0146966D01*
X0106637Y0146367D02*
X0107237Y0146367D01*
X0107237Y0145769D02*
X0106637Y0145769D01*
X0106637Y0145170D02*
X0107237Y0145170D01*
X0107237Y0144572D02*
X0106637Y0144572D01*
X0106637Y0143973D02*
X0107237Y0143973D01*
X0107237Y0143375D02*
X0106637Y0143375D01*
X0108986Y0143375D02*
X0114811Y0143375D01*
X0114098Y0143973D02*
X0109777Y0143973D01*
X0110290Y0144572D02*
X0113499Y0144572D01*
X0113229Y0145170D02*
X0110641Y0145170D01*
X0110870Y0145769D02*
X0112981Y0145769D01*
X0112837Y0146367D02*
X0110999Y0146367D01*
X0111037Y0146966D02*
X0112837Y0146966D01*
X0112837Y0147564D02*
X0111037Y0147564D01*
X0111037Y0148163D02*
X0112837Y0148163D01*
X0112837Y0148761D02*
X0111037Y0148761D01*
X0111037Y0149360D02*
X0112837Y0149360D01*
X0112007Y0128412D02*
X0111837Y0128412D01*
X0108497Y0128412D02*
X0107897Y0128412D01*
X0107897Y0127813D02*
X0108497Y0127813D01*
X0108497Y0127215D02*
X0107897Y0127215D01*
X0107897Y0126616D02*
X0108497Y0126616D01*
X0108497Y0126018D02*
X0107897Y0126018D01*
X0107897Y0125419D02*
X0108497Y0125419D01*
X0111368Y0120631D02*
X0112428Y0120631D01*
X0102761Y0110456D02*
X0058237Y0110456D01*
X0058237Y0109858D02*
X0103212Y0109858D01*
X0102854Y0109259D02*
X0058237Y0109259D01*
X0068077Y0108661D02*
X0102684Y0108661D01*
X0102684Y0108062D02*
X0095445Y0108062D01*
X0095637Y0107464D02*
X0102684Y0107464D01*
X0102684Y0106865D02*
X0095637Y0106865D01*
X0095637Y0102676D02*
X0102903Y0102676D01*
X0105137Y0102077D02*
X0095637Y0102077D01*
X0095122Y0101479D02*
X0105137Y0101479D01*
X0105137Y0100880D02*
X0071000Y0100880D01*
X0071248Y0101479D02*
X0088752Y0101479D01*
X0088237Y0102077D02*
X0071496Y0102077D01*
X0071637Y0102676D02*
X0088237Y0102676D01*
X0088237Y0106865D02*
X0070561Y0106865D01*
X0069963Y0107464D02*
X0088237Y0107464D01*
X0088429Y0108062D02*
X0069364Y0108062D01*
X0070686Y0100282D02*
X0105137Y0100282D01*
X0105137Y0099683D02*
X0070087Y0099683D01*
X0069489Y0099085D02*
X0105137Y0099085D01*
X0102487Y0088910D02*
X0071575Y0088910D01*
X0071459Y0088312D02*
X0102487Y0088312D01*
X0102487Y0087713D02*
X0071264Y0087713D01*
X0070976Y0087114D02*
X0102487Y0087114D01*
X0102487Y0086516D02*
X0070599Y0086516D01*
X0070101Y0085917D02*
X0102963Y0085917D01*
X0115146Y0075743D02*
X0118857Y0075743D01*
X0118857Y0076341D02*
X0115744Y0076341D01*
X0116343Y0076940D02*
X0118857Y0076940D01*
X0118857Y0077538D02*
X0116941Y0077538D01*
X0118857Y0075144D02*
X0114547Y0075144D01*
X0113949Y0074546D02*
X0118857Y0074546D01*
X0118857Y0073947D02*
X0113350Y0073947D01*
X0112752Y0073349D02*
X0118857Y0073349D01*
X0118857Y0072750D02*
X0111190Y0072750D01*
X0111190Y0072152D02*
X0118857Y0072152D01*
X0118857Y0071553D02*
X0111190Y0071553D01*
X0111190Y0070955D02*
X0118857Y0070955D01*
X0118857Y0070356D02*
X0111171Y0070356D01*
X0110573Y0069758D02*
X0118857Y0069758D01*
X0118857Y0069159D02*
X0111040Y0069159D01*
X0111190Y0068561D02*
X0118857Y0068561D01*
X0118857Y0067962D02*
X0111190Y0067962D01*
X0111190Y0067364D02*
X0118857Y0067364D01*
X0117880Y0066765D02*
X0111190Y0066765D01*
X0117024Y0065144D02*
X0117024Y0065144D01*
X0117665Y0061379D02*
X0117684Y0061379D01*
X0117684Y0060780D02*
X0116588Y0060780D01*
X0116071Y0060181D02*
X0117877Y0060181D01*
X0118178Y0059583D02*
X0115676Y0059583D01*
X0115282Y0058984D02*
X0117755Y0058984D01*
X0117684Y0058386D02*
X0114887Y0058386D01*
X0114492Y0057787D02*
X0117684Y0057787D01*
X0117684Y0057189D02*
X0114098Y0057189D01*
X0113703Y0056590D02*
X0117684Y0056590D01*
X0117684Y0055393D02*
X0112914Y0055393D01*
X0112519Y0054795D02*
X0117684Y0054795D01*
X0117684Y0054196D02*
X0112124Y0054196D01*
X0111730Y0053598D02*
X0117684Y0053598D01*
X0117754Y0052999D02*
X0111335Y0052999D01*
X0110940Y0052401D02*
X0118178Y0052401D01*
X0121637Y0055992D02*
X0113308Y0055992D01*
X0110180Y0057787D02*
X0066352Y0057787D01*
X0066951Y0057189D02*
X0109785Y0057189D01*
X0109391Y0056590D02*
X0067313Y0056590D01*
X0067313Y0055992D02*
X0108996Y0055992D01*
X0108602Y0055393D02*
X0063713Y0055393D01*
X0063713Y0055992D02*
X0063113Y0055992D01*
X0063113Y0056590D02*
X0063713Y0056590D01*
X0063713Y0057189D02*
X0063113Y0057189D01*
X0063113Y0057787D02*
X0063713Y0057787D01*
X0063713Y0058386D02*
X0063113Y0058386D01*
X0063113Y0058984D02*
X0063713Y0058984D01*
X0065155Y0058984D02*
X0110969Y0058984D01*
X0110575Y0058386D02*
X0065754Y0058386D01*
X0067313Y0054795D02*
X0108207Y0054795D01*
X0107812Y0054196D02*
X0067313Y0054196D01*
X0067313Y0053598D02*
X0107418Y0053598D01*
X0107023Y0052999D02*
X0066717Y0052999D01*
X0066119Y0052401D02*
X0106628Y0052401D01*
X0106234Y0051802D02*
X0065520Y0051802D01*
X0058237Y0061379D02*
X0090364Y0061379D01*
X0089459Y0061977D02*
X0058237Y0061977D01*
X0058237Y0062576D02*
X0088928Y0062576D01*
X0088577Y0063174D02*
X0058237Y0063174D01*
X0058237Y0063773D02*
X0088355Y0063773D01*
X0088237Y0064371D02*
X0058237Y0064371D01*
X0058237Y0064970D02*
X0091637Y0064970D01*
X0091637Y0065568D02*
X0092237Y0065568D01*
X0092237Y0064970D02*
X0102684Y0064970D01*
X0102684Y0065568D02*
X0095543Y0065568D01*
X0095637Y0064371D02*
X0102684Y0064371D01*
X0102684Y0063773D02*
X0095519Y0063773D01*
X0095297Y0063174D02*
X0102708Y0063174D01*
X0103003Y0062576D02*
X0094946Y0062576D01*
X0092237Y0062576D02*
X0091637Y0062576D01*
X0091637Y0063174D02*
X0092237Y0063174D01*
X0092237Y0063773D02*
X0091637Y0063773D01*
X0091637Y0064371D02*
X0092237Y0064371D01*
X0092237Y0066167D02*
X0091637Y0066167D01*
X0091637Y0066765D02*
X0092237Y0066765D01*
X0092237Y0067364D02*
X0091637Y0067364D01*
X0091637Y0067962D02*
X0092237Y0067962D01*
X0090112Y0067962D02*
X0058237Y0067962D01*
X0058237Y0067364D02*
X0089336Y0067364D01*
X0088846Y0066765D02*
X0058237Y0066765D01*
X0058237Y0066167D02*
X0088526Y0066167D01*
X0088331Y0065568D02*
X0058237Y0065568D01*
X0068444Y0070955D02*
X0088876Y0070955D01*
X0088277Y0071553D02*
X0069516Y0071553D01*
X0070115Y0072152D02*
X0088237Y0072152D01*
X0088237Y0072750D02*
X0070713Y0072750D01*
X0071637Y0076940D02*
X0088237Y0076940D01*
X0088305Y0077538D02*
X0071433Y0077538D01*
X0069420Y0085319D02*
X0118304Y0085319D01*
X0121001Y0087713D02*
X0140535Y0087713D01*
X0140956Y0087114D02*
X0121600Y0087114D01*
X0122198Y0086516D02*
X0141555Y0086516D01*
X0142487Y0085917D02*
X0122457Y0085917D01*
X0122457Y0085319D02*
X0142487Y0085319D01*
X0140598Y0091903D02*
X0126091Y0091903D01*
X0125493Y0092501D02*
X0141108Y0092501D01*
X0141707Y0093100D02*
X0125017Y0093100D01*
X0125017Y0093698D02*
X0142999Y0093698D01*
X0124591Y0088312D02*
X0120403Y0088312D01*
X0119804Y0088910D02*
X0123993Y0088910D01*
X0123394Y0089509D02*
X0119206Y0089509D01*
X0118607Y0090107D02*
X0122796Y0090107D01*
X0122197Y0090706D02*
X0118009Y0090706D01*
X0092237Y0111653D02*
X0091637Y0111653D01*
X0091637Y0112252D02*
X0092237Y0112252D01*
X0092237Y0112850D02*
X0091637Y0112850D01*
X0091637Y0113449D02*
X0092237Y0113449D01*
X0092237Y0114048D02*
X0091637Y0114048D01*
X0131446Y0120631D02*
X0132506Y0120631D01*
X0082737Y0166118D02*
X0186937Y0166118D01*
X0186937Y0166716D02*
X0082737Y0166716D01*
X0082737Y0167315D02*
X0186937Y0167315D01*
X0186937Y0167914D02*
X0082737Y0167914D01*
X0082737Y0168512D02*
X0186937Y0168512D01*
X0186937Y0169111D02*
X0082737Y0169111D01*
X0082737Y0169709D02*
X0186937Y0169709D01*
X0186937Y0170308D02*
X0082737Y0170308D01*
X0082737Y0170906D02*
X0186937Y0170906D01*
X0092237Y0061977D02*
X0091637Y0061977D01*
X0091637Y0061379D02*
X0092237Y0061379D01*
X0061322Y0038635D02*
X0058237Y0038635D01*
X0058237Y0038037D02*
X0060724Y0038037D01*
X0060125Y0037438D02*
X0058237Y0037438D01*
X0058237Y0036840D02*
X0059527Y0036840D01*
X0059513Y0036241D02*
X0058237Y0036241D01*
X0058237Y0035643D02*
X0059513Y0035643D01*
X0059513Y0035044D02*
X0058237Y0035044D01*
X0058237Y0034445D02*
X0059513Y0034445D01*
X0059513Y0033847D02*
X0058237Y0033847D01*
X0058237Y0033248D02*
X0059860Y0033248D01*
X0060459Y0032650D02*
X0058237Y0032650D01*
X0058237Y0032051D02*
X0061057Y0032051D01*
X0061613Y0031453D02*
X0058237Y0031453D01*
X0058237Y0030854D02*
X0061613Y0030854D01*
X0061641Y0030256D02*
X0058237Y0030256D01*
X0058237Y0029657D02*
X0061835Y0029657D01*
X0062030Y0029059D02*
X0058237Y0029059D01*
X0058237Y0028460D02*
X0062224Y0028460D01*
X0062419Y0027862D02*
X0058237Y0027862D01*
X0058237Y0027263D02*
X0062613Y0027263D01*
X0062808Y0026665D02*
X0058237Y0026665D01*
X0058237Y0026066D02*
X0063119Y0026066D01*
X0062908Y0026357D02*
X0062908Y0026357D01*
X0063554Y0025468D02*
X0058237Y0025468D01*
X0058237Y0024869D02*
X0063988Y0024869D01*
X0064423Y0024271D02*
X0058237Y0024271D01*
X0058237Y0023672D02*
X0064858Y0023672D01*
X0065293Y0023074D02*
X0058237Y0023074D01*
X0058237Y0022475D02*
X0066049Y0022475D01*
X0066872Y0021877D02*
X0058237Y0021877D01*
X0058237Y0021278D02*
X0067696Y0021278D01*
X0068520Y0020680D02*
X0058237Y0020680D01*
X0058237Y0020081D02*
X0070069Y0020081D01*
X0070934Y0019483D02*
X0058237Y0019483D01*
X0058237Y0018884D02*
X0071448Y0018884D01*
X0072046Y0018286D02*
X0058237Y0018286D01*
X0058237Y0017687D02*
X0072645Y0017687D01*
X0068757Y0020507D02*
X0068757Y0020507D01*
X0100864Y0027263D02*
X0120002Y0027263D01*
X0119980Y0026665D02*
X0101112Y0026665D01*
X0101360Y0026066D02*
X0119980Y0026066D01*
X0119980Y0025468D02*
X0101536Y0025468D01*
X0136637Y0052401D02*
X0137237Y0052401D01*
X0137237Y0052999D02*
X0136637Y0052999D01*
X0136637Y0053598D02*
X0137237Y0053598D01*
X0137237Y0054196D02*
X0136637Y0054196D01*
X0136637Y0054795D02*
X0137237Y0054795D01*
X0041937Y0054732D02*
X0031937Y0059732D01*
X0028197Y0068472D01*
X0026937Y0068472D01*
X0033197Y0068472D01*
X0036937Y0059732D01*
X0041937Y0054732D01*
X0041937Y0059732D02*
X0038197Y0068472D01*
X0026937Y0068472D01*
X0026937Y0059732D01*
X0021937Y0059732D02*
X0025677Y0068472D01*
X0026937Y0068472D01*
X0020677Y0068472D01*
X0016937Y0059732D01*
X0011937Y0059732D02*
X0015677Y0068472D01*
X0026937Y0068472D01*
X0026937Y0110992D02*
X0015677Y0110992D01*
X0011937Y0119732D01*
X0011937Y0124732D01*
X0016937Y0119732D02*
X0020677Y0110992D01*
X0026937Y0110992D01*
X0028197Y0110992D01*
X0031937Y0119732D01*
X0041937Y0124732D01*
X0041937Y0119732D02*
X0036937Y0119732D01*
X0033197Y0110992D01*
X0026937Y0110992D01*
X0038197Y0110992D01*
X0041937Y0119732D01*
X0026937Y0119732D02*
X0026937Y0110992D01*
X0025677Y0110992D01*
X0021937Y0119732D01*
D29*
X0026937Y0142232D02*
X0026937Y0154732D01*
X0041937Y0154732D01*
X0041937Y0159732D01*
X0056937Y0164732D02*
X0066937Y0164732D01*
D30*
X0056937Y0164732D02*
X0026937Y0164732D01*
X0026937Y0154732D01*
D31*
X0061937Y0089732D02*
X0062537Y0089732D01*
X0062437Y0089832D01*
X0061937Y0089732D02*
X0076937Y0089732D01*
D32*
X0171937Y0155732D03*
X0171937Y0023732D03*
M02*
