G75*
%MOIN*%
%OFA0B0*%
%FSLAX25Y25*%
%IPPOS*%
%LPD*%
%AMOC8*
5,1,8,0,0,1.08239X$1,22.5*
%
%ADD10C,0.13398*%
%ADD11C,0.06400*%
%ADD12OC8,0.06000*%
%ADD13R,0.35249X0.21272*%
%ADD14C,0.36233*%
%ADD15C,0.04343*%
%ADD16C,0.09200*%
%ADD17C,0.06000*%
%ADD18R,0.05600X0.05600*%
%ADD19C,0.05600*%
%ADD20C,0.04369*%
%ADD21C,0.26391*%
D10*
X0091937Y0023732D03*
X0091937Y0155732D03*
D11*
X0079737Y0144732D02*
X0074137Y0144732D01*
X0074137Y0134732D02*
X0079737Y0134732D01*
X0106937Y0146932D02*
X0106937Y0152532D01*
X0116937Y0152532D02*
X0116937Y0146932D01*
X0126937Y0146932D02*
X0126937Y0152532D01*
X0136937Y0152532D02*
X0136937Y0146932D01*
X0144137Y0089732D02*
X0149737Y0089732D01*
X0149737Y0079732D02*
X0144137Y0079732D01*
X0151937Y0057532D02*
X0151937Y0051932D01*
X0161937Y0051932D02*
X0161937Y0057532D01*
X0079737Y0044732D02*
X0074137Y0044732D01*
X0074137Y0034732D02*
X0079737Y0034732D01*
X0066937Y0161932D02*
X0066937Y0167532D01*
X0056937Y0167532D02*
X0056937Y0161932D01*
D12*
X0132937Y0110732D03*
X0152937Y0110732D03*
X0063413Y0055211D03*
X0063413Y0035211D03*
X0074834Y0021013D03*
X0044834Y0021013D03*
D13*
X0026937Y0068472D03*
X0026937Y0110992D03*
D14*
X0026937Y0037232D03*
X0026937Y0142232D03*
D15*
X0125052Y0026204D03*
X0138832Y0026204D03*
D16*
X0066137Y0075952D02*
X0057737Y0075952D01*
X0057737Y0089732D02*
X0066137Y0089732D01*
X0066137Y0103511D02*
X0057737Y0103511D01*
D17*
X0174337Y0104732D02*
X0179537Y0104732D01*
X0179537Y0094732D02*
X0174337Y0094732D01*
X0174337Y0084732D02*
X0179537Y0084732D01*
X0179537Y0074732D02*
X0174337Y0074732D01*
X0174337Y0064732D02*
X0179537Y0064732D01*
X0179537Y0114732D02*
X0174337Y0114732D01*
D18*
X0105239Y0046952D03*
X0091937Y0074532D03*
X0091937Y0104932D03*
D19*
X0091937Y0114732D03*
X0091937Y0064732D03*
X0095439Y0046952D03*
D20*
X0125776Y0071935D03*
X0125776Y0075935D03*
X0041937Y0059732D03*
X0041937Y0054732D03*
X0036937Y0059732D03*
X0031937Y0059732D03*
X0026937Y0059732D03*
X0021937Y0059732D03*
X0016937Y0059732D03*
X0011937Y0059732D03*
X0011937Y0054732D03*
X0011937Y0119732D03*
X0016937Y0119732D03*
X0021937Y0119732D03*
X0026937Y0119732D03*
X0031937Y0119732D03*
X0036937Y0119732D03*
X0041937Y0119732D03*
X0041937Y0124732D03*
X0011937Y0124732D03*
D21*
X0171937Y0155732D03*
X0171937Y0023732D03*
M02*
