%
M48
M72
T01C0.01969
T02C0.02800
T03C0.03200
T04C0.03543
T05C0.03600
T06C0.05600
T07C0.12598
T08C0.21654
%
T01
X11937Y54732
X11937Y59732
X16937Y59732
X21937Y59732
X26937Y59732
X31937Y59732
X36937Y59732
X41937Y59732
X41937Y54732
X41937Y119732
X41937Y124732
X36937Y119732
X31937Y119732
X26937Y119732
X21937Y119732
X16937Y119732
X11937Y119732
X11937Y124732
X125776Y75935
X125776Y71935
T02
X105239Y46952
X95439Y46952
X91937Y64732
X91937Y74532
X91937Y104932
X91937Y114732
T03
X132937Y110732
X152937Y110732
X176937Y114732
X176937Y104732
X176937Y94732
X176937Y84732
X176937Y74732
X176937Y64732
X74834Y21013
X63413Y35211
X44834Y21013
X63413Y55211
T04
X125052Y26204
X138832Y26204
T05
X151937Y54732
X161937Y54732
X146937Y79732
X146937Y89732
X136937Y149732
X126937Y149732
X116937Y149732
X106937Y149732
X76937Y144732
X76937Y134732
X66937Y164732
X56937Y164732
X76937Y44732
X76937Y34732
T06
X61937Y75952
X61937Y89732
X61937Y103511
T07
X91937Y155732
X171937Y155732
X171937Y23732
X91937Y23732
T08
X26937Y37232
X26937Y142232
M30
