G75*
%MOIN*%
%OFA0B0*%
%FSLAX25Y25*%
%IPPOS*%
%LPD*%
%AMOC8*
5,1,8,0,0,1.08239X$1,22.5*
%
%ADD10C,0.13398*%
%ADD11R,0.35000X0.19500*%
%ADD12R,0.06706X0.05918*%
%ADD13R,0.05918X0.06706*%
%ADD14C,0.06400*%
%ADD15R,0.02375X0.05524*%
%ADD16OC8,0.06000*%
%ADD17C,0.36233*%
%ADD18R,0.35249X0.21272*%
%ADD19R,0.10643X0.09461*%
%ADD20R,0.02769X0.08674*%
%ADD21C,0.04343*%
%ADD22C,0.09200*%
%ADD23R,0.07100X0.05400*%
%ADD24R,0.07200X0.00600*%
%ADD25C,0.06000*%
%ADD26R,0.05400X0.07100*%
%ADD27R,0.00600X0.07200*%
%ADD28R,0.05600X0.05600*%
%ADD29C,0.05600*%
%ADD30C,0.04369*%
%ADD31C,0.26391*%
D10*
X0091937Y0023250D03*
X0091937Y0155250D03*
D11*
X0026937Y0130500D03*
X0026937Y0050500D03*
D12*
X0108937Y0065509D03*
X0108937Y0072990D03*
X0121937Y0062990D03*
X0121937Y0055509D03*
X0136937Y0055509D03*
X0136937Y0062990D03*
X0108937Y0105509D03*
X0108937Y0112990D03*
D13*
X0108197Y0124250D03*
X0115677Y0124250D03*
X0128197Y0124250D03*
X0135677Y0124250D03*
D14*
X0136937Y0146450D02*
X0136937Y0152050D01*
X0126937Y0152050D02*
X0126937Y0146450D01*
X0116937Y0146450D02*
X0116937Y0152050D01*
X0106937Y0152050D02*
X0106937Y0146450D01*
X0079737Y0144250D02*
X0074137Y0144250D01*
X0074137Y0134250D02*
X0079737Y0134250D01*
X0066937Y0161450D02*
X0066937Y0167050D01*
X0056937Y0167050D02*
X0056937Y0161450D01*
X0144137Y0089250D02*
X0149737Y0089250D01*
X0149737Y0079250D02*
X0144137Y0079250D01*
X0151937Y0057050D02*
X0151937Y0051450D01*
X0161937Y0051450D02*
X0161937Y0057050D01*
X0079737Y0044250D02*
X0074137Y0044250D01*
X0074137Y0034250D02*
X0079737Y0034250D01*
D15*
X0118098Y0080759D03*
X0120657Y0080759D03*
X0123217Y0080759D03*
X0125776Y0080759D03*
X0125776Y0097741D03*
X0123217Y0097741D03*
X0120657Y0097741D03*
X0118098Y0097741D03*
D16*
X0132937Y0110250D03*
X0152937Y0110250D03*
X0063413Y0054729D03*
X0063413Y0034729D03*
X0074834Y0020531D03*
X0044834Y0020531D03*
D17*
X0026937Y0036750D03*
X0026937Y0141750D03*
D18*
X0026937Y0110509D03*
X0026937Y0067990D03*
D19*
X0116362Y0034078D03*
X0116362Y0013211D03*
X0149433Y0013211D03*
X0149433Y0034078D03*
D20*
X0139197Y0035062D03*
X0136047Y0035062D03*
X0132897Y0035062D03*
X0129748Y0035062D03*
X0126598Y0035062D03*
D21*
X0126008Y0026204D03*
X0139787Y0026204D03*
D22*
X0066137Y0075470D02*
X0057737Y0075470D01*
X0057737Y0089250D02*
X0066137Y0089250D01*
X0066137Y0103029D02*
X0057737Y0103029D01*
D23*
X0106937Y0094750D03*
X0106937Y0088750D03*
X0146937Y0087250D03*
X0146937Y0081250D03*
X0076937Y0042250D03*
X0076937Y0036250D03*
D24*
X0076937Y0039250D03*
X0106937Y0091750D03*
X0146937Y0084250D03*
D25*
X0174337Y0084250D02*
X0179537Y0084250D01*
X0179537Y0074250D02*
X0174337Y0074250D01*
X0174337Y0064250D02*
X0179537Y0064250D01*
X0179537Y0094250D02*
X0174337Y0094250D01*
X0174337Y0104250D02*
X0179537Y0104250D01*
X0179537Y0114250D02*
X0174337Y0114250D01*
D26*
X0159937Y0054250D03*
X0153937Y0054250D03*
D27*
X0156937Y0054250D03*
D28*
X0105239Y0046470D03*
X0091937Y0074050D03*
X0091937Y0104450D03*
D29*
X0091937Y0114250D03*
X0091937Y0064250D03*
X0095439Y0046470D03*
D30*
X0125776Y0071452D03*
X0125776Y0075452D03*
X0041937Y0059250D03*
X0036937Y0059250D03*
X0031937Y0059250D03*
X0026937Y0059250D03*
X0021937Y0059250D03*
X0016937Y0059250D03*
X0011937Y0059250D03*
X0011937Y0054250D03*
X0041937Y0054250D03*
X0041937Y0119250D03*
X0041937Y0124250D03*
X0036937Y0119250D03*
X0031937Y0119250D03*
X0026937Y0119250D03*
X0021937Y0119250D03*
X0016937Y0119250D03*
X0011937Y0119250D03*
X0011937Y0124250D03*
D31*
X0171937Y0155250D03*
X0171937Y0023250D03*
M02*
