G75*
%MOIN*%
%OFA0B0*%
%FSLAX25Y25*%
%IPPOS*%
%LPD*%
%AMOC8*
5,1,8,0,0,1.08239X$1,22.5*
%
%ADD10C,0.05600*%
%ADD11OC8,0.05200*%
%ADD12R,0.34449X0.20472*%
%ADD13C,0.35433*%
%ADD14C,0.08400*%
%ADD15C,0.05200*%
%ADD16R,0.04800X0.04800*%
%ADD17C,0.04800*%
%ADD18C,0.01000*%
%ADD19C,0.03569*%
%ADD20C,0.00600*%
%ADD21C,0.11000*%
%ADD22C,0.25591*%
D10*
X0074137Y0034250D02*
X0079737Y0034250D01*
X0079737Y0044250D02*
X0074137Y0044250D01*
X0144137Y0079250D02*
X0149737Y0079250D01*
X0149737Y0089250D02*
X0144137Y0089250D01*
X0151937Y0057050D02*
X0151937Y0051450D01*
X0161937Y0051450D02*
X0161937Y0057050D01*
X0079737Y0134250D02*
X0074137Y0134250D01*
X0074137Y0144250D02*
X0079737Y0144250D01*
X0066937Y0161450D02*
X0066937Y0167050D01*
X0056937Y0167050D02*
X0056937Y0161450D01*
X0106937Y0152050D02*
X0106937Y0146450D01*
X0116937Y0146450D02*
X0116937Y0152050D01*
X0126937Y0152050D02*
X0126937Y0146450D01*
X0136937Y0146450D02*
X0136937Y0152050D01*
D11*
X0132937Y0110250D03*
X0152937Y0110250D03*
X0063413Y0054729D03*
X0063413Y0034729D03*
X0074834Y0020531D03*
X0044834Y0020531D03*
D12*
X0026937Y0067990D03*
X0026937Y0110509D03*
D13*
X0026937Y0141750D03*
X0026937Y0036750D03*
D14*
X0057737Y0075470D02*
X0066137Y0075470D01*
X0066137Y0089250D02*
X0057737Y0089250D01*
X0057737Y0103029D02*
X0066137Y0103029D01*
D15*
X0174337Y0104250D02*
X0179537Y0104250D01*
X0179537Y0114250D02*
X0174337Y0114250D01*
X0174337Y0094250D02*
X0179537Y0094250D01*
X0179537Y0084250D02*
X0174337Y0084250D01*
X0174337Y0074250D02*
X0179537Y0074250D01*
X0179537Y0064250D02*
X0174337Y0064250D01*
D16*
X0105239Y0046470D03*
X0091937Y0074050D03*
X0091937Y0104450D03*
D17*
X0091937Y0114250D03*
X0091937Y0064250D03*
X0095439Y0046470D03*
D18*
X0005437Y0084250D02*
X0005437Y0007750D01*
X0048937Y0007750D01*
X0048937Y0084250D01*
X0005437Y0084250D01*
X0005437Y0084123D02*
X0048937Y0084123D01*
X0048937Y0083125D02*
X0005437Y0083125D01*
X0005437Y0082126D02*
X0048937Y0082126D01*
X0048937Y0081128D02*
X0005437Y0081128D01*
X0005437Y0080129D02*
X0048937Y0080129D01*
X0048937Y0079131D02*
X0005437Y0079131D01*
X0005437Y0078132D02*
X0048937Y0078132D01*
X0048937Y0077134D02*
X0005437Y0077134D01*
X0005437Y0076135D02*
X0048937Y0076135D01*
X0048937Y0075137D02*
X0005437Y0075137D01*
X0005437Y0074138D02*
X0048937Y0074138D01*
X0048937Y0073139D02*
X0005437Y0073139D01*
X0005437Y0072141D02*
X0048937Y0072141D01*
X0048937Y0071142D02*
X0005437Y0071142D01*
X0005437Y0070144D02*
X0048937Y0070144D01*
X0048937Y0069145D02*
X0005437Y0069145D01*
X0005437Y0068147D02*
X0048937Y0068147D01*
X0048937Y0067148D02*
X0005437Y0067148D01*
X0005437Y0066150D02*
X0048937Y0066150D01*
X0048937Y0065151D02*
X0005437Y0065151D01*
X0005437Y0064153D02*
X0048937Y0064153D01*
X0048937Y0063154D02*
X0005437Y0063154D01*
X0005437Y0062156D02*
X0048937Y0062156D01*
X0048937Y0061157D02*
X0005437Y0061157D01*
X0005437Y0060159D02*
X0048937Y0060159D01*
X0048937Y0059160D02*
X0005437Y0059160D01*
X0005437Y0058162D02*
X0048937Y0058162D01*
X0048937Y0057163D02*
X0005437Y0057163D01*
X0005437Y0056165D02*
X0048937Y0056165D01*
X0048937Y0055166D02*
X0005437Y0055166D01*
X0005437Y0054168D02*
X0048937Y0054168D01*
X0048937Y0053169D02*
X0005437Y0053169D01*
X0005437Y0052171D02*
X0048937Y0052171D01*
X0048937Y0051172D02*
X0005437Y0051172D01*
X0005437Y0050174D02*
X0048937Y0050174D01*
X0048937Y0049175D02*
X0005437Y0049175D01*
X0005437Y0048177D02*
X0048937Y0048177D01*
X0048937Y0047178D02*
X0005437Y0047178D01*
X0005437Y0046180D02*
X0048937Y0046180D01*
X0048937Y0045181D02*
X0005437Y0045181D01*
X0005437Y0044183D02*
X0048937Y0044183D01*
X0048937Y0043184D02*
X0005437Y0043184D01*
X0005437Y0042186D02*
X0048937Y0042186D01*
X0048937Y0041187D02*
X0005437Y0041187D01*
X0005437Y0040189D02*
X0048937Y0040189D01*
X0048937Y0039190D02*
X0005437Y0039190D01*
X0005437Y0038192D02*
X0048937Y0038192D01*
X0048937Y0037193D02*
X0005437Y0037193D01*
X0005437Y0036195D02*
X0048937Y0036195D01*
X0048937Y0035196D02*
X0005437Y0035196D01*
X0005437Y0034198D02*
X0048937Y0034198D01*
X0048937Y0033199D02*
X0005437Y0033199D01*
X0005437Y0032201D02*
X0048937Y0032201D01*
X0048937Y0031202D02*
X0005437Y0031202D01*
X0005437Y0030204D02*
X0048937Y0030204D01*
X0048937Y0029205D02*
X0005437Y0029205D01*
X0005437Y0028206D02*
X0048937Y0028206D01*
X0048937Y0027208D02*
X0005437Y0027208D01*
X0005437Y0026209D02*
X0048937Y0026209D01*
X0048937Y0025211D02*
X0005437Y0025211D01*
X0005437Y0024212D02*
X0048937Y0024212D01*
X0048937Y0023214D02*
X0005437Y0023214D01*
X0005437Y0022215D02*
X0048937Y0022215D01*
X0048937Y0021217D02*
X0005437Y0021217D01*
X0005437Y0020218D02*
X0048937Y0020218D01*
X0048937Y0019220D02*
X0005437Y0019220D01*
X0005437Y0018221D02*
X0048937Y0018221D01*
X0048937Y0017223D02*
X0005437Y0017223D01*
X0005437Y0016224D02*
X0048937Y0016224D01*
X0048937Y0015226D02*
X0005437Y0015226D01*
X0005437Y0014227D02*
X0048937Y0014227D01*
X0048937Y0013229D02*
X0005437Y0013229D01*
X0005437Y0012230D02*
X0048937Y0012230D01*
X0048937Y0011232D02*
X0005437Y0011232D01*
X0005437Y0010233D02*
X0048937Y0010233D01*
X0048937Y0009235D02*
X0005437Y0009235D01*
X0005437Y0008236D02*
X0048937Y0008236D01*
X0076937Y0044250D02*
X0176937Y0084250D01*
X0176937Y0104250D02*
X0116937Y0144250D01*
X0116937Y0149250D01*
X0048937Y0149026D02*
X0005437Y0149026D01*
X0005437Y0148028D02*
X0048937Y0148028D01*
X0048937Y0147029D02*
X0005437Y0147029D01*
X0005437Y0146031D02*
X0048937Y0146031D01*
X0048937Y0145032D02*
X0005437Y0145032D01*
X0005437Y0144034D02*
X0048937Y0144034D01*
X0048937Y0143035D02*
X0005437Y0143035D01*
X0005437Y0142037D02*
X0048937Y0142037D01*
X0048937Y0141038D02*
X0005437Y0141038D01*
X0005437Y0140040D02*
X0048937Y0140040D01*
X0048937Y0139041D02*
X0005437Y0139041D01*
X0005437Y0138043D02*
X0048937Y0138043D01*
X0048937Y0137044D02*
X0005437Y0137044D01*
X0005437Y0136046D02*
X0048937Y0136046D01*
X0048937Y0135047D02*
X0005437Y0135047D01*
X0005437Y0134049D02*
X0048937Y0134049D01*
X0048937Y0133050D02*
X0005437Y0133050D01*
X0005437Y0132052D02*
X0048937Y0132052D01*
X0048937Y0131053D02*
X0005437Y0131053D01*
X0005437Y0130055D02*
X0048937Y0130055D01*
X0048937Y0129056D02*
X0005437Y0129056D01*
X0005437Y0128058D02*
X0048937Y0128058D01*
X0048937Y0127059D02*
X0005437Y0127059D01*
X0005437Y0126061D02*
X0048937Y0126061D01*
X0048937Y0125062D02*
X0005437Y0125062D01*
X0005437Y0124064D02*
X0048937Y0124064D01*
X0048937Y0123065D02*
X0005437Y0123065D01*
X0005437Y0122067D02*
X0048937Y0122067D01*
X0048937Y0121068D02*
X0005437Y0121068D01*
X0005437Y0120070D02*
X0048937Y0120070D01*
X0048937Y0119071D02*
X0005437Y0119071D01*
X0005437Y0118073D02*
X0048937Y0118073D01*
X0048937Y0117074D02*
X0005437Y0117074D01*
X0005437Y0116075D02*
X0048937Y0116075D01*
X0048937Y0115077D02*
X0005437Y0115077D01*
X0005437Y0114078D02*
X0048937Y0114078D01*
X0048937Y0113080D02*
X0005437Y0113080D01*
X0005437Y0112081D02*
X0048937Y0112081D01*
X0048937Y0111083D02*
X0005437Y0111083D01*
X0005437Y0110084D02*
X0048937Y0110084D01*
X0048937Y0109086D02*
X0005437Y0109086D01*
X0005437Y0108087D02*
X0048937Y0108087D01*
X0048937Y0107089D02*
X0005437Y0107089D01*
X0005437Y0106090D02*
X0048937Y0106090D01*
X0048937Y0105092D02*
X0005437Y0105092D01*
X0005437Y0104093D02*
X0048937Y0104093D01*
X0048937Y0103095D02*
X0005437Y0103095D01*
X0005437Y0102096D02*
X0048937Y0102096D01*
X0048937Y0101098D02*
X0005437Y0101098D01*
X0005437Y0100099D02*
X0048937Y0100099D01*
X0048937Y0099101D02*
X0005437Y0099101D01*
X0005437Y0098102D02*
X0048937Y0098102D01*
X0048937Y0097104D02*
X0005437Y0097104D01*
X0005437Y0096105D02*
X0048937Y0096105D01*
X0048937Y0095107D02*
X0005437Y0095107D01*
X0005437Y0094250D02*
X0005437Y0170710D01*
X0048937Y0170710D01*
X0048937Y0094250D01*
X0005437Y0094250D01*
X0005437Y0150025D02*
X0048937Y0150025D01*
X0048937Y0151023D02*
X0005437Y0151023D01*
X0005437Y0152022D02*
X0048937Y0152022D01*
X0048937Y0153020D02*
X0005437Y0153020D01*
X0005437Y0154019D02*
X0048937Y0154019D01*
X0048937Y0155017D02*
X0005437Y0155017D01*
X0005437Y0156016D02*
X0048937Y0156016D01*
X0048937Y0157014D02*
X0005437Y0157014D01*
X0005437Y0158013D02*
X0048937Y0158013D01*
X0048937Y0159011D02*
X0005437Y0159011D01*
X0005437Y0160010D02*
X0048937Y0160010D01*
X0048937Y0161008D02*
X0005437Y0161008D01*
X0005437Y0162007D02*
X0048937Y0162007D01*
X0048937Y0163006D02*
X0005437Y0163006D01*
X0005437Y0164004D02*
X0048937Y0164004D01*
X0048937Y0165003D02*
X0005437Y0165003D01*
X0005437Y0166001D02*
X0048937Y0166001D01*
X0048937Y0167000D02*
X0005437Y0167000D01*
X0005437Y0167998D02*
X0048937Y0167998D01*
X0048937Y0168997D02*
X0005437Y0168997D01*
X0005437Y0169995D02*
X0048937Y0169995D01*
D19*
X0041937Y0124250D03*
X0041937Y0119250D03*
X0036937Y0119250D03*
X0031937Y0119250D03*
X0026937Y0119250D03*
X0021937Y0119250D03*
X0016937Y0119250D03*
X0011937Y0119250D03*
X0011937Y0124250D03*
X0011937Y0059250D03*
X0016937Y0059250D03*
X0021937Y0059250D03*
X0026937Y0059250D03*
X0031937Y0059250D03*
X0036937Y0059250D03*
X0041937Y0059250D03*
X0041937Y0054250D03*
X0011937Y0054250D03*
X0125776Y0071452D03*
X0125776Y0075452D03*
D20*
X0131662Y0068078D02*
X0060937Y0068078D01*
X0060937Y0067480D02*
X0090112Y0067480D01*
X0090184Y0067529D02*
X0089578Y0067124D01*
X0089063Y0066608D01*
X0088658Y0066002D01*
X0088379Y0065329D01*
X0088237Y0064614D01*
X0088237Y0064550D01*
X0091637Y0064550D01*
X0091637Y0067950D01*
X0091573Y0067950D01*
X0090858Y0067807D01*
X0090184Y0067529D01*
X0089336Y0066881D02*
X0060937Y0066881D01*
X0060937Y0066283D02*
X0088846Y0066283D01*
X0088526Y0065684D02*
X0060937Y0065684D01*
X0060937Y0065086D02*
X0088331Y0065086D01*
X0088237Y0063950D02*
X0088237Y0063885D01*
X0088379Y0063170D01*
X0088658Y0062497D01*
X0089063Y0061891D01*
X0089578Y0061376D01*
X0090184Y0060971D01*
X0090858Y0060692D01*
X0091573Y0060550D01*
X0091637Y0060550D01*
X0091637Y0063950D01*
X0088237Y0063950D01*
X0088237Y0063889D02*
X0060937Y0063889D01*
X0060937Y0064487D02*
X0091637Y0064487D01*
X0091637Y0064550D02*
X0091637Y0063950D01*
X0092237Y0063950D01*
X0092237Y0064550D01*
X0091637Y0064550D01*
X0091637Y0065086D02*
X0092237Y0065086D01*
X0092237Y0064550D02*
X0092237Y0067950D01*
X0092301Y0067950D01*
X0093016Y0067807D01*
X0093690Y0067529D01*
X0094296Y0067124D01*
X0094811Y0066608D01*
X0095216Y0066002D01*
X0095495Y0065329D01*
X0095637Y0064614D01*
X0095637Y0064550D01*
X0092237Y0064550D01*
X0092237Y0064487D02*
X0122685Y0064487D01*
X0124181Y0065086D02*
X0095543Y0065086D01*
X0095348Y0065684D02*
X0125677Y0065684D01*
X0127174Y0066283D02*
X0095028Y0066283D01*
X0094538Y0066881D02*
X0128670Y0066881D01*
X0130166Y0067480D02*
X0093762Y0067480D01*
X0092237Y0067480D02*
X0091637Y0067480D01*
X0091637Y0066881D02*
X0092237Y0066881D01*
X0092237Y0066283D02*
X0091637Y0066283D01*
X0091637Y0065684D02*
X0092237Y0065684D01*
X0092237Y0063950D02*
X0095637Y0063950D01*
X0095637Y0063885D01*
X0095495Y0063170D01*
X0095216Y0062497D01*
X0094811Y0061891D01*
X0094296Y0061376D01*
X0093690Y0060971D01*
X0093016Y0060692D01*
X0092301Y0060550D01*
X0092237Y0060550D01*
X0092237Y0063950D01*
X0092237Y0063889D02*
X0091637Y0063889D01*
X0091637Y0063290D02*
X0092237Y0063290D01*
X0092237Y0062692D02*
X0091637Y0062692D01*
X0091637Y0062093D02*
X0092237Y0062093D01*
X0092237Y0061495D02*
X0091637Y0061495D01*
X0091637Y0060896D02*
X0092237Y0060896D01*
X0093510Y0060896D02*
X0113707Y0060896D01*
X0112211Y0060298D02*
X0060937Y0060298D01*
X0060937Y0060896D02*
X0090364Y0060896D01*
X0089459Y0061495D02*
X0060937Y0061495D01*
X0060937Y0062093D02*
X0088928Y0062093D01*
X0088577Y0062692D02*
X0060937Y0062692D01*
X0060937Y0063290D02*
X0088355Y0063290D01*
X0094415Y0061495D02*
X0115203Y0061495D01*
X0116700Y0062093D02*
X0094946Y0062093D01*
X0095297Y0062692D02*
X0118196Y0062692D01*
X0119692Y0063290D02*
X0095519Y0063290D01*
X0095637Y0063889D02*
X0121188Y0063889D01*
X0121904Y0060298D02*
X0149387Y0060298D01*
X0149615Y0060525D02*
X0148461Y0059372D01*
X0147837Y0057865D01*
X0147837Y0050634D01*
X0148461Y0049127D01*
X0149615Y0047974D01*
X0151121Y0047350D01*
X0152753Y0047350D01*
X0154259Y0047974D01*
X0155413Y0049127D01*
X0156037Y0050634D01*
X0156037Y0057865D01*
X0155413Y0059372D01*
X0154259Y0060525D01*
X0152753Y0061150D01*
X0151121Y0061150D01*
X0149615Y0060525D01*
X0150510Y0060896D02*
X0123400Y0060896D01*
X0124897Y0061495D02*
X0171576Y0061495D01*
X0171308Y0061764D02*
X0171851Y0061220D01*
X0172490Y0060794D01*
X0173199Y0060500D01*
X0173953Y0060350D01*
X0176637Y0060350D01*
X0176637Y0063950D01*
X0170437Y0063950D01*
X0170437Y0063866D01*
X0170587Y0063112D01*
X0170881Y0062402D01*
X0171308Y0061764D01*
X0171087Y0062093D02*
X0126393Y0062093D01*
X0127889Y0062692D02*
X0170761Y0062692D01*
X0170551Y0063290D02*
X0129385Y0063290D01*
X0130882Y0063889D02*
X0170437Y0063889D01*
X0170437Y0064550D02*
X0176637Y0064550D01*
X0176637Y0068150D01*
X0173953Y0068150D01*
X0173199Y0068000D01*
X0172490Y0067706D01*
X0171851Y0067279D01*
X0171308Y0066736D01*
X0170881Y0066097D01*
X0170587Y0065387D01*
X0170437Y0064634D01*
X0170437Y0064550D01*
X0170527Y0065086D02*
X0133874Y0065086D01*
X0132378Y0064487D02*
X0176637Y0064487D01*
X0176637Y0064550D02*
X0176637Y0063950D01*
X0177237Y0063950D01*
X0177237Y0064550D01*
X0176637Y0064550D01*
X0176637Y0065086D02*
X0177237Y0065086D01*
X0177237Y0064550D02*
X0177237Y0068150D01*
X0179921Y0068150D01*
X0180675Y0068000D01*
X0181384Y0067706D01*
X0182023Y0067279D01*
X0182566Y0066736D01*
X0182993Y0066097D01*
X0183287Y0065387D01*
X0183437Y0064634D01*
X0183437Y0064550D01*
X0177237Y0064550D01*
X0177237Y0064487D02*
X0187338Y0064487D01*
X0187338Y0063889D02*
X0183437Y0063889D01*
X0183437Y0063866D02*
X0183287Y0063112D01*
X0182993Y0062402D01*
X0182566Y0061764D01*
X0182023Y0061220D01*
X0181384Y0060794D01*
X0180675Y0060500D01*
X0179921Y0060350D01*
X0177237Y0060350D01*
X0177237Y0063950D01*
X0183437Y0063950D01*
X0183437Y0063866D01*
X0183323Y0063290D02*
X0187338Y0063290D01*
X0187338Y0062692D02*
X0183113Y0062692D01*
X0182787Y0062093D02*
X0187338Y0062093D01*
X0187338Y0061495D02*
X0182298Y0061495D01*
X0181538Y0060896D02*
X0187338Y0060896D01*
X0187338Y0060298D02*
X0164487Y0060298D01*
X0164259Y0060525D02*
X0162753Y0061150D01*
X0161121Y0061150D01*
X0159615Y0060525D01*
X0158461Y0059372D01*
X0157837Y0057865D01*
X0157837Y0050634D01*
X0158461Y0049127D01*
X0159615Y0047974D01*
X0161121Y0047350D01*
X0162753Y0047350D01*
X0164259Y0047974D01*
X0165413Y0049127D01*
X0166037Y0050634D01*
X0166037Y0057865D01*
X0165413Y0059372D01*
X0164259Y0060525D01*
X0163364Y0060896D02*
X0172336Y0060896D01*
X0176637Y0060896D02*
X0177237Y0060896D01*
X0177237Y0061495D02*
X0176637Y0061495D01*
X0176637Y0062093D02*
X0177237Y0062093D01*
X0177237Y0062692D02*
X0176637Y0062692D01*
X0176637Y0063290D02*
X0177237Y0063290D01*
X0177237Y0063889D02*
X0176637Y0063889D01*
X0176637Y0065684D02*
X0177237Y0065684D01*
X0177237Y0066283D02*
X0176637Y0066283D01*
X0176637Y0066881D02*
X0177237Y0066881D01*
X0177237Y0067480D02*
X0176637Y0067480D01*
X0176637Y0068078D02*
X0177237Y0068078D01*
X0180279Y0068078D02*
X0187338Y0068078D01*
X0187338Y0067480D02*
X0181722Y0067480D01*
X0182421Y0066881D02*
X0187338Y0066881D01*
X0187338Y0066283D02*
X0182869Y0066283D01*
X0183164Y0065684D02*
X0187338Y0065684D01*
X0187338Y0065086D02*
X0183347Y0065086D01*
X0187338Y0068677D02*
X0142852Y0068677D01*
X0144348Y0069275D02*
X0187338Y0069275D01*
X0187338Y0069874D02*
X0145844Y0069874D01*
X0147341Y0070473D02*
X0173265Y0070473D01*
X0173561Y0070350D02*
X0180313Y0070350D01*
X0181746Y0070943D01*
X0182843Y0072040D01*
X0183437Y0073474D01*
X0183437Y0075025D01*
X0182843Y0076459D01*
X0181746Y0077556D01*
X0180313Y0078150D01*
X0173561Y0078150D01*
X0172128Y0077556D01*
X0171031Y0076459D01*
X0170437Y0075025D01*
X0170437Y0073474D01*
X0171031Y0072040D01*
X0172128Y0070943D01*
X0173561Y0070350D01*
X0172000Y0071071D02*
X0148837Y0071071D01*
X0150333Y0071670D02*
X0171402Y0071670D01*
X0170936Y0072268D02*
X0151830Y0072268D01*
X0153326Y0072867D02*
X0170689Y0072867D01*
X0170441Y0073465D02*
X0154822Y0073465D01*
X0156318Y0074064D02*
X0170437Y0074064D01*
X0170437Y0074662D02*
X0157815Y0074662D01*
X0159311Y0075261D02*
X0170534Y0075261D01*
X0170782Y0075859D02*
X0160807Y0075859D01*
X0162304Y0076458D02*
X0171030Y0076458D01*
X0171628Y0077056D02*
X0163800Y0077056D01*
X0165296Y0077655D02*
X0172366Y0077655D01*
X0171281Y0080049D02*
X0187338Y0080049D01*
X0187338Y0080647D02*
X0181031Y0080647D01*
X0181746Y0080943D02*
X0182843Y0082040D01*
X0183437Y0083474D01*
X0183437Y0085025D01*
X0182843Y0086459D01*
X0181746Y0087556D01*
X0180313Y0088150D01*
X0173561Y0088150D01*
X0172128Y0087556D01*
X0171031Y0086459D01*
X0170437Y0085025D01*
X0170437Y0083588D01*
X0152832Y0076546D01*
X0153213Y0076927D01*
X0153837Y0078434D01*
X0153837Y0080065D01*
X0153213Y0081572D01*
X0152059Y0082725D01*
X0150553Y0083350D01*
X0143321Y0083350D01*
X0141815Y0082725D01*
X0140661Y0081572D01*
X0140037Y0080065D01*
X0140037Y0078434D01*
X0140661Y0076927D01*
X0141815Y0075774D01*
X0143321Y0075150D01*
X0149340Y0075150D01*
X0081431Y0047986D01*
X0080553Y0048350D01*
X0073321Y0048350D01*
X0071815Y0047725D01*
X0070661Y0046572D01*
X0070037Y0045065D01*
X0070037Y0043434D01*
X0070661Y0041927D01*
X0071815Y0040774D01*
X0073321Y0040150D01*
X0080553Y0040150D01*
X0082059Y0040774D01*
X0083213Y0041927D01*
X0083837Y0043434D01*
X0083837Y0045065D01*
X0083835Y0045070D01*
X0092322Y0048465D01*
X0092160Y0048222D01*
X0091881Y0047549D01*
X0091739Y0046834D01*
X0091739Y0046770D01*
X0095139Y0046770D01*
X0095139Y0046170D01*
X0091739Y0046170D01*
X0091739Y0046105D01*
X0091881Y0045391D01*
X0092160Y0044717D01*
X0092565Y0044111D01*
X0093080Y0043596D01*
X0093687Y0043191D01*
X0094360Y0042912D01*
X0095075Y0042770D01*
X0095139Y0042770D01*
X0095139Y0046170D01*
X0095739Y0046170D01*
X0095739Y0046770D01*
X0099139Y0046770D01*
X0099139Y0046834D01*
X0098997Y0047549D01*
X0098718Y0048222D01*
X0098313Y0048828D01*
X0097798Y0049344D01*
X0097192Y0049749D01*
X0096518Y0050028D01*
X0096325Y0050066D01*
X0172811Y0080661D01*
X0173561Y0080350D01*
X0180313Y0080350D01*
X0181746Y0080943D01*
X0182048Y0081246D02*
X0187338Y0081246D01*
X0187338Y0081844D02*
X0182647Y0081844D01*
X0183010Y0082443D02*
X0187338Y0082443D01*
X0187338Y0083041D02*
X0183258Y0083041D01*
X0183437Y0083640D02*
X0187338Y0083640D01*
X0187338Y0084238D02*
X0183437Y0084238D01*
X0183437Y0084837D02*
X0187338Y0084837D01*
X0187338Y0085435D02*
X0183267Y0085435D01*
X0183019Y0086034D02*
X0187338Y0086034D01*
X0187338Y0086632D02*
X0182670Y0086632D01*
X0182071Y0087231D02*
X0187338Y0087231D01*
X0187338Y0087829D02*
X0181086Y0087829D01*
X0180313Y0090350D02*
X0181746Y0090943D01*
X0182843Y0092040D01*
X0183437Y0093474D01*
X0183437Y0095025D01*
X0182843Y0096459D01*
X0181746Y0097556D01*
X0180313Y0098150D01*
X0173561Y0098150D01*
X0172128Y0097556D01*
X0171031Y0096459D01*
X0170437Y0095025D01*
X0170437Y0093474D01*
X0171031Y0092040D01*
X0172128Y0090943D01*
X0173561Y0090350D01*
X0180313Y0090350D01*
X0181453Y0090822D02*
X0187338Y0090822D01*
X0187338Y0091420D02*
X0182223Y0091420D01*
X0182822Y0092019D02*
X0187338Y0092019D01*
X0187338Y0092617D02*
X0183082Y0092617D01*
X0183330Y0093216D02*
X0187338Y0093216D01*
X0187338Y0093814D02*
X0183437Y0093814D01*
X0183437Y0094413D02*
X0187338Y0094413D01*
X0187338Y0095011D02*
X0183437Y0095011D01*
X0183195Y0095610D02*
X0187338Y0095610D01*
X0187338Y0096208D02*
X0182947Y0096208D01*
X0182495Y0096807D02*
X0187338Y0096807D01*
X0187338Y0097406D02*
X0181897Y0097406D01*
X0180664Y0098004D02*
X0187338Y0098004D01*
X0187338Y0098603D02*
X0069489Y0098603D01*
X0069252Y0098367D02*
X0070800Y0099914D01*
X0071637Y0101935D01*
X0071637Y0104123D01*
X0070800Y0106145D01*
X0069252Y0107692D01*
X0067231Y0108529D01*
X0060937Y0108529D01*
X0060937Y0149450D01*
X0082268Y0149450D01*
X0082737Y0149918D01*
X0082737Y0152377D01*
X0083799Y0149812D01*
X0086499Y0147112D01*
X0090028Y0145650D01*
X0093846Y0145650D01*
X0097375Y0147112D01*
X0100075Y0149812D01*
X0101536Y0153340D01*
X0101536Y0157159D01*
X0100075Y0160687D01*
X0097375Y0163387D01*
X0093846Y0164849D01*
X0090028Y0164849D01*
X0086499Y0163387D01*
X0083799Y0160687D01*
X0082737Y0158123D01*
X0082737Y0170910D01*
X0187338Y0170910D01*
X0187338Y0007550D01*
X0060937Y0007550D01*
X0060937Y0031690D01*
X0061798Y0030829D01*
X0065029Y0030829D01*
X0067313Y0033113D01*
X0067313Y0036344D01*
X0065029Y0038629D01*
X0061798Y0038629D01*
X0060937Y0037768D01*
X0060937Y0051690D01*
X0061798Y0050829D01*
X0063113Y0050829D01*
X0063113Y0054429D01*
X0063713Y0054429D01*
X0063713Y0055029D01*
X0063113Y0055029D01*
X0063113Y0058629D01*
X0061798Y0058629D01*
X0060937Y0057768D01*
X0060937Y0069970D01*
X0067231Y0069970D01*
X0069252Y0070807D01*
X0070800Y0072355D01*
X0071637Y0074376D01*
X0071637Y0076564D01*
X0070800Y0078586D01*
X0069252Y0080133D01*
X0067231Y0080970D01*
X0060937Y0080970D01*
X0060937Y0083750D01*
X0061637Y0083750D01*
X0061637Y0088950D01*
X0062237Y0088950D01*
X0062237Y0089550D01*
X0061637Y0089550D01*
X0061637Y0094750D01*
X0060937Y0094750D01*
X0060937Y0097529D01*
X0067231Y0097529D01*
X0069252Y0098367D01*
X0068377Y0098004D02*
X0173210Y0098004D01*
X0171977Y0097406D02*
X0060937Y0097406D01*
X0060937Y0096807D02*
X0171379Y0096807D01*
X0170927Y0096208D02*
X0060937Y0096208D01*
X0060937Y0095610D02*
X0170679Y0095610D01*
X0170437Y0095011D02*
X0060937Y0095011D01*
X0061637Y0094413D02*
X0062237Y0094413D01*
X0062237Y0094750D02*
X0062237Y0089550D01*
X0071637Y0089550D01*
X0071637Y0089683D01*
X0071502Y0090538D01*
X0071234Y0091361D01*
X0070841Y0092132D01*
X0070332Y0092833D01*
X0069720Y0093445D01*
X0069020Y0093954D01*
X0068248Y0094347D01*
X0067425Y0094614D01*
X0066570Y0094750D01*
X0062237Y0094750D01*
X0062237Y0093814D02*
X0061637Y0093814D01*
X0061637Y0093216D02*
X0062237Y0093216D01*
X0062237Y0092617D02*
X0061637Y0092617D01*
X0061637Y0092019D02*
X0062237Y0092019D01*
X0062237Y0091420D02*
X0061637Y0091420D01*
X0061637Y0090822D02*
X0062237Y0090822D01*
X0062237Y0090223D02*
X0061637Y0090223D01*
X0061637Y0089625D02*
X0062237Y0089625D01*
X0062237Y0089026D02*
X0140037Y0089026D01*
X0140037Y0088434D02*
X0140661Y0086927D01*
X0141815Y0085774D01*
X0143321Y0085150D01*
X0150553Y0085150D01*
X0152059Y0085774D01*
X0153213Y0086927D01*
X0153837Y0088434D01*
X0153837Y0090065D01*
X0153213Y0091572D01*
X0152059Y0092725D01*
X0150553Y0093350D01*
X0143321Y0093350D01*
X0141815Y0092725D01*
X0140661Y0091572D01*
X0140037Y0090065D01*
X0140037Y0088434D01*
X0140040Y0088428D02*
X0071575Y0088428D01*
X0071637Y0088817D02*
X0071502Y0087962D01*
X0071234Y0087138D01*
X0070841Y0086367D01*
X0070332Y0085667D01*
X0069720Y0085054D01*
X0069020Y0084546D01*
X0068248Y0084153D01*
X0067425Y0083885D01*
X0066570Y0083750D01*
X0062237Y0083750D01*
X0062237Y0088950D01*
X0071637Y0088950D01*
X0071637Y0088817D01*
X0071637Y0089625D02*
X0140037Y0089625D01*
X0140103Y0090223D02*
X0071551Y0090223D01*
X0071409Y0090822D02*
X0140350Y0090822D01*
X0140598Y0091420D02*
X0071204Y0091420D01*
X0070899Y0092019D02*
X0141108Y0092019D01*
X0141707Y0092617D02*
X0070489Y0092617D01*
X0069949Y0093216D02*
X0142999Y0093216D01*
X0140288Y0087829D02*
X0071459Y0087829D01*
X0071264Y0087231D02*
X0140535Y0087231D01*
X0140956Y0086632D02*
X0070976Y0086632D01*
X0070599Y0086034D02*
X0141555Y0086034D01*
X0142632Y0085435D02*
X0070101Y0085435D01*
X0069420Y0084837D02*
X0170437Y0084837D01*
X0170437Y0084238D02*
X0068416Y0084238D01*
X0068011Y0080647D02*
X0140278Y0080647D01*
X0140037Y0080049D02*
X0069337Y0080049D01*
X0069935Y0079450D02*
X0140037Y0079450D01*
X0140037Y0078852D02*
X0070534Y0078852D01*
X0070937Y0078253D02*
X0140112Y0078253D01*
X0140360Y0077655D02*
X0094970Y0077655D01*
X0094875Y0077750D02*
X0088999Y0077750D01*
X0088237Y0076988D01*
X0088237Y0071111D01*
X0088999Y0070350D01*
X0094875Y0070350D01*
X0095637Y0071111D01*
X0095637Y0076988D01*
X0094875Y0077750D01*
X0095569Y0077056D02*
X0140608Y0077056D01*
X0141131Y0076458D02*
X0095637Y0076458D01*
X0095637Y0075859D02*
X0141729Y0075859D01*
X0143054Y0075261D02*
X0095637Y0075261D01*
X0095637Y0074662D02*
X0148121Y0074662D01*
X0146625Y0074064D02*
X0095637Y0074064D01*
X0095637Y0073465D02*
X0145129Y0073465D01*
X0143633Y0072867D02*
X0095637Y0072867D01*
X0095637Y0072268D02*
X0142136Y0072268D01*
X0140640Y0071670D02*
X0095637Y0071670D01*
X0095597Y0071071D02*
X0139144Y0071071D01*
X0137648Y0070473D02*
X0094998Y0070473D01*
X0088876Y0070473D02*
X0068444Y0070473D01*
X0069516Y0071071D02*
X0088277Y0071071D01*
X0088237Y0071670D02*
X0070115Y0071670D01*
X0070713Y0072268D02*
X0088237Y0072268D01*
X0088237Y0072867D02*
X0071012Y0072867D01*
X0071260Y0073465D02*
X0088237Y0073465D01*
X0088237Y0074064D02*
X0071508Y0074064D01*
X0071637Y0074662D02*
X0088237Y0074662D01*
X0088237Y0075261D02*
X0071637Y0075261D01*
X0071637Y0075859D02*
X0088237Y0075859D01*
X0088237Y0076458D02*
X0071637Y0076458D01*
X0071433Y0077056D02*
X0088305Y0077056D01*
X0088904Y0077655D02*
X0071185Y0077655D01*
X0062237Y0084238D02*
X0061637Y0084238D01*
X0061637Y0084837D02*
X0062237Y0084837D01*
X0062237Y0085435D02*
X0061637Y0085435D01*
X0061637Y0086034D02*
X0062237Y0086034D01*
X0062237Y0086632D02*
X0061637Y0086632D01*
X0061637Y0087231D02*
X0062237Y0087231D01*
X0062237Y0087829D02*
X0061637Y0087829D01*
X0061637Y0088428D02*
X0062237Y0088428D01*
X0060937Y0083640D02*
X0170437Y0083640D01*
X0169069Y0083041D02*
X0151297Y0083041D01*
X0152342Y0082443D02*
X0167573Y0082443D01*
X0166077Y0081844D02*
X0152941Y0081844D01*
X0153348Y0081246D02*
X0164581Y0081246D01*
X0163084Y0080647D02*
X0153596Y0080647D01*
X0153837Y0080049D02*
X0161588Y0080049D01*
X0160092Y0079450D02*
X0153837Y0079450D01*
X0153837Y0078852D02*
X0158595Y0078852D01*
X0157099Y0078253D02*
X0153762Y0078253D01*
X0153514Y0077655D02*
X0155603Y0077655D01*
X0154107Y0077056D02*
X0153266Y0077056D01*
X0151242Y0085435D02*
X0170607Y0085435D01*
X0170855Y0086034D02*
X0152319Y0086034D01*
X0152918Y0086632D02*
X0171204Y0086632D01*
X0171803Y0087231D02*
X0153339Y0087231D01*
X0153586Y0087829D02*
X0172788Y0087829D01*
X0172421Y0090822D02*
X0153524Y0090822D01*
X0153771Y0090223D02*
X0187338Y0090223D01*
X0187338Y0089625D02*
X0153837Y0089625D01*
X0153837Y0089026D02*
X0187338Y0089026D01*
X0187338Y0088428D02*
X0153834Y0088428D01*
X0153276Y0091420D02*
X0171651Y0091420D01*
X0171052Y0092019D02*
X0152766Y0092019D01*
X0152167Y0092617D02*
X0170792Y0092617D01*
X0170544Y0093216D02*
X0150875Y0093216D01*
X0142577Y0083041D02*
X0060937Y0083041D01*
X0060937Y0082443D02*
X0141532Y0082443D01*
X0140933Y0081844D02*
X0060937Y0081844D01*
X0060937Y0081246D02*
X0140526Y0081246D01*
X0136151Y0069874D02*
X0060937Y0069874D01*
X0060937Y0069275D02*
X0134655Y0069275D01*
X0133159Y0068677D02*
X0060937Y0068677D01*
X0060937Y0059699D02*
X0110715Y0059699D01*
X0109218Y0059101D02*
X0060937Y0059101D01*
X0060937Y0058502D02*
X0061672Y0058502D01*
X0061073Y0057904D02*
X0060937Y0057904D01*
X0063113Y0057904D02*
X0063713Y0057904D01*
X0063713Y0058502D02*
X0063113Y0058502D01*
X0063713Y0058629D02*
X0063713Y0055029D01*
X0067313Y0055029D01*
X0067313Y0056344D01*
X0065029Y0058629D01*
X0063713Y0058629D01*
X0063713Y0057305D02*
X0063113Y0057305D01*
X0063113Y0056707D02*
X0063713Y0056707D01*
X0063713Y0056108D02*
X0063113Y0056108D01*
X0063113Y0055510D02*
X0063713Y0055510D01*
X0063713Y0054911D02*
X0098744Y0054911D01*
X0097248Y0054313D02*
X0067313Y0054313D01*
X0067313Y0054429D02*
X0067313Y0053113D01*
X0065029Y0050829D01*
X0063713Y0050829D01*
X0063713Y0054429D01*
X0067313Y0054429D01*
X0067313Y0053714D02*
X0095752Y0053714D01*
X0094255Y0053116D02*
X0067313Y0053116D01*
X0066717Y0052517D02*
X0092759Y0052517D01*
X0091263Y0051919D02*
X0066119Y0051919D01*
X0065520Y0051320D02*
X0089767Y0051320D01*
X0088270Y0050722D02*
X0060937Y0050722D01*
X0060937Y0051320D02*
X0061306Y0051320D01*
X0060937Y0050123D02*
X0086774Y0050123D01*
X0085278Y0049525D02*
X0060937Y0049525D01*
X0060937Y0048926D02*
X0083782Y0048926D01*
X0082285Y0048328D02*
X0080606Y0048328D01*
X0083837Y0044737D02*
X0092152Y0044737D01*
X0091904Y0045335D02*
X0084497Y0045335D01*
X0083837Y0044138D02*
X0092547Y0044138D01*
X0093165Y0043539D02*
X0083837Y0043539D01*
X0083633Y0042941D02*
X0094290Y0042941D01*
X0095139Y0042941D02*
X0095739Y0042941D01*
X0095739Y0042770D02*
X0095804Y0042770D01*
X0096518Y0042912D01*
X0097192Y0043191D01*
X0097798Y0043596D01*
X0098313Y0044111D01*
X0098718Y0044717D01*
X0098997Y0045391D01*
X0099139Y0046105D01*
X0099139Y0046170D01*
X0095739Y0046170D01*
X0095739Y0042770D01*
X0095739Y0043539D02*
X0095139Y0043539D01*
X0095139Y0044138D02*
X0095739Y0044138D01*
X0095739Y0044737D02*
X0095139Y0044737D01*
X0095139Y0045335D02*
X0095739Y0045335D01*
X0095739Y0045934D02*
X0095139Y0045934D01*
X0095139Y0046532D02*
X0087490Y0046532D01*
X0088986Y0047131D02*
X0091798Y0047131D01*
X0091956Y0047729D02*
X0090482Y0047729D01*
X0091978Y0048328D02*
X0092231Y0048328D01*
X0091773Y0045934D02*
X0085993Y0045934D01*
X0083385Y0042342D02*
X0187338Y0042342D01*
X0187338Y0041744D02*
X0083030Y0041744D01*
X0082431Y0041145D02*
X0187338Y0041145D01*
X0187338Y0040547D02*
X0081512Y0040547D01*
X0080553Y0038350D02*
X0082059Y0037725D01*
X0083213Y0036572D01*
X0083837Y0035065D01*
X0083837Y0033434D01*
X0083213Y0031927D01*
X0082059Y0030774D01*
X0080553Y0030150D01*
X0073321Y0030150D01*
X0071815Y0030774D01*
X0070661Y0031927D01*
X0070037Y0033434D01*
X0070037Y0035065D01*
X0070661Y0036572D01*
X0071815Y0037725D01*
X0073321Y0038350D01*
X0080553Y0038350D01*
X0081028Y0038153D02*
X0187338Y0038153D01*
X0187338Y0038751D02*
X0060937Y0038751D01*
X0060937Y0038153D02*
X0061322Y0038153D01*
X0060937Y0039350D02*
X0187338Y0039350D01*
X0187338Y0039948D02*
X0060937Y0039948D01*
X0060937Y0040547D02*
X0072362Y0040547D01*
X0071443Y0041145D02*
X0060937Y0041145D01*
X0060937Y0041744D02*
X0070844Y0041744D01*
X0070489Y0042342D02*
X0060937Y0042342D01*
X0060937Y0042941D02*
X0070241Y0042941D01*
X0070037Y0043539D02*
X0060937Y0043539D01*
X0060937Y0044138D02*
X0070037Y0044138D01*
X0070037Y0044737D02*
X0060937Y0044737D01*
X0060937Y0045335D02*
X0070149Y0045335D01*
X0070397Y0045934D02*
X0060937Y0045934D01*
X0060937Y0046532D02*
X0070645Y0046532D01*
X0071220Y0047131D02*
X0060937Y0047131D01*
X0060937Y0047729D02*
X0071823Y0047729D01*
X0073268Y0048328D02*
X0060937Y0048328D01*
X0063113Y0051320D02*
X0063713Y0051320D01*
X0063713Y0051919D02*
X0063113Y0051919D01*
X0063113Y0052517D02*
X0063713Y0052517D01*
X0063713Y0053116D02*
X0063113Y0053116D01*
X0063113Y0053714D02*
X0063713Y0053714D01*
X0063713Y0054313D02*
X0063113Y0054313D01*
X0067313Y0055510D02*
X0100241Y0055510D01*
X0101737Y0056108D02*
X0067313Y0056108D01*
X0066951Y0056707D02*
X0103233Y0056707D01*
X0104729Y0057305D02*
X0066352Y0057305D01*
X0065754Y0057904D02*
X0106226Y0057904D01*
X0107722Y0058502D02*
X0065155Y0058502D01*
X0065505Y0038153D02*
X0072846Y0038153D01*
X0071643Y0037554D02*
X0066103Y0037554D01*
X0066702Y0036956D02*
X0071045Y0036956D01*
X0070572Y0036357D02*
X0067300Y0036357D01*
X0067313Y0035759D02*
X0070324Y0035759D01*
X0070076Y0035160D02*
X0067313Y0035160D01*
X0067313Y0034562D02*
X0070037Y0034562D01*
X0070037Y0033963D02*
X0067313Y0033963D01*
X0067313Y0033365D02*
X0070066Y0033365D01*
X0070314Y0032766D02*
X0066966Y0032766D01*
X0066368Y0032168D02*
X0070562Y0032168D01*
X0071019Y0031569D02*
X0065769Y0031569D01*
X0065171Y0030971D02*
X0071618Y0030971D01*
X0072784Y0030372D02*
X0060937Y0030372D01*
X0060937Y0029774D02*
X0084886Y0029774D01*
X0085484Y0030372D02*
X0081090Y0030372D01*
X0082256Y0030971D02*
X0086083Y0030971D01*
X0086499Y0031387D02*
X0083799Y0028687D01*
X0082338Y0025159D01*
X0082338Y0021340D01*
X0083799Y0017812D01*
X0086499Y0015112D01*
X0090028Y0013650D01*
X0093846Y0013650D01*
X0097375Y0015112D01*
X0100075Y0017812D01*
X0101536Y0021340D01*
X0101536Y0025159D01*
X0100075Y0028687D01*
X0097375Y0031387D01*
X0093846Y0032849D01*
X0090028Y0032849D01*
X0086499Y0031387D01*
X0086938Y0031569D02*
X0082855Y0031569D01*
X0083312Y0032168D02*
X0088383Y0032168D01*
X0089828Y0032766D02*
X0083560Y0032766D01*
X0083808Y0033365D02*
X0187338Y0033365D01*
X0187338Y0033963D02*
X0083837Y0033963D01*
X0083837Y0034562D02*
X0187338Y0034562D01*
X0187338Y0035160D02*
X0083798Y0035160D01*
X0083550Y0035759D02*
X0187338Y0035759D01*
X0187338Y0036357D02*
X0083302Y0036357D01*
X0082829Y0036956D02*
X0187338Y0036956D01*
X0187338Y0037554D02*
X0082231Y0037554D01*
X0084287Y0029175D02*
X0060937Y0029175D01*
X0060937Y0028577D02*
X0083753Y0028577D01*
X0083506Y0027978D02*
X0060937Y0027978D01*
X0060937Y0027380D02*
X0083258Y0027380D01*
X0083010Y0026781D02*
X0060937Y0026781D01*
X0060937Y0026183D02*
X0082762Y0026183D01*
X0082514Y0025584D02*
X0060937Y0025584D01*
X0060937Y0024986D02*
X0082338Y0024986D01*
X0082338Y0024387D02*
X0076493Y0024387D01*
X0076449Y0024431D02*
X0073219Y0024431D01*
X0070934Y0022146D01*
X0070934Y0018916D01*
X0073219Y0016631D01*
X0076449Y0016631D01*
X0078734Y0018916D01*
X0078734Y0022146D01*
X0076449Y0024431D01*
X0077092Y0023789D02*
X0082338Y0023789D01*
X0082338Y0023190D02*
X0077690Y0023190D01*
X0078289Y0022592D02*
X0082338Y0022592D01*
X0082338Y0021993D02*
X0078734Y0021993D01*
X0078734Y0021395D02*
X0082338Y0021395D01*
X0082563Y0020796D02*
X0078734Y0020796D01*
X0078734Y0020198D02*
X0082811Y0020198D01*
X0083059Y0019599D02*
X0078734Y0019599D01*
X0078734Y0019001D02*
X0083307Y0019001D01*
X0083555Y0018402D02*
X0078220Y0018402D01*
X0077622Y0017804D02*
X0083808Y0017804D01*
X0084406Y0017205D02*
X0077023Y0017205D01*
X0072645Y0017205D02*
X0060937Y0017205D01*
X0060937Y0017804D02*
X0072046Y0017804D01*
X0071448Y0018402D02*
X0060937Y0018402D01*
X0060937Y0019001D02*
X0070934Y0019001D01*
X0070934Y0019599D02*
X0060937Y0019599D01*
X0060937Y0020198D02*
X0070934Y0020198D01*
X0070934Y0020796D02*
X0060937Y0020796D01*
X0060937Y0021395D02*
X0070934Y0021395D01*
X0070934Y0021993D02*
X0060937Y0021993D01*
X0060937Y0022592D02*
X0071379Y0022592D01*
X0071978Y0023190D02*
X0060937Y0023190D01*
X0060937Y0023789D02*
X0072576Y0023789D01*
X0073175Y0024387D02*
X0060937Y0024387D01*
X0060937Y0030971D02*
X0061656Y0030971D01*
X0061057Y0031569D02*
X0060937Y0031569D01*
X0060937Y0016606D02*
X0085005Y0016606D01*
X0085603Y0016008D02*
X0060937Y0016008D01*
X0060937Y0015409D02*
X0086202Y0015409D01*
X0087226Y0014811D02*
X0060937Y0014811D01*
X0060937Y0014212D02*
X0088671Y0014212D01*
X0095203Y0014212D02*
X0187338Y0014212D01*
X0187338Y0013614D02*
X0060937Y0013614D01*
X0060937Y0013015D02*
X0187338Y0013015D01*
X0187338Y0012417D02*
X0060937Y0012417D01*
X0060937Y0011818D02*
X0187338Y0011818D01*
X0187338Y0011220D02*
X0060937Y0011220D01*
X0060937Y0010621D02*
X0187338Y0010621D01*
X0187338Y0010023D02*
X0060937Y0010023D01*
X0060937Y0009424D02*
X0187338Y0009424D01*
X0187338Y0008826D02*
X0060937Y0008826D01*
X0060937Y0008227D02*
X0187338Y0008227D01*
X0187338Y0007629D02*
X0060937Y0007629D01*
X0094046Y0032766D02*
X0187338Y0032766D01*
X0187338Y0032168D02*
X0095491Y0032168D01*
X0096936Y0031569D02*
X0187338Y0031569D01*
X0187338Y0030971D02*
X0141531Y0030971D01*
X0140796Y0031275D02*
X0138778Y0031275D01*
X0136914Y0030503D01*
X0135488Y0029076D01*
X0134715Y0027212D01*
X0134715Y0025195D01*
X0135488Y0023331D01*
X0136914Y0021904D01*
X0138778Y0021132D01*
X0140796Y0021132D01*
X0142660Y0021904D01*
X0144087Y0023331D01*
X0144859Y0025195D01*
X0144859Y0027212D01*
X0144087Y0029076D01*
X0142660Y0030503D01*
X0140796Y0031275D01*
X0142791Y0030372D02*
X0187338Y0030372D01*
X0187338Y0029774D02*
X0143389Y0029774D01*
X0143988Y0029175D02*
X0187338Y0029175D01*
X0187338Y0028577D02*
X0144294Y0028577D01*
X0144542Y0027978D02*
X0187338Y0027978D01*
X0187338Y0027380D02*
X0144789Y0027380D01*
X0144859Y0026781D02*
X0187338Y0026781D01*
X0187338Y0026183D02*
X0144859Y0026183D01*
X0144859Y0025584D02*
X0187338Y0025584D01*
X0187338Y0024986D02*
X0144772Y0024986D01*
X0144524Y0024387D02*
X0187338Y0024387D01*
X0187338Y0023789D02*
X0144276Y0023789D01*
X0143946Y0023190D02*
X0187338Y0023190D01*
X0187338Y0022592D02*
X0143348Y0022592D01*
X0142749Y0021993D02*
X0187338Y0021993D01*
X0187338Y0021395D02*
X0141430Y0021395D01*
X0138144Y0021395D02*
X0127651Y0021395D01*
X0127016Y0021132D02*
X0128880Y0021904D01*
X0130307Y0023331D01*
X0131079Y0025195D01*
X0131079Y0027212D01*
X0130307Y0029076D01*
X0128880Y0030503D01*
X0127016Y0031275D01*
X0124999Y0031275D01*
X0123135Y0030503D01*
X0121708Y0029076D01*
X0120936Y0027212D01*
X0120936Y0025195D01*
X0121708Y0023331D01*
X0123135Y0021904D01*
X0124999Y0021132D01*
X0127016Y0021132D01*
X0128970Y0021993D02*
X0136825Y0021993D01*
X0136227Y0022592D02*
X0129568Y0022592D01*
X0130167Y0023190D02*
X0135628Y0023190D01*
X0135298Y0023789D02*
X0130497Y0023789D01*
X0130745Y0024387D02*
X0135050Y0024387D01*
X0134802Y0024986D02*
X0130993Y0024986D01*
X0131079Y0025584D02*
X0134715Y0025584D01*
X0134715Y0026183D02*
X0131079Y0026183D01*
X0131079Y0026781D02*
X0134715Y0026781D01*
X0134785Y0027380D02*
X0131010Y0027380D01*
X0130762Y0027978D02*
X0135033Y0027978D01*
X0135281Y0028577D02*
X0130514Y0028577D01*
X0130208Y0029175D02*
X0135586Y0029175D01*
X0136185Y0029774D02*
X0129610Y0029774D01*
X0129011Y0030372D02*
X0136783Y0030372D01*
X0138043Y0030971D02*
X0127751Y0030971D01*
X0124264Y0030971D02*
X0097791Y0030971D01*
X0098390Y0030372D02*
X0123004Y0030372D01*
X0122405Y0029774D02*
X0098988Y0029774D01*
X0099587Y0029175D02*
X0121807Y0029175D01*
X0121501Y0028577D02*
X0100121Y0028577D01*
X0100368Y0027978D02*
X0121253Y0027978D01*
X0121005Y0027380D02*
X0100616Y0027380D01*
X0100864Y0026781D02*
X0120936Y0026781D01*
X0120936Y0026183D02*
X0101112Y0026183D01*
X0101360Y0025584D02*
X0120936Y0025584D01*
X0121023Y0024986D02*
X0101536Y0024986D01*
X0101536Y0024387D02*
X0121270Y0024387D01*
X0121518Y0023789D02*
X0101536Y0023789D01*
X0101536Y0023190D02*
X0121849Y0023190D01*
X0122447Y0022592D02*
X0101536Y0022592D01*
X0101536Y0021993D02*
X0123046Y0021993D01*
X0124365Y0021395D02*
X0101536Y0021395D01*
X0101311Y0020796D02*
X0187338Y0020796D01*
X0187338Y0020198D02*
X0101063Y0020198D01*
X0100815Y0019599D02*
X0187338Y0019599D01*
X0187338Y0019001D02*
X0100567Y0019001D01*
X0100319Y0018402D02*
X0187338Y0018402D01*
X0187338Y0017804D02*
X0100066Y0017804D01*
X0099468Y0017205D02*
X0187338Y0017205D01*
X0187338Y0016606D02*
X0098869Y0016606D01*
X0098271Y0016008D02*
X0187338Y0016008D01*
X0187338Y0015409D02*
X0097672Y0015409D01*
X0096648Y0014811D02*
X0187338Y0014811D01*
X0187338Y0042941D02*
X0108349Y0042941D01*
X0108178Y0042770D02*
X0108939Y0043531D01*
X0108939Y0049408D01*
X0108178Y0050170D01*
X0102301Y0050170D01*
X0101539Y0049408D01*
X0101539Y0043531D01*
X0102301Y0042770D01*
X0108178Y0042770D01*
X0108939Y0043539D02*
X0187338Y0043539D01*
X0187338Y0044138D02*
X0108939Y0044138D01*
X0108939Y0044737D02*
X0187338Y0044737D01*
X0187338Y0045335D02*
X0108939Y0045335D01*
X0108939Y0045934D02*
X0187338Y0045934D01*
X0187338Y0046532D02*
X0108939Y0046532D01*
X0108939Y0047131D02*
X0187338Y0047131D01*
X0187338Y0047729D02*
X0163669Y0047729D01*
X0164613Y0048328D02*
X0187338Y0048328D01*
X0187338Y0048926D02*
X0165212Y0048926D01*
X0165577Y0049525D02*
X0187338Y0049525D01*
X0187338Y0050123D02*
X0165825Y0050123D01*
X0166037Y0050722D02*
X0187338Y0050722D01*
X0187338Y0051320D02*
X0166037Y0051320D01*
X0166037Y0051919D02*
X0187338Y0051919D01*
X0187338Y0052517D02*
X0166037Y0052517D01*
X0166037Y0053116D02*
X0187338Y0053116D01*
X0187338Y0053714D02*
X0166037Y0053714D01*
X0166037Y0054313D02*
X0187338Y0054313D01*
X0187338Y0054911D02*
X0166037Y0054911D01*
X0166037Y0055510D02*
X0187338Y0055510D01*
X0187338Y0056108D02*
X0166037Y0056108D01*
X0166037Y0056707D02*
X0187338Y0056707D01*
X0187338Y0057305D02*
X0166037Y0057305D01*
X0166021Y0057904D02*
X0187338Y0057904D01*
X0187338Y0058502D02*
X0165773Y0058502D01*
X0165525Y0059101D02*
X0187338Y0059101D01*
X0187338Y0059699D02*
X0165086Y0059699D01*
X0160510Y0060896D02*
X0153364Y0060896D01*
X0154487Y0060298D02*
X0159387Y0060298D01*
X0158788Y0059699D02*
X0155086Y0059699D01*
X0155525Y0059101D02*
X0158349Y0059101D01*
X0158101Y0058502D02*
X0155773Y0058502D01*
X0156021Y0057904D02*
X0157853Y0057904D01*
X0157837Y0057305D02*
X0156037Y0057305D01*
X0156037Y0056707D02*
X0157837Y0056707D01*
X0157837Y0056108D02*
X0156037Y0056108D01*
X0156037Y0055510D02*
X0157837Y0055510D01*
X0157837Y0054911D02*
X0156037Y0054911D01*
X0156037Y0054313D02*
X0157837Y0054313D01*
X0157837Y0053714D02*
X0156037Y0053714D01*
X0156037Y0053116D02*
X0157837Y0053116D01*
X0157837Y0052517D02*
X0156037Y0052517D01*
X0156037Y0051919D02*
X0157837Y0051919D01*
X0157837Y0051320D02*
X0156037Y0051320D01*
X0156037Y0050722D02*
X0157837Y0050722D01*
X0158049Y0050123D02*
X0155825Y0050123D01*
X0155577Y0049525D02*
X0158297Y0049525D01*
X0158662Y0048926D02*
X0155212Y0048926D01*
X0154613Y0048328D02*
X0159261Y0048328D01*
X0160205Y0047729D02*
X0153669Y0047729D01*
X0150205Y0047729D02*
X0108939Y0047729D01*
X0108939Y0048328D02*
X0149261Y0048328D01*
X0148662Y0048926D02*
X0108939Y0048926D01*
X0108823Y0049525D02*
X0148297Y0049525D01*
X0148049Y0050123D02*
X0108224Y0050123D01*
X0106941Y0054313D02*
X0147837Y0054313D01*
X0147837Y0054911D02*
X0108437Y0054911D01*
X0109934Y0055510D02*
X0147837Y0055510D01*
X0147837Y0056108D02*
X0111430Y0056108D01*
X0112926Y0056707D02*
X0147837Y0056707D01*
X0147837Y0057305D02*
X0114423Y0057305D01*
X0115919Y0057904D02*
X0147853Y0057904D01*
X0148101Y0058502D02*
X0117415Y0058502D01*
X0118911Y0059101D02*
X0148349Y0059101D01*
X0148788Y0059699D02*
X0120408Y0059699D01*
X0135370Y0065684D02*
X0170710Y0065684D01*
X0171005Y0066283D02*
X0136867Y0066283D01*
X0138363Y0066881D02*
X0171453Y0066881D01*
X0172152Y0067480D02*
X0139859Y0067480D01*
X0141356Y0068078D02*
X0173595Y0068078D01*
X0180609Y0070473D02*
X0187338Y0070473D01*
X0187338Y0071071D02*
X0181874Y0071071D01*
X0182472Y0071670D02*
X0187338Y0071670D01*
X0187338Y0072268D02*
X0182938Y0072268D01*
X0183185Y0072867D02*
X0187338Y0072867D01*
X0187338Y0073465D02*
X0183433Y0073465D01*
X0183437Y0074064D02*
X0187338Y0074064D01*
X0187338Y0074662D02*
X0183437Y0074662D01*
X0183340Y0075261D02*
X0187338Y0075261D01*
X0187338Y0075859D02*
X0183092Y0075859D01*
X0182844Y0076458D02*
X0187338Y0076458D01*
X0187338Y0077056D02*
X0182246Y0077056D01*
X0181508Y0077655D02*
X0187338Y0077655D01*
X0187338Y0078253D02*
X0166792Y0078253D01*
X0168289Y0078852D02*
X0187338Y0078852D01*
X0187338Y0079450D02*
X0169785Y0079450D01*
X0172777Y0080647D02*
X0172843Y0080647D01*
X0170437Y0093814D02*
X0069211Y0093814D01*
X0068044Y0094413D02*
X0170437Y0094413D01*
X0173444Y0100398D02*
X0071000Y0100398D01*
X0071248Y0100997D02*
X0088752Y0100997D01*
X0088999Y0100750D02*
X0094875Y0100750D01*
X0095637Y0101511D01*
X0095637Y0107388D01*
X0094875Y0108150D01*
X0088999Y0108150D01*
X0088237Y0107388D01*
X0088237Y0101511D01*
X0088999Y0100750D01*
X0088237Y0101595D02*
X0071496Y0101595D01*
X0071637Y0102194D02*
X0088237Y0102194D01*
X0088237Y0102792D02*
X0071637Y0102792D01*
X0071637Y0103391D02*
X0088237Y0103391D01*
X0088237Y0103989D02*
X0071637Y0103989D01*
X0071445Y0104588D02*
X0088237Y0104588D01*
X0088237Y0105186D02*
X0071197Y0105186D01*
X0070949Y0105785D02*
X0088237Y0105785D01*
X0088237Y0106383D02*
X0070561Y0106383D01*
X0069963Y0106982D02*
X0088237Y0106982D01*
X0088429Y0107580D02*
X0069364Y0107580D01*
X0068077Y0108179D02*
X0129493Y0108179D01*
X0129037Y0108634D02*
X0131322Y0106350D01*
X0134552Y0106350D01*
X0136837Y0108634D01*
X0136837Y0111865D01*
X0134552Y0114150D01*
X0131322Y0114150D01*
X0129037Y0111865D01*
X0129037Y0108634D01*
X0129037Y0108777D02*
X0060937Y0108777D01*
X0060937Y0109376D02*
X0129037Y0109376D01*
X0129037Y0109974D02*
X0060937Y0109974D01*
X0060937Y0110573D02*
X0091456Y0110573D01*
X0091573Y0110550D02*
X0090858Y0110692D01*
X0090184Y0110971D01*
X0089578Y0111376D01*
X0089063Y0111891D01*
X0088658Y0112497D01*
X0088379Y0113170D01*
X0088237Y0113885D01*
X0088237Y0113950D01*
X0091637Y0113950D01*
X0091637Y0114550D01*
X0091637Y0117950D01*
X0091573Y0117950D01*
X0090858Y0117807D01*
X0090184Y0117529D01*
X0089578Y0117124D01*
X0089063Y0116608D01*
X0088658Y0116002D01*
X0088379Y0115329D01*
X0088237Y0114614D01*
X0088237Y0114550D01*
X0091637Y0114550D01*
X0092237Y0114550D01*
X0092237Y0117950D01*
X0092301Y0117950D01*
X0093016Y0117807D01*
X0093690Y0117529D01*
X0094296Y0117124D01*
X0094811Y0116608D01*
X0095216Y0116002D01*
X0095495Y0115329D01*
X0095637Y0114614D01*
X0095637Y0114550D01*
X0092237Y0114550D01*
X0092237Y0113950D01*
X0095637Y0113950D01*
X0095637Y0113885D01*
X0095495Y0113170D01*
X0095216Y0112497D01*
X0094811Y0111891D01*
X0094296Y0111376D01*
X0093690Y0110971D01*
X0093016Y0110692D01*
X0092301Y0110550D01*
X0092237Y0110550D01*
X0092237Y0113950D01*
X0091637Y0113950D01*
X0091637Y0110550D01*
X0091573Y0110550D01*
X0091637Y0110573D02*
X0092237Y0110573D01*
X0092418Y0110573D02*
X0129037Y0110573D01*
X0129037Y0111171D02*
X0093990Y0111171D01*
X0094690Y0111770D02*
X0129037Y0111770D01*
X0129540Y0112368D02*
X0095130Y0112368D01*
X0095410Y0112967D02*
X0130139Y0112967D01*
X0130737Y0113565D02*
X0095573Y0113565D01*
X0095608Y0114762D02*
X0157923Y0114762D01*
X0158821Y0114164D02*
X0092237Y0114164D01*
X0092237Y0114762D02*
X0091637Y0114762D01*
X0091637Y0114164D02*
X0060937Y0114164D01*
X0060937Y0114762D02*
X0088267Y0114762D01*
X0088392Y0115361D02*
X0060937Y0115361D01*
X0060937Y0115959D02*
X0088640Y0115959D01*
X0089029Y0116558D02*
X0060937Y0116558D01*
X0060937Y0117156D02*
X0089627Y0117156D01*
X0090731Y0117755D02*
X0060937Y0117755D01*
X0060937Y0118353D02*
X0152536Y0118353D01*
X0151639Y0118952D02*
X0060937Y0118952D01*
X0060937Y0119550D02*
X0150741Y0119550D01*
X0149843Y0120149D02*
X0060937Y0120149D01*
X0060937Y0120747D02*
X0148945Y0120747D01*
X0148048Y0121346D02*
X0060937Y0121346D01*
X0060937Y0121944D02*
X0147150Y0121944D01*
X0146252Y0122543D02*
X0060937Y0122543D01*
X0060937Y0123141D02*
X0145354Y0123141D01*
X0144456Y0123740D02*
X0060937Y0123740D01*
X0060937Y0124339D02*
X0143559Y0124339D01*
X0142661Y0124937D02*
X0060937Y0124937D01*
X0060937Y0125536D02*
X0141763Y0125536D01*
X0140865Y0126134D02*
X0060937Y0126134D01*
X0060937Y0126733D02*
X0139968Y0126733D01*
X0139070Y0127331D02*
X0060937Y0127331D01*
X0060937Y0127930D02*
X0138172Y0127930D01*
X0137274Y0128528D02*
X0060937Y0128528D01*
X0060937Y0129127D02*
X0136377Y0129127D01*
X0135479Y0129725D02*
X0060937Y0129725D01*
X0060937Y0130324D02*
X0072952Y0130324D01*
X0073177Y0130251D02*
X0073814Y0130150D01*
X0076637Y0130150D01*
X0076637Y0133950D01*
X0070037Y0133950D01*
X0070037Y0133927D01*
X0070138Y0133290D01*
X0070337Y0132676D01*
X0070630Y0132101D01*
X0071010Y0131579D01*
X0071466Y0131122D01*
X0071988Y0130743D01*
X0072563Y0130450D01*
X0073177Y0130251D01*
X0071742Y0130922D02*
X0060937Y0130922D01*
X0060937Y0131521D02*
X0071068Y0131521D01*
X0070621Y0132119D02*
X0060937Y0132119D01*
X0060937Y0132718D02*
X0070324Y0132718D01*
X0070134Y0133316D02*
X0060937Y0133316D01*
X0060937Y0133915D02*
X0070039Y0133915D01*
X0070037Y0134550D02*
X0076637Y0134550D01*
X0076637Y0138350D01*
X0073814Y0138350D01*
X0073177Y0138249D01*
X0072563Y0138049D01*
X0071988Y0137756D01*
X0071466Y0137377D01*
X0071010Y0136921D01*
X0070630Y0136399D01*
X0070337Y0135823D01*
X0070138Y0135210D01*
X0070037Y0134572D01*
X0070037Y0134550D01*
X0070122Y0135112D02*
X0060937Y0135112D01*
X0060937Y0135710D02*
X0070301Y0135710D01*
X0070585Y0136309D02*
X0060937Y0136309D01*
X0060937Y0136907D02*
X0071000Y0136907D01*
X0071643Y0137506D02*
X0060937Y0137506D01*
X0060937Y0138104D02*
X0072732Y0138104D01*
X0073177Y0140251D02*
X0073814Y0140150D01*
X0076637Y0140150D01*
X0076637Y0143950D01*
X0070037Y0143950D01*
X0070037Y0143927D01*
X0070138Y0143290D01*
X0070337Y0142676D01*
X0070630Y0142101D01*
X0071010Y0141579D01*
X0071466Y0141122D01*
X0071988Y0140743D01*
X0072563Y0140450D01*
X0073177Y0140251D01*
X0072468Y0140498D02*
X0060937Y0140498D01*
X0060937Y0139900D02*
X0120217Y0139900D01*
X0121115Y0139301D02*
X0060937Y0139301D01*
X0060937Y0138703D02*
X0122012Y0138703D01*
X0122910Y0138104D02*
X0081142Y0138104D01*
X0081311Y0138049D02*
X0080697Y0138249D01*
X0080060Y0138350D01*
X0077237Y0138350D01*
X0077237Y0134550D01*
X0076637Y0134550D01*
X0076637Y0133950D01*
X0077237Y0133950D01*
X0077237Y0134550D01*
X0083837Y0134550D01*
X0083837Y0134572D01*
X0083736Y0135210D01*
X0083537Y0135823D01*
X0083244Y0136399D01*
X0082864Y0136921D01*
X0082408Y0137377D01*
X0081886Y0137756D01*
X0081311Y0138049D01*
X0082231Y0137506D02*
X0123808Y0137506D01*
X0124706Y0136907D02*
X0082874Y0136907D01*
X0083289Y0136309D02*
X0125603Y0136309D01*
X0126501Y0135710D02*
X0083573Y0135710D01*
X0083752Y0135112D02*
X0127399Y0135112D01*
X0128297Y0134513D02*
X0077237Y0134513D01*
X0077237Y0133950D02*
X0083837Y0133950D01*
X0083837Y0133927D01*
X0083736Y0133290D01*
X0083537Y0132676D01*
X0083244Y0132101D01*
X0082864Y0131579D01*
X0082408Y0131122D01*
X0081886Y0130743D01*
X0081311Y0130450D01*
X0080697Y0130251D01*
X0080060Y0130150D01*
X0077237Y0130150D01*
X0077237Y0133950D01*
X0077237Y0133915D02*
X0076637Y0133915D01*
X0076637Y0134513D02*
X0060937Y0134513D01*
X0060937Y0141097D02*
X0071501Y0141097D01*
X0070925Y0141695D02*
X0060937Y0141695D01*
X0060937Y0142294D02*
X0070532Y0142294D01*
X0070267Y0142892D02*
X0060937Y0142892D01*
X0060937Y0143491D02*
X0070106Y0143491D01*
X0070037Y0144550D02*
X0076637Y0144550D01*
X0076637Y0148350D01*
X0073814Y0148350D01*
X0073177Y0148249D01*
X0072563Y0148049D01*
X0071988Y0147756D01*
X0071466Y0147377D01*
X0071010Y0146921D01*
X0070630Y0146399D01*
X0070337Y0145823D01*
X0070138Y0145210D01*
X0070037Y0144572D01*
X0070037Y0144550D01*
X0070055Y0144688D02*
X0060937Y0144688D01*
X0060937Y0145286D02*
X0070163Y0145286D01*
X0070369Y0145885D02*
X0060937Y0145885D01*
X0060937Y0146483D02*
X0070692Y0146483D01*
X0071171Y0147082D02*
X0060937Y0147082D01*
X0060937Y0147680D02*
X0071884Y0147680D01*
X0073368Y0148279D02*
X0060937Y0148279D01*
X0060937Y0148877D02*
X0084734Y0148877D01*
X0085332Y0148279D02*
X0080506Y0148279D01*
X0080697Y0148249D02*
X0080060Y0148350D01*
X0077237Y0148350D01*
X0077237Y0144550D01*
X0076637Y0144550D01*
X0076637Y0143950D01*
X0077237Y0143950D01*
X0077237Y0144550D01*
X0083837Y0144550D01*
X0083837Y0144572D01*
X0083736Y0145210D01*
X0083537Y0145823D01*
X0083244Y0146399D01*
X0082864Y0146921D01*
X0082408Y0147377D01*
X0081886Y0147756D01*
X0081311Y0148049D01*
X0080697Y0148249D01*
X0081990Y0147680D02*
X0085931Y0147680D01*
X0086572Y0147082D02*
X0082703Y0147082D01*
X0083182Y0146483D02*
X0088017Y0146483D01*
X0089461Y0145885D02*
X0083505Y0145885D01*
X0083711Y0145286D02*
X0103004Y0145286D01*
X0102938Y0145490D02*
X0103137Y0144876D01*
X0103430Y0144301D01*
X0103810Y0143779D01*
X0104266Y0143322D01*
X0104788Y0142943D01*
X0105363Y0142650D01*
X0105977Y0142451D01*
X0106614Y0142350D01*
X0106637Y0142350D01*
X0106637Y0148950D01*
X0102837Y0148950D01*
X0102837Y0146127D01*
X0102938Y0145490D01*
X0102875Y0145885D02*
X0094412Y0145885D01*
X0095857Y0146483D02*
X0102837Y0146483D01*
X0102837Y0147082D02*
X0097302Y0147082D01*
X0097943Y0147680D02*
X0102837Y0147680D01*
X0102837Y0148279D02*
X0098542Y0148279D01*
X0099140Y0148877D02*
X0102837Y0148877D01*
X0102837Y0149550D02*
X0106637Y0149550D01*
X0106637Y0156150D01*
X0106614Y0156150D01*
X0105977Y0156049D01*
X0105363Y0155849D01*
X0104788Y0155556D01*
X0104266Y0155177D01*
X0103810Y0154721D01*
X0103430Y0154199D01*
X0103137Y0153623D01*
X0102938Y0153010D01*
X0102837Y0152372D01*
X0102837Y0149550D01*
X0102837Y0150075D02*
X0100183Y0150075D01*
X0100431Y0150673D02*
X0102837Y0150673D01*
X0102837Y0151272D02*
X0100679Y0151272D01*
X0100927Y0151870D02*
X0102837Y0151870D01*
X0102852Y0152469D02*
X0101175Y0152469D01*
X0101423Y0153067D02*
X0102957Y0153067D01*
X0103159Y0153666D02*
X0101536Y0153666D01*
X0101536Y0154264D02*
X0103478Y0154264D01*
X0103952Y0154863D02*
X0101536Y0154863D01*
X0101536Y0155461D02*
X0104657Y0155461D01*
X0106046Y0156060D02*
X0101536Y0156060D01*
X0101536Y0156658D02*
X0187338Y0156658D01*
X0187338Y0156060D02*
X0137828Y0156060D01*
X0137897Y0156049D02*
X0137260Y0156150D01*
X0137237Y0156150D01*
X0137237Y0149550D01*
X0136637Y0149550D01*
X0136637Y0156150D01*
X0136614Y0156150D01*
X0135977Y0156049D01*
X0135363Y0155849D01*
X0134788Y0155556D01*
X0134266Y0155177D01*
X0133810Y0154721D01*
X0133430Y0154199D01*
X0133137Y0153623D01*
X0132938Y0153010D01*
X0132837Y0152372D01*
X0132837Y0149550D01*
X0136637Y0149550D01*
X0136637Y0148950D01*
X0132837Y0148950D01*
X0132837Y0146127D01*
X0132938Y0145490D01*
X0133137Y0144876D01*
X0133430Y0144301D01*
X0133810Y0143779D01*
X0134266Y0143322D01*
X0134788Y0142943D01*
X0135363Y0142650D01*
X0135977Y0142451D01*
X0136614Y0142350D01*
X0136637Y0142350D01*
X0136637Y0148950D01*
X0137237Y0148950D01*
X0137237Y0149550D01*
X0141037Y0149550D01*
X0141037Y0152372D01*
X0140936Y0153010D01*
X0140737Y0153623D01*
X0140444Y0154199D01*
X0140064Y0154721D01*
X0139608Y0155177D01*
X0139086Y0155556D01*
X0138511Y0155849D01*
X0137897Y0156049D01*
X0137237Y0156060D02*
X0136637Y0156060D01*
X0136046Y0156060D02*
X0127970Y0156060D01*
X0127753Y0156150D02*
X0126121Y0156150D01*
X0124615Y0155525D01*
X0123461Y0154372D01*
X0122837Y0152865D01*
X0122837Y0145634D01*
X0123461Y0144127D01*
X0124615Y0142974D01*
X0126121Y0142350D01*
X0127753Y0142350D01*
X0129259Y0142974D01*
X0130413Y0144127D01*
X0131037Y0145634D01*
X0131037Y0152865D01*
X0130413Y0154372D01*
X0129259Y0155525D01*
X0127753Y0156150D01*
X0129324Y0155461D02*
X0134657Y0155461D01*
X0133952Y0154863D02*
X0129922Y0154863D01*
X0130458Y0154264D02*
X0133478Y0154264D01*
X0133159Y0153666D02*
X0130705Y0153666D01*
X0130953Y0153067D02*
X0132957Y0153067D01*
X0132852Y0152469D02*
X0131037Y0152469D01*
X0131037Y0151870D02*
X0132837Y0151870D01*
X0132837Y0151272D02*
X0131037Y0151272D01*
X0131037Y0150673D02*
X0132837Y0150673D01*
X0132837Y0150075D02*
X0131037Y0150075D01*
X0131037Y0149476D02*
X0136637Y0149476D01*
X0136637Y0148877D02*
X0137237Y0148877D01*
X0137237Y0148950D02*
X0137237Y0142350D01*
X0137260Y0142350D01*
X0137897Y0142451D01*
X0138511Y0142650D01*
X0139086Y0142943D01*
X0139608Y0143322D01*
X0140064Y0143779D01*
X0140444Y0144301D01*
X0140737Y0144876D01*
X0140936Y0145490D01*
X0141037Y0146127D01*
X0141037Y0148950D01*
X0137237Y0148950D01*
X0137237Y0149476D02*
X0187338Y0149476D01*
X0187338Y0148877D02*
X0141037Y0148877D01*
X0141037Y0148279D02*
X0187338Y0148279D01*
X0187338Y0147680D02*
X0141037Y0147680D01*
X0141037Y0147082D02*
X0187338Y0147082D01*
X0187338Y0146483D02*
X0141037Y0146483D01*
X0140999Y0145885D02*
X0187338Y0145885D01*
X0187338Y0145286D02*
X0140870Y0145286D01*
X0140641Y0144688D02*
X0187338Y0144688D01*
X0187338Y0144089D02*
X0140290Y0144089D01*
X0139777Y0143491D02*
X0187338Y0143491D01*
X0187338Y0142892D02*
X0138986Y0142892D01*
X0137237Y0142892D02*
X0136637Y0142892D01*
X0136637Y0143491D02*
X0137237Y0143491D01*
X0137237Y0144089D02*
X0136637Y0144089D01*
X0136637Y0144688D02*
X0137237Y0144688D01*
X0137237Y0145286D02*
X0136637Y0145286D01*
X0136637Y0145885D02*
X0137237Y0145885D01*
X0137237Y0146483D02*
X0136637Y0146483D01*
X0136637Y0147082D02*
X0137237Y0147082D01*
X0137237Y0147680D02*
X0136637Y0147680D01*
X0136637Y0148279D02*
X0137237Y0148279D01*
X0137237Y0150075D02*
X0136637Y0150075D01*
X0136637Y0150673D02*
X0137237Y0150673D01*
X0137237Y0151272D02*
X0136637Y0151272D01*
X0136637Y0151870D02*
X0137237Y0151870D01*
X0137237Y0152469D02*
X0136637Y0152469D01*
X0136637Y0153067D02*
X0137237Y0153067D01*
X0137237Y0153666D02*
X0136637Y0153666D01*
X0136637Y0154264D02*
X0137237Y0154264D01*
X0137237Y0154863D02*
X0136637Y0154863D01*
X0136637Y0155461D02*
X0137237Y0155461D01*
X0139217Y0155461D02*
X0187338Y0155461D01*
X0187338Y0154863D02*
X0139922Y0154863D01*
X0140396Y0154264D02*
X0187338Y0154264D01*
X0187338Y0153666D02*
X0140715Y0153666D01*
X0140917Y0153067D02*
X0187338Y0153067D01*
X0187338Y0152469D02*
X0141022Y0152469D01*
X0141037Y0151870D02*
X0187338Y0151870D01*
X0187338Y0151272D02*
X0141037Y0151272D01*
X0141037Y0150673D02*
X0187338Y0150673D01*
X0187338Y0150075D02*
X0141037Y0150075D01*
X0133004Y0145286D02*
X0130893Y0145286D01*
X0131037Y0145885D02*
X0132875Y0145885D01*
X0132837Y0146483D02*
X0131037Y0146483D01*
X0131037Y0147082D02*
X0132837Y0147082D01*
X0132837Y0147680D02*
X0131037Y0147680D01*
X0131037Y0148279D02*
X0132837Y0148279D01*
X0132837Y0148877D02*
X0131037Y0148877D01*
X0130645Y0144688D02*
X0133233Y0144688D01*
X0133584Y0144089D02*
X0130375Y0144089D01*
X0129777Y0143491D02*
X0134097Y0143491D01*
X0134888Y0142892D02*
X0129063Y0142892D01*
X0126707Y0139900D02*
X0187338Y0139900D01*
X0187338Y0140498D02*
X0125809Y0140498D01*
X0124911Y0141097D02*
X0187338Y0141097D01*
X0187338Y0141695D02*
X0124013Y0141695D01*
X0123116Y0142294D02*
X0187338Y0142294D01*
X0187338Y0139301D02*
X0127605Y0139301D01*
X0128502Y0138703D02*
X0187338Y0138703D01*
X0187338Y0138104D02*
X0129400Y0138104D01*
X0130298Y0137506D02*
X0187338Y0137506D01*
X0187338Y0136907D02*
X0131196Y0136907D01*
X0132093Y0136309D02*
X0187338Y0136309D01*
X0187338Y0135710D02*
X0132991Y0135710D01*
X0133889Y0135112D02*
X0187338Y0135112D01*
X0187338Y0134513D02*
X0134787Y0134513D01*
X0135684Y0133915D02*
X0187338Y0133915D01*
X0187338Y0133316D02*
X0136582Y0133316D01*
X0137480Y0132718D02*
X0187338Y0132718D01*
X0187338Y0132119D02*
X0138378Y0132119D01*
X0139275Y0131521D02*
X0187338Y0131521D01*
X0187338Y0130922D02*
X0140173Y0130922D01*
X0141071Y0130324D02*
X0187338Y0130324D01*
X0187338Y0129725D02*
X0141969Y0129725D01*
X0142867Y0129127D02*
X0187338Y0129127D01*
X0187338Y0128528D02*
X0143764Y0128528D01*
X0144662Y0127930D02*
X0187338Y0127930D01*
X0187338Y0127331D02*
X0145560Y0127331D01*
X0146458Y0126733D02*
X0187338Y0126733D01*
X0187338Y0126134D02*
X0147355Y0126134D01*
X0148253Y0125536D02*
X0187338Y0125536D01*
X0187338Y0124937D02*
X0149151Y0124937D01*
X0150049Y0124339D02*
X0187338Y0124339D01*
X0187338Y0123740D02*
X0150946Y0123740D01*
X0151844Y0123141D02*
X0187338Y0123141D01*
X0187338Y0122543D02*
X0152742Y0122543D01*
X0153640Y0121944D02*
X0187338Y0121944D01*
X0187338Y0121346D02*
X0154538Y0121346D01*
X0155435Y0120747D02*
X0187338Y0120747D01*
X0187338Y0120149D02*
X0156333Y0120149D01*
X0157231Y0119550D02*
X0187338Y0119550D01*
X0187338Y0118952D02*
X0158129Y0118952D01*
X0159026Y0118353D02*
X0187338Y0118353D01*
X0187338Y0117755D02*
X0181266Y0117755D01*
X0181746Y0117556D02*
X0180313Y0118150D01*
X0173561Y0118150D01*
X0172128Y0117556D01*
X0171031Y0116459D01*
X0170437Y0115025D01*
X0170437Y0113474D01*
X0171031Y0112040D01*
X0172128Y0110943D01*
X0173561Y0110350D01*
X0180313Y0110350D01*
X0181746Y0110943D01*
X0182843Y0112040D01*
X0183437Y0113474D01*
X0183437Y0115025D01*
X0182843Y0116459D01*
X0181746Y0117556D01*
X0182146Y0117156D02*
X0187338Y0117156D01*
X0187338Y0116558D02*
X0182744Y0116558D01*
X0183050Y0115959D02*
X0187338Y0115959D01*
X0187338Y0115361D02*
X0183298Y0115361D01*
X0183437Y0114762D02*
X0187338Y0114762D01*
X0187338Y0114164D02*
X0183437Y0114164D01*
X0183437Y0113565D02*
X0187338Y0113565D01*
X0187338Y0112967D02*
X0183227Y0112967D01*
X0182979Y0112368D02*
X0187338Y0112368D01*
X0187338Y0111770D02*
X0182573Y0111770D01*
X0181974Y0111171D02*
X0187338Y0111171D01*
X0187338Y0110573D02*
X0180851Y0110573D01*
X0180313Y0108150D02*
X0181746Y0107556D01*
X0182843Y0106459D01*
X0183437Y0105025D01*
X0183437Y0103474D01*
X0182843Y0102040D01*
X0181746Y0100943D01*
X0180313Y0100350D01*
X0173561Y0100350D01*
X0172128Y0100943D01*
X0171031Y0102040D01*
X0170437Y0103474D01*
X0170437Y0105025D01*
X0170890Y0106118D01*
X0116542Y0142350D01*
X0116121Y0142350D01*
X0114615Y0142974D01*
X0113461Y0144127D01*
X0112837Y0145634D01*
X0112837Y0152865D01*
X0113461Y0154372D01*
X0114615Y0155525D01*
X0116121Y0156150D01*
X0117753Y0156150D01*
X0119259Y0155525D01*
X0120413Y0154372D01*
X0121037Y0152865D01*
X0121037Y0145634D01*
X0120413Y0144127D01*
X0120394Y0144108D01*
X0174332Y0108150D01*
X0180313Y0108150D01*
X0181688Y0107580D02*
X0187338Y0107580D01*
X0187338Y0106982D02*
X0182320Y0106982D01*
X0182875Y0106383D02*
X0187338Y0106383D01*
X0187338Y0105785D02*
X0183123Y0105785D01*
X0183370Y0105186D02*
X0187338Y0105186D01*
X0187338Y0104588D02*
X0183437Y0104588D01*
X0183437Y0103989D02*
X0187338Y0103989D01*
X0187338Y0103391D02*
X0183402Y0103391D01*
X0183155Y0102792D02*
X0187338Y0102792D01*
X0187338Y0102194D02*
X0182907Y0102194D01*
X0182398Y0101595D02*
X0187338Y0101595D01*
X0187338Y0100997D02*
X0181799Y0100997D01*
X0180430Y0100398D02*
X0187338Y0100398D01*
X0187338Y0099800D02*
X0070686Y0099800D01*
X0070087Y0099201D02*
X0187338Y0099201D01*
X0187338Y0108179D02*
X0174288Y0108179D01*
X0173391Y0108777D02*
X0187338Y0108777D01*
X0187338Y0109376D02*
X0172493Y0109376D01*
X0171595Y0109974D02*
X0187338Y0109974D01*
X0173023Y0110573D02*
X0170697Y0110573D01*
X0169800Y0111171D02*
X0171900Y0111171D01*
X0171301Y0111770D02*
X0168902Y0111770D01*
X0168004Y0112368D02*
X0170895Y0112368D01*
X0170647Y0112967D02*
X0167106Y0112967D01*
X0166208Y0113565D02*
X0170437Y0113565D01*
X0170437Y0114164D02*
X0165311Y0114164D01*
X0164413Y0114762D02*
X0170437Y0114762D01*
X0170576Y0115361D02*
X0163515Y0115361D01*
X0162617Y0115959D02*
X0170824Y0115959D01*
X0171130Y0116558D02*
X0161720Y0116558D01*
X0160822Y0117156D02*
X0171728Y0117156D01*
X0172608Y0117755D02*
X0159924Y0117755D01*
X0157025Y0115361D02*
X0095482Y0115361D01*
X0095234Y0115959D02*
X0156127Y0115959D01*
X0155230Y0116558D02*
X0094845Y0116558D01*
X0094247Y0117156D02*
X0154332Y0117156D01*
X0153434Y0117755D02*
X0093143Y0117755D01*
X0092237Y0117755D02*
X0091637Y0117755D01*
X0091637Y0117156D02*
X0092237Y0117156D01*
X0092237Y0116558D02*
X0091637Y0116558D01*
X0091637Y0115959D02*
X0092237Y0115959D01*
X0092237Y0115361D02*
X0091637Y0115361D01*
X0091637Y0113565D02*
X0092237Y0113565D01*
X0092237Y0112967D02*
X0091637Y0112967D01*
X0091637Y0112368D02*
X0092237Y0112368D01*
X0092237Y0111770D02*
X0091637Y0111770D01*
X0091637Y0111171D02*
X0092237Y0111171D01*
X0089884Y0111171D02*
X0060937Y0111171D01*
X0060937Y0111770D02*
X0089184Y0111770D01*
X0088744Y0112368D02*
X0060937Y0112368D01*
X0060937Y0112967D02*
X0088464Y0112967D01*
X0088301Y0113565D02*
X0060937Y0113565D01*
X0076637Y0130324D02*
X0077237Y0130324D01*
X0077237Y0130922D02*
X0076637Y0130922D01*
X0076637Y0131521D02*
X0077237Y0131521D01*
X0077237Y0132119D02*
X0076637Y0132119D01*
X0076637Y0132718D02*
X0077237Y0132718D01*
X0077237Y0133316D02*
X0076637Y0133316D01*
X0076637Y0135112D02*
X0077237Y0135112D01*
X0077237Y0135710D02*
X0076637Y0135710D01*
X0076637Y0136309D02*
X0077237Y0136309D01*
X0077237Y0136907D02*
X0076637Y0136907D01*
X0076637Y0137506D02*
X0077237Y0137506D01*
X0077237Y0138104D02*
X0076637Y0138104D01*
X0077237Y0140150D02*
X0080060Y0140150D01*
X0080697Y0140251D01*
X0081311Y0140450D01*
X0081886Y0140743D01*
X0082408Y0141122D01*
X0082864Y0141579D01*
X0083244Y0142101D01*
X0083537Y0142676D01*
X0083736Y0143290D01*
X0083837Y0143927D01*
X0083837Y0143950D01*
X0077237Y0143950D01*
X0077237Y0140150D01*
X0077237Y0140498D02*
X0076637Y0140498D01*
X0076637Y0141097D02*
X0077237Y0141097D01*
X0077237Y0141695D02*
X0076637Y0141695D01*
X0076637Y0142294D02*
X0077237Y0142294D01*
X0077237Y0142892D02*
X0076637Y0142892D01*
X0076637Y0143491D02*
X0077237Y0143491D01*
X0077237Y0144089D02*
X0103584Y0144089D01*
X0103233Y0144688D02*
X0083819Y0144688D01*
X0083768Y0143491D02*
X0104097Y0143491D01*
X0104888Y0142892D02*
X0083607Y0142892D01*
X0083342Y0142294D02*
X0116626Y0142294D01*
X0117523Y0141695D02*
X0082949Y0141695D01*
X0082373Y0141097D02*
X0118421Y0141097D01*
X0119319Y0140498D02*
X0081406Y0140498D01*
X0076637Y0144089D02*
X0060937Y0144089D01*
X0076637Y0144688D02*
X0077237Y0144688D01*
X0077237Y0145286D02*
X0076637Y0145286D01*
X0076637Y0145885D02*
X0077237Y0145885D01*
X0077237Y0146483D02*
X0076637Y0146483D01*
X0076637Y0147082D02*
X0077237Y0147082D01*
X0077237Y0147680D02*
X0076637Y0147680D01*
X0076637Y0148279D02*
X0077237Y0148279D01*
X0082295Y0149476D02*
X0084135Y0149476D01*
X0083691Y0150075D02*
X0082737Y0150075D01*
X0082737Y0150673D02*
X0083443Y0150673D01*
X0083195Y0151272D02*
X0082737Y0151272D01*
X0082737Y0151870D02*
X0082947Y0151870D01*
X0082874Y0158454D02*
X0082737Y0158454D01*
X0082737Y0159052D02*
X0083122Y0159052D01*
X0083370Y0159651D02*
X0082737Y0159651D01*
X0082737Y0160249D02*
X0083618Y0160249D01*
X0083960Y0160848D02*
X0082737Y0160848D01*
X0082737Y0161446D02*
X0084558Y0161446D01*
X0085157Y0162045D02*
X0082737Y0162045D01*
X0082737Y0162643D02*
X0085755Y0162643D01*
X0086354Y0163242D02*
X0082737Y0163242D01*
X0082737Y0163840D02*
X0087593Y0163840D01*
X0089038Y0164439D02*
X0082737Y0164439D01*
X0082737Y0165037D02*
X0187338Y0165037D01*
X0187338Y0164439D02*
X0094836Y0164439D01*
X0096281Y0163840D02*
X0187338Y0163840D01*
X0187338Y0163242D02*
X0097520Y0163242D01*
X0098119Y0162643D02*
X0187338Y0162643D01*
X0187338Y0162045D02*
X0098717Y0162045D01*
X0099316Y0161446D02*
X0187338Y0161446D01*
X0187338Y0160848D02*
X0099914Y0160848D01*
X0100256Y0160249D02*
X0187338Y0160249D01*
X0187338Y0159651D02*
X0100504Y0159651D01*
X0100752Y0159052D02*
X0187338Y0159052D01*
X0187338Y0158454D02*
X0101000Y0158454D01*
X0101248Y0157855D02*
X0187338Y0157855D01*
X0187338Y0157257D02*
X0101496Y0157257D01*
X0106637Y0156060D02*
X0107237Y0156060D01*
X0107237Y0156150D02*
X0107237Y0149550D01*
X0106637Y0149550D01*
X0106637Y0148950D01*
X0107237Y0148950D01*
X0107237Y0149550D01*
X0111037Y0149550D01*
X0111037Y0152372D01*
X0110936Y0153010D01*
X0110737Y0153623D01*
X0110444Y0154199D01*
X0110064Y0154721D01*
X0109608Y0155177D01*
X0109086Y0155556D01*
X0108511Y0155849D01*
X0107897Y0156049D01*
X0107260Y0156150D01*
X0107237Y0156150D01*
X0107828Y0156060D02*
X0115904Y0156060D01*
X0114550Y0155461D02*
X0109217Y0155461D01*
X0109922Y0154863D02*
X0113952Y0154863D01*
X0113416Y0154264D02*
X0110396Y0154264D01*
X0110715Y0153666D02*
X0113169Y0153666D01*
X0112921Y0153067D02*
X0110917Y0153067D01*
X0111022Y0152469D02*
X0112837Y0152469D01*
X0112837Y0151870D02*
X0111037Y0151870D01*
X0111037Y0151272D02*
X0112837Y0151272D01*
X0112837Y0150673D02*
X0111037Y0150673D01*
X0111037Y0150075D02*
X0112837Y0150075D01*
X0112837Y0149476D02*
X0107237Y0149476D01*
X0107237Y0148950D02*
X0111037Y0148950D01*
X0111037Y0146127D01*
X0110936Y0145490D01*
X0110737Y0144876D01*
X0110444Y0144301D01*
X0110064Y0143779D01*
X0109608Y0143322D01*
X0109086Y0142943D01*
X0108511Y0142650D01*
X0107897Y0142451D01*
X0107260Y0142350D01*
X0107237Y0142350D01*
X0107237Y0148950D01*
X0107237Y0148877D02*
X0106637Y0148877D01*
X0106637Y0148279D02*
X0107237Y0148279D01*
X0107237Y0147680D02*
X0106637Y0147680D01*
X0106637Y0147082D02*
X0107237Y0147082D01*
X0107237Y0146483D02*
X0106637Y0146483D01*
X0106637Y0145885D02*
X0107237Y0145885D01*
X0107237Y0145286D02*
X0106637Y0145286D01*
X0106637Y0144688D02*
X0107237Y0144688D01*
X0107237Y0144089D02*
X0106637Y0144089D01*
X0106637Y0143491D02*
X0107237Y0143491D01*
X0107237Y0142892D02*
X0106637Y0142892D01*
X0108986Y0142892D02*
X0114811Y0142892D01*
X0114098Y0143491D02*
X0109777Y0143491D01*
X0110290Y0144089D02*
X0113499Y0144089D01*
X0113229Y0144688D02*
X0110641Y0144688D01*
X0110870Y0145286D02*
X0112981Y0145286D01*
X0112837Y0145885D02*
X0110999Y0145885D01*
X0111037Y0146483D02*
X0112837Y0146483D01*
X0112837Y0147082D02*
X0111037Y0147082D01*
X0111037Y0147680D02*
X0112837Y0147680D01*
X0112837Y0148279D02*
X0111037Y0148279D01*
X0111037Y0148877D02*
X0112837Y0148877D01*
X0107237Y0150075D02*
X0106637Y0150075D01*
X0106637Y0150673D02*
X0107237Y0150673D01*
X0107237Y0151272D02*
X0106637Y0151272D01*
X0106637Y0151870D02*
X0107237Y0151870D01*
X0107237Y0152469D02*
X0106637Y0152469D01*
X0106637Y0153067D02*
X0107237Y0153067D01*
X0107237Y0153666D02*
X0106637Y0153666D01*
X0106637Y0154264D02*
X0107237Y0154264D01*
X0107237Y0154863D02*
X0106637Y0154863D01*
X0106637Y0155461D02*
X0107237Y0155461D01*
X0106637Y0149476D02*
X0099739Y0149476D01*
X0083835Y0133915D02*
X0129194Y0133915D01*
X0130092Y0133316D02*
X0083740Y0133316D01*
X0083550Y0132718D02*
X0130990Y0132718D01*
X0131888Y0132119D02*
X0083253Y0132119D01*
X0082806Y0131521D02*
X0132786Y0131521D01*
X0133683Y0130922D02*
X0082132Y0130922D01*
X0080922Y0130324D02*
X0134581Y0130324D01*
X0124811Y0142892D02*
X0122218Y0142892D01*
X0121320Y0143491D02*
X0124098Y0143491D01*
X0123499Y0144089D02*
X0120422Y0144089D01*
X0120645Y0144688D02*
X0123229Y0144688D01*
X0122981Y0145286D02*
X0120893Y0145286D01*
X0121037Y0145885D02*
X0122837Y0145885D01*
X0122837Y0146483D02*
X0121037Y0146483D01*
X0121037Y0147082D02*
X0122837Y0147082D01*
X0122837Y0147680D02*
X0121037Y0147680D01*
X0121037Y0148279D02*
X0122837Y0148279D01*
X0122837Y0148877D02*
X0121037Y0148877D01*
X0121037Y0149476D02*
X0122837Y0149476D01*
X0122837Y0150075D02*
X0121037Y0150075D01*
X0121037Y0150673D02*
X0122837Y0150673D01*
X0122837Y0151272D02*
X0121037Y0151272D01*
X0121037Y0151870D02*
X0122837Y0151870D01*
X0122837Y0152469D02*
X0121037Y0152469D01*
X0120953Y0153067D02*
X0122921Y0153067D01*
X0123169Y0153666D02*
X0120705Y0153666D01*
X0120458Y0154264D02*
X0123416Y0154264D01*
X0123952Y0154863D02*
X0119922Y0154863D01*
X0119324Y0155461D02*
X0124550Y0155461D01*
X0125904Y0156060D02*
X0117970Y0156060D01*
X0082737Y0165636D02*
X0187338Y0165636D01*
X0187338Y0166234D02*
X0082737Y0166234D01*
X0082737Y0166833D02*
X0187338Y0166833D01*
X0187338Y0167431D02*
X0082737Y0167431D01*
X0082737Y0168030D02*
X0187338Y0168030D01*
X0187338Y0168628D02*
X0082737Y0168628D01*
X0082737Y0169227D02*
X0187338Y0169227D01*
X0187338Y0169825D02*
X0082737Y0169825D01*
X0082737Y0170424D02*
X0187338Y0170424D01*
X0159719Y0113565D02*
X0155137Y0113565D01*
X0154552Y0114150D02*
X0156837Y0111865D01*
X0156837Y0108634D01*
X0154552Y0106350D01*
X0151322Y0106350D01*
X0149037Y0108634D01*
X0149037Y0111865D01*
X0151322Y0114150D01*
X0154552Y0114150D01*
X0155735Y0112967D02*
X0160616Y0112967D01*
X0161514Y0112368D02*
X0156334Y0112368D01*
X0156837Y0111770D02*
X0162412Y0111770D01*
X0163310Y0111171D02*
X0156837Y0111171D01*
X0156837Y0110573D02*
X0164207Y0110573D01*
X0165105Y0109974D02*
X0156837Y0109974D01*
X0156837Y0109376D02*
X0166003Y0109376D01*
X0166901Y0108777D02*
X0156837Y0108777D01*
X0156381Y0108179D02*
X0167798Y0108179D01*
X0168696Y0107580D02*
X0155783Y0107580D01*
X0155184Y0106982D02*
X0169594Y0106982D01*
X0170492Y0106383D02*
X0154586Y0106383D01*
X0151288Y0106383D02*
X0134586Y0106383D01*
X0135184Y0106982D02*
X0150690Y0106982D01*
X0150091Y0107580D02*
X0135783Y0107580D01*
X0136381Y0108179D02*
X0149493Y0108179D01*
X0149037Y0108777D02*
X0136837Y0108777D01*
X0136837Y0109376D02*
X0149037Y0109376D01*
X0149037Y0109974D02*
X0136837Y0109974D01*
X0136837Y0110573D02*
X0149037Y0110573D01*
X0149037Y0111171D02*
X0136837Y0111171D01*
X0136837Y0111770D02*
X0149037Y0111770D01*
X0149540Y0112368D02*
X0136334Y0112368D01*
X0135735Y0112967D02*
X0150139Y0112967D01*
X0150737Y0113565D02*
X0135137Y0113565D01*
X0130091Y0107580D02*
X0095445Y0107580D01*
X0095637Y0106982D02*
X0130690Y0106982D01*
X0131288Y0106383D02*
X0095637Y0106383D01*
X0095637Y0105785D02*
X0170752Y0105785D01*
X0170504Y0105186D02*
X0095637Y0105186D01*
X0095637Y0104588D02*
X0170437Y0104588D01*
X0170437Y0103989D02*
X0095637Y0103989D01*
X0095637Y0103391D02*
X0170471Y0103391D01*
X0170719Y0102792D02*
X0095637Y0102792D01*
X0095637Y0102194D02*
X0170967Y0102194D01*
X0171476Y0101595D02*
X0095637Y0101595D01*
X0095122Y0100997D02*
X0172075Y0100997D01*
X0147837Y0053714D02*
X0105445Y0053714D01*
X0103949Y0053116D02*
X0147837Y0053116D01*
X0147837Y0052517D02*
X0102452Y0052517D01*
X0100956Y0051919D02*
X0147837Y0051919D01*
X0147837Y0051320D02*
X0099460Y0051320D01*
X0097964Y0050722D02*
X0147837Y0050722D01*
X0102254Y0050123D02*
X0096467Y0050123D01*
X0097527Y0049525D02*
X0101655Y0049525D01*
X0101539Y0048926D02*
X0098215Y0048926D01*
X0098648Y0048328D02*
X0101539Y0048328D01*
X0101539Y0047729D02*
X0098922Y0047729D01*
X0099080Y0047131D02*
X0101539Y0047131D01*
X0101539Y0046532D02*
X0095739Y0046532D01*
X0097713Y0043539D02*
X0101539Y0043539D01*
X0101539Y0044138D02*
X0098331Y0044138D01*
X0098726Y0044737D02*
X0101539Y0044737D01*
X0101539Y0045335D02*
X0098974Y0045335D01*
X0099105Y0045934D02*
X0101539Y0045934D01*
X0102129Y0042941D02*
X0096588Y0042941D01*
D21*
X0076937Y0089250D02*
X0061937Y0089250D01*
X0062837Y0089250D01*
D22*
X0171937Y0155250D03*
X0171937Y0023250D03*
M02*
