%
M48
M72
T01C0.01969
T02C0.02800
T03C0.03200
T04C0.03543
T05C0.03600
T06C0.05600
T07C0.12598
T08C0.21654
%
T01
X11937Y54250
X11937Y59250
X16937Y59250
X21937Y59250
X26937Y59250
X31937Y59250
X36937Y59250
X41937Y59250
X41937Y54250
X41937Y119250
X41937Y124250
X36937Y119250
X31937Y119250
X26937Y119250
X21937Y119250
X16937Y119250
X11937Y119250
X11937Y124250
X125776Y75452
X125776Y71452
T02
X105239Y46470
X95439Y46470
X91937Y64250
X91937Y74050
X91937Y104450
X91937Y114250
T03
X132937Y110250
X152937Y110250
X176937Y114250
X176937Y104250
X176937Y94250
X176937Y84250
X176937Y74250
X176937Y64250
X74834Y20531
X63413Y34729
X44834Y20531
X63413Y54729
T04
X126008Y26204
X139787Y26204
T05
X151937Y54250
X161937Y54250
X146937Y79250
X146937Y89250
X136937Y149250
X126937Y149250
X116937Y149250
X106937Y149250
X76937Y144250
X76937Y134250
X66937Y164250
X56937Y164250
X76937Y44250
X76937Y34250
T06
X61937Y75470
X61937Y89250
X61937Y103029
T07
X91937Y155250
X171937Y155250
X171937Y23250
X91937Y23250
T08
X26937Y36750
X26937Y141750
M30
