G75*
%MOIN*%
%OFA0B0*%
%FSLAX25Y25*%
%IPPOS*%
%LPD*%
%AMOC8*
5,1,8,0,0,1.08239X$1,22.5*
%
%ADD10C,0.00000*%
%ADD11R,0.05906X0.05118*%
%ADD12R,0.05118X0.05906*%
%ADD13C,0.05600*%
%ADD14R,0.01575X0.04724*%
%ADD15OC8,0.05200*%
%ADD16C,0.35433*%
%ADD17R,0.34449X0.20472*%
%ADD18R,0.09843X0.08661*%
%ADD19R,0.01969X0.07874*%
%ADD20C,0.08400*%
%ADD21R,0.06300X0.04600*%
%ADD22C,0.05200*%
%ADD23R,0.04600X0.06300*%
%ADD24R,0.04800X0.04800*%
%ADD25C,0.04800*%
%ADD26C,0.01000*%
%ADD27C,0.03569*%
%ADD28C,0.00600*%
%ADD29C,0.04000*%
%ADD30C,0.10000*%
%ADD31C,0.11000*%
%ADD32C,0.25591*%
D10*
X0001937Y0004250D02*
X0001937Y0174210D01*
X0190638Y0174210D01*
X0190638Y0004250D01*
X0001937Y0004250D01*
X0085638Y0023250D02*
X0085640Y0023408D01*
X0085646Y0023566D01*
X0085656Y0023724D01*
X0085670Y0023882D01*
X0085688Y0024039D01*
X0085709Y0024196D01*
X0085735Y0024352D01*
X0085765Y0024508D01*
X0085798Y0024663D01*
X0085836Y0024816D01*
X0085877Y0024969D01*
X0085922Y0025121D01*
X0085971Y0025272D01*
X0086024Y0025421D01*
X0086080Y0025569D01*
X0086140Y0025715D01*
X0086204Y0025860D01*
X0086272Y0026003D01*
X0086343Y0026145D01*
X0086417Y0026285D01*
X0086495Y0026422D01*
X0086577Y0026558D01*
X0086661Y0026692D01*
X0086750Y0026823D01*
X0086841Y0026952D01*
X0086936Y0027079D01*
X0087033Y0027204D01*
X0087134Y0027326D01*
X0087238Y0027445D01*
X0087345Y0027562D01*
X0087455Y0027676D01*
X0087568Y0027787D01*
X0087683Y0027896D01*
X0087801Y0028001D01*
X0087922Y0028103D01*
X0088045Y0028203D01*
X0088171Y0028299D01*
X0088299Y0028392D01*
X0088429Y0028482D01*
X0088562Y0028568D01*
X0088697Y0028652D01*
X0088833Y0028731D01*
X0088972Y0028808D01*
X0089113Y0028880D01*
X0089255Y0028950D01*
X0089399Y0029015D01*
X0089545Y0029077D01*
X0089692Y0029135D01*
X0089841Y0029190D01*
X0089991Y0029241D01*
X0090142Y0029288D01*
X0090294Y0029331D01*
X0090447Y0029370D01*
X0090602Y0029406D01*
X0090757Y0029437D01*
X0090913Y0029465D01*
X0091069Y0029489D01*
X0091226Y0029509D01*
X0091384Y0029525D01*
X0091541Y0029537D01*
X0091700Y0029545D01*
X0091858Y0029549D01*
X0092016Y0029549D01*
X0092174Y0029545D01*
X0092333Y0029537D01*
X0092490Y0029525D01*
X0092648Y0029509D01*
X0092805Y0029489D01*
X0092961Y0029465D01*
X0093117Y0029437D01*
X0093272Y0029406D01*
X0093427Y0029370D01*
X0093580Y0029331D01*
X0093732Y0029288D01*
X0093883Y0029241D01*
X0094033Y0029190D01*
X0094182Y0029135D01*
X0094329Y0029077D01*
X0094475Y0029015D01*
X0094619Y0028950D01*
X0094761Y0028880D01*
X0094902Y0028808D01*
X0095041Y0028731D01*
X0095177Y0028652D01*
X0095312Y0028568D01*
X0095445Y0028482D01*
X0095575Y0028392D01*
X0095703Y0028299D01*
X0095829Y0028203D01*
X0095952Y0028103D01*
X0096073Y0028001D01*
X0096191Y0027896D01*
X0096306Y0027787D01*
X0096419Y0027676D01*
X0096529Y0027562D01*
X0096636Y0027445D01*
X0096740Y0027326D01*
X0096841Y0027204D01*
X0096938Y0027079D01*
X0097033Y0026952D01*
X0097124Y0026823D01*
X0097213Y0026692D01*
X0097297Y0026558D01*
X0097379Y0026422D01*
X0097457Y0026285D01*
X0097531Y0026145D01*
X0097602Y0026003D01*
X0097670Y0025860D01*
X0097734Y0025715D01*
X0097794Y0025569D01*
X0097850Y0025421D01*
X0097903Y0025272D01*
X0097952Y0025121D01*
X0097997Y0024969D01*
X0098038Y0024816D01*
X0098076Y0024663D01*
X0098109Y0024508D01*
X0098139Y0024352D01*
X0098165Y0024196D01*
X0098186Y0024039D01*
X0098204Y0023882D01*
X0098218Y0023724D01*
X0098228Y0023566D01*
X0098234Y0023408D01*
X0098236Y0023250D01*
X0098234Y0023092D01*
X0098228Y0022934D01*
X0098218Y0022776D01*
X0098204Y0022618D01*
X0098186Y0022461D01*
X0098165Y0022304D01*
X0098139Y0022148D01*
X0098109Y0021992D01*
X0098076Y0021837D01*
X0098038Y0021684D01*
X0097997Y0021531D01*
X0097952Y0021379D01*
X0097903Y0021228D01*
X0097850Y0021079D01*
X0097794Y0020931D01*
X0097734Y0020785D01*
X0097670Y0020640D01*
X0097602Y0020497D01*
X0097531Y0020355D01*
X0097457Y0020215D01*
X0097379Y0020078D01*
X0097297Y0019942D01*
X0097213Y0019808D01*
X0097124Y0019677D01*
X0097033Y0019548D01*
X0096938Y0019421D01*
X0096841Y0019296D01*
X0096740Y0019174D01*
X0096636Y0019055D01*
X0096529Y0018938D01*
X0096419Y0018824D01*
X0096306Y0018713D01*
X0096191Y0018604D01*
X0096073Y0018499D01*
X0095952Y0018397D01*
X0095829Y0018297D01*
X0095703Y0018201D01*
X0095575Y0018108D01*
X0095445Y0018018D01*
X0095312Y0017932D01*
X0095177Y0017848D01*
X0095041Y0017769D01*
X0094902Y0017692D01*
X0094761Y0017620D01*
X0094619Y0017550D01*
X0094475Y0017485D01*
X0094329Y0017423D01*
X0094182Y0017365D01*
X0094033Y0017310D01*
X0093883Y0017259D01*
X0093732Y0017212D01*
X0093580Y0017169D01*
X0093427Y0017130D01*
X0093272Y0017094D01*
X0093117Y0017063D01*
X0092961Y0017035D01*
X0092805Y0017011D01*
X0092648Y0016991D01*
X0092490Y0016975D01*
X0092333Y0016963D01*
X0092174Y0016955D01*
X0092016Y0016951D01*
X0091858Y0016951D01*
X0091700Y0016955D01*
X0091541Y0016963D01*
X0091384Y0016975D01*
X0091226Y0016991D01*
X0091069Y0017011D01*
X0090913Y0017035D01*
X0090757Y0017063D01*
X0090602Y0017094D01*
X0090447Y0017130D01*
X0090294Y0017169D01*
X0090142Y0017212D01*
X0089991Y0017259D01*
X0089841Y0017310D01*
X0089692Y0017365D01*
X0089545Y0017423D01*
X0089399Y0017485D01*
X0089255Y0017550D01*
X0089113Y0017620D01*
X0088972Y0017692D01*
X0088833Y0017769D01*
X0088697Y0017848D01*
X0088562Y0017932D01*
X0088429Y0018018D01*
X0088299Y0018108D01*
X0088171Y0018201D01*
X0088045Y0018297D01*
X0087922Y0018397D01*
X0087801Y0018499D01*
X0087683Y0018604D01*
X0087568Y0018713D01*
X0087455Y0018824D01*
X0087345Y0018938D01*
X0087238Y0019055D01*
X0087134Y0019174D01*
X0087033Y0019296D01*
X0086936Y0019421D01*
X0086841Y0019548D01*
X0086750Y0019677D01*
X0086661Y0019808D01*
X0086577Y0019942D01*
X0086495Y0020078D01*
X0086417Y0020215D01*
X0086343Y0020355D01*
X0086272Y0020497D01*
X0086204Y0020640D01*
X0086140Y0020785D01*
X0086080Y0020931D01*
X0086024Y0021079D01*
X0085971Y0021228D01*
X0085922Y0021379D01*
X0085877Y0021531D01*
X0085836Y0021684D01*
X0085798Y0021837D01*
X0085765Y0021992D01*
X0085735Y0022148D01*
X0085709Y0022304D01*
X0085688Y0022461D01*
X0085670Y0022618D01*
X0085656Y0022776D01*
X0085646Y0022934D01*
X0085640Y0023092D01*
X0085638Y0023250D01*
X0124236Y0026204D02*
X0124238Y0026288D01*
X0124244Y0026371D01*
X0124254Y0026454D01*
X0124268Y0026537D01*
X0124285Y0026619D01*
X0124307Y0026700D01*
X0124332Y0026779D01*
X0124361Y0026858D01*
X0124394Y0026935D01*
X0124430Y0027010D01*
X0124470Y0027084D01*
X0124513Y0027156D01*
X0124560Y0027225D01*
X0124610Y0027292D01*
X0124663Y0027357D01*
X0124719Y0027419D01*
X0124777Y0027479D01*
X0124839Y0027536D01*
X0124903Y0027589D01*
X0124970Y0027640D01*
X0125039Y0027687D01*
X0125110Y0027732D01*
X0125183Y0027772D01*
X0125258Y0027809D01*
X0125335Y0027843D01*
X0125413Y0027873D01*
X0125492Y0027899D01*
X0125573Y0027922D01*
X0125655Y0027940D01*
X0125737Y0027955D01*
X0125820Y0027966D01*
X0125903Y0027973D01*
X0125987Y0027976D01*
X0126071Y0027975D01*
X0126154Y0027970D01*
X0126238Y0027961D01*
X0126320Y0027948D01*
X0126402Y0027932D01*
X0126483Y0027911D01*
X0126564Y0027887D01*
X0126642Y0027859D01*
X0126720Y0027827D01*
X0126796Y0027791D01*
X0126870Y0027752D01*
X0126942Y0027710D01*
X0127012Y0027664D01*
X0127080Y0027615D01*
X0127145Y0027563D01*
X0127208Y0027508D01*
X0127268Y0027450D01*
X0127326Y0027389D01*
X0127380Y0027325D01*
X0127432Y0027259D01*
X0127480Y0027191D01*
X0127525Y0027120D01*
X0127566Y0027047D01*
X0127605Y0026973D01*
X0127639Y0026897D01*
X0127670Y0026819D01*
X0127697Y0026740D01*
X0127721Y0026659D01*
X0127740Y0026578D01*
X0127756Y0026496D01*
X0127768Y0026413D01*
X0127776Y0026329D01*
X0127780Y0026246D01*
X0127780Y0026162D01*
X0127776Y0026079D01*
X0127768Y0025995D01*
X0127756Y0025912D01*
X0127740Y0025830D01*
X0127721Y0025749D01*
X0127697Y0025668D01*
X0127670Y0025589D01*
X0127639Y0025511D01*
X0127605Y0025435D01*
X0127566Y0025361D01*
X0127525Y0025288D01*
X0127480Y0025217D01*
X0127432Y0025149D01*
X0127380Y0025083D01*
X0127326Y0025019D01*
X0127268Y0024958D01*
X0127208Y0024900D01*
X0127145Y0024845D01*
X0127080Y0024793D01*
X0127012Y0024744D01*
X0126942Y0024698D01*
X0126870Y0024656D01*
X0126796Y0024617D01*
X0126720Y0024581D01*
X0126642Y0024549D01*
X0126564Y0024521D01*
X0126483Y0024497D01*
X0126402Y0024476D01*
X0126320Y0024460D01*
X0126238Y0024447D01*
X0126154Y0024438D01*
X0126071Y0024433D01*
X0125987Y0024432D01*
X0125903Y0024435D01*
X0125820Y0024442D01*
X0125737Y0024453D01*
X0125655Y0024468D01*
X0125573Y0024486D01*
X0125492Y0024509D01*
X0125413Y0024535D01*
X0125335Y0024565D01*
X0125258Y0024599D01*
X0125183Y0024636D01*
X0125110Y0024676D01*
X0125039Y0024721D01*
X0124970Y0024768D01*
X0124903Y0024819D01*
X0124839Y0024872D01*
X0124777Y0024929D01*
X0124719Y0024989D01*
X0124663Y0025051D01*
X0124610Y0025116D01*
X0124560Y0025183D01*
X0124513Y0025252D01*
X0124470Y0025324D01*
X0124430Y0025398D01*
X0124394Y0025473D01*
X0124361Y0025550D01*
X0124332Y0025629D01*
X0124307Y0025708D01*
X0124285Y0025789D01*
X0124268Y0025871D01*
X0124254Y0025954D01*
X0124244Y0026037D01*
X0124238Y0026120D01*
X0124236Y0026204D01*
X0138015Y0026204D02*
X0138017Y0026288D01*
X0138023Y0026371D01*
X0138033Y0026454D01*
X0138047Y0026537D01*
X0138064Y0026619D01*
X0138086Y0026700D01*
X0138111Y0026779D01*
X0138140Y0026858D01*
X0138173Y0026935D01*
X0138209Y0027010D01*
X0138249Y0027084D01*
X0138292Y0027156D01*
X0138339Y0027225D01*
X0138389Y0027292D01*
X0138442Y0027357D01*
X0138498Y0027419D01*
X0138556Y0027479D01*
X0138618Y0027536D01*
X0138682Y0027589D01*
X0138749Y0027640D01*
X0138818Y0027687D01*
X0138889Y0027732D01*
X0138962Y0027772D01*
X0139037Y0027809D01*
X0139114Y0027843D01*
X0139192Y0027873D01*
X0139271Y0027899D01*
X0139352Y0027922D01*
X0139434Y0027940D01*
X0139516Y0027955D01*
X0139599Y0027966D01*
X0139682Y0027973D01*
X0139766Y0027976D01*
X0139850Y0027975D01*
X0139933Y0027970D01*
X0140017Y0027961D01*
X0140099Y0027948D01*
X0140181Y0027932D01*
X0140262Y0027911D01*
X0140343Y0027887D01*
X0140421Y0027859D01*
X0140499Y0027827D01*
X0140575Y0027791D01*
X0140649Y0027752D01*
X0140721Y0027710D01*
X0140791Y0027664D01*
X0140859Y0027615D01*
X0140924Y0027563D01*
X0140987Y0027508D01*
X0141047Y0027450D01*
X0141105Y0027389D01*
X0141159Y0027325D01*
X0141211Y0027259D01*
X0141259Y0027191D01*
X0141304Y0027120D01*
X0141345Y0027047D01*
X0141384Y0026973D01*
X0141418Y0026897D01*
X0141449Y0026819D01*
X0141476Y0026740D01*
X0141500Y0026659D01*
X0141519Y0026578D01*
X0141535Y0026496D01*
X0141547Y0026413D01*
X0141555Y0026329D01*
X0141559Y0026246D01*
X0141559Y0026162D01*
X0141555Y0026079D01*
X0141547Y0025995D01*
X0141535Y0025912D01*
X0141519Y0025830D01*
X0141500Y0025749D01*
X0141476Y0025668D01*
X0141449Y0025589D01*
X0141418Y0025511D01*
X0141384Y0025435D01*
X0141345Y0025361D01*
X0141304Y0025288D01*
X0141259Y0025217D01*
X0141211Y0025149D01*
X0141159Y0025083D01*
X0141105Y0025019D01*
X0141047Y0024958D01*
X0140987Y0024900D01*
X0140924Y0024845D01*
X0140859Y0024793D01*
X0140791Y0024744D01*
X0140721Y0024698D01*
X0140649Y0024656D01*
X0140575Y0024617D01*
X0140499Y0024581D01*
X0140421Y0024549D01*
X0140343Y0024521D01*
X0140262Y0024497D01*
X0140181Y0024476D01*
X0140099Y0024460D01*
X0140017Y0024447D01*
X0139933Y0024438D01*
X0139850Y0024433D01*
X0139766Y0024432D01*
X0139682Y0024435D01*
X0139599Y0024442D01*
X0139516Y0024453D01*
X0139434Y0024468D01*
X0139352Y0024486D01*
X0139271Y0024509D01*
X0139192Y0024535D01*
X0139114Y0024565D01*
X0139037Y0024599D01*
X0138962Y0024636D01*
X0138889Y0024676D01*
X0138818Y0024721D01*
X0138749Y0024768D01*
X0138682Y0024819D01*
X0138618Y0024872D01*
X0138556Y0024929D01*
X0138498Y0024989D01*
X0138442Y0025051D01*
X0138389Y0025116D01*
X0138339Y0025183D01*
X0138292Y0025252D01*
X0138249Y0025324D01*
X0138209Y0025398D01*
X0138173Y0025473D01*
X0138140Y0025550D01*
X0138111Y0025629D01*
X0138086Y0025708D01*
X0138064Y0025789D01*
X0138047Y0025871D01*
X0138033Y0025954D01*
X0138023Y0026037D01*
X0138017Y0026120D01*
X0138015Y0026204D01*
X0085638Y0155250D02*
X0085640Y0155408D01*
X0085646Y0155566D01*
X0085656Y0155724D01*
X0085670Y0155882D01*
X0085688Y0156039D01*
X0085709Y0156196D01*
X0085735Y0156352D01*
X0085765Y0156508D01*
X0085798Y0156663D01*
X0085836Y0156816D01*
X0085877Y0156969D01*
X0085922Y0157121D01*
X0085971Y0157272D01*
X0086024Y0157421D01*
X0086080Y0157569D01*
X0086140Y0157715D01*
X0086204Y0157860D01*
X0086272Y0158003D01*
X0086343Y0158145D01*
X0086417Y0158285D01*
X0086495Y0158422D01*
X0086577Y0158558D01*
X0086661Y0158692D01*
X0086750Y0158823D01*
X0086841Y0158952D01*
X0086936Y0159079D01*
X0087033Y0159204D01*
X0087134Y0159326D01*
X0087238Y0159445D01*
X0087345Y0159562D01*
X0087455Y0159676D01*
X0087568Y0159787D01*
X0087683Y0159896D01*
X0087801Y0160001D01*
X0087922Y0160103D01*
X0088045Y0160203D01*
X0088171Y0160299D01*
X0088299Y0160392D01*
X0088429Y0160482D01*
X0088562Y0160568D01*
X0088697Y0160652D01*
X0088833Y0160731D01*
X0088972Y0160808D01*
X0089113Y0160880D01*
X0089255Y0160950D01*
X0089399Y0161015D01*
X0089545Y0161077D01*
X0089692Y0161135D01*
X0089841Y0161190D01*
X0089991Y0161241D01*
X0090142Y0161288D01*
X0090294Y0161331D01*
X0090447Y0161370D01*
X0090602Y0161406D01*
X0090757Y0161437D01*
X0090913Y0161465D01*
X0091069Y0161489D01*
X0091226Y0161509D01*
X0091384Y0161525D01*
X0091541Y0161537D01*
X0091700Y0161545D01*
X0091858Y0161549D01*
X0092016Y0161549D01*
X0092174Y0161545D01*
X0092333Y0161537D01*
X0092490Y0161525D01*
X0092648Y0161509D01*
X0092805Y0161489D01*
X0092961Y0161465D01*
X0093117Y0161437D01*
X0093272Y0161406D01*
X0093427Y0161370D01*
X0093580Y0161331D01*
X0093732Y0161288D01*
X0093883Y0161241D01*
X0094033Y0161190D01*
X0094182Y0161135D01*
X0094329Y0161077D01*
X0094475Y0161015D01*
X0094619Y0160950D01*
X0094761Y0160880D01*
X0094902Y0160808D01*
X0095041Y0160731D01*
X0095177Y0160652D01*
X0095312Y0160568D01*
X0095445Y0160482D01*
X0095575Y0160392D01*
X0095703Y0160299D01*
X0095829Y0160203D01*
X0095952Y0160103D01*
X0096073Y0160001D01*
X0096191Y0159896D01*
X0096306Y0159787D01*
X0096419Y0159676D01*
X0096529Y0159562D01*
X0096636Y0159445D01*
X0096740Y0159326D01*
X0096841Y0159204D01*
X0096938Y0159079D01*
X0097033Y0158952D01*
X0097124Y0158823D01*
X0097213Y0158692D01*
X0097297Y0158558D01*
X0097379Y0158422D01*
X0097457Y0158285D01*
X0097531Y0158145D01*
X0097602Y0158003D01*
X0097670Y0157860D01*
X0097734Y0157715D01*
X0097794Y0157569D01*
X0097850Y0157421D01*
X0097903Y0157272D01*
X0097952Y0157121D01*
X0097997Y0156969D01*
X0098038Y0156816D01*
X0098076Y0156663D01*
X0098109Y0156508D01*
X0098139Y0156352D01*
X0098165Y0156196D01*
X0098186Y0156039D01*
X0098204Y0155882D01*
X0098218Y0155724D01*
X0098228Y0155566D01*
X0098234Y0155408D01*
X0098236Y0155250D01*
X0098234Y0155092D01*
X0098228Y0154934D01*
X0098218Y0154776D01*
X0098204Y0154618D01*
X0098186Y0154461D01*
X0098165Y0154304D01*
X0098139Y0154148D01*
X0098109Y0153992D01*
X0098076Y0153837D01*
X0098038Y0153684D01*
X0097997Y0153531D01*
X0097952Y0153379D01*
X0097903Y0153228D01*
X0097850Y0153079D01*
X0097794Y0152931D01*
X0097734Y0152785D01*
X0097670Y0152640D01*
X0097602Y0152497D01*
X0097531Y0152355D01*
X0097457Y0152215D01*
X0097379Y0152078D01*
X0097297Y0151942D01*
X0097213Y0151808D01*
X0097124Y0151677D01*
X0097033Y0151548D01*
X0096938Y0151421D01*
X0096841Y0151296D01*
X0096740Y0151174D01*
X0096636Y0151055D01*
X0096529Y0150938D01*
X0096419Y0150824D01*
X0096306Y0150713D01*
X0096191Y0150604D01*
X0096073Y0150499D01*
X0095952Y0150397D01*
X0095829Y0150297D01*
X0095703Y0150201D01*
X0095575Y0150108D01*
X0095445Y0150018D01*
X0095312Y0149932D01*
X0095177Y0149848D01*
X0095041Y0149769D01*
X0094902Y0149692D01*
X0094761Y0149620D01*
X0094619Y0149550D01*
X0094475Y0149485D01*
X0094329Y0149423D01*
X0094182Y0149365D01*
X0094033Y0149310D01*
X0093883Y0149259D01*
X0093732Y0149212D01*
X0093580Y0149169D01*
X0093427Y0149130D01*
X0093272Y0149094D01*
X0093117Y0149063D01*
X0092961Y0149035D01*
X0092805Y0149011D01*
X0092648Y0148991D01*
X0092490Y0148975D01*
X0092333Y0148963D01*
X0092174Y0148955D01*
X0092016Y0148951D01*
X0091858Y0148951D01*
X0091700Y0148955D01*
X0091541Y0148963D01*
X0091384Y0148975D01*
X0091226Y0148991D01*
X0091069Y0149011D01*
X0090913Y0149035D01*
X0090757Y0149063D01*
X0090602Y0149094D01*
X0090447Y0149130D01*
X0090294Y0149169D01*
X0090142Y0149212D01*
X0089991Y0149259D01*
X0089841Y0149310D01*
X0089692Y0149365D01*
X0089545Y0149423D01*
X0089399Y0149485D01*
X0089255Y0149550D01*
X0089113Y0149620D01*
X0088972Y0149692D01*
X0088833Y0149769D01*
X0088697Y0149848D01*
X0088562Y0149932D01*
X0088429Y0150018D01*
X0088299Y0150108D01*
X0088171Y0150201D01*
X0088045Y0150297D01*
X0087922Y0150397D01*
X0087801Y0150499D01*
X0087683Y0150604D01*
X0087568Y0150713D01*
X0087455Y0150824D01*
X0087345Y0150938D01*
X0087238Y0151055D01*
X0087134Y0151174D01*
X0087033Y0151296D01*
X0086936Y0151421D01*
X0086841Y0151548D01*
X0086750Y0151677D01*
X0086661Y0151808D01*
X0086577Y0151942D01*
X0086495Y0152078D01*
X0086417Y0152215D01*
X0086343Y0152355D01*
X0086272Y0152497D01*
X0086204Y0152640D01*
X0086140Y0152785D01*
X0086080Y0152931D01*
X0086024Y0153079D01*
X0085971Y0153228D01*
X0085922Y0153379D01*
X0085877Y0153531D01*
X0085836Y0153684D01*
X0085798Y0153837D01*
X0085765Y0153992D01*
X0085735Y0154148D01*
X0085709Y0154304D01*
X0085688Y0154461D01*
X0085670Y0154618D01*
X0085656Y0154776D01*
X0085646Y0154934D01*
X0085640Y0155092D01*
X0085638Y0155250D01*
D11*
X0108937Y0112990D03*
X0108937Y0105509D03*
X0108937Y0072990D03*
X0108937Y0065509D03*
X0121937Y0062990D03*
X0121937Y0055509D03*
X0136937Y0055509D03*
X0136937Y0062990D03*
D12*
X0135677Y0124250D03*
X0128197Y0124250D03*
X0115677Y0124250D03*
X0108197Y0124250D03*
D13*
X0106937Y0146450D02*
X0106937Y0152050D01*
X0116937Y0152050D02*
X0116937Y0146450D01*
X0126937Y0146450D02*
X0126937Y0152050D01*
X0136937Y0152050D02*
X0136937Y0146450D01*
X0079737Y0144250D02*
X0074137Y0144250D01*
X0074137Y0134250D02*
X0079737Y0134250D01*
X0066937Y0161450D02*
X0066937Y0167050D01*
X0056937Y0167050D02*
X0056937Y0161450D01*
X0144137Y0089250D02*
X0149737Y0089250D01*
X0149737Y0079250D02*
X0144137Y0079250D01*
X0151937Y0057050D02*
X0151937Y0051450D01*
X0161937Y0051450D02*
X0161937Y0057050D01*
X0079737Y0044250D02*
X0074137Y0044250D01*
X0074137Y0034250D02*
X0079737Y0034250D01*
D14*
X0118098Y0080759D03*
X0120657Y0080759D03*
X0123217Y0080759D03*
X0125776Y0080759D03*
X0125776Y0097741D03*
X0123217Y0097741D03*
X0120657Y0097741D03*
X0118098Y0097741D03*
D15*
X0132937Y0110250D03*
X0152937Y0110250D03*
X0063413Y0054729D03*
X0063413Y0034729D03*
X0074834Y0020531D03*
X0044834Y0020531D03*
D16*
X0026937Y0036750D03*
X0026937Y0141750D03*
D17*
X0026937Y0110509D03*
X0026937Y0067990D03*
D18*
X0116362Y0034078D03*
X0116362Y0013211D03*
X0149433Y0013211D03*
X0149433Y0034078D03*
D19*
X0139197Y0035062D03*
X0136047Y0035062D03*
X0132897Y0035062D03*
X0129748Y0035062D03*
X0126598Y0035062D03*
D20*
X0066137Y0075470D02*
X0057737Y0075470D01*
X0057737Y0089250D02*
X0066137Y0089250D01*
X0066137Y0103029D02*
X0057737Y0103029D01*
D21*
X0106937Y0094750D03*
X0106937Y0088750D03*
X0146937Y0087250D03*
X0146937Y0081250D03*
X0076937Y0042250D03*
X0076937Y0036250D03*
D22*
X0174337Y0064250D02*
X0179537Y0064250D01*
X0179537Y0074250D02*
X0174337Y0074250D01*
X0174337Y0084250D02*
X0179537Y0084250D01*
X0179537Y0094250D02*
X0174337Y0094250D01*
X0174337Y0104250D02*
X0179537Y0104250D01*
X0179537Y0114250D02*
X0174337Y0114250D01*
D23*
X0159937Y0054250D03*
X0153937Y0054250D03*
D24*
X0105239Y0046470D03*
X0091937Y0074050D03*
X0091937Y0104450D03*
D25*
X0091937Y0114250D03*
X0091937Y0064250D03*
X0095439Y0046470D03*
D26*
X0105239Y0046470D02*
X0105362Y0046729D01*
X0114937Y0061250D01*
X0115049Y0061359D01*
X0115163Y0061464D01*
X0115279Y0061568D01*
X0115398Y0061668D01*
X0115520Y0061765D01*
X0115644Y0061859D01*
X0115770Y0061950D01*
X0115898Y0062039D01*
X0116028Y0062123D01*
X0116161Y0062205D01*
X0116295Y0062284D01*
X0116432Y0062359D01*
X0116570Y0062430D01*
X0116709Y0062499D01*
X0116851Y0062564D01*
X0116994Y0062625D01*
X0117138Y0062683D01*
X0117284Y0062737D01*
X0117431Y0062788D01*
X0117580Y0062835D01*
X0117729Y0062879D01*
X0117880Y0062918D01*
X0118031Y0062954D01*
X0118183Y0062987D01*
X0118336Y0063015D01*
X0118490Y0063040D01*
X0118644Y0063061D01*
X0118799Y0063079D01*
X0118954Y0063092D01*
X0119109Y0063102D01*
X0119264Y0063108D01*
X0119420Y0063110D01*
X0119576Y0063108D01*
X0119731Y0063103D01*
X0119887Y0063093D01*
X0120042Y0063080D01*
X0120196Y0063063D01*
X0120351Y0063043D01*
X0120504Y0063018D01*
X0120657Y0062990D01*
X0120657Y0080759D01*
X0120657Y0085029D01*
X0120655Y0085148D01*
X0120649Y0085267D01*
X0120640Y0085386D01*
X0120626Y0085505D01*
X0120609Y0085623D01*
X0120588Y0085740D01*
X0120564Y0085857D01*
X0120535Y0085973D01*
X0120503Y0086087D01*
X0120467Y0086201D01*
X0120428Y0086314D01*
X0120385Y0086425D01*
X0120339Y0086535D01*
X0120289Y0086643D01*
X0120235Y0086750D01*
X0120178Y0086854D01*
X0120118Y0086957D01*
X0120055Y0087058D01*
X0119988Y0087157D01*
X0119918Y0087254D01*
X0119845Y0087348D01*
X0119770Y0087440D01*
X0119691Y0087530D01*
X0119609Y0087617D01*
X0119525Y0087701D01*
X0119438Y0087783D01*
X0119348Y0087862D01*
X0119256Y0087937D01*
X0119162Y0088010D01*
X0119065Y0088080D01*
X0118966Y0088147D01*
X0118865Y0088210D01*
X0118762Y0088270D01*
X0118658Y0088327D01*
X0118551Y0088381D01*
X0118443Y0088431D01*
X0118333Y0088477D01*
X0118222Y0088520D01*
X0118109Y0088559D01*
X0117995Y0088595D01*
X0117881Y0088627D01*
X0117765Y0088656D01*
X0117648Y0088680D01*
X0117531Y0088701D01*
X0117413Y0088718D01*
X0117294Y0088732D01*
X0117175Y0088741D01*
X0117056Y0088747D01*
X0116937Y0088749D01*
X0116937Y0088750D02*
X0106937Y0088750D01*
X0106937Y0094750D02*
X0106937Y0104250D01*
X0091937Y0104250D01*
X0091937Y0104450D01*
X0091937Y0104250D02*
X0066937Y0104250D01*
X0061937Y0103029D01*
X0061937Y0104250D01*
X0033197Y0104250D01*
X0026937Y0110509D01*
X0005437Y0110084D02*
X0048937Y0110084D01*
X0048937Y0109086D02*
X0005437Y0109086D01*
X0005437Y0108087D02*
X0048937Y0108087D01*
X0048937Y0107089D02*
X0005437Y0107089D01*
X0005437Y0106090D02*
X0048937Y0106090D01*
X0048937Y0105092D02*
X0005437Y0105092D01*
X0005437Y0104093D02*
X0048937Y0104093D01*
X0048937Y0103095D02*
X0005437Y0103095D01*
X0005437Y0102096D02*
X0048937Y0102096D01*
X0048937Y0101098D02*
X0005437Y0101098D01*
X0005437Y0100099D02*
X0048937Y0100099D01*
X0048937Y0099101D02*
X0005437Y0099101D01*
X0005437Y0098102D02*
X0048937Y0098102D01*
X0048937Y0097104D02*
X0005437Y0097104D01*
X0005437Y0096105D02*
X0048937Y0096105D01*
X0048937Y0095107D02*
X0005437Y0095107D01*
X0005437Y0094250D02*
X0005437Y0170710D01*
X0048937Y0170710D01*
X0048937Y0094250D01*
X0005437Y0094250D01*
X0005437Y0084250D02*
X0048937Y0084250D01*
X0048937Y0007750D01*
X0005437Y0007750D01*
X0005437Y0084250D01*
X0005437Y0084123D02*
X0048937Y0084123D01*
X0048937Y0083125D02*
X0005437Y0083125D01*
X0005437Y0082126D02*
X0048937Y0082126D01*
X0048937Y0081128D02*
X0005437Y0081128D01*
X0005437Y0080129D02*
X0048937Y0080129D01*
X0048937Y0079131D02*
X0005437Y0079131D01*
X0005437Y0078132D02*
X0048937Y0078132D01*
X0048937Y0077134D02*
X0005437Y0077134D01*
X0005437Y0076135D02*
X0048937Y0076135D01*
X0048937Y0075137D02*
X0005437Y0075137D01*
X0005437Y0074138D02*
X0048937Y0074138D01*
X0048937Y0073139D02*
X0005437Y0073139D01*
X0005437Y0072141D02*
X0048937Y0072141D01*
X0048937Y0071142D02*
X0005437Y0071142D01*
X0005437Y0070144D02*
X0048937Y0070144D01*
X0048937Y0069145D02*
X0005437Y0069145D01*
X0005437Y0068147D02*
X0048937Y0068147D01*
X0048937Y0067148D02*
X0005437Y0067148D01*
X0005437Y0066150D02*
X0048937Y0066150D01*
X0048937Y0065151D02*
X0005437Y0065151D01*
X0005437Y0064153D02*
X0048937Y0064153D01*
X0048937Y0063154D02*
X0005437Y0063154D01*
X0005437Y0062156D02*
X0048937Y0062156D01*
X0048937Y0061157D02*
X0005437Y0061157D01*
X0005437Y0060159D02*
X0048937Y0060159D01*
X0048937Y0059160D02*
X0005437Y0059160D01*
X0005437Y0058162D02*
X0048937Y0058162D01*
X0048937Y0057163D02*
X0005437Y0057163D01*
X0005437Y0056165D02*
X0048937Y0056165D01*
X0048937Y0055166D02*
X0005437Y0055166D01*
X0005437Y0054168D02*
X0048937Y0054168D01*
X0048937Y0053169D02*
X0005437Y0053169D01*
X0005437Y0052171D02*
X0048937Y0052171D01*
X0048937Y0051172D02*
X0005437Y0051172D01*
X0005437Y0050174D02*
X0048937Y0050174D01*
X0048937Y0049175D02*
X0005437Y0049175D01*
X0005437Y0048177D02*
X0048937Y0048177D01*
X0048937Y0047178D02*
X0005437Y0047178D01*
X0005437Y0046180D02*
X0048937Y0046180D01*
X0048937Y0045181D02*
X0005437Y0045181D01*
X0005437Y0044183D02*
X0048937Y0044183D01*
X0048937Y0043184D02*
X0005437Y0043184D01*
X0005437Y0042186D02*
X0048937Y0042186D01*
X0048937Y0041187D02*
X0005437Y0041187D01*
X0005437Y0040189D02*
X0048937Y0040189D01*
X0048937Y0039190D02*
X0005437Y0039190D01*
X0005437Y0038192D02*
X0048937Y0038192D01*
X0048937Y0037193D02*
X0005437Y0037193D01*
X0005437Y0036195D02*
X0048937Y0036195D01*
X0048937Y0035196D02*
X0005437Y0035196D01*
X0005437Y0034198D02*
X0048937Y0034198D01*
X0048937Y0033199D02*
X0005437Y0033199D01*
X0005437Y0032201D02*
X0048937Y0032201D01*
X0048937Y0031202D02*
X0005437Y0031202D01*
X0005437Y0030204D02*
X0048937Y0030204D01*
X0048937Y0029205D02*
X0005437Y0029205D01*
X0005437Y0028206D02*
X0048937Y0028206D01*
X0048937Y0027208D02*
X0005437Y0027208D01*
X0005437Y0026209D02*
X0048937Y0026209D01*
X0048937Y0025211D02*
X0005437Y0025211D01*
X0005437Y0024212D02*
X0048937Y0024212D01*
X0048937Y0023214D02*
X0005437Y0023214D01*
X0005437Y0022215D02*
X0048937Y0022215D01*
X0048937Y0021217D02*
X0005437Y0021217D01*
X0005437Y0020218D02*
X0048937Y0020218D01*
X0048937Y0019220D02*
X0005437Y0019220D01*
X0005437Y0018221D02*
X0048937Y0018221D01*
X0048937Y0017223D02*
X0005437Y0017223D01*
X0005437Y0016224D02*
X0048937Y0016224D01*
X0048937Y0015226D02*
X0005437Y0015226D01*
X0005437Y0014227D02*
X0048937Y0014227D01*
X0048937Y0013229D02*
X0005437Y0013229D01*
X0005437Y0012230D02*
X0048937Y0012230D01*
X0048937Y0011232D02*
X0005437Y0011232D01*
X0005437Y0010233D02*
X0048937Y0010233D01*
X0048937Y0009235D02*
X0005437Y0009235D01*
X0005437Y0008236D02*
X0048937Y0008236D01*
X0063413Y0031952D02*
X0063413Y0034729D01*
X0076937Y0034729D01*
X0076937Y0034250D01*
X0076937Y0036250D01*
X0063413Y0031952D02*
X0063416Y0031676D01*
X0063426Y0031400D01*
X0063443Y0031125D01*
X0063466Y0030850D01*
X0063496Y0030575D01*
X0063533Y0030302D01*
X0063576Y0030029D01*
X0063626Y0029758D01*
X0063682Y0029488D01*
X0063745Y0029219D01*
X0063814Y0028952D01*
X0063890Y0028686D01*
X0063972Y0028423D01*
X0064060Y0028161D01*
X0064155Y0027902D01*
X0064256Y0027645D01*
X0064363Y0027391D01*
X0064477Y0027139D01*
X0064596Y0026890D01*
X0064721Y0026644D01*
X0064852Y0026402D01*
X0064989Y0026162D01*
X0065132Y0025926D01*
X0065281Y0025693D01*
X0065435Y0025464D01*
X0065594Y0025239D01*
X0065759Y0025018D01*
X0065929Y0024800D01*
X0066105Y0024587D01*
X0066285Y0024378D01*
X0066471Y0024174D01*
X0066661Y0023974D01*
X0066856Y0023779D01*
X0067056Y0023589D01*
X0067260Y0023403D01*
X0067469Y0023223D01*
X0067682Y0023047D01*
X0067900Y0022877D01*
X0068121Y0022712D01*
X0068346Y0022553D01*
X0068575Y0022399D01*
X0068808Y0022250D01*
X0069044Y0022107D01*
X0069284Y0021970D01*
X0069526Y0021839D01*
X0069772Y0021714D01*
X0070021Y0021595D01*
X0070273Y0021481D01*
X0070527Y0021374D01*
X0070784Y0021273D01*
X0071043Y0021178D01*
X0071305Y0021090D01*
X0071568Y0021008D01*
X0071834Y0020932D01*
X0072101Y0020863D01*
X0072370Y0020800D01*
X0072640Y0020744D01*
X0072911Y0020694D01*
X0073184Y0020651D01*
X0073457Y0020614D01*
X0073732Y0020584D01*
X0074007Y0020561D01*
X0074282Y0020544D01*
X0074558Y0020534D01*
X0074834Y0020531D01*
X0076937Y0042250D02*
X0076937Y0044250D01*
X0106937Y0074250D02*
X0108937Y0072990D01*
X0110330Y0072990D01*
X0106937Y0074250D02*
X0091937Y0074250D01*
X0091937Y0074050D01*
X0091937Y0074250D02*
X0068157Y0074250D01*
X0068045Y0074177D01*
X0067932Y0074108D01*
X0067817Y0074043D01*
X0067699Y0073980D01*
X0067580Y0073922D01*
X0067459Y0073866D01*
X0067337Y0073815D01*
X0067213Y0073767D01*
X0067088Y0073723D01*
X0066961Y0073682D01*
X0066834Y0073645D01*
X0066705Y0073612D01*
X0066575Y0073583D01*
X0066445Y0073558D01*
X0066314Y0073536D01*
X0066182Y0073519D01*
X0066050Y0073505D01*
X0065918Y0073496D01*
X0065785Y0073490D01*
X0065652Y0073488D01*
X0065519Y0073490D01*
X0065387Y0073496D01*
X0065254Y0073506D01*
X0065122Y0073520D01*
X0064990Y0073538D01*
X0064859Y0073560D01*
X0064729Y0073585D01*
X0064599Y0073615D01*
X0064471Y0073648D01*
X0064343Y0073685D01*
X0064217Y0073726D01*
X0064092Y0073770D01*
X0063968Y0073818D01*
X0063846Y0073870D01*
X0063725Y0073926D01*
X0063606Y0073985D01*
X0063489Y0074047D01*
X0063374Y0074113D01*
X0063260Y0074183D01*
X0063149Y0074255D01*
X0063040Y0074331D01*
X0062933Y0074410D01*
X0062829Y0074493D01*
X0062727Y0074578D01*
X0062628Y0074666D01*
X0062532Y0074758D01*
X0062438Y0074852D01*
X0062347Y0074948D01*
X0062259Y0075048D01*
X0062174Y0075150D01*
X0062091Y0075254D01*
X0062013Y0075361D01*
X0061937Y0075470D01*
X0061937Y0074250D01*
X0026937Y0074250D01*
X0005437Y0111083D02*
X0048937Y0111083D01*
X0048937Y0112081D02*
X0005437Y0112081D01*
X0005437Y0113080D02*
X0048937Y0113080D01*
X0048937Y0114078D02*
X0005437Y0114078D01*
X0005437Y0115077D02*
X0048937Y0115077D01*
X0048937Y0116075D02*
X0005437Y0116075D01*
X0005437Y0117074D02*
X0048937Y0117074D01*
X0048937Y0118073D02*
X0005437Y0118073D01*
X0005437Y0119071D02*
X0048937Y0119071D01*
X0048937Y0120070D02*
X0005437Y0120070D01*
X0005437Y0121068D02*
X0048937Y0121068D01*
X0048937Y0122067D02*
X0005437Y0122067D01*
X0005437Y0123065D02*
X0048937Y0123065D01*
X0048937Y0124064D02*
X0005437Y0124064D01*
X0005437Y0125062D02*
X0048937Y0125062D01*
X0048937Y0126061D02*
X0005437Y0126061D01*
X0005437Y0127059D02*
X0048937Y0127059D01*
X0048937Y0128058D02*
X0005437Y0128058D01*
X0005437Y0129056D02*
X0048937Y0129056D01*
X0048937Y0130055D02*
X0005437Y0130055D01*
X0005437Y0131053D02*
X0048937Y0131053D01*
X0048937Y0132052D02*
X0005437Y0132052D01*
X0005437Y0133050D02*
X0048937Y0133050D01*
X0048937Y0134049D02*
X0005437Y0134049D01*
X0005437Y0135047D02*
X0048937Y0135047D01*
X0048937Y0136046D02*
X0005437Y0136046D01*
X0005437Y0137044D02*
X0048937Y0137044D01*
X0048937Y0138043D02*
X0005437Y0138043D01*
X0005437Y0139041D02*
X0048937Y0139041D01*
X0048937Y0140040D02*
X0005437Y0140040D01*
X0005437Y0141038D02*
X0048937Y0141038D01*
X0048937Y0142037D02*
X0005437Y0142037D01*
X0005437Y0143035D02*
X0048937Y0143035D01*
X0048937Y0144034D02*
X0005437Y0144034D01*
X0005437Y0145032D02*
X0048937Y0145032D01*
X0048937Y0146031D02*
X0005437Y0146031D01*
X0005437Y0147029D02*
X0048937Y0147029D01*
X0048937Y0148028D02*
X0005437Y0148028D01*
X0005437Y0149026D02*
X0048937Y0149026D01*
X0048937Y0150025D02*
X0005437Y0150025D01*
X0005437Y0151023D02*
X0048937Y0151023D01*
X0048937Y0152022D02*
X0005437Y0152022D01*
X0005437Y0153020D02*
X0048937Y0153020D01*
X0048937Y0154019D02*
X0005437Y0154019D01*
X0005437Y0155017D02*
X0048937Y0155017D01*
X0048937Y0156016D02*
X0005437Y0156016D01*
X0005437Y0157014D02*
X0048937Y0157014D01*
X0048937Y0158013D02*
X0005437Y0158013D01*
X0005437Y0159011D02*
X0048937Y0159011D01*
X0048937Y0160010D02*
X0005437Y0160010D01*
X0005437Y0161008D02*
X0048937Y0161008D01*
X0048937Y0162007D02*
X0005437Y0162007D01*
X0005437Y0163006D02*
X0048937Y0163006D01*
X0048937Y0164004D02*
X0005437Y0164004D01*
X0005437Y0165003D02*
X0048937Y0165003D01*
X0048937Y0166001D02*
X0005437Y0166001D01*
X0005437Y0167000D02*
X0048937Y0167000D01*
X0048937Y0167998D02*
X0005437Y0167998D01*
X0005437Y0168997D02*
X0048937Y0168997D01*
X0048937Y0169995D02*
X0005437Y0169995D01*
X0106937Y0104250D02*
X0108937Y0105509D01*
X0110330Y0105509D01*
X0110330Y0105510D02*
X0110518Y0105508D01*
X0110705Y0105501D01*
X0110893Y0105490D01*
X0111080Y0105474D01*
X0111266Y0105453D01*
X0111453Y0105428D01*
X0111638Y0105399D01*
X0111823Y0105365D01*
X0112006Y0105327D01*
X0112189Y0105284D01*
X0112371Y0105237D01*
X0112552Y0105186D01*
X0112731Y0105130D01*
X0112909Y0105070D01*
X0113085Y0105005D01*
X0113260Y0104936D01*
X0113433Y0104864D01*
X0113604Y0104787D01*
X0113773Y0104705D01*
X0113940Y0104620D01*
X0114106Y0104531D01*
X0114269Y0104438D01*
X0114429Y0104341D01*
X0114588Y0104240D01*
X0114743Y0104135D01*
X0114897Y0104026D01*
X0115047Y0103914D01*
X0115195Y0103798D01*
X0115340Y0103679D01*
X0115482Y0103556D01*
X0115621Y0103430D01*
X0115757Y0103300D01*
X0115889Y0103168D01*
X0116019Y0103032D01*
X0116145Y0102893D01*
X0116268Y0102751D01*
X0116387Y0102606D01*
X0116503Y0102458D01*
X0116615Y0102308D01*
X0116724Y0102154D01*
X0116829Y0101999D01*
X0116930Y0101840D01*
X0117027Y0101680D01*
X0117120Y0101517D01*
X0117209Y0101351D01*
X0117294Y0101184D01*
X0117376Y0101015D01*
X0117453Y0100844D01*
X0117525Y0100671D01*
X0117594Y0100496D01*
X0117659Y0100320D01*
X0117719Y0100142D01*
X0117775Y0099963D01*
X0117826Y0099782D01*
X0117873Y0099600D01*
X0117916Y0099417D01*
X0117954Y0099234D01*
X0117988Y0099049D01*
X0118017Y0098864D01*
X0118042Y0098677D01*
X0118063Y0098491D01*
X0118079Y0098304D01*
X0118090Y0098116D01*
X0118097Y0097929D01*
X0118099Y0097741D01*
X0118098Y0097741D02*
X0118098Y0098088D01*
X0120657Y0097741D02*
X0120657Y0124250D01*
X0115677Y0124250D01*
X0120657Y0124250D02*
X0120657Y0144250D01*
X0116937Y0149250D01*
X0123217Y0144250D02*
X0126937Y0149250D01*
X0123217Y0144250D02*
X0123217Y0134250D01*
X0161937Y0134250D01*
X0162299Y0134246D01*
X0162662Y0134232D01*
X0163024Y0134211D01*
X0163385Y0134180D01*
X0163745Y0134141D01*
X0164104Y0134093D01*
X0164462Y0134036D01*
X0164819Y0133971D01*
X0165174Y0133897D01*
X0165527Y0133814D01*
X0165878Y0133723D01*
X0166226Y0133624D01*
X0166572Y0133516D01*
X0166916Y0133400D01*
X0167256Y0133275D01*
X0167593Y0133143D01*
X0167927Y0133002D01*
X0168258Y0132853D01*
X0168585Y0132696D01*
X0168908Y0132532D01*
X0169227Y0132360D01*
X0169541Y0132180D01*
X0169852Y0131992D01*
X0170157Y0131797D01*
X0170458Y0131595D01*
X0170754Y0131385D01*
X0171044Y0131169D01*
X0171330Y0130945D01*
X0171610Y0130715D01*
X0171884Y0130478D01*
X0172152Y0130234D01*
X0172415Y0129984D01*
X0172671Y0129728D01*
X0172921Y0129465D01*
X0173165Y0129197D01*
X0173402Y0128923D01*
X0173632Y0128643D01*
X0173856Y0128357D01*
X0174072Y0128067D01*
X0174282Y0127771D01*
X0174484Y0127470D01*
X0174679Y0127165D01*
X0174867Y0126854D01*
X0175047Y0126540D01*
X0175219Y0126221D01*
X0175383Y0125898D01*
X0175540Y0125571D01*
X0175689Y0125240D01*
X0175830Y0124906D01*
X0175962Y0124569D01*
X0176087Y0124229D01*
X0176203Y0123885D01*
X0176311Y0123539D01*
X0176410Y0123191D01*
X0176501Y0122840D01*
X0176584Y0122487D01*
X0176658Y0122132D01*
X0176723Y0121775D01*
X0176780Y0121417D01*
X0176828Y0121058D01*
X0176867Y0120698D01*
X0176898Y0120337D01*
X0176919Y0119975D01*
X0176933Y0119612D01*
X0176937Y0119250D01*
X0176937Y0114250D01*
X0168937Y0094250D02*
X0168550Y0094255D01*
X0168164Y0094269D01*
X0167778Y0094292D01*
X0167393Y0094325D01*
X0167008Y0094367D01*
X0166625Y0094418D01*
X0166243Y0094478D01*
X0165863Y0094548D01*
X0165484Y0094627D01*
X0165108Y0094715D01*
X0164734Y0094812D01*
X0164362Y0094918D01*
X0163993Y0095033D01*
X0163626Y0095157D01*
X0163263Y0095290D01*
X0162903Y0095431D01*
X0162547Y0095581D01*
X0162195Y0095740D01*
X0161846Y0095907D01*
X0161501Y0096083D01*
X0161161Y0096267D01*
X0160826Y0096458D01*
X0160495Y0096659D01*
X0160169Y0096866D01*
X0159848Y0097082D01*
X0159532Y0097306D01*
X0159222Y0097537D01*
X0158918Y0097775D01*
X0158620Y0098021D01*
X0158327Y0098274D01*
X0158041Y0098534D01*
X0157761Y0098800D01*
X0157487Y0099074D01*
X0157221Y0099354D01*
X0156961Y0099640D01*
X0156708Y0099933D01*
X0156462Y0100231D01*
X0156224Y0100535D01*
X0155993Y0100845D01*
X0155769Y0101161D01*
X0155553Y0101482D01*
X0155346Y0101808D01*
X0155145Y0102139D01*
X0154954Y0102474D01*
X0154770Y0102814D01*
X0154594Y0103159D01*
X0154427Y0103508D01*
X0154268Y0103860D01*
X0154118Y0104216D01*
X0153977Y0104576D01*
X0153844Y0104939D01*
X0153720Y0105306D01*
X0153605Y0105675D01*
X0153499Y0106047D01*
X0153402Y0106421D01*
X0153314Y0106797D01*
X0153235Y0107176D01*
X0153165Y0107556D01*
X0153105Y0107938D01*
X0153054Y0108321D01*
X0153012Y0108706D01*
X0152979Y0109091D01*
X0152956Y0109477D01*
X0152942Y0109863D01*
X0152937Y0110250D01*
X0168937Y0094250D02*
X0176937Y0094250D01*
X0156937Y0079250D02*
X0146937Y0079250D01*
X0146937Y0081250D01*
X0146937Y0087250D02*
X0146937Y0089250D01*
X0126937Y0089250D01*
X0126818Y0089252D01*
X0126699Y0089258D01*
X0126580Y0089267D01*
X0126461Y0089281D01*
X0126343Y0089298D01*
X0126226Y0089319D01*
X0126109Y0089343D01*
X0125993Y0089372D01*
X0125879Y0089404D01*
X0125765Y0089440D01*
X0125652Y0089479D01*
X0125541Y0089522D01*
X0125431Y0089568D01*
X0125323Y0089618D01*
X0125216Y0089672D01*
X0125112Y0089729D01*
X0125009Y0089789D01*
X0124908Y0089852D01*
X0124809Y0089919D01*
X0124712Y0089989D01*
X0124618Y0090062D01*
X0124526Y0090137D01*
X0124436Y0090216D01*
X0124349Y0090298D01*
X0124265Y0090382D01*
X0124183Y0090469D01*
X0124104Y0090559D01*
X0124029Y0090651D01*
X0123956Y0090745D01*
X0123886Y0090842D01*
X0123819Y0090941D01*
X0123756Y0091042D01*
X0123696Y0091145D01*
X0123639Y0091249D01*
X0123585Y0091356D01*
X0123535Y0091464D01*
X0123489Y0091574D01*
X0123446Y0091685D01*
X0123407Y0091798D01*
X0123371Y0091912D01*
X0123339Y0092026D01*
X0123310Y0092142D01*
X0123286Y0092259D01*
X0123265Y0092376D01*
X0123248Y0092494D01*
X0123234Y0092613D01*
X0123225Y0092732D01*
X0123219Y0092851D01*
X0123217Y0092970D01*
X0123217Y0097741D01*
X0123217Y0124250D01*
X0128197Y0124250D01*
X0123217Y0124250D02*
X0123217Y0134250D01*
X0125776Y0103088D02*
X0125776Y0097741D01*
X0125776Y0098088D01*
X0125776Y0103088D02*
X0125778Y0103261D01*
X0125784Y0103434D01*
X0125795Y0103607D01*
X0125809Y0103779D01*
X0125828Y0103951D01*
X0125851Y0104123D01*
X0125878Y0104294D01*
X0125909Y0104464D01*
X0125945Y0104633D01*
X0125984Y0104802D01*
X0126028Y0104969D01*
X0126075Y0105136D01*
X0126126Y0105301D01*
X0126182Y0105465D01*
X0126241Y0105627D01*
X0126305Y0105788D01*
X0126372Y0105948D01*
X0126443Y0106106D01*
X0126518Y0106262D01*
X0126596Y0106416D01*
X0126679Y0106568D01*
X0126764Y0106718D01*
X0126854Y0106866D01*
X0126947Y0107012D01*
X0127044Y0107156D01*
X0127144Y0107297D01*
X0127247Y0107436D01*
X0127354Y0107572D01*
X0127464Y0107706D01*
X0127577Y0107837D01*
X0127693Y0107965D01*
X0127813Y0108090D01*
X0127935Y0108212D01*
X0128060Y0108332D01*
X0128188Y0108448D01*
X0128319Y0108561D01*
X0128453Y0108671D01*
X0128589Y0108778D01*
X0128728Y0108881D01*
X0128869Y0108981D01*
X0129013Y0109078D01*
X0129159Y0109171D01*
X0129307Y0109261D01*
X0129457Y0109346D01*
X0129609Y0109429D01*
X0129763Y0109507D01*
X0129919Y0109582D01*
X0130077Y0109653D01*
X0130237Y0109720D01*
X0130398Y0109784D01*
X0130560Y0109843D01*
X0130724Y0109899D01*
X0130889Y0109950D01*
X0131056Y0109997D01*
X0131223Y0110041D01*
X0131392Y0110080D01*
X0131561Y0110116D01*
X0131731Y0110147D01*
X0131902Y0110174D01*
X0132074Y0110197D01*
X0132246Y0110216D01*
X0132418Y0110230D01*
X0132591Y0110241D01*
X0132764Y0110247D01*
X0132937Y0110249D01*
X0118099Y0080759D02*
X0118097Y0080571D01*
X0118090Y0080384D01*
X0118079Y0080196D01*
X0118063Y0080009D01*
X0118042Y0079823D01*
X0118017Y0079636D01*
X0117988Y0079451D01*
X0117954Y0079266D01*
X0117916Y0079083D01*
X0117873Y0078900D01*
X0117826Y0078718D01*
X0117775Y0078537D01*
X0117719Y0078358D01*
X0117659Y0078180D01*
X0117594Y0078004D01*
X0117525Y0077829D01*
X0117453Y0077656D01*
X0117376Y0077485D01*
X0117294Y0077316D01*
X0117209Y0077149D01*
X0117120Y0076983D01*
X0117027Y0076820D01*
X0116930Y0076660D01*
X0116829Y0076501D01*
X0116724Y0076346D01*
X0116615Y0076192D01*
X0116503Y0076042D01*
X0116387Y0075894D01*
X0116268Y0075749D01*
X0116145Y0075607D01*
X0116019Y0075468D01*
X0115889Y0075332D01*
X0115757Y0075200D01*
X0115621Y0075070D01*
X0115482Y0074944D01*
X0115340Y0074821D01*
X0115195Y0074702D01*
X0115047Y0074586D01*
X0114897Y0074474D01*
X0114743Y0074365D01*
X0114588Y0074260D01*
X0114429Y0074159D01*
X0114269Y0074062D01*
X0114106Y0073969D01*
X0113940Y0073880D01*
X0113773Y0073795D01*
X0113604Y0073713D01*
X0113433Y0073636D01*
X0113260Y0073564D01*
X0113085Y0073495D01*
X0112909Y0073430D01*
X0112731Y0073370D01*
X0112552Y0073314D01*
X0112371Y0073263D01*
X0112189Y0073216D01*
X0112006Y0073173D01*
X0111823Y0073135D01*
X0111638Y0073101D01*
X0111453Y0073072D01*
X0111266Y0073047D01*
X0111080Y0073026D01*
X0110893Y0073010D01*
X0110705Y0072999D01*
X0110518Y0072992D01*
X0110330Y0072990D01*
X0120657Y0062990D02*
X0121937Y0062990D01*
X0136937Y0062990D01*
X0148197Y0062990D01*
X0148347Y0062928D01*
X0148495Y0062862D01*
X0148642Y0062792D01*
X0148787Y0062719D01*
X0148931Y0062643D01*
X0149072Y0062563D01*
X0149212Y0062480D01*
X0149349Y0062393D01*
X0149484Y0062303D01*
X0149618Y0062210D01*
X0149748Y0062114D01*
X0149877Y0062014D01*
X0150003Y0061912D01*
X0150126Y0061806D01*
X0150247Y0061698D01*
X0150365Y0061587D01*
X0150481Y0061472D01*
X0150594Y0061355D01*
X0150703Y0061236D01*
X0150810Y0061113D01*
X0150914Y0060989D01*
X0151015Y0060861D01*
X0151113Y0060732D01*
X0151208Y0060599D01*
X0151299Y0060465D01*
X0151387Y0060329D01*
X0151472Y0060190D01*
X0151553Y0060050D01*
X0151631Y0059907D01*
X0151706Y0059763D01*
X0151777Y0059617D01*
X0151845Y0059469D01*
X0151908Y0059320D01*
X0151969Y0059169D01*
X0152025Y0059017D01*
X0152078Y0058863D01*
X0152127Y0058708D01*
X0152173Y0058552D01*
X0152215Y0058395D01*
X0152252Y0058237D01*
X0152286Y0058078D01*
X0152317Y0057919D01*
X0152343Y0057759D01*
X0152365Y0057598D01*
X0152384Y0057436D01*
X0152399Y0057274D01*
X0152409Y0057112D01*
X0152416Y0056950D01*
X0152419Y0056788D01*
X0152418Y0056625D01*
X0152413Y0056463D01*
X0152404Y0056301D01*
X0152391Y0056139D01*
X0152374Y0055977D01*
X0152354Y0055816D01*
X0152329Y0055655D01*
X0152301Y0055496D01*
X0152269Y0055336D01*
X0152233Y0055178D01*
X0152193Y0055020D01*
X0152149Y0054864D01*
X0152102Y0054709D01*
X0152050Y0054555D01*
X0151995Y0054402D01*
X0151937Y0054250D01*
X0153937Y0054250D01*
X0161937Y0049900D02*
X0161949Y0049761D01*
X0161957Y0049621D01*
X0161961Y0049481D01*
X0161962Y0049341D01*
X0161958Y0049201D01*
X0161951Y0049061D01*
X0161939Y0048922D01*
X0161924Y0048783D01*
X0161905Y0048644D01*
X0161883Y0048506D01*
X0161856Y0048368D01*
X0161826Y0048232D01*
X0161792Y0048096D01*
X0161754Y0047961D01*
X0161712Y0047828D01*
X0161667Y0047695D01*
X0161619Y0047564D01*
X0161566Y0047434D01*
X0161510Y0047306D01*
X0161451Y0047179D01*
X0161388Y0047054D01*
X0161321Y0046931D01*
X0161252Y0046810D01*
X0161179Y0046690D01*
X0161102Y0046573D01*
X0161023Y0046458D01*
X0160940Y0046345D01*
X0160855Y0046234D01*
X0160766Y0046126D01*
X0160674Y0046020D01*
X0160580Y0045917D01*
X0160482Y0045816D01*
X0160382Y0045719D01*
X0160279Y0045624D01*
X0160174Y0045531D01*
X0160066Y0045442D01*
X0159956Y0045356D01*
X0159843Y0045273D01*
X0159728Y0045193D01*
X0159611Y0045116D01*
X0159492Y0045042D01*
X0159371Y0044972D01*
X0159248Y0044905D01*
X0159124Y0044842D01*
X0158997Y0044782D01*
X0158869Y0044725D01*
X0158739Y0044672D01*
X0158608Y0044623D01*
X0158476Y0044577D01*
X0158343Y0044535D01*
X0158208Y0044497D01*
X0158073Y0044462D01*
X0157936Y0044431D01*
X0157799Y0044404D01*
X0157661Y0044381D01*
X0157522Y0044361D01*
X0157383Y0044346D01*
X0156937Y0044250D01*
X0130937Y0044250D01*
X0130937Y0044249D02*
X0130807Y0044247D01*
X0130678Y0044241D01*
X0130548Y0044231D01*
X0130419Y0044218D01*
X0130291Y0044200D01*
X0130163Y0044179D01*
X0130036Y0044153D01*
X0129909Y0044124D01*
X0129784Y0044091D01*
X0129660Y0044055D01*
X0129536Y0044014D01*
X0129414Y0043970D01*
X0129294Y0043922D01*
X0129175Y0043871D01*
X0129057Y0043816D01*
X0128941Y0043757D01*
X0128828Y0043695D01*
X0128716Y0043630D01*
X0128606Y0043561D01*
X0128498Y0043489D01*
X0128392Y0043414D01*
X0128289Y0043335D01*
X0128188Y0043254D01*
X0128090Y0043169D01*
X0127994Y0043082D01*
X0127901Y0042991D01*
X0127810Y0042898D01*
X0127723Y0042802D01*
X0127638Y0042704D01*
X0127557Y0042603D01*
X0127478Y0042500D01*
X0127403Y0042394D01*
X0127331Y0042286D01*
X0127262Y0042176D01*
X0127197Y0042064D01*
X0127135Y0041951D01*
X0127076Y0041835D01*
X0127021Y0041717D01*
X0126970Y0041598D01*
X0126922Y0041478D01*
X0126878Y0041356D01*
X0126837Y0041232D01*
X0126801Y0041108D01*
X0126768Y0040983D01*
X0126739Y0040856D01*
X0126713Y0040729D01*
X0126692Y0040601D01*
X0126674Y0040473D01*
X0126661Y0040344D01*
X0126651Y0040214D01*
X0126645Y0040085D01*
X0126643Y0039955D01*
X0126598Y0035062D01*
X0159937Y0054250D02*
X0161937Y0054250D01*
X0161937Y0074250D01*
X0176937Y0074250D01*
X0161937Y0074250D02*
X0161935Y0074390D01*
X0161929Y0074530D01*
X0161919Y0074670D01*
X0161906Y0074810D01*
X0161888Y0074949D01*
X0161866Y0075088D01*
X0161841Y0075225D01*
X0161812Y0075363D01*
X0161779Y0075499D01*
X0161742Y0075634D01*
X0161701Y0075768D01*
X0161656Y0075901D01*
X0161608Y0076033D01*
X0161556Y0076163D01*
X0161501Y0076292D01*
X0161442Y0076419D01*
X0161379Y0076545D01*
X0161313Y0076669D01*
X0161244Y0076790D01*
X0161171Y0076910D01*
X0161094Y0077028D01*
X0161015Y0077143D01*
X0160932Y0077257D01*
X0160846Y0077367D01*
X0160757Y0077476D01*
X0160665Y0077582D01*
X0160570Y0077685D01*
X0160473Y0077786D01*
X0160372Y0077883D01*
X0160269Y0077978D01*
X0160163Y0078070D01*
X0160054Y0078159D01*
X0159944Y0078245D01*
X0159830Y0078328D01*
X0159715Y0078407D01*
X0159597Y0078484D01*
X0159477Y0078557D01*
X0159356Y0078626D01*
X0159232Y0078692D01*
X0159106Y0078755D01*
X0158979Y0078814D01*
X0158850Y0078869D01*
X0158720Y0078921D01*
X0158588Y0078969D01*
X0158455Y0079014D01*
X0158321Y0079055D01*
X0158186Y0079092D01*
X0158050Y0079125D01*
X0157912Y0079154D01*
X0157775Y0079179D01*
X0157636Y0079201D01*
X0157497Y0079219D01*
X0157357Y0079232D01*
X0157217Y0079242D01*
X0157077Y0079248D01*
X0156937Y0079250D01*
X0161937Y0054250D02*
X0161937Y0049900D01*
D27*
X0125776Y0071452D03*
X0125776Y0075452D03*
X0041937Y0059250D03*
X0036937Y0059250D03*
X0031937Y0059250D03*
X0026937Y0059250D03*
X0021937Y0059250D03*
X0016937Y0059250D03*
X0011937Y0059250D03*
X0011937Y0054250D03*
X0041937Y0054250D03*
X0041937Y0119250D03*
X0041937Y0124250D03*
X0036937Y0119250D03*
X0031937Y0119250D03*
X0026937Y0119250D03*
X0021937Y0119250D03*
X0016937Y0119250D03*
X0011937Y0119250D03*
X0011937Y0124250D03*
D28*
X0011937Y0119250D01*
X0015677Y0110509D01*
X0026937Y0110509D01*
X0028197Y0110509D01*
X0031937Y0119250D01*
X0041937Y0124250D01*
X0041937Y0119250D02*
X0036937Y0119250D01*
X0033197Y0110509D01*
X0026937Y0110509D01*
X0038197Y0110509D01*
X0041937Y0119250D01*
X0026937Y0119250D02*
X0026937Y0110509D01*
X0025677Y0110509D01*
X0021937Y0119250D01*
X0016937Y0119250D02*
X0020677Y0110509D01*
X0026937Y0110509D01*
X0060937Y0110573D02*
X0091456Y0110573D01*
X0091573Y0110550D02*
X0090858Y0110692D01*
X0090184Y0110971D01*
X0089578Y0111376D01*
X0089063Y0111891D01*
X0088658Y0112497D01*
X0088379Y0113170D01*
X0088237Y0113885D01*
X0088237Y0113950D01*
X0091637Y0113950D01*
X0091637Y0114550D01*
X0091637Y0117950D01*
X0091573Y0117950D01*
X0090858Y0117807D01*
X0090184Y0117529D01*
X0089578Y0117124D01*
X0089063Y0116608D01*
X0088658Y0116002D01*
X0088379Y0115329D01*
X0088237Y0114614D01*
X0088237Y0114550D01*
X0091637Y0114550D01*
X0092237Y0114550D01*
X0092237Y0117950D01*
X0092301Y0117950D01*
X0093016Y0117807D01*
X0093690Y0117529D01*
X0094296Y0117124D01*
X0094811Y0116608D01*
X0095216Y0116002D01*
X0095495Y0115329D01*
X0095637Y0114614D01*
X0095637Y0114550D01*
X0092237Y0114550D01*
X0092237Y0113950D01*
X0095637Y0113950D01*
X0095637Y0113885D01*
X0095495Y0113170D01*
X0095216Y0112497D01*
X0094811Y0111891D01*
X0094296Y0111376D01*
X0093690Y0110971D01*
X0093016Y0110692D01*
X0092301Y0110550D01*
X0092237Y0110550D01*
X0092237Y0113950D01*
X0091637Y0113950D01*
X0091637Y0110550D01*
X0091573Y0110550D01*
X0091637Y0110573D02*
X0092237Y0110573D01*
X0092418Y0110573D02*
X0104684Y0110573D01*
X0104684Y0110260D02*
X0104773Y0109929D01*
X0104944Y0109633D01*
X0105186Y0109391D01*
X0105365Y0109287D01*
X0104684Y0108607D01*
X0104684Y0106050D01*
X0095637Y0106050D01*
X0095637Y0107388D01*
X0094875Y0108150D01*
X0088999Y0108150D01*
X0088237Y0107388D01*
X0088237Y0106050D01*
X0070839Y0106050D01*
X0070800Y0106145D01*
X0069252Y0107692D01*
X0067231Y0108529D01*
X0060937Y0108529D01*
X0060937Y0149450D01*
X0082268Y0149450D01*
X0082737Y0149918D01*
X0082737Y0152377D01*
X0083799Y0149812D01*
X0086499Y0147112D01*
X0090028Y0145650D01*
X0093846Y0145650D01*
X0097375Y0147112D01*
X0100075Y0149812D01*
X0101536Y0153340D01*
X0101536Y0157159D01*
X0100075Y0160687D01*
X0097375Y0163387D01*
X0093846Y0164849D01*
X0090028Y0164849D01*
X0086499Y0163387D01*
X0083799Y0160687D01*
X0082737Y0158123D01*
X0082737Y0170910D01*
X0187338Y0170910D01*
X0187338Y0007550D01*
X0148355Y0007550D01*
X0148355Y0007581D01*
X0154892Y0007581D01*
X0155654Y0008342D01*
X0155654Y0018081D01*
X0154892Y0018842D01*
X0148355Y0018842D01*
X0148355Y0024556D01*
X0148179Y0024732D01*
X0144667Y0024732D01*
X0144859Y0025195D01*
X0144859Y0027212D01*
X0144347Y0028447D01*
X0154892Y0028447D01*
X0155654Y0029208D01*
X0155654Y0038947D01*
X0154892Y0039708D01*
X0143973Y0039708D01*
X0143211Y0038947D01*
X0143211Y0029952D01*
X0142660Y0030503D01*
X0141481Y0030991D01*
X0141481Y0034870D01*
X0139389Y0034870D01*
X0139389Y0035254D01*
X0141481Y0035254D01*
X0141481Y0039170D01*
X0141392Y0039501D01*
X0141221Y0039797D01*
X0140979Y0040039D01*
X0140683Y0040210D01*
X0140352Y0040299D01*
X0139389Y0040299D01*
X0139389Y0035254D01*
X0139004Y0035254D01*
X0139004Y0040299D01*
X0138041Y0040299D01*
X0137710Y0040210D01*
X0137677Y0040191D01*
X0137570Y0040299D01*
X0134524Y0040299D01*
X0134472Y0040247D01*
X0134420Y0040299D01*
X0131375Y0040299D01*
X0131323Y0040247D01*
X0131270Y0040299D01*
X0128477Y0040299D01*
X0128491Y0040442D01*
X0128863Y0041341D01*
X0129551Y0042029D01*
X0130450Y0042402D01*
X0130937Y0042450D01*
X0156406Y0042450D01*
X0156587Y0042333D01*
X0157128Y0042450D01*
X0157683Y0042450D01*
X0157812Y0042579D01*
X0158922Y0042689D01*
X0161335Y0043980D01*
X0163070Y0046096D01*
X0163070Y0046096D01*
X0163549Y0047680D01*
X0164259Y0047974D01*
X0165413Y0049127D01*
X0166037Y0050634D01*
X0166037Y0057865D01*
X0165413Y0059372D01*
X0164259Y0060525D01*
X0163737Y0060742D01*
X0163737Y0072450D01*
X0170861Y0072450D01*
X0171031Y0072040D01*
X0172128Y0070943D01*
X0173561Y0070350D01*
X0180313Y0070350D01*
X0181746Y0070943D01*
X0182843Y0072040D01*
X0183437Y0073474D01*
X0183437Y0075025D01*
X0182843Y0076459D01*
X0181746Y0077556D01*
X0180313Y0078150D01*
X0173561Y0078150D01*
X0172128Y0077556D01*
X0171031Y0076459D01*
X0170861Y0076050D01*
X0163552Y0076050D01*
X0162702Y0078102D01*
X0160789Y0080014D01*
X0158290Y0081050D01*
X0153429Y0081050D01*
X0153213Y0081572D01*
X0152059Y0082725D01*
X0151387Y0083004D01*
X0151387Y0084088D01*
X0151225Y0084250D01*
X0151387Y0084411D01*
X0151387Y0085495D01*
X0152059Y0085774D01*
X0153213Y0086927D01*
X0153837Y0088434D01*
X0153837Y0090065D01*
X0153213Y0091572D01*
X0152059Y0092725D01*
X0150553Y0093350D01*
X0143321Y0093350D01*
X0141815Y0092725D01*
X0140661Y0091572D01*
X0140445Y0091050D01*
X0126937Y0091050D01*
X0126562Y0091087D01*
X0125870Y0091373D01*
X0125340Y0091903D01*
X0125053Y0092595D01*
X0125017Y0092970D01*
X0125017Y0094078D01*
X0127101Y0094078D01*
X0127863Y0094840D01*
X0127863Y0100641D01*
X0127576Y0100929D01*
X0127576Y0103088D01*
X0127642Y0103927D01*
X0128160Y0105522D01*
X0129146Y0106879D01*
X0130099Y0107572D01*
X0131322Y0106350D01*
X0134552Y0106350D01*
X0136837Y0108634D01*
X0136837Y0111865D01*
X0134552Y0114150D01*
X0131322Y0114150D01*
X0129037Y0111865D01*
X0129037Y0111244D01*
X0128818Y0111172D01*
X0128818Y0111172D01*
X0126521Y0109504D01*
X0125017Y0107433D01*
X0125017Y0120080D01*
X0125099Y0119997D01*
X0131294Y0119997D01*
X0131975Y0120677D01*
X0132078Y0120499D01*
X0132320Y0120257D01*
X0132616Y0120085D01*
X0132947Y0119997D01*
X0135377Y0119997D01*
X0135377Y0123950D01*
X0135977Y0123950D01*
X0135977Y0124550D01*
X0135377Y0124550D01*
X0135377Y0128502D01*
X0132947Y0128502D01*
X0132616Y0128414D01*
X0132320Y0128243D01*
X0132078Y0128001D01*
X0131975Y0127822D01*
X0131294Y0128502D01*
X0125099Y0128502D01*
X0125017Y0128420D01*
X0125017Y0132450D01*
X0161937Y0132450D01*
X0163660Y0132337D01*
X0166988Y0131445D01*
X0169973Y0129722D01*
X0172409Y0127285D01*
X0174132Y0124301D01*
X0175024Y0120973D01*
X0175137Y0119250D01*
X0175137Y0118150D01*
X0173561Y0118150D01*
X0172128Y0117556D01*
X0171031Y0116459D01*
X0170437Y0115025D01*
X0170437Y0113474D01*
X0171031Y0112040D01*
X0172128Y0110943D01*
X0173561Y0110350D01*
X0180313Y0110350D01*
X0181746Y0110943D01*
X0182843Y0112040D01*
X0183437Y0113474D01*
X0183437Y0115025D01*
X0182843Y0116459D01*
X0181746Y0117556D01*
X0180313Y0118150D01*
X0178737Y0118150D01*
X0178737Y0121461D01*
X0177592Y0125734D01*
X0175380Y0129565D01*
X0175380Y0129565D01*
X0172252Y0132693D01*
X0168422Y0134905D01*
X0168422Y0134905D01*
X0164149Y0136050D01*
X0125017Y0136050D01*
X0125017Y0142807D01*
X0126121Y0142350D01*
X0127753Y0142350D01*
X0129259Y0142974D01*
X0130413Y0144127D01*
X0131037Y0145634D01*
X0131037Y0152865D01*
X0130413Y0154372D01*
X0129259Y0155525D01*
X0127753Y0156150D01*
X0126121Y0156150D01*
X0124615Y0155525D01*
X0123461Y0154372D01*
X0122837Y0152865D01*
X0122837Y0146755D01*
X0121937Y0145545D01*
X0121037Y0146755D01*
X0121037Y0152865D01*
X0120413Y0154372D01*
X0119259Y0155525D01*
X0117753Y0156150D01*
X0116121Y0156150D01*
X0114615Y0155525D01*
X0113461Y0154372D01*
X0112837Y0152865D01*
X0112837Y0145634D01*
X0113461Y0144127D01*
X0114615Y0142974D01*
X0116121Y0142350D01*
X0117753Y0142350D01*
X0118857Y0142807D01*
X0118857Y0128420D01*
X0118775Y0128502D01*
X0112580Y0128502D01*
X0111899Y0127822D01*
X0111796Y0128001D01*
X0111554Y0128243D01*
X0111258Y0128414D01*
X0110927Y0128502D01*
X0108497Y0128502D01*
X0108497Y0124550D01*
X0107897Y0124550D01*
X0107897Y0128502D01*
X0105467Y0128502D01*
X0105136Y0128414D01*
X0104840Y0128243D01*
X0104598Y0128001D01*
X0104426Y0127704D01*
X0104338Y0127374D01*
X0104338Y0124550D01*
X0107897Y0124550D01*
X0107897Y0123950D01*
X0104338Y0123950D01*
X0104338Y0121126D01*
X0104426Y0120795D01*
X0104598Y0120499D01*
X0104840Y0120257D01*
X0105136Y0120085D01*
X0105467Y0119997D01*
X0107897Y0119997D01*
X0107897Y0123950D01*
X0108497Y0123950D01*
X0108497Y0119997D01*
X0110927Y0119997D01*
X0111258Y0120085D01*
X0111554Y0120257D01*
X0111796Y0120499D01*
X0111899Y0120677D01*
X0112580Y0119997D01*
X0118775Y0119997D01*
X0118857Y0120080D01*
X0118857Y0102282D01*
X0117180Y0104591D01*
X0114728Y0106373D01*
X0114728Y0106373D01*
X0113190Y0106873D01*
X0113190Y0108607D01*
X0112509Y0109287D01*
X0112688Y0109391D01*
X0112930Y0109633D01*
X0113101Y0109929D01*
X0113190Y0110260D01*
X0113190Y0112690D01*
X0109237Y0112690D01*
X0109237Y0113290D01*
X0108637Y0113290D01*
X0108637Y0116849D01*
X0105813Y0116849D01*
X0105482Y0116760D01*
X0105186Y0116589D01*
X0104944Y0116347D01*
X0104773Y0116051D01*
X0104684Y0115720D01*
X0104684Y0113290D01*
X0108637Y0113290D01*
X0108637Y0112690D01*
X0104684Y0112690D01*
X0104684Y0110260D01*
X0104761Y0109974D02*
X0060937Y0109974D01*
X0060937Y0109376D02*
X0105212Y0109376D01*
X0104854Y0108777D02*
X0060937Y0108777D01*
X0060937Y0111171D02*
X0089884Y0111171D01*
X0089184Y0111770D02*
X0060937Y0111770D01*
X0060937Y0112368D02*
X0088744Y0112368D01*
X0088464Y0112967D02*
X0060937Y0112967D01*
X0060937Y0113565D02*
X0088301Y0113565D01*
X0088267Y0114762D02*
X0060937Y0114762D01*
X0060937Y0114164D02*
X0091637Y0114164D01*
X0091637Y0114762D02*
X0092237Y0114762D01*
X0092237Y0114164D02*
X0104684Y0114164D01*
X0104684Y0114762D02*
X0095608Y0114762D01*
X0095482Y0115361D02*
X0104684Y0115361D01*
X0104748Y0115959D02*
X0095234Y0115959D01*
X0094845Y0116558D02*
X0105155Y0116558D01*
X0108637Y0116558D02*
X0109237Y0116558D01*
X0109237Y0116849D02*
X0109237Y0113290D01*
X0113190Y0113290D01*
X0113190Y0115720D01*
X0113101Y0116051D01*
X0112930Y0116347D01*
X0112688Y0116589D01*
X0112392Y0116760D01*
X0112061Y0116849D01*
X0109237Y0116849D01*
X0109237Y0115959D02*
X0108637Y0115959D01*
X0108637Y0115361D02*
X0109237Y0115361D01*
X0109237Y0114762D02*
X0108637Y0114762D01*
X0108637Y0114164D02*
X0109237Y0114164D01*
X0109237Y0113565D02*
X0108637Y0113565D01*
X0108637Y0112967D02*
X0095410Y0112967D01*
X0095573Y0113565D02*
X0104684Y0113565D01*
X0104684Y0112368D02*
X0095130Y0112368D01*
X0094690Y0111770D02*
X0104684Y0111770D01*
X0104684Y0111171D02*
X0093990Y0111171D01*
X0092237Y0111171D02*
X0091637Y0111171D01*
X0091637Y0111770D02*
X0092237Y0111770D01*
X0092237Y0112368D02*
X0091637Y0112368D01*
X0091637Y0112967D02*
X0092237Y0112967D01*
X0092237Y0113565D02*
X0091637Y0113565D01*
X0091637Y0115361D02*
X0092237Y0115361D01*
X0092237Y0115959D02*
X0091637Y0115959D01*
X0091637Y0116558D02*
X0092237Y0116558D01*
X0092237Y0117156D02*
X0091637Y0117156D01*
X0091637Y0117755D02*
X0092237Y0117755D01*
X0093143Y0117755D02*
X0118857Y0117755D01*
X0118857Y0118353D02*
X0060937Y0118353D01*
X0060937Y0117755D02*
X0090731Y0117755D01*
X0089627Y0117156D02*
X0060937Y0117156D01*
X0060937Y0116558D02*
X0089029Y0116558D01*
X0088640Y0115959D02*
X0060937Y0115959D01*
X0060937Y0115361D02*
X0088392Y0115361D01*
X0094247Y0117156D02*
X0118857Y0117156D01*
X0118857Y0116558D02*
X0112719Y0116558D01*
X0113126Y0115959D02*
X0118857Y0115959D01*
X0118857Y0115361D02*
X0113190Y0115361D01*
X0113190Y0114762D02*
X0118857Y0114762D01*
X0118857Y0114164D02*
X0113190Y0114164D01*
X0113190Y0113565D02*
X0118857Y0113565D01*
X0118857Y0112967D02*
X0109237Y0112967D01*
X0113190Y0112368D02*
X0118857Y0112368D01*
X0118857Y0111770D02*
X0113190Y0111770D01*
X0113190Y0111171D02*
X0118857Y0111171D01*
X0118857Y0110573D02*
X0113190Y0110573D01*
X0113113Y0109974D02*
X0118857Y0109974D01*
X0118857Y0109376D02*
X0112662Y0109376D01*
X0113020Y0108777D02*
X0118857Y0108777D01*
X0118857Y0108179D02*
X0113190Y0108179D01*
X0113190Y0107580D02*
X0118857Y0107580D01*
X0118857Y0106982D02*
X0113190Y0106982D01*
X0114696Y0106383D02*
X0118857Y0106383D01*
X0118857Y0105785D02*
X0115537Y0105785D01*
X0116361Y0105186D02*
X0118857Y0105186D01*
X0118857Y0104588D02*
X0117183Y0104588D01*
X0117180Y0104591D02*
X0117180Y0104591D01*
X0117180Y0104591D01*
X0117617Y0103989D02*
X0118857Y0103989D01*
X0118857Y0103391D02*
X0118052Y0103391D01*
X0118487Y0102792D02*
X0118857Y0102792D01*
X0115648Y0100450D02*
X0116011Y0099333D01*
X0116011Y0094840D01*
X0116773Y0094078D01*
X0121417Y0094078D01*
X0121417Y0091872D01*
X0122257Y0089843D01*
X0123810Y0088290D01*
X0125839Y0087450D01*
X0140445Y0087450D01*
X0140661Y0086927D01*
X0141815Y0085774D01*
X0142487Y0085495D01*
X0142487Y0084411D01*
X0142649Y0084250D01*
X0142487Y0084088D01*
X0142487Y0083004D01*
X0141815Y0082725D01*
X0140661Y0081572D01*
X0140037Y0080065D01*
X0140037Y0078434D01*
X0140661Y0076927D01*
X0141815Y0075774D01*
X0143321Y0075150D01*
X0150553Y0075150D01*
X0152059Y0075774D01*
X0153213Y0076927D01*
X0153429Y0077450D01*
X0156937Y0077450D01*
X0157561Y0077388D01*
X0158715Y0076910D01*
X0159598Y0076027D01*
X0160076Y0074874D01*
X0160137Y0074250D01*
X0160137Y0060742D01*
X0159615Y0060525D01*
X0158461Y0059372D01*
X0158183Y0058700D01*
X0157099Y0058700D01*
X0156937Y0058538D01*
X0156775Y0058700D01*
X0155691Y0058700D01*
X0155413Y0059372D01*
X0154259Y0060525D01*
X0153155Y0060983D01*
X0152865Y0061661D01*
X0150440Y0064030D01*
X0150440Y0064030D01*
X0149209Y0064523D01*
X0148942Y0064790D01*
X0148544Y0064790D01*
X0148174Y0064938D01*
X0147828Y0064790D01*
X0141190Y0064790D01*
X0141190Y0066087D01*
X0140428Y0066849D01*
X0133446Y0066849D01*
X0132684Y0066087D01*
X0132684Y0064790D01*
X0126190Y0064790D01*
X0126190Y0066087D01*
X0125428Y0066849D01*
X0122457Y0066849D01*
X0122457Y0077097D01*
X0124542Y0077097D01*
X0124600Y0077155D01*
X0124817Y0077097D01*
X0125682Y0077097D01*
X0125682Y0080665D01*
X0125869Y0080665D01*
X0125869Y0077097D01*
X0126734Y0077097D01*
X0127065Y0077185D01*
X0127361Y0077356D01*
X0127603Y0077598D01*
X0127774Y0077895D01*
X0127863Y0078225D01*
X0127863Y0080665D01*
X0125869Y0080665D01*
X0125869Y0080852D01*
X0127863Y0080852D01*
X0127863Y0083292D01*
X0127774Y0083623D01*
X0127603Y0083919D01*
X0127361Y0084161D01*
X0127065Y0084332D01*
X0126734Y0084421D01*
X0125869Y0084421D01*
X0125869Y0080852D01*
X0125682Y0080852D01*
X0125682Y0084421D01*
X0124817Y0084421D01*
X0124600Y0084363D01*
X0124542Y0084421D01*
X0122457Y0084421D01*
X0122457Y0086127D01*
X0121617Y0088156D01*
X0121617Y0088156D01*
X0120064Y0089709D01*
X0118035Y0090550D01*
X0111387Y0090550D01*
X0111387Y0091588D01*
X0111225Y0091750D01*
X0111387Y0091911D01*
X0111387Y0097588D01*
X0110625Y0098350D01*
X0108737Y0098350D01*
X0108737Y0101650D01*
X0112428Y0101650D01*
X0113190Y0102412D01*
X0113190Y0102950D01*
X0114550Y0101961D01*
X0115648Y0100450D01*
X0115665Y0100398D02*
X0108737Y0100398D01*
X0108737Y0099800D02*
X0115859Y0099800D01*
X0116011Y0099201D02*
X0108737Y0099201D01*
X0108737Y0098603D02*
X0116011Y0098603D01*
X0116011Y0098004D02*
X0110971Y0098004D01*
X0111387Y0097406D02*
X0116011Y0097406D01*
X0116011Y0096807D02*
X0111387Y0096807D01*
X0111387Y0096208D02*
X0116011Y0096208D01*
X0116011Y0095610D02*
X0111387Y0095610D01*
X0111387Y0095011D02*
X0116011Y0095011D01*
X0116438Y0094413D02*
X0111387Y0094413D01*
X0111387Y0093814D02*
X0121417Y0093814D01*
X0121417Y0093216D02*
X0111387Y0093216D01*
X0111387Y0092617D02*
X0121417Y0092617D01*
X0121417Y0092019D02*
X0111387Y0092019D01*
X0111387Y0091420D02*
X0121604Y0091420D01*
X0121852Y0090822D02*
X0111387Y0090822D01*
X0111387Y0086950D02*
X0116937Y0086950D01*
X0117312Y0086913D01*
X0118004Y0086626D01*
X0118534Y0086096D01*
X0118821Y0085404D01*
X0118857Y0085029D01*
X0118857Y0084421D01*
X0116773Y0084421D01*
X0116011Y0083659D01*
X0116011Y0079167D01*
X0115648Y0078049D01*
X0114550Y0076538D01*
X0113190Y0075550D01*
X0113190Y0076087D01*
X0112428Y0076849D01*
X0105446Y0076849D01*
X0104684Y0076087D01*
X0104684Y0076050D01*
X0095637Y0076050D01*
X0095637Y0076988D01*
X0094875Y0077750D01*
X0088999Y0077750D01*
X0088237Y0076988D01*
X0088237Y0076050D01*
X0071637Y0076050D01*
X0071637Y0076564D01*
X0070800Y0078586D01*
X0069252Y0080133D01*
X0067231Y0080970D01*
X0060937Y0080970D01*
X0060937Y0083750D01*
X0061637Y0083750D01*
X0061637Y0088950D01*
X0062237Y0088950D01*
X0062237Y0089550D01*
X0061637Y0089550D01*
X0061637Y0094750D01*
X0060937Y0094750D01*
X0060937Y0097529D01*
X0067231Y0097529D01*
X0069252Y0098367D01*
X0070800Y0099914D01*
X0071637Y0101935D01*
X0071637Y0102450D01*
X0088237Y0102450D01*
X0088237Y0101511D01*
X0088999Y0100750D01*
X0094875Y0100750D01*
X0095637Y0101511D01*
X0095637Y0102450D01*
X0104684Y0102450D01*
X0104684Y0102412D01*
X0105137Y0101959D01*
X0105137Y0098350D01*
X0103249Y0098350D01*
X0102487Y0097588D01*
X0102487Y0091911D01*
X0102649Y0091750D01*
X0102487Y0091588D01*
X0102487Y0085911D01*
X0103249Y0085150D01*
X0110625Y0085150D01*
X0111387Y0085911D01*
X0111387Y0086950D01*
X0111387Y0086632D02*
X0117989Y0086632D01*
X0118560Y0086034D02*
X0111387Y0086034D01*
X0110911Y0085435D02*
X0118808Y0085435D01*
X0118857Y0084837D02*
X0069420Y0084837D01*
X0069720Y0085054D02*
X0069020Y0084546D01*
X0068248Y0084153D01*
X0067425Y0083885D01*
X0066570Y0083750D01*
X0062237Y0083750D01*
X0062237Y0088950D01*
X0071637Y0088950D01*
X0071637Y0088817D01*
X0071502Y0087962D01*
X0071234Y0087138D01*
X0070841Y0086367D01*
X0070332Y0085667D01*
X0069720Y0085054D01*
X0070101Y0085435D02*
X0102963Y0085435D01*
X0102487Y0086034D02*
X0070599Y0086034D01*
X0070976Y0086632D02*
X0102487Y0086632D01*
X0102487Y0087231D02*
X0071264Y0087231D01*
X0071459Y0087829D02*
X0102487Y0087829D01*
X0102487Y0088428D02*
X0071575Y0088428D01*
X0071637Y0089550D02*
X0071637Y0089683D01*
X0071502Y0090538D01*
X0071234Y0091361D01*
X0070841Y0092132D01*
X0070332Y0092833D01*
X0069720Y0093445D01*
X0069020Y0093954D01*
X0068248Y0094347D01*
X0067425Y0094614D01*
X0066570Y0094750D01*
X0062237Y0094750D01*
X0062237Y0089550D01*
X0071637Y0089550D01*
X0071637Y0089625D02*
X0102487Y0089625D01*
X0102487Y0090223D02*
X0071551Y0090223D01*
X0071409Y0090822D02*
X0102487Y0090822D01*
X0102487Y0091420D02*
X0071204Y0091420D01*
X0070899Y0092019D02*
X0102487Y0092019D01*
X0102487Y0092617D02*
X0070489Y0092617D01*
X0069949Y0093216D02*
X0102487Y0093216D01*
X0102487Y0093814D02*
X0069211Y0093814D01*
X0068044Y0094413D02*
X0102487Y0094413D01*
X0102487Y0095011D02*
X0060937Y0095011D01*
X0060937Y0095610D02*
X0102487Y0095610D01*
X0102487Y0096208D02*
X0060937Y0096208D01*
X0060937Y0096807D02*
X0102487Y0096807D01*
X0102487Y0097406D02*
X0060937Y0097406D01*
X0061637Y0094413D02*
X0062237Y0094413D01*
X0062237Y0093814D02*
X0061637Y0093814D01*
X0061637Y0093216D02*
X0062237Y0093216D01*
X0062237Y0092617D02*
X0061637Y0092617D01*
X0061637Y0092019D02*
X0062237Y0092019D01*
X0062237Y0091420D02*
X0061637Y0091420D01*
X0061637Y0090822D02*
X0062237Y0090822D01*
X0062237Y0090223D02*
X0061637Y0090223D01*
X0061637Y0089625D02*
X0062237Y0089625D01*
X0062237Y0089026D02*
X0102487Y0089026D01*
X0102903Y0098004D02*
X0068377Y0098004D01*
X0069489Y0098603D02*
X0105137Y0098603D01*
X0105137Y0099201D02*
X0070087Y0099201D01*
X0070686Y0099800D02*
X0105137Y0099800D01*
X0105137Y0100398D02*
X0071000Y0100398D01*
X0071248Y0100997D02*
X0088752Y0100997D01*
X0088237Y0101595D02*
X0071496Y0101595D01*
X0071637Y0102194D02*
X0088237Y0102194D01*
X0088237Y0106383D02*
X0070561Y0106383D01*
X0069963Y0106982D02*
X0088237Y0106982D01*
X0088429Y0107580D02*
X0069364Y0107580D01*
X0068077Y0108179D02*
X0104684Y0108179D01*
X0104684Y0107580D02*
X0095445Y0107580D01*
X0095637Y0106982D02*
X0104684Y0106982D01*
X0104684Y0106383D02*
X0095637Y0106383D01*
X0095637Y0102194D02*
X0104903Y0102194D01*
X0105137Y0101595D02*
X0095637Y0101595D01*
X0095122Y0100997D02*
X0105137Y0100997D01*
X0108737Y0100997D02*
X0115251Y0100997D01*
X0114816Y0101595D02*
X0108737Y0101595D01*
X0112971Y0102194D02*
X0114230Y0102194D01*
X0113407Y0102792D02*
X0113190Y0102792D01*
X0125017Y0107580D02*
X0125124Y0107580D01*
X0125017Y0108179D02*
X0125559Y0108179D01*
X0125993Y0108777D02*
X0125017Y0108777D01*
X0125017Y0109376D02*
X0126428Y0109376D01*
X0126521Y0109504D02*
X0126521Y0109504D01*
X0126521Y0109504D01*
X0127169Y0109974D02*
X0125017Y0109974D01*
X0125017Y0110573D02*
X0127993Y0110573D01*
X0128816Y0111171D02*
X0125017Y0111171D01*
X0125017Y0111770D02*
X0129037Y0111770D01*
X0129540Y0112368D02*
X0125017Y0112368D01*
X0125017Y0112967D02*
X0130139Y0112967D01*
X0130737Y0113565D02*
X0125017Y0113565D01*
X0125017Y0114164D02*
X0170437Y0114164D01*
X0170437Y0114762D02*
X0125017Y0114762D01*
X0125017Y0115361D02*
X0170576Y0115361D01*
X0170824Y0115959D02*
X0125017Y0115959D01*
X0125017Y0116558D02*
X0171130Y0116558D01*
X0171728Y0117156D02*
X0125017Y0117156D01*
X0125017Y0117755D02*
X0172608Y0117755D01*
X0175137Y0118353D02*
X0125017Y0118353D01*
X0125017Y0118952D02*
X0175137Y0118952D01*
X0175117Y0119550D02*
X0125017Y0119550D01*
X0118857Y0119550D02*
X0060937Y0119550D01*
X0060937Y0118952D02*
X0118857Y0118952D01*
X0112428Y0120149D02*
X0111368Y0120149D01*
X0108497Y0120149D02*
X0107897Y0120149D01*
X0107897Y0120747D02*
X0108497Y0120747D01*
X0108497Y0121346D02*
X0107897Y0121346D01*
X0107897Y0121944D02*
X0108497Y0121944D01*
X0108497Y0122543D02*
X0107897Y0122543D01*
X0107897Y0123141D02*
X0108497Y0123141D01*
X0108497Y0123740D02*
X0107897Y0123740D01*
X0107897Y0124339D02*
X0060937Y0124339D01*
X0060937Y0124937D02*
X0104338Y0124937D01*
X0104338Y0125536D02*
X0060937Y0125536D01*
X0060937Y0126134D02*
X0104338Y0126134D01*
X0104338Y0126733D02*
X0060937Y0126733D01*
X0060937Y0127331D02*
X0104338Y0127331D01*
X0104557Y0127930D02*
X0060937Y0127930D01*
X0060937Y0128528D02*
X0118857Y0128528D01*
X0118857Y0129127D02*
X0060937Y0129127D01*
X0060937Y0129725D02*
X0118857Y0129725D01*
X0118857Y0130324D02*
X0080922Y0130324D01*
X0080697Y0130251D02*
X0081311Y0130450D01*
X0081886Y0130743D01*
X0082408Y0131122D01*
X0082864Y0131579D01*
X0083244Y0132101D01*
X0083537Y0132676D01*
X0083736Y0133290D01*
X0083837Y0133927D01*
X0083837Y0133950D01*
X0077237Y0133950D01*
X0077237Y0134550D01*
X0076637Y0134550D01*
X0076637Y0138350D01*
X0073814Y0138350D01*
X0073177Y0138249D01*
X0072563Y0138049D01*
X0071988Y0137756D01*
X0071466Y0137377D01*
X0071010Y0136921D01*
X0070630Y0136399D01*
X0070337Y0135823D01*
X0070138Y0135210D01*
X0070037Y0134572D01*
X0070037Y0134550D01*
X0076637Y0134550D01*
X0076637Y0133950D01*
X0070037Y0133950D01*
X0070037Y0133927D01*
X0070138Y0133290D01*
X0070337Y0132676D01*
X0070630Y0132101D01*
X0071010Y0131579D01*
X0071466Y0131122D01*
X0071988Y0130743D01*
X0072563Y0130450D01*
X0073177Y0130251D01*
X0073814Y0130150D01*
X0076637Y0130150D01*
X0076637Y0133950D01*
X0077237Y0133950D01*
X0077237Y0130150D01*
X0080060Y0130150D01*
X0080697Y0130251D01*
X0082132Y0130922D02*
X0118857Y0130922D01*
X0118857Y0131521D02*
X0082806Y0131521D01*
X0083253Y0132119D02*
X0118857Y0132119D01*
X0118857Y0132718D02*
X0083550Y0132718D01*
X0083740Y0133316D02*
X0118857Y0133316D01*
X0118857Y0133915D02*
X0083835Y0133915D01*
X0083837Y0134550D02*
X0083837Y0134572D01*
X0083736Y0135210D01*
X0083537Y0135823D01*
X0083244Y0136399D01*
X0082864Y0136921D01*
X0082408Y0137377D01*
X0081886Y0137756D01*
X0081311Y0138049D01*
X0080697Y0138249D01*
X0080060Y0138350D01*
X0077237Y0138350D01*
X0077237Y0134550D01*
X0083837Y0134550D01*
X0083752Y0135112D02*
X0118857Y0135112D01*
X0118857Y0135710D02*
X0083573Y0135710D01*
X0083289Y0136309D02*
X0118857Y0136309D01*
X0118857Y0136907D02*
X0082874Y0136907D01*
X0082231Y0137506D02*
X0118857Y0137506D01*
X0118857Y0138104D02*
X0081142Y0138104D01*
X0080697Y0140251D02*
X0080060Y0140150D01*
X0077237Y0140150D01*
X0077237Y0143950D01*
X0077237Y0144550D01*
X0076637Y0144550D01*
X0076637Y0148350D01*
X0073814Y0148350D01*
X0073177Y0148249D01*
X0072563Y0148049D01*
X0071988Y0147756D01*
X0071466Y0147377D01*
X0071010Y0146921D01*
X0070630Y0146399D01*
X0070337Y0145823D01*
X0070138Y0145210D01*
X0070037Y0144572D01*
X0070037Y0144550D01*
X0076637Y0144550D01*
X0076637Y0143950D01*
X0070037Y0143950D01*
X0070037Y0143927D01*
X0070138Y0143290D01*
X0070337Y0142676D01*
X0070630Y0142101D01*
X0071010Y0141579D01*
X0071466Y0141122D01*
X0071988Y0140743D01*
X0072563Y0140450D01*
X0073177Y0140251D01*
X0073814Y0140150D01*
X0076637Y0140150D01*
X0076637Y0143950D01*
X0077237Y0143950D01*
X0083837Y0143950D01*
X0083837Y0143927D01*
X0083736Y0143290D01*
X0083537Y0142676D01*
X0083244Y0142101D01*
X0082864Y0141579D01*
X0082408Y0141122D01*
X0081886Y0140743D01*
X0081311Y0140450D01*
X0080697Y0140251D01*
X0081406Y0140498D02*
X0118857Y0140498D01*
X0118857Y0139900D02*
X0060937Y0139900D01*
X0060937Y0140498D02*
X0072468Y0140498D01*
X0071501Y0141097D02*
X0060937Y0141097D01*
X0060937Y0141695D02*
X0070925Y0141695D01*
X0070532Y0142294D02*
X0060937Y0142294D01*
X0060937Y0142892D02*
X0070267Y0142892D01*
X0070106Y0143491D02*
X0060937Y0143491D01*
X0060937Y0144089D02*
X0076637Y0144089D01*
X0076637Y0143491D02*
X0077237Y0143491D01*
X0077237Y0144089D02*
X0103584Y0144089D01*
X0103430Y0144301D02*
X0103810Y0143779D01*
X0104266Y0143322D01*
X0104788Y0142943D01*
X0105363Y0142650D01*
X0105977Y0142451D01*
X0106614Y0142350D01*
X0106637Y0142350D01*
X0106637Y0148950D01*
X0102837Y0148950D01*
X0102837Y0146127D01*
X0102938Y0145490D01*
X0103137Y0144876D01*
X0103430Y0144301D01*
X0103233Y0144688D02*
X0083819Y0144688D01*
X0083837Y0144572D02*
X0083736Y0145210D01*
X0083537Y0145823D01*
X0083244Y0146399D01*
X0082864Y0146921D01*
X0082408Y0147377D01*
X0081886Y0147756D01*
X0081311Y0148049D01*
X0080697Y0148249D01*
X0080060Y0148350D01*
X0077237Y0148350D01*
X0077237Y0144550D01*
X0083837Y0144550D01*
X0083837Y0144572D01*
X0083711Y0145286D02*
X0103004Y0145286D01*
X0102875Y0145885D02*
X0094412Y0145885D01*
X0095857Y0146483D02*
X0102837Y0146483D01*
X0102837Y0147082D02*
X0097302Y0147082D01*
X0097943Y0147680D02*
X0102837Y0147680D01*
X0102837Y0148279D02*
X0098542Y0148279D01*
X0099140Y0148877D02*
X0102837Y0148877D01*
X0102837Y0149550D02*
X0106637Y0149550D01*
X0106637Y0156150D01*
X0106614Y0156150D01*
X0105977Y0156049D01*
X0105363Y0155849D01*
X0104788Y0155556D01*
X0104266Y0155177D01*
X0103810Y0154721D01*
X0103430Y0154199D01*
X0103137Y0153623D01*
X0102938Y0153010D01*
X0102837Y0152372D01*
X0102837Y0149550D01*
X0102837Y0150075D02*
X0100183Y0150075D01*
X0100431Y0150673D02*
X0102837Y0150673D01*
X0102837Y0151272D02*
X0100679Y0151272D01*
X0100927Y0151870D02*
X0102837Y0151870D01*
X0102852Y0152469D02*
X0101175Y0152469D01*
X0101423Y0153067D02*
X0102957Y0153067D01*
X0103159Y0153666D02*
X0101536Y0153666D01*
X0101536Y0154264D02*
X0103478Y0154264D01*
X0103952Y0154863D02*
X0101536Y0154863D01*
X0101536Y0155461D02*
X0104657Y0155461D01*
X0106046Y0156060D02*
X0101536Y0156060D01*
X0101536Y0156658D02*
X0187338Y0156658D01*
X0187338Y0156060D02*
X0137828Y0156060D01*
X0137897Y0156049D02*
X0137260Y0156150D01*
X0137237Y0156150D01*
X0137237Y0149550D01*
X0136637Y0149550D01*
X0136637Y0156150D01*
X0136614Y0156150D01*
X0135977Y0156049D01*
X0135363Y0155849D01*
X0134788Y0155556D01*
X0134266Y0155177D01*
X0133810Y0154721D01*
X0133430Y0154199D01*
X0133137Y0153623D01*
X0132938Y0153010D01*
X0132837Y0152372D01*
X0132837Y0149550D01*
X0136637Y0149550D01*
X0136637Y0148950D01*
X0132837Y0148950D01*
X0132837Y0146127D01*
X0132938Y0145490D01*
X0133137Y0144876D01*
X0133430Y0144301D01*
X0133810Y0143779D01*
X0134266Y0143322D01*
X0134788Y0142943D01*
X0135363Y0142650D01*
X0135977Y0142451D01*
X0136614Y0142350D01*
X0136637Y0142350D01*
X0136637Y0148950D01*
X0137237Y0148950D01*
X0137237Y0149550D01*
X0141037Y0149550D01*
X0141037Y0152372D01*
X0140936Y0153010D01*
X0140737Y0153623D01*
X0140444Y0154199D01*
X0140064Y0154721D01*
X0139608Y0155177D01*
X0139086Y0155556D01*
X0138511Y0155849D01*
X0137897Y0156049D01*
X0137237Y0156060D02*
X0136637Y0156060D01*
X0136046Y0156060D02*
X0127970Y0156060D01*
X0129324Y0155461D02*
X0134657Y0155461D01*
X0133952Y0154863D02*
X0129922Y0154863D01*
X0130458Y0154264D02*
X0133478Y0154264D01*
X0133159Y0153666D02*
X0130705Y0153666D01*
X0130953Y0153067D02*
X0132957Y0153067D01*
X0132852Y0152469D02*
X0131037Y0152469D01*
X0131037Y0151870D02*
X0132837Y0151870D01*
X0132837Y0151272D02*
X0131037Y0151272D01*
X0131037Y0150673D02*
X0132837Y0150673D01*
X0132837Y0150075D02*
X0131037Y0150075D01*
X0131037Y0149476D02*
X0136637Y0149476D01*
X0136637Y0148877D02*
X0137237Y0148877D01*
X0137237Y0148950D02*
X0137237Y0142350D01*
X0137260Y0142350D01*
X0137897Y0142451D01*
X0138511Y0142650D01*
X0139086Y0142943D01*
X0139608Y0143322D01*
X0140064Y0143779D01*
X0140444Y0144301D01*
X0140737Y0144876D01*
X0140936Y0145490D01*
X0141037Y0146127D01*
X0141037Y0148950D01*
X0137237Y0148950D01*
X0137237Y0149476D02*
X0187338Y0149476D01*
X0187338Y0148877D02*
X0141037Y0148877D01*
X0141037Y0148279D02*
X0187338Y0148279D01*
X0187338Y0147680D02*
X0141037Y0147680D01*
X0141037Y0147082D02*
X0187338Y0147082D01*
X0187338Y0146483D02*
X0141037Y0146483D01*
X0140999Y0145885D02*
X0187338Y0145885D01*
X0187338Y0145286D02*
X0140870Y0145286D01*
X0140641Y0144688D02*
X0187338Y0144688D01*
X0187338Y0144089D02*
X0140290Y0144089D01*
X0139777Y0143491D02*
X0187338Y0143491D01*
X0187338Y0142892D02*
X0138986Y0142892D01*
X0137237Y0142892D02*
X0136637Y0142892D01*
X0136637Y0143491D02*
X0137237Y0143491D01*
X0137237Y0144089D02*
X0136637Y0144089D01*
X0136637Y0144688D02*
X0137237Y0144688D01*
X0137237Y0145286D02*
X0136637Y0145286D01*
X0136637Y0145885D02*
X0137237Y0145885D01*
X0137237Y0146483D02*
X0136637Y0146483D01*
X0136637Y0147082D02*
X0137237Y0147082D01*
X0137237Y0147680D02*
X0136637Y0147680D01*
X0136637Y0148279D02*
X0137237Y0148279D01*
X0137237Y0150075D02*
X0136637Y0150075D01*
X0136637Y0150673D02*
X0137237Y0150673D01*
X0137237Y0151272D02*
X0136637Y0151272D01*
X0136637Y0151870D02*
X0137237Y0151870D01*
X0137237Y0152469D02*
X0136637Y0152469D01*
X0136637Y0153067D02*
X0137237Y0153067D01*
X0137237Y0153666D02*
X0136637Y0153666D01*
X0136637Y0154264D02*
X0137237Y0154264D01*
X0137237Y0154863D02*
X0136637Y0154863D01*
X0136637Y0155461D02*
X0137237Y0155461D01*
X0139217Y0155461D02*
X0187338Y0155461D01*
X0187338Y0154863D02*
X0139922Y0154863D01*
X0140396Y0154264D02*
X0187338Y0154264D01*
X0187338Y0153666D02*
X0140715Y0153666D01*
X0140917Y0153067D02*
X0187338Y0153067D01*
X0187338Y0152469D02*
X0141022Y0152469D01*
X0141037Y0151870D02*
X0187338Y0151870D01*
X0187338Y0151272D02*
X0141037Y0151272D01*
X0141037Y0150673D02*
X0187338Y0150673D01*
X0187338Y0150075D02*
X0141037Y0150075D01*
X0133004Y0145286D02*
X0130893Y0145286D01*
X0131037Y0145885D02*
X0132875Y0145885D01*
X0132837Y0146483D02*
X0131037Y0146483D01*
X0131037Y0147082D02*
X0132837Y0147082D01*
X0132837Y0147680D02*
X0131037Y0147680D01*
X0131037Y0148279D02*
X0132837Y0148279D01*
X0132837Y0148877D02*
X0131037Y0148877D01*
X0130645Y0144688D02*
X0133233Y0144688D01*
X0133584Y0144089D02*
X0130375Y0144089D01*
X0129777Y0143491D02*
X0134097Y0143491D01*
X0134888Y0142892D02*
X0129063Y0142892D01*
X0125017Y0142294D02*
X0187338Y0142294D01*
X0187338Y0141695D02*
X0125017Y0141695D01*
X0125017Y0141097D02*
X0187338Y0141097D01*
X0187338Y0140498D02*
X0125017Y0140498D01*
X0125017Y0139900D02*
X0187338Y0139900D01*
X0187338Y0139301D02*
X0125017Y0139301D01*
X0125017Y0138703D02*
X0187338Y0138703D01*
X0187338Y0138104D02*
X0125017Y0138104D01*
X0125017Y0137506D02*
X0187338Y0137506D01*
X0187338Y0136907D02*
X0125017Y0136907D01*
X0125017Y0136309D02*
X0187338Y0136309D01*
X0187338Y0135710D02*
X0165415Y0135710D01*
X0167649Y0135112D02*
X0187338Y0135112D01*
X0187338Y0134513D02*
X0169100Y0134513D01*
X0170136Y0133915D02*
X0187338Y0133915D01*
X0187338Y0133316D02*
X0171173Y0133316D01*
X0172210Y0132718D02*
X0187338Y0132718D01*
X0187338Y0132119D02*
X0172826Y0132119D01*
X0172252Y0132693D02*
X0172252Y0132693D01*
X0173425Y0131521D02*
X0187338Y0131521D01*
X0187338Y0130922D02*
X0174023Y0130922D01*
X0174622Y0130324D02*
X0187338Y0130324D01*
X0187338Y0129725D02*
X0175220Y0129725D01*
X0175634Y0129127D02*
X0187338Y0129127D01*
X0187338Y0128528D02*
X0175979Y0128528D01*
X0176325Y0127930D02*
X0187338Y0127930D01*
X0187338Y0127331D02*
X0176670Y0127331D01*
X0177016Y0126733D02*
X0187338Y0126733D01*
X0187338Y0126134D02*
X0177361Y0126134D01*
X0177592Y0125734D02*
X0177592Y0125734D01*
X0177645Y0125536D02*
X0187338Y0125536D01*
X0187338Y0124937D02*
X0177806Y0124937D01*
X0177966Y0124339D02*
X0187338Y0124339D01*
X0187338Y0123740D02*
X0178126Y0123740D01*
X0178287Y0123141D02*
X0187338Y0123141D01*
X0187338Y0122543D02*
X0178447Y0122543D01*
X0178608Y0121944D02*
X0187338Y0121944D01*
X0187338Y0121346D02*
X0178737Y0121346D01*
X0178737Y0120747D02*
X0187338Y0120747D01*
X0187338Y0120149D02*
X0178737Y0120149D01*
X0178737Y0119550D02*
X0187338Y0119550D01*
X0187338Y0118952D02*
X0178737Y0118952D01*
X0178737Y0118353D02*
X0187338Y0118353D01*
X0187338Y0117755D02*
X0181266Y0117755D01*
X0182146Y0117156D02*
X0187338Y0117156D01*
X0187338Y0116558D02*
X0182744Y0116558D01*
X0183050Y0115959D02*
X0187338Y0115959D01*
X0187338Y0115361D02*
X0183298Y0115361D01*
X0183437Y0114762D02*
X0187338Y0114762D01*
X0187338Y0114164D02*
X0183437Y0114164D01*
X0183437Y0113565D02*
X0187338Y0113565D01*
X0187338Y0112967D02*
X0183227Y0112967D01*
X0182979Y0112368D02*
X0187338Y0112368D01*
X0187338Y0111770D02*
X0182573Y0111770D01*
X0181974Y0111171D02*
X0187338Y0111171D01*
X0187338Y0110573D02*
X0180851Y0110573D01*
X0180313Y0108150D02*
X0181746Y0107556D01*
X0182843Y0106459D01*
X0183437Y0105025D01*
X0183437Y0103474D01*
X0182843Y0102040D01*
X0181746Y0100943D01*
X0180313Y0100350D01*
X0173561Y0100350D01*
X0172128Y0100943D01*
X0171031Y0102040D01*
X0170437Y0103474D01*
X0170437Y0105025D01*
X0171031Y0106459D01*
X0172128Y0107556D01*
X0173561Y0108150D01*
X0180313Y0108150D01*
X0181688Y0107580D02*
X0187338Y0107580D01*
X0187338Y0106982D02*
X0182320Y0106982D01*
X0182875Y0106383D02*
X0187338Y0106383D01*
X0187338Y0105785D02*
X0183123Y0105785D01*
X0183370Y0105186D02*
X0187338Y0105186D01*
X0187338Y0104588D02*
X0183437Y0104588D01*
X0183437Y0103989D02*
X0187338Y0103989D01*
X0187338Y0103391D02*
X0183402Y0103391D01*
X0183155Y0102792D02*
X0187338Y0102792D01*
X0187338Y0102194D02*
X0182907Y0102194D01*
X0182398Y0101595D02*
X0187338Y0101595D01*
X0187338Y0100997D02*
X0181799Y0100997D01*
X0180430Y0100398D02*
X0187338Y0100398D01*
X0187338Y0099800D02*
X0159477Y0099800D01*
X0158879Y0100398D02*
X0173444Y0100398D01*
X0172075Y0100997D02*
X0158280Y0100997D01*
X0157682Y0101595D02*
X0171476Y0101595D01*
X0170967Y0102194D02*
X0157332Y0102194D01*
X0157671Y0101605D02*
X0155818Y0104816D01*
X0155226Y0107024D01*
X0156837Y0108634D01*
X0156837Y0111865D01*
X0154552Y0114150D01*
X0151322Y0114150D01*
X0149037Y0111865D01*
X0149037Y0108634D01*
X0151322Y0106350D01*
X0151554Y0106350D01*
X0152350Y0103379D01*
X0154693Y0099320D01*
X0158008Y0096006D01*
X0162066Y0093663D01*
X0162066Y0093663D01*
X0166594Y0092450D01*
X0170861Y0092450D01*
X0171031Y0092040D01*
X0172128Y0090943D01*
X0173561Y0090350D01*
X0180313Y0090350D01*
X0181746Y0090943D01*
X0182843Y0092040D01*
X0183437Y0093474D01*
X0183437Y0095025D01*
X0182843Y0096459D01*
X0181746Y0097556D01*
X0180313Y0098150D01*
X0173561Y0098150D01*
X0172128Y0097556D01*
X0171031Y0096459D01*
X0170861Y0096050D01*
X0168937Y0096050D01*
X0167084Y0096171D01*
X0163503Y0097131D01*
X0160293Y0098984D01*
X0157671Y0101605D01*
X0156986Y0102792D02*
X0170719Y0102792D01*
X0170471Y0103391D02*
X0156641Y0103391D01*
X0156295Y0103989D02*
X0170437Y0103989D01*
X0170437Y0104588D02*
X0155949Y0104588D01*
X0155719Y0105186D02*
X0170504Y0105186D01*
X0170752Y0105785D02*
X0155558Y0105785D01*
X0155398Y0106383D02*
X0170999Y0106383D01*
X0171554Y0106982D02*
X0155238Y0106982D01*
X0155783Y0107580D02*
X0172187Y0107580D01*
X0173023Y0110573D02*
X0156837Y0110573D01*
X0156837Y0111171D02*
X0171900Y0111171D01*
X0171301Y0111770D02*
X0156837Y0111770D01*
X0156334Y0112368D02*
X0170895Y0112368D01*
X0170647Y0112967D02*
X0155735Y0112967D01*
X0155137Y0113565D02*
X0170437Y0113565D01*
X0175078Y0120149D02*
X0138848Y0120149D01*
X0138738Y0120085D02*
X0139034Y0120257D01*
X0139276Y0120499D01*
X0139448Y0120795D01*
X0139536Y0121126D01*
X0139536Y0123950D01*
X0135977Y0123950D01*
X0135977Y0119997D01*
X0138407Y0119997D01*
X0138738Y0120085D01*
X0139420Y0120747D02*
X0175039Y0120747D01*
X0174924Y0121346D02*
X0139536Y0121346D01*
X0139536Y0121944D02*
X0174764Y0121944D01*
X0174603Y0122543D02*
X0139536Y0122543D01*
X0139536Y0123141D02*
X0174443Y0123141D01*
X0174283Y0123740D02*
X0139536Y0123740D01*
X0139536Y0124550D02*
X0139536Y0127374D01*
X0139448Y0127704D01*
X0139276Y0128001D01*
X0139034Y0128243D01*
X0138738Y0128414D01*
X0138407Y0128502D01*
X0135977Y0128502D01*
X0135977Y0124550D01*
X0139536Y0124550D01*
X0139536Y0124937D02*
X0173765Y0124937D01*
X0174111Y0124339D02*
X0135977Y0124339D01*
X0135977Y0124937D02*
X0135377Y0124937D01*
X0135377Y0125536D02*
X0135977Y0125536D01*
X0135977Y0126134D02*
X0135377Y0126134D01*
X0135377Y0126733D02*
X0135977Y0126733D01*
X0135977Y0127331D02*
X0135377Y0127331D01*
X0135377Y0127930D02*
X0135977Y0127930D01*
X0139317Y0127930D02*
X0171765Y0127930D01*
X0171166Y0128528D02*
X0125017Y0128528D01*
X0125017Y0129127D02*
X0170568Y0129127D01*
X0169967Y0129725D02*
X0125017Y0129725D01*
X0125017Y0130324D02*
X0168930Y0130324D01*
X0167894Y0130922D02*
X0125017Y0130922D01*
X0125017Y0131521D02*
X0166706Y0131521D01*
X0164472Y0132119D02*
X0125017Y0132119D01*
X0118857Y0134513D02*
X0077237Y0134513D01*
X0077237Y0133915D02*
X0076637Y0133915D01*
X0076637Y0134513D02*
X0060937Y0134513D01*
X0060937Y0133915D02*
X0070039Y0133915D01*
X0070134Y0133316D02*
X0060937Y0133316D01*
X0060937Y0132718D02*
X0070324Y0132718D01*
X0070621Y0132119D02*
X0060937Y0132119D01*
X0060937Y0131521D02*
X0071068Y0131521D01*
X0071742Y0130922D02*
X0060937Y0130922D01*
X0060937Y0130324D02*
X0072952Y0130324D01*
X0076637Y0130324D02*
X0077237Y0130324D01*
X0077237Y0130922D02*
X0076637Y0130922D01*
X0076637Y0131521D02*
X0077237Y0131521D01*
X0077237Y0132119D02*
X0076637Y0132119D01*
X0076637Y0132718D02*
X0077237Y0132718D01*
X0077237Y0133316D02*
X0076637Y0133316D01*
X0076637Y0135112D02*
X0077237Y0135112D01*
X0077237Y0135710D02*
X0076637Y0135710D01*
X0076637Y0136309D02*
X0077237Y0136309D01*
X0077237Y0136907D02*
X0076637Y0136907D01*
X0076637Y0137506D02*
X0077237Y0137506D01*
X0077237Y0138104D02*
X0076637Y0138104D01*
X0076637Y0140498D02*
X0077237Y0140498D01*
X0077237Y0141097D02*
X0076637Y0141097D01*
X0076637Y0141695D02*
X0077237Y0141695D01*
X0077237Y0142294D02*
X0076637Y0142294D01*
X0076637Y0142892D02*
X0077237Y0142892D01*
X0077237Y0144688D02*
X0076637Y0144688D01*
X0076637Y0145286D02*
X0077237Y0145286D01*
X0077237Y0145885D02*
X0076637Y0145885D01*
X0076637Y0146483D02*
X0077237Y0146483D01*
X0077237Y0147082D02*
X0076637Y0147082D01*
X0076637Y0147680D02*
X0077237Y0147680D01*
X0077237Y0148279D02*
X0076637Y0148279D01*
X0080506Y0148279D02*
X0085332Y0148279D01*
X0084734Y0148877D02*
X0060937Y0148877D01*
X0060937Y0148279D02*
X0073368Y0148279D01*
X0071884Y0147680D02*
X0060937Y0147680D01*
X0060937Y0147082D02*
X0071171Y0147082D01*
X0070692Y0146483D02*
X0060937Y0146483D01*
X0060937Y0145885D02*
X0070369Y0145885D01*
X0070163Y0145286D02*
X0060937Y0145286D01*
X0060937Y0144688D02*
X0070055Y0144688D01*
X0072732Y0138104D02*
X0060937Y0138104D01*
X0060937Y0137506D02*
X0071643Y0137506D01*
X0071000Y0136907D02*
X0060937Y0136907D01*
X0060937Y0136309D02*
X0070585Y0136309D01*
X0070301Y0135710D02*
X0060937Y0135710D01*
X0060937Y0135112D02*
X0070122Y0135112D01*
X0060937Y0138703D02*
X0118857Y0138703D01*
X0118857Y0139301D02*
X0060937Y0139301D01*
X0060937Y0123740D02*
X0104338Y0123740D01*
X0104338Y0123141D02*
X0060937Y0123141D01*
X0060937Y0122543D02*
X0104338Y0122543D01*
X0104338Y0121944D02*
X0060937Y0121944D01*
X0060937Y0121346D02*
X0104338Y0121346D01*
X0104454Y0120747D02*
X0060937Y0120747D01*
X0060937Y0120149D02*
X0105026Y0120149D01*
X0107897Y0124937D02*
X0108497Y0124937D01*
X0108497Y0125536D02*
X0107897Y0125536D01*
X0107897Y0126134D02*
X0108497Y0126134D01*
X0108497Y0126733D02*
X0107897Y0126733D01*
X0107897Y0127331D02*
X0108497Y0127331D01*
X0108497Y0127930D02*
X0107897Y0127930D01*
X0111837Y0127930D02*
X0112007Y0127930D01*
X0118857Y0141097D02*
X0082373Y0141097D01*
X0082949Y0141695D02*
X0118857Y0141695D01*
X0118857Y0142294D02*
X0083342Y0142294D01*
X0083607Y0142892D02*
X0104888Y0142892D01*
X0104097Y0143491D02*
X0083768Y0143491D01*
X0083505Y0145885D02*
X0089461Y0145885D01*
X0088017Y0146483D02*
X0083182Y0146483D01*
X0082703Y0147082D02*
X0086572Y0147082D01*
X0085931Y0147680D02*
X0081990Y0147680D01*
X0082295Y0149476D02*
X0084135Y0149476D01*
X0083691Y0150075D02*
X0082737Y0150075D01*
X0082737Y0150673D02*
X0083443Y0150673D01*
X0083195Y0151272D02*
X0082737Y0151272D01*
X0082737Y0151870D02*
X0082947Y0151870D01*
X0082874Y0158454D02*
X0082737Y0158454D01*
X0082737Y0159052D02*
X0083122Y0159052D01*
X0083370Y0159651D02*
X0082737Y0159651D01*
X0082737Y0160249D02*
X0083618Y0160249D01*
X0083960Y0160848D02*
X0082737Y0160848D01*
X0082737Y0161446D02*
X0084558Y0161446D01*
X0085157Y0162045D02*
X0082737Y0162045D01*
X0082737Y0162643D02*
X0085755Y0162643D01*
X0086354Y0163242D02*
X0082737Y0163242D01*
X0082737Y0163840D02*
X0087593Y0163840D01*
X0089038Y0164439D02*
X0082737Y0164439D01*
X0082737Y0165037D02*
X0187338Y0165037D01*
X0187338Y0164439D02*
X0094836Y0164439D01*
X0096281Y0163840D02*
X0187338Y0163840D01*
X0187338Y0163242D02*
X0097520Y0163242D01*
X0098119Y0162643D02*
X0187338Y0162643D01*
X0187338Y0162045D02*
X0098717Y0162045D01*
X0099316Y0161446D02*
X0187338Y0161446D01*
X0187338Y0160848D02*
X0099914Y0160848D01*
X0100256Y0160249D02*
X0187338Y0160249D01*
X0187338Y0159651D02*
X0100504Y0159651D01*
X0100752Y0159052D02*
X0187338Y0159052D01*
X0187338Y0158454D02*
X0101000Y0158454D01*
X0101248Y0157855D02*
X0187338Y0157855D01*
X0187338Y0157257D02*
X0101496Y0157257D01*
X0106637Y0156060D02*
X0107237Y0156060D01*
X0107237Y0156150D02*
X0107237Y0149550D01*
X0106637Y0149550D01*
X0106637Y0148950D01*
X0107237Y0148950D01*
X0107237Y0149550D01*
X0111037Y0149550D01*
X0111037Y0152372D01*
X0110936Y0153010D01*
X0110737Y0153623D01*
X0110444Y0154199D01*
X0110064Y0154721D01*
X0109608Y0155177D01*
X0109086Y0155556D01*
X0108511Y0155849D01*
X0107897Y0156049D01*
X0107260Y0156150D01*
X0107237Y0156150D01*
X0107828Y0156060D02*
X0115904Y0156060D01*
X0114550Y0155461D02*
X0109217Y0155461D01*
X0109922Y0154863D02*
X0113952Y0154863D01*
X0113416Y0154264D02*
X0110396Y0154264D01*
X0110715Y0153666D02*
X0113169Y0153666D01*
X0112921Y0153067D02*
X0110917Y0153067D01*
X0111022Y0152469D02*
X0112837Y0152469D01*
X0112837Y0151870D02*
X0111037Y0151870D01*
X0111037Y0151272D02*
X0112837Y0151272D01*
X0112837Y0150673D02*
X0111037Y0150673D01*
X0111037Y0150075D02*
X0112837Y0150075D01*
X0112837Y0149476D02*
X0107237Y0149476D01*
X0107237Y0148950D02*
X0111037Y0148950D01*
X0111037Y0146127D01*
X0110936Y0145490D01*
X0110737Y0144876D01*
X0110444Y0144301D01*
X0110064Y0143779D01*
X0109608Y0143322D01*
X0109086Y0142943D01*
X0108511Y0142650D01*
X0107897Y0142451D01*
X0107260Y0142350D01*
X0107237Y0142350D01*
X0107237Y0148950D01*
X0107237Y0148877D02*
X0106637Y0148877D01*
X0106637Y0148279D02*
X0107237Y0148279D01*
X0107237Y0147680D02*
X0106637Y0147680D01*
X0106637Y0147082D02*
X0107237Y0147082D01*
X0107237Y0146483D02*
X0106637Y0146483D01*
X0106637Y0145885D02*
X0107237Y0145885D01*
X0107237Y0145286D02*
X0106637Y0145286D01*
X0106637Y0144688D02*
X0107237Y0144688D01*
X0107237Y0144089D02*
X0106637Y0144089D01*
X0106637Y0143491D02*
X0107237Y0143491D01*
X0107237Y0142892D02*
X0106637Y0142892D01*
X0108986Y0142892D02*
X0114811Y0142892D01*
X0114098Y0143491D02*
X0109777Y0143491D01*
X0110290Y0144089D02*
X0113499Y0144089D01*
X0113229Y0144688D02*
X0110641Y0144688D01*
X0110870Y0145286D02*
X0112981Y0145286D01*
X0112837Y0145885D02*
X0110999Y0145885D01*
X0111037Y0146483D02*
X0112837Y0146483D01*
X0112837Y0147082D02*
X0111037Y0147082D01*
X0111037Y0147680D02*
X0112837Y0147680D01*
X0112837Y0148279D02*
X0111037Y0148279D01*
X0111037Y0148877D02*
X0112837Y0148877D01*
X0107237Y0150075D02*
X0106637Y0150075D01*
X0106637Y0150673D02*
X0107237Y0150673D01*
X0107237Y0151272D02*
X0106637Y0151272D01*
X0106637Y0151870D02*
X0107237Y0151870D01*
X0107237Y0152469D02*
X0106637Y0152469D01*
X0106637Y0153067D02*
X0107237Y0153067D01*
X0107237Y0153666D02*
X0106637Y0153666D01*
X0106637Y0154264D02*
X0107237Y0154264D01*
X0107237Y0154863D02*
X0106637Y0154863D01*
X0106637Y0155461D02*
X0107237Y0155461D01*
X0106637Y0149476D02*
X0099739Y0149476D01*
X0117970Y0156060D02*
X0125904Y0156060D01*
X0124550Y0155461D02*
X0119324Y0155461D01*
X0119922Y0154863D02*
X0123952Y0154863D01*
X0123416Y0154264D02*
X0120458Y0154264D01*
X0120705Y0153666D02*
X0123169Y0153666D01*
X0122921Y0153067D02*
X0120953Y0153067D01*
X0121037Y0152469D02*
X0122837Y0152469D01*
X0122837Y0151870D02*
X0121037Y0151870D01*
X0121037Y0151272D02*
X0122837Y0151272D01*
X0122837Y0150673D02*
X0121037Y0150673D01*
X0121037Y0150075D02*
X0122837Y0150075D01*
X0122837Y0149476D02*
X0121037Y0149476D01*
X0121037Y0148877D02*
X0122837Y0148877D01*
X0122837Y0148279D02*
X0121037Y0148279D01*
X0121037Y0147680D02*
X0122837Y0147680D01*
X0122837Y0147082D02*
X0121037Y0147082D01*
X0121239Y0146483D02*
X0122635Y0146483D01*
X0122190Y0145885D02*
X0121684Y0145885D01*
X0131867Y0127930D02*
X0132037Y0127930D01*
X0135377Y0123740D02*
X0135977Y0123740D01*
X0135977Y0123141D02*
X0135377Y0123141D01*
X0135377Y0122543D02*
X0135977Y0122543D01*
X0135977Y0121944D02*
X0135377Y0121944D01*
X0135377Y0121346D02*
X0135977Y0121346D01*
X0135977Y0120747D02*
X0135377Y0120747D01*
X0135377Y0120149D02*
X0135977Y0120149D01*
X0132506Y0120149D02*
X0131446Y0120149D01*
X0135137Y0113565D02*
X0150737Y0113565D01*
X0150139Y0112967D02*
X0135735Y0112967D01*
X0136334Y0112368D02*
X0149540Y0112368D01*
X0149037Y0111770D02*
X0136837Y0111770D01*
X0136837Y0111171D02*
X0149037Y0111171D01*
X0149037Y0110573D02*
X0136837Y0110573D01*
X0136837Y0109974D02*
X0149037Y0109974D01*
X0149037Y0109376D02*
X0136837Y0109376D01*
X0136837Y0108777D02*
X0149037Y0108777D01*
X0149493Y0108179D02*
X0136381Y0108179D01*
X0135783Y0107580D02*
X0150091Y0107580D01*
X0150690Y0106982D02*
X0135184Y0106982D01*
X0134586Y0106383D02*
X0151288Y0106383D01*
X0151705Y0105785D02*
X0128351Y0105785D01*
X0128051Y0105186D02*
X0151866Y0105186D01*
X0152026Y0104588D02*
X0127856Y0104588D01*
X0127662Y0103989D02*
X0152187Y0103989D01*
X0152347Y0103391D02*
X0127599Y0103391D01*
X0127576Y0102792D02*
X0152689Y0102792D01*
X0152350Y0103379D02*
X0152350Y0103379D01*
X0153034Y0102194D02*
X0127576Y0102194D01*
X0127576Y0101595D02*
X0153380Y0101595D01*
X0153726Y0100997D02*
X0127576Y0100997D01*
X0127863Y0100398D02*
X0154071Y0100398D01*
X0154417Y0099800D02*
X0127863Y0099800D01*
X0127863Y0099201D02*
X0154813Y0099201D01*
X0154693Y0099320D02*
X0154693Y0099320D01*
X0155411Y0098603D02*
X0127863Y0098603D01*
X0127863Y0098004D02*
X0156010Y0098004D01*
X0156608Y0097406D02*
X0127863Y0097406D01*
X0127863Y0096807D02*
X0157207Y0096807D01*
X0157805Y0096208D02*
X0127863Y0096208D01*
X0127863Y0095610D02*
X0158694Y0095610D01*
X0158008Y0096006D02*
X0158008Y0096006D01*
X0159730Y0095011D02*
X0127863Y0095011D01*
X0127436Y0094413D02*
X0160767Y0094413D01*
X0161804Y0093814D02*
X0125017Y0093814D01*
X0125017Y0093216D02*
X0142999Y0093216D01*
X0141707Y0092617D02*
X0125051Y0092617D01*
X0125292Y0092019D02*
X0141108Y0092019D01*
X0140598Y0091420D02*
X0125823Y0091420D01*
X0123074Y0089026D02*
X0120747Y0089026D01*
X0121345Y0088428D02*
X0123672Y0088428D01*
X0123810Y0088290D02*
X0123810Y0088290D01*
X0124922Y0087829D02*
X0121752Y0087829D01*
X0122000Y0087231D02*
X0140535Y0087231D01*
X0140956Y0086632D02*
X0122248Y0086632D01*
X0122457Y0086034D02*
X0141555Y0086034D01*
X0142487Y0085435D02*
X0122457Y0085435D01*
X0122457Y0084837D02*
X0142487Y0084837D01*
X0142637Y0084238D02*
X0127228Y0084238D01*
X0127765Y0083640D02*
X0142487Y0083640D01*
X0142487Y0083041D02*
X0127863Y0083041D01*
X0127863Y0082443D02*
X0141532Y0082443D01*
X0140933Y0081844D02*
X0127863Y0081844D01*
X0127863Y0081246D02*
X0140526Y0081246D01*
X0140278Y0080647D02*
X0127863Y0080647D01*
X0127863Y0080049D02*
X0140037Y0080049D01*
X0140037Y0079450D02*
X0127863Y0079450D01*
X0127863Y0078852D02*
X0140037Y0078852D01*
X0140112Y0078253D02*
X0127863Y0078253D01*
X0127636Y0077655D02*
X0140360Y0077655D01*
X0140608Y0077056D02*
X0122457Y0077056D01*
X0122457Y0076458D02*
X0141131Y0076458D01*
X0141729Y0075859D02*
X0122457Y0075859D01*
X0122457Y0075261D02*
X0143054Y0075261D01*
X0150820Y0075261D02*
X0159915Y0075261D01*
X0160096Y0074662D02*
X0122457Y0074662D01*
X0122457Y0074064D02*
X0160137Y0074064D01*
X0160137Y0073465D02*
X0122457Y0073465D01*
X0122457Y0072867D02*
X0160137Y0072867D01*
X0160137Y0072268D02*
X0122457Y0072268D01*
X0122457Y0071670D02*
X0160137Y0071670D01*
X0160137Y0071071D02*
X0122457Y0071071D01*
X0122457Y0070473D02*
X0160137Y0070473D01*
X0160137Y0069874D02*
X0122457Y0069874D01*
X0122457Y0069275D02*
X0160137Y0069275D01*
X0160137Y0068677D02*
X0122457Y0068677D01*
X0122457Y0068078D02*
X0160137Y0068078D01*
X0160137Y0067480D02*
X0122457Y0067480D01*
X0122457Y0066881D02*
X0160137Y0066881D01*
X0160137Y0066283D02*
X0140994Y0066283D01*
X0141190Y0065684D02*
X0160137Y0065684D01*
X0160137Y0065086D02*
X0141190Y0065086D01*
X0141190Y0061190D02*
X0147776Y0061190D01*
X0148384Y0060874D01*
X0149183Y0060093D01*
X0148461Y0059372D01*
X0147837Y0057865D01*
X0147837Y0050634D01*
X0148461Y0049127D01*
X0149615Y0047974D01*
X0151121Y0047350D01*
X0152753Y0047350D01*
X0154259Y0047974D01*
X0155413Y0049127D01*
X0155691Y0049800D01*
X0156775Y0049800D01*
X0156937Y0049961D01*
X0157099Y0049800D01*
X0158183Y0049800D01*
X0158461Y0049127D01*
X0159615Y0047974D01*
X0159789Y0047902D01*
X0159775Y0047855D01*
X0158964Y0046866D01*
X0157836Y0046263D01*
X0157757Y0046247D01*
X0157733Y0046262D01*
X0157104Y0046127D01*
X0156464Y0046063D01*
X0156452Y0046050D01*
X0129725Y0046050D01*
X0127485Y0045122D01*
X0125771Y0043407D01*
X0124843Y0041168D01*
X0124843Y0040066D01*
X0124314Y0039537D01*
X0124314Y0030991D01*
X0123135Y0030503D01*
X0122583Y0029952D01*
X0122583Y0038947D01*
X0121822Y0039708D01*
X0110902Y0039708D01*
X0110141Y0038947D01*
X0110141Y0029208D01*
X0110902Y0028447D01*
X0121447Y0028447D01*
X0120936Y0027212D01*
X0120936Y0025195D01*
X0121128Y0024732D01*
X0117616Y0024732D01*
X0117440Y0024556D01*
X0117440Y0018842D01*
X0110902Y0018842D01*
X0110141Y0018081D01*
X0110141Y0008342D01*
X0110902Y0007581D01*
X0117440Y0007581D01*
X0117440Y0007550D01*
X0060937Y0007550D01*
X0060937Y0031690D01*
X0061613Y0031013D01*
X0061613Y0029858D01*
X0062908Y0025875D01*
X0065369Y0022487D01*
X0065369Y0022487D01*
X0065369Y0022487D01*
X0068757Y0020025D01*
X0068757Y0020025D01*
X0070934Y0019318D01*
X0070934Y0018916D01*
X0073219Y0016631D01*
X0076449Y0016631D01*
X0078734Y0018916D01*
X0078734Y0022146D01*
X0076449Y0024431D01*
X0073219Y0024431D01*
X0071750Y0022962D01*
X0070466Y0023380D01*
X0068031Y0025149D01*
X0066262Y0027584D01*
X0065332Y0030447D01*
X0065282Y0031082D01*
X0067129Y0032929D01*
X0070246Y0032929D01*
X0070661Y0031927D01*
X0071815Y0030774D01*
X0073321Y0030150D01*
X0080553Y0030150D01*
X0082059Y0030774D01*
X0083213Y0031927D01*
X0083837Y0033434D01*
X0083837Y0035065D01*
X0083213Y0036572D01*
X0082059Y0037725D01*
X0081387Y0038004D01*
X0081387Y0039088D01*
X0081225Y0039250D01*
X0081387Y0039411D01*
X0081387Y0040495D01*
X0082059Y0040774D01*
X0083213Y0041927D01*
X0083837Y0043434D01*
X0083837Y0045065D01*
X0083213Y0046572D01*
X0082059Y0047725D01*
X0080553Y0048350D01*
X0073321Y0048350D01*
X0071815Y0047725D01*
X0070661Y0046572D01*
X0070037Y0045065D01*
X0070037Y0043434D01*
X0070661Y0041927D01*
X0071815Y0040774D01*
X0072487Y0040495D01*
X0072487Y0039411D01*
X0072649Y0039250D01*
X0072487Y0039088D01*
X0072487Y0038004D01*
X0071815Y0037725D01*
X0070661Y0036572D01*
X0070643Y0036529D01*
X0067129Y0036529D01*
X0065029Y0038629D01*
X0061798Y0038629D01*
X0060937Y0037768D01*
X0060937Y0051690D01*
X0061798Y0050829D01*
X0063113Y0050829D01*
X0063113Y0054429D01*
X0063713Y0054429D01*
X0063713Y0055029D01*
X0063113Y0055029D01*
X0063113Y0058629D01*
X0061798Y0058629D01*
X0060937Y0057768D01*
X0060937Y0069970D01*
X0067231Y0069970D01*
X0069252Y0070807D01*
X0070800Y0072355D01*
X0070839Y0072450D01*
X0088237Y0072450D01*
X0088237Y0071111D01*
X0088999Y0070350D01*
X0094875Y0070350D01*
X0095637Y0071111D01*
X0095637Y0072450D01*
X0104684Y0072450D01*
X0104684Y0069892D01*
X0105365Y0069212D01*
X0105186Y0069109D01*
X0104944Y0068867D01*
X0104773Y0068570D01*
X0104684Y0068240D01*
X0104684Y0065809D01*
X0108637Y0065809D01*
X0108637Y0065210D01*
X0104684Y0065210D01*
X0104684Y0062779D01*
X0104773Y0062449D01*
X0104944Y0062152D01*
X0105186Y0061910D01*
X0105482Y0061739D01*
X0105813Y0061650D01*
X0108637Y0061650D01*
X0108637Y0065209D01*
X0109237Y0065209D01*
X0109237Y0061650D01*
X0112061Y0061650D01*
X0112392Y0061739D01*
X0112688Y0061910D01*
X0112930Y0062152D01*
X0113101Y0062449D01*
X0113190Y0062779D01*
X0113190Y0065210D01*
X0109237Y0065210D01*
X0109237Y0065809D01*
X0113190Y0065809D01*
X0113190Y0068240D01*
X0113101Y0068570D01*
X0112930Y0068867D01*
X0112688Y0069109D01*
X0112509Y0069212D01*
X0113190Y0069892D01*
X0113190Y0071627D01*
X0114728Y0072126D01*
X0117180Y0073908D01*
X0118857Y0076217D01*
X0118857Y0066849D01*
X0118446Y0066849D01*
X0117684Y0066087D01*
X0117684Y0064750D01*
X0117024Y0064662D01*
X0114614Y0063473D01*
X0114046Y0062904D01*
X0113845Y0062863D01*
X0113535Y0062393D01*
X0113137Y0061995D01*
X0113137Y0061790D01*
X0105475Y0050170D01*
X0102301Y0050170D01*
X0101539Y0049408D01*
X0101539Y0043531D01*
X0102301Y0042770D01*
X0108178Y0042770D01*
X0108939Y0043531D01*
X0108939Y0048884D01*
X0116310Y0060062D01*
X0116776Y0060457D01*
X0117684Y0060906D01*
X0117684Y0059892D01*
X0118365Y0059212D01*
X0118186Y0059109D01*
X0117944Y0058867D01*
X0117773Y0058570D01*
X0117684Y0058240D01*
X0117684Y0055809D01*
X0121637Y0055809D01*
X0121637Y0055210D01*
X0117684Y0055210D01*
X0117684Y0052779D01*
X0117773Y0052449D01*
X0117944Y0052152D01*
X0118186Y0051910D01*
X0118482Y0051739D01*
X0118813Y0051650D01*
X0121637Y0051650D01*
X0121637Y0055209D01*
X0122237Y0055209D01*
X0122237Y0051650D01*
X0125061Y0051650D01*
X0125392Y0051739D01*
X0125688Y0051910D01*
X0125930Y0052152D01*
X0126101Y0052449D01*
X0126190Y0052779D01*
X0126190Y0055210D01*
X0122237Y0055210D01*
X0122237Y0055809D01*
X0126190Y0055809D01*
X0126190Y0058240D01*
X0126101Y0058570D01*
X0125930Y0058867D01*
X0125688Y0059109D01*
X0125509Y0059212D01*
X0126190Y0059892D01*
X0126190Y0061190D01*
X0132684Y0061190D01*
X0132684Y0059892D01*
X0133365Y0059212D01*
X0133186Y0059109D01*
X0132944Y0058867D01*
X0132773Y0058570D01*
X0132684Y0058240D01*
X0132684Y0055809D01*
X0136637Y0055809D01*
X0136637Y0055210D01*
X0132684Y0055210D01*
X0132684Y0052779D01*
X0132773Y0052449D01*
X0132944Y0052152D01*
X0133186Y0051910D01*
X0133482Y0051739D01*
X0133813Y0051650D01*
X0136637Y0051650D01*
X0136637Y0055209D01*
X0137237Y0055209D01*
X0137237Y0051650D01*
X0140061Y0051650D01*
X0140392Y0051739D01*
X0140688Y0051910D01*
X0140930Y0052152D01*
X0141101Y0052449D01*
X0141190Y0052779D01*
X0141190Y0055210D01*
X0137237Y0055210D01*
X0137237Y0055809D01*
X0141190Y0055809D01*
X0141190Y0058240D01*
X0141101Y0058570D01*
X0140930Y0058867D01*
X0140688Y0059109D01*
X0140509Y0059212D01*
X0141190Y0059892D01*
X0141190Y0061190D01*
X0141190Y0060896D02*
X0148341Y0060896D01*
X0148973Y0060298D02*
X0141190Y0060298D01*
X0140997Y0059699D02*
X0148788Y0059699D01*
X0148349Y0059101D02*
X0140696Y0059101D01*
X0141119Y0058502D02*
X0148101Y0058502D01*
X0147853Y0057904D02*
X0141190Y0057904D01*
X0141190Y0057305D02*
X0147837Y0057305D01*
X0147837Y0056707D02*
X0141190Y0056707D01*
X0141190Y0056108D02*
X0147837Y0056108D01*
X0147837Y0055510D02*
X0137237Y0055510D01*
X0137237Y0054911D02*
X0136637Y0054911D01*
X0136637Y0054313D02*
X0137237Y0054313D01*
X0137237Y0053714D02*
X0136637Y0053714D01*
X0136637Y0053116D02*
X0137237Y0053116D01*
X0137237Y0052517D02*
X0136637Y0052517D01*
X0136637Y0051919D02*
X0137237Y0051919D01*
X0133178Y0051919D02*
X0125696Y0051919D01*
X0126120Y0052517D02*
X0132754Y0052517D01*
X0132684Y0053116D02*
X0126190Y0053116D01*
X0126190Y0053714D02*
X0132684Y0053714D01*
X0132684Y0054313D02*
X0126190Y0054313D01*
X0126190Y0054911D02*
X0132684Y0054911D01*
X0132684Y0056108D02*
X0126190Y0056108D01*
X0126190Y0056707D02*
X0132684Y0056707D01*
X0132684Y0057305D02*
X0126190Y0057305D01*
X0126190Y0057904D02*
X0132684Y0057904D01*
X0132755Y0058502D02*
X0126119Y0058502D01*
X0125696Y0059101D02*
X0133178Y0059101D01*
X0132877Y0059699D02*
X0125997Y0059699D01*
X0126190Y0060298D02*
X0132684Y0060298D01*
X0132684Y0060896D02*
X0126190Y0060896D01*
X0126190Y0065086D02*
X0132684Y0065086D01*
X0132684Y0065684D02*
X0126190Y0065684D01*
X0125994Y0066283D02*
X0132880Y0066283D01*
X0136637Y0055510D02*
X0122237Y0055510D01*
X0122237Y0054911D02*
X0121637Y0054911D01*
X0121637Y0054313D02*
X0122237Y0054313D01*
X0122237Y0053714D02*
X0121637Y0053714D01*
X0121637Y0053116D02*
X0122237Y0053116D01*
X0122237Y0052517D02*
X0121637Y0052517D01*
X0121637Y0051919D02*
X0122237Y0051919D01*
X0121637Y0055510D02*
X0113308Y0055510D01*
X0113703Y0056108D02*
X0117684Y0056108D01*
X0117684Y0056707D02*
X0114098Y0056707D01*
X0114492Y0057305D02*
X0117684Y0057305D01*
X0117684Y0057904D02*
X0114887Y0057904D01*
X0115282Y0058502D02*
X0117755Y0058502D01*
X0118178Y0059101D02*
X0115676Y0059101D01*
X0116071Y0059699D02*
X0117877Y0059699D01*
X0117684Y0060298D02*
X0116588Y0060298D01*
X0117665Y0060896D02*
X0117684Y0060896D01*
X0115458Y0063889D02*
X0113190Y0063889D01*
X0113190Y0064487D02*
X0116670Y0064487D01*
X0117024Y0064662D02*
X0117024Y0064662D01*
X0117684Y0065086D02*
X0113190Y0065086D01*
X0113190Y0066283D02*
X0117880Y0066283D01*
X0117684Y0065684D02*
X0109237Y0065684D01*
X0109237Y0065086D02*
X0108637Y0065086D01*
X0108637Y0065684D02*
X0095348Y0065684D01*
X0095216Y0066002D02*
X0094811Y0066608D01*
X0094296Y0067124D01*
X0093690Y0067529D01*
X0093016Y0067807D01*
X0092301Y0067950D01*
X0092237Y0067950D01*
X0092237Y0064550D01*
X0091637Y0064550D01*
X0091637Y0067950D01*
X0091573Y0067950D01*
X0090858Y0067807D01*
X0090184Y0067529D01*
X0089578Y0067124D01*
X0089063Y0066608D01*
X0088658Y0066002D01*
X0088379Y0065329D01*
X0088237Y0064614D01*
X0088237Y0064550D01*
X0091637Y0064550D01*
X0091637Y0063950D01*
X0088237Y0063950D01*
X0088237Y0063885D01*
X0088379Y0063170D01*
X0088658Y0062497D01*
X0089063Y0061891D01*
X0089578Y0061376D01*
X0090184Y0060971D01*
X0090858Y0060692D01*
X0091573Y0060550D01*
X0091637Y0060550D01*
X0091637Y0063950D01*
X0092237Y0063950D01*
X0092237Y0064550D01*
X0095637Y0064550D01*
X0095637Y0064614D01*
X0095495Y0065329D01*
X0095216Y0066002D01*
X0095028Y0066283D02*
X0104684Y0066283D01*
X0104684Y0066881D02*
X0094538Y0066881D01*
X0093762Y0067480D02*
X0104684Y0067480D01*
X0104684Y0068078D02*
X0060937Y0068078D01*
X0060937Y0067480D02*
X0090112Y0067480D01*
X0089336Y0066881D02*
X0060937Y0066881D01*
X0060937Y0066283D02*
X0088846Y0066283D01*
X0088526Y0065684D02*
X0060937Y0065684D01*
X0060937Y0065086D02*
X0088331Y0065086D01*
X0088237Y0063889D02*
X0060937Y0063889D01*
X0060937Y0064487D02*
X0091637Y0064487D01*
X0091637Y0063889D02*
X0092237Y0063889D01*
X0092237Y0063950D02*
X0092237Y0060550D01*
X0092301Y0060550D01*
X0093016Y0060692D01*
X0093690Y0060971D01*
X0094296Y0061376D01*
X0094811Y0061891D01*
X0095216Y0062497D01*
X0095495Y0063170D01*
X0095637Y0063885D01*
X0095637Y0063950D01*
X0092237Y0063950D01*
X0092237Y0064487D02*
X0104684Y0064487D01*
X0104684Y0063889D02*
X0095637Y0063889D01*
X0095519Y0063290D02*
X0104684Y0063290D01*
X0104708Y0062692D02*
X0095297Y0062692D01*
X0094946Y0062093D02*
X0105003Y0062093D01*
X0104684Y0065086D02*
X0095543Y0065086D01*
X0092237Y0065086D02*
X0091637Y0065086D01*
X0091637Y0065684D02*
X0092237Y0065684D01*
X0092237Y0066283D02*
X0091637Y0066283D01*
X0091637Y0066881D02*
X0092237Y0066881D01*
X0092237Y0067480D02*
X0091637Y0067480D01*
X0088876Y0070473D02*
X0068444Y0070473D01*
X0069516Y0071071D02*
X0088277Y0071071D01*
X0088237Y0071670D02*
X0070115Y0071670D01*
X0070713Y0072268D02*
X0088237Y0072268D01*
X0088237Y0076458D02*
X0071637Y0076458D01*
X0071433Y0077056D02*
X0088305Y0077056D01*
X0088904Y0077655D02*
X0071185Y0077655D01*
X0070937Y0078253D02*
X0115714Y0078253D01*
X0115909Y0078852D02*
X0070534Y0078852D01*
X0069935Y0079450D02*
X0116011Y0079450D01*
X0116011Y0080049D02*
X0069337Y0080049D01*
X0068011Y0080647D02*
X0116011Y0080647D01*
X0116011Y0081246D02*
X0060937Y0081246D01*
X0060937Y0081844D02*
X0116011Y0081844D01*
X0116011Y0082443D02*
X0060937Y0082443D01*
X0060937Y0083041D02*
X0116011Y0083041D01*
X0116011Y0083640D02*
X0060937Y0083640D01*
X0061637Y0084238D02*
X0062237Y0084238D01*
X0062237Y0084837D02*
X0061637Y0084837D01*
X0061637Y0085435D02*
X0062237Y0085435D01*
X0062237Y0086034D02*
X0061637Y0086034D01*
X0061637Y0086632D02*
X0062237Y0086632D01*
X0062237Y0087231D02*
X0061637Y0087231D01*
X0061637Y0087829D02*
X0062237Y0087829D01*
X0062237Y0088428D02*
X0061637Y0088428D01*
X0068416Y0084238D02*
X0116590Y0084238D01*
X0120148Y0089625D02*
X0122475Y0089625D01*
X0122257Y0089843D02*
X0122257Y0089843D01*
X0122099Y0090223D02*
X0118823Y0090223D01*
X0120064Y0089709D02*
X0120064Y0089709D01*
X0125682Y0084238D02*
X0125869Y0084238D01*
X0125869Y0083640D02*
X0125682Y0083640D01*
X0125682Y0083041D02*
X0125869Y0083041D01*
X0125869Y0082443D02*
X0125682Y0082443D01*
X0125682Y0081844D02*
X0125869Y0081844D01*
X0125869Y0081246D02*
X0125682Y0081246D01*
X0125682Y0080647D02*
X0125869Y0080647D01*
X0125869Y0080049D02*
X0125682Y0080049D01*
X0125682Y0079450D02*
X0125869Y0079450D01*
X0125869Y0078852D02*
X0125682Y0078852D01*
X0125682Y0078253D02*
X0125869Y0078253D01*
X0125869Y0077655D02*
X0125682Y0077655D01*
X0118857Y0075859D02*
X0118598Y0075859D01*
X0118857Y0075261D02*
X0118163Y0075261D01*
X0117728Y0074662D02*
X0118857Y0074662D01*
X0118857Y0074064D02*
X0117293Y0074064D01*
X0117180Y0073908D02*
X0117180Y0073908D01*
X0116570Y0073465D02*
X0118857Y0073465D01*
X0118857Y0072867D02*
X0115746Y0072867D01*
X0114923Y0072268D02*
X0118857Y0072268D01*
X0118857Y0071670D02*
X0113321Y0071670D01*
X0113190Y0071071D02*
X0118857Y0071071D01*
X0118857Y0070473D02*
X0113190Y0070473D01*
X0113171Y0069874D02*
X0118857Y0069874D01*
X0118857Y0069275D02*
X0112573Y0069275D01*
X0113040Y0068677D02*
X0118857Y0068677D01*
X0118857Y0068078D02*
X0113190Y0068078D01*
X0113190Y0067480D02*
X0118857Y0067480D01*
X0118857Y0066881D02*
X0113190Y0066881D01*
X0109237Y0064487D02*
X0108637Y0064487D01*
X0108637Y0063889D02*
X0109237Y0063889D01*
X0109237Y0063290D02*
X0108637Y0063290D01*
X0108637Y0062692D02*
X0109237Y0062692D01*
X0109237Y0062093D02*
X0108637Y0062093D01*
X0111759Y0059699D02*
X0060937Y0059699D01*
X0060937Y0059101D02*
X0111364Y0059101D01*
X0110969Y0058502D02*
X0065155Y0058502D01*
X0065029Y0058629D02*
X0063713Y0058629D01*
X0063713Y0055029D01*
X0067313Y0055029D01*
X0067313Y0056344D01*
X0065029Y0058629D01*
X0065754Y0057904D02*
X0110575Y0057904D01*
X0110180Y0057305D02*
X0066352Y0057305D01*
X0066951Y0056707D02*
X0109785Y0056707D01*
X0109391Y0056108D02*
X0067313Y0056108D01*
X0067313Y0055510D02*
X0108996Y0055510D01*
X0108602Y0054911D02*
X0063713Y0054911D01*
X0063713Y0054429D02*
X0067313Y0054429D01*
X0067313Y0053113D01*
X0065029Y0050829D01*
X0063713Y0050829D01*
X0063713Y0054429D01*
X0063713Y0054313D02*
X0063113Y0054313D01*
X0063113Y0053714D02*
X0063713Y0053714D01*
X0063713Y0053116D02*
X0063113Y0053116D01*
X0063113Y0052517D02*
X0063713Y0052517D01*
X0063713Y0051919D02*
X0063113Y0051919D01*
X0063113Y0051320D02*
X0063713Y0051320D01*
X0065520Y0051320D02*
X0106234Y0051320D01*
X0106628Y0051919D02*
X0066119Y0051919D01*
X0066717Y0052517D02*
X0107023Y0052517D01*
X0107418Y0053116D02*
X0067313Y0053116D01*
X0067313Y0053714D02*
X0107812Y0053714D01*
X0108207Y0054313D02*
X0067313Y0054313D01*
X0063713Y0055510D02*
X0063113Y0055510D01*
X0063113Y0056108D02*
X0063713Y0056108D01*
X0063713Y0056707D02*
X0063113Y0056707D01*
X0063113Y0057305D02*
X0063713Y0057305D01*
X0063713Y0057904D02*
X0063113Y0057904D01*
X0063113Y0058502D02*
X0063713Y0058502D01*
X0061672Y0058502D02*
X0060937Y0058502D01*
X0060937Y0057904D02*
X0061073Y0057904D01*
X0060937Y0060298D02*
X0112153Y0060298D01*
X0112548Y0060896D02*
X0093510Y0060896D01*
X0094415Y0061495D02*
X0112943Y0061495D01*
X0112871Y0062093D02*
X0113235Y0062093D01*
X0113166Y0062692D02*
X0113732Y0062692D01*
X0113190Y0063290D02*
X0114432Y0063290D01*
X0114614Y0063473D02*
X0114614Y0063473D01*
X0112914Y0054911D02*
X0117684Y0054911D01*
X0117684Y0054313D02*
X0112519Y0054313D01*
X0112124Y0053714D02*
X0117684Y0053714D01*
X0117684Y0053116D02*
X0111730Y0053116D01*
X0111335Y0052517D02*
X0117754Y0052517D01*
X0118178Y0051919D02*
X0110940Y0051919D01*
X0110546Y0051320D02*
X0147837Y0051320D01*
X0147837Y0050722D02*
X0110151Y0050722D01*
X0109756Y0050123D02*
X0148049Y0050123D01*
X0148297Y0049525D02*
X0109362Y0049525D01*
X0108967Y0048926D02*
X0148662Y0048926D01*
X0149261Y0048328D02*
X0108939Y0048328D01*
X0108939Y0047729D02*
X0150205Y0047729D01*
X0153669Y0047729D02*
X0159672Y0047729D01*
X0159261Y0048328D02*
X0154613Y0048328D01*
X0155212Y0048926D02*
X0158662Y0048926D01*
X0158297Y0049525D02*
X0155577Y0049525D01*
X0158340Y0046532D02*
X0108939Y0046532D01*
X0108939Y0045934D02*
X0129444Y0045934D01*
X0128000Y0045335D02*
X0108939Y0045335D01*
X0108939Y0044737D02*
X0127100Y0044737D01*
X0127485Y0045122D02*
X0127485Y0045122D01*
X0126501Y0044138D02*
X0108939Y0044138D01*
X0108939Y0043539D02*
X0125903Y0043539D01*
X0125771Y0043407D02*
X0125771Y0043407D01*
X0125771Y0043407D01*
X0125577Y0042941D02*
X0108349Y0042941D01*
X0110544Y0039350D02*
X0081326Y0039350D01*
X0081387Y0039948D02*
X0124725Y0039948D01*
X0124843Y0040547D02*
X0081512Y0040547D01*
X0082431Y0041145D02*
X0124843Y0041145D01*
X0125081Y0041744D02*
X0083030Y0041744D01*
X0083385Y0042342D02*
X0125329Y0042342D01*
X0128534Y0040547D02*
X0187338Y0040547D01*
X0187338Y0041145D02*
X0128782Y0041145D01*
X0129266Y0041744D02*
X0187338Y0041744D01*
X0187338Y0042342D02*
X0156630Y0042342D01*
X0156572Y0042342D02*
X0130307Y0042342D01*
X0124314Y0039350D02*
X0122180Y0039350D01*
X0122583Y0038751D02*
X0124314Y0038751D01*
X0124314Y0038153D02*
X0122583Y0038153D01*
X0122583Y0037554D02*
X0124314Y0037554D01*
X0124314Y0036956D02*
X0122583Y0036956D01*
X0122583Y0036357D02*
X0124314Y0036357D01*
X0124314Y0035759D02*
X0122583Y0035759D01*
X0122583Y0035160D02*
X0124314Y0035160D01*
X0124314Y0034562D02*
X0122583Y0034562D01*
X0122583Y0033963D02*
X0124314Y0033963D01*
X0124314Y0033365D02*
X0122583Y0033365D01*
X0122583Y0032766D02*
X0124314Y0032766D01*
X0124314Y0032168D02*
X0122583Y0032168D01*
X0122583Y0031569D02*
X0124314Y0031569D01*
X0124264Y0030971D02*
X0122583Y0030971D01*
X0122583Y0030372D02*
X0123004Y0030372D01*
X0121253Y0027978D02*
X0100368Y0027978D01*
X0100121Y0028577D02*
X0110772Y0028577D01*
X0110174Y0029175D02*
X0099587Y0029175D01*
X0100075Y0028687D02*
X0097375Y0031387D01*
X0093846Y0032849D01*
X0090028Y0032849D01*
X0086499Y0031387D01*
X0083799Y0028687D01*
X0082338Y0025159D01*
X0082338Y0021340D01*
X0083799Y0017812D01*
X0086499Y0015112D01*
X0090028Y0013650D01*
X0093846Y0013650D01*
X0097375Y0015112D01*
X0100075Y0017812D01*
X0101536Y0021340D01*
X0101536Y0025159D01*
X0100075Y0028687D01*
X0100616Y0027380D02*
X0121005Y0027380D01*
X0120936Y0026781D02*
X0100864Y0026781D01*
X0101112Y0026183D02*
X0120936Y0026183D01*
X0120936Y0025584D02*
X0101360Y0025584D01*
X0101536Y0024986D02*
X0121023Y0024986D01*
X0117440Y0024387D02*
X0101536Y0024387D01*
X0101536Y0023789D02*
X0117440Y0023789D01*
X0117440Y0023190D02*
X0101536Y0023190D01*
X0101536Y0022592D02*
X0117440Y0022592D01*
X0117440Y0021993D02*
X0101536Y0021993D01*
X0101536Y0021395D02*
X0117440Y0021395D01*
X0117440Y0020796D02*
X0101311Y0020796D01*
X0101063Y0020198D02*
X0117440Y0020198D01*
X0117440Y0019599D02*
X0100815Y0019599D01*
X0100567Y0019001D02*
X0117440Y0019001D01*
X0110462Y0018402D02*
X0100319Y0018402D01*
X0100066Y0017804D02*
X0110141Y0017804D01*
X0110141Y0017205D02*
X0099468Y0017205D01*
X0098869Y0016606D02*
X0110141Y0016606D01*
X0110141Y0016008D02*
X0098271Y0016008D01*
X0097672Y0015409D02*
X0110141Y0015409D01*
X0110141Y0014811D02*
X0096648Y0014811D01*
X0095203Y0014212D02*
X0110141Y0014212D01*
X0110141Y0013614D02*
X0060937Y0013614D01*
X0060937Y0014212D02*
X0088671Y0014212D01*
X0087226Y0014811D02*
X0060937Y0014811D01*
X0060937Y0015409D02*
X0086202Y0015409D01*
X0085603Y0016008D02*
X0060937Y0016008D01*
X0060937Y0016606D02*
X0085005Y0016606D01*
X0084406Y0017205D02*
X0077023Y0017205D01*
X0077622Y0017804D02*
X0083808Y0017804D01*
X0083555Y0018402D02*
X0078220Y0018402D01*
X0078734Y0019001D02*
X0083307Y0019001D01*
X0083059Y0019599D02*
X0078734Y0019599D01*
X0078734Y0020198D02*
X0082811Y0020198D01*
X0082563Y0020796D02*
X0078734Y0020796D01*
X0078734Y0021395D02*
X0082338Y0021395D01*
X0082338Y0021993D02*
X0078734Y0021993D01*
X0078289Y0022592D02*
X0082338Y0022592D01*
X0082338Y0023190D02*
X0077690Y0023190D01*
X0077092Y0023789D02*
X0082338Y0023789D01*
X0082338Y0024387D02*
X0076493Y0024387D01*
X0073175Y0024387D02*
X0069080Y0024387D01*
X0069903Y0023789D02*
X0072576Y0023789D01*
X0071978Y0023190D02*
X0071050Y0023190D01*
X0068256Y0024986D02*
X0082338Y0024986D01*
X0082514Y0025584D02*
X0067715Y0025584D01*
X0067280Y0026183D02*
X0082762Y0026183D01*
X0083010Y0026781D02*
X0066845Y0026781D01*
X0066410Y0027380D02*
X0083258Y0027380D01*
X0083506Y0027978D02*
X0066134Y0027978D01*
X0065939Y0028577D02*
X0083753Y0028577D01*
X0084287Y0029175D02*
X0065745Y0029175D01*
X0065550Y0029774D02*
X0084886Y0029774D01*
X0085484Y0030372D02*
X0081090Y0030372D01*
X0082256Y0030971D02*
X0086083Y0030971D01*
X0086938Y0031569D02*
X0082855Y0031569D01*
X0083312Y0032168D02*
X0088383Y0032168D01*
X0089828Y0032766D02*
X0083560Y0032766D01*
X0083808Y0033365D02*
X0110141Y0033365D01*
X0110141Y0033963D02*
X0083837Y0033963D01*
X0083837Y0034562D02*
X0110141Y0034562D01*
X0110141Y0035160D02*
X0083798Y0035160D01*
X0083550Y0035759D02*
X0110141Y0035759D01*
X0110141Y0036357D02*
X0083302Y0036357D01*
X0082829Y0036956D02*
X0110141Y0036956D01*
X0110141Y0037554D02*
X0082231Y0037554D01*
X0081387Y0038153D02*
X0110141Y0038153D01*
X0110141Y0038751D02*
X0081387Y0038751D01*
X0083633Y0042941D02*
X0094290Y0042941D01*
X0094360Y0042912D02*
X0095075Y0042770D01*
X0095139Y0042770D01*
X0095139Y0046170D01*
X0091739Y0046170D01*
X0091739Y0046105D01*
X0091881Y0045391D01*
X0092160Y0044717D01*
X0092565Y0044111D01*
X0093080Y0043596D01*
X0093687Y0043191D01*
X0094360Y0042912D01*
X0095139Y0042941D02*
X0095739Y0042941D01*
X0095739Y0042770D02*
X0095804Y0042770D01*
X0096518Y0042912D01*
X0097192Y0043191D01*
X0097798Y0043596D01*
X0098313Y0044111D01*
X0098718Y0044717D01*
X0098997Y0045391D01*
X0099139Y0046105D01*
X0099139Y0046170D01*
X0095739Y0046170D01*
X0095739Y0046770D01*
X0095139Y0046770D01*
X0095139Y0050170D01*
X0095075Y0050170D01*
X0094360Y0050028D01*
X0093687Y0049749D01*
X0093080Y0049344D01*
X0092565Y0048828D01*
X0092160Y0048222D01*
X0091881Y0047549D01*
X0091739Y0046834D01*
X0091739Y0046770D01*
X0095139Y0046770D01*
X0095139Y0046170D01*
X0095739Y0046170D01*
X0095739Y0042770D01*
X0095739Y0043539D02*
X0095139Y0043539D01*
X0095139Y0044138D02*
X0095739Y0044138D01*
X0095739Y0044737D02*
X0095139Y0044737D01*
X0095139Y0045335D02*
X0095739Y0045335D01*
X0095739Y0045934D02*
X0095139Y0045934D01*
X0095139Y0046532D02*
X0083229Y0046532D01*
X0083477Y0045934D02*
X0091773Y0045934D01*
X0091904Y0045335D02*
X0083725Y0045335D01*
X0083837Y0044737D02*
X0092152Y0044737D01*
X0092547Y0044138D02*
X0083837Y0044138D01*
X0083837Y0043539D02*
X0093165Y0043539D01*
X0095739Y0046532D02*
X0101539Y0046532D01*
X0101539Y0045934D02*
X0099105Y0045934D01*
X0098974Y0045335D02*
X0101539Y0045335D01*
X0101539Y0044737D02*
X0098726Y0044737D01*
X0098331Y0044138D02*
X0101539Y0044138D01*
X0101539Y0043539D02*
X0097713Y0043539D01*
X0096588Y0042941D02*
X0102129Y0042941D01*
X0099139Y0046770D02*
X0099139Y0046834D01*
X0098997Y0047549D01*
X0098718Y0048222D01*
X0098313Y0048828D01*
X0097798Y0049344D01*
X0097192Y0049749D01*
X0096518Y0050028D01*
X0095804Y0050170D01*
X0095739Y0050170D01*
X0095739Y0046770D01*
X0099139Y0046770D01*
X0099080Y0047131D02*
X0101539Y0047131D01*
X0101539Y0047729D02*
X0098922Y0047729D01*
X0098648Y0048328D02*
X0101539Y0048328D01*
X0101539Y0048926D02*
X0098215Y0048926D01*
X0097527Y0049525D02*
X0101655Y0049525D01*
X0102254Y0050123D02*
X0096038Y0050123D01*
X0095739Y0050123D02*
X0095139Y0050123D01*
X0094840Y0050123D02*
X0060937Y0050123D01*
X0060937Y0049525D02*
X0093351Y0049525D01*
X0092663Y0048926D02*
X0060937Y0048926D01*
X0060937Y0048328D02*
X0073268Y0048328D01*
X0071823Y0047729D02*
X0060937Y0047729D01*
X0060937Y0047131D02*
X0071220Y0047131D01*
X0070645Y0046532D02*
X0060937Y0046532D01*
X0060937Y0045934D02*
X0070397Y0045934D01*
X0070149Y0045335D02*
X0060937Y0045335D01*
X0060937Y0044737D02*
X0070037Y0044737D01*
X0070037Y0044138D02*
X0060937Y0044138D01*
X0060937Y0043539D02*
X0070037Y0043539D01*
X0070241Y0042941D02*
X0060937Y0042941D01*
X0060937Y0042342D02*
X0070489Y0042342D01*
X0070844Y0041744D02*
X0060937Y0041744D01*
X0060937Y0041145D02*
X0071443Y0041145D01*
X0072362Y0040547D02*
X0060937Y0040547D01*
X0060937Y0039948D02*
X0072487Y0039948D01*
X0072548Y0039350D02*
X0060937Y0039350D01*
X0060937Y0038751D02*
X0072487Y0038751D01*
X0072487Y0038153D02*
X0065505Y0038153D01*
X0066103Y0037554D02*
X0071643Y0037554D01*
X0071045Y0036956D02*
X0066702Y0036956D01*
X0066966Y0032766D02*
X0070314Y0032766D01*
X0070562Y0032168D02*
X0066368Y0032168D01*
X0065769Y0031569D02*
X0071019Y0031569D01*
X0071618Y0030971D02*
X0065291Y0030971D01*
X0065356Y0030372D02*
X0072784Y0030372D01*
X0063988Y0024387D02*
X0060937Y0024387D01*
X0060937Y0023789D02*
X0064423Y0023789D01*
X0064858Y0023190D02*
X0060937Y0023190D01*
X0060937Y0022592D02*
X0065293Y0022592D01*
X0066049Y0021993D02*
X0060937Y0021993D01*
X0060937Y0021395D02*
X0066872Y0021395D01*
X0067696Y0020796D02*
X0060937Y0020796D01*
X0060937Y0020198D02*
X0068520Y0020198D01*
X0070069Y0019599D02*
X0060937Y0019599D01*
X0060937Y0019001D02*
X0070934Y0019001D01*
X0071448Y0018402D02*
X0060937Y0018402D01*
X0060937Y0017804D02*
X0072046Y0017804D01*
X0072645Y0017205D02*
X0060937Y0017205D01*
X0060937Y0013015D02*
X0110141Y0013015D01*
X0110141Y0012417D02*
X0060937Y0012417D01*
X0060937Y0011818D02*
X0110141Y0011818D01*
X0110141Y0011220D02*
X0060937Y0011220D01*
X0060937Y0010621D02*
X0110141Y0010621D01*
X0110141Y0010023D02*
X0060937Y0010023D01*
X0060937Y0009424D02*
X0110141Y0009424D01*
X0110141Y0008826D02*
X0060937Y0008826D01*
X0060937Y0008227D02*
X0110256Y0008227D01*
X0110854Y0007629D02*
X0060937Y0007629D01*
X0060937Y0024986D02*
X0063554Y0024986D01*
X0063119Y0025584D02*
X0060937Y0025584D01*
X0060937Y0026183D02*
X0062808Y0026183D01*
X0062908Y0025875D02*
X0062908Y0025875D01*
X0062613Y0026781D02*
X0060937Y0026781D01*
X0060937Y0027380D02*
X0062419Y0027380D01*
X0062224Y0027978D02*
X0060937Y0027978D01*
X0060937Y0028577D02*
X0062030Y0028577D01*
X0061835Y0029175D02*
X0060937Y0029175D01*
X0060937Y0029774D02*
X0061641Y0029774D01*
X0061613Y0030372D02*
X0060937Y0030372D01*
X0060937Y0030971D02*
X0061613Y0030971D01*
X0061057Y0031569D02*
X0060937Y0031569D01*
X0060937Y0038153D02*
X0061322Y0038153D01*
X0060937Y0050722D02*
X0105839Y0050722D01*
X0108939Y0047131D02*
X0159181Y0047131D01*
X0162446Y0045335D02*
X0187338Y0045335D01*
X0187338Y0044737D02*
X0161955Y0044737D01*
X0161464Y0044138D02*
X0187338Y0044138D01*
X0187338Y0043539D02*
X0160511Y0043539D01*
X0161335Y0043980D02*
X0161335Y0043980D01*
X0159393Y0042941D02*
X0187338Y0042941D01*
X0187338Y0039948D02*
X0141070Y0039948D01*
X0141433Y0039350D02*
X0143615Y0039350D01*
X0143211Y0038751D02*
X0141481Y0038751D01*
X0141481Y0038153D02*
X0143211Y0038153D01*
X0143211Y0037554D02*
X0141481Y0037554D01*
X0141481Y0036956D02*
X0143211Y0036956D01*
X0143211Y0036357D02*
X0141481Y0036357D01*
X0141481Y0035759D02*
X0143211Y0035759D01*
X0143211Y0035160D02*
X0139389Y0035160D01*
X0139389Y0035759D02*
X0139004Y0035759D01*
X0139004Y0036357D02*
X0139389Y0036357D01*
X0139389Y0036956D02*
X0139004Y0036956D01*
X0139004Y0037554D02*
X0139389Y0037554D01*
X0139389Y0038153D02*
X0139004Y0038153D01*
X0139004Y0038751D02*
X0139389Y0038751D01*
X0139389Y0039350D02*
X0139004Y0039350D01*
X0139004Y0039948D02*
X0139389Y0039948D01*
X0141481Y0034562D02*
X0143211Y0034562D01*
X0143211Y0033963D02*
X0141481Y0033963D01*
X0141481Y0033365D02*
X0143211Y0033365D01*
X0143211Y0032766D02*
X0141481Y0032766D01*
X0141481Y0032168D02*
X0143211Y0032168D01*
X0143211Y0031569D02*
X0141481Y0031569D01*
X0141531Y0030971D02*
X0143211Y0030971D01*
X0143211Y0030372D02*
X0142791Y0030372D01*
X0144541Y0027978D02*
X0187338Y0027978D01*
X0187338Y0027380D02*
X0144789Y0027380D01*
X0144859Y0026781D02*
X0187338Y0026781D01*
X0187338Y0026183D02*
X0144859Y0026183D01*
X0144859Y0025584D02*
X0187338Y0025584D01*
X0187338Y0024986D02*
X0144772Y0024986D01*
X0148355Y0024387D02*
X0187338Y0024387D01*
X0187338Y0023789D02*
X0148355Y0023789D01*
X0148355Y0023190D02*
X0187338Y0023190D01*
X0187338Y0022592D02*
X0148355Y0022592D01*
X0148355Y0021993D02*
X0187338Y0021993D01*
X0187338Y0021395D02*
X0148355Y0021395D01*
X0148355Y0020796D02*
X0187338Y0020796D01*
X0187338Y0020198D02*
X0148355Y0020198D01*
X0148355Y0019599D02*
X0187338Y0019599D01*
X0187338Y0019001D02*
X0148355Y0019001D01*
X0155333Y0018402D02*
X0187338Y0018402D01*
X0187338Y0017804D02*
X0155654Y0017804D01*
X0155654Y0017205D02*
X0187338Y0017205D01*
X0187338Y0016606D02*
X0155654Y0016606D01*
X0155654Y0016008D02*
X0187338Y0016008D01*
X0187338Y0015409D02*
X0155654Y0015409D01*
X0155654Y0014811D02*
X0187338Y0014811D01*
X0187338Y0014212D02*
X0155654Y0014212D01*
X0155654Y0013614D02*
X0187338Y0013614D01*
X0187338Y0013015D02*
X0155654Y0013015D01*
X0155654Y0012417D02*
X0187338Y0012417D01*
X0187338Y0011818D02*
X0155654Y0011818D01*
X0155654Y0011220D02*
X0187338Y0011220D01*
X0187338Y0010621D02*
X0155654Y0010621D01*
X0155654Y0010023D02*
X0187338Y0010023D01*
X0187338Y0009424D02*
X0155654Y0009424D01*
X0155654Y0008826D02*
X0187338Y0008826D01*
X0187338Y0008227D02*
X0155539Y0008227D01*
X0154941Y0007629D02*
X0187338Y0007629D01*
X0187338Y0028577D02*
X0155022Y0028577D01*
X0155621Y0029175D02*
X0187338Y0029175D01*
X0187338Y0029774D02*
X0155654Y0029774D01*
X0155654Y0030372D02*
X0187338Y0030372D01*
X0187338Y0030971D02*
X0155654Y0030971D01*
X0155654Y0031569D02*
X0187338Y0031569D01*
X0187338Y0032168D02*
X0155654Y0032168D01*
X0155654Y0032766D02*
X0187338Y0032766D01*
X0187338Y0033365D02*
X0155654Y0033365D01*
X0155654Y0033963D02*
X0187338Y0033963D01*
X0187338Y0034562D02*
X0155654Y0034562D01*
X0155654Y0035160D02*
X0187338Y0035160D01*
X0187338Y0035759D02*
X0155654Y0035759D01*
X0155654Y0036357D02*
X0187338Y0036357D01*
X0187338Y0036956D02*
X0155654Y0036956D01*
X0155654Y0037554D02*
X0187338Y0037554D01*
X0187338Y0038153D02*
X0155654Y0038153D01*
X0155654Y0038751D02*
X0187338Y0038751D01*
X0187338Y0039350D02*
X0155251Y0039350D01*
X0158922Y0042689D02*
X0158922Y0042689D01*
X0162936Y0045934D02*
X0187338Y0045934D01*
X0187338Y0046532D02*
X0163202Y0046532D01*
X0163383Y0047131D02*
X0187338Y0047131D01*
X0187338Y0047729D02*
X0163669Y0047729D01*
X0164613Y0048328D02*
X0187338Y0048328D01*
X0187338Y0048926D02*
X0165212Y0048926D01*
X0165577Y0049525D02*
X0187338Y0049525D01*
X0187338Y0050123D02*
X0165825Y0050123D01*
X0166037Y0050722D02*
X0187338Y0050722D01*
X0187338Y0051320D02*
X0166037Y0051320D01*
X0166037Y0051919D02*
X0187338Y0051919D01*
X0187338Y0052517D02*
X0166037Y0052517D01*
X0166037Y0053116D02*
X0187338Y0053116D01*
X0187338Y0053714D02*
X0166037Y0053714D01*
X0166037Y0054313D02*
X0187338Y0054313D01*
X0187338Y0054911D02*
X0166037Y0054911D01*
X0166037Y0055510D02*
X0187338Y0055510D01*
X0187338Y0056108D02*
X0166037Y0056108D01*
X0166037Y0056707D02*
X0187338Y0056707D01*
X0187338Y0057305D02*
X0166037Y0057305D01*
X0166021Y0057904D02*
X0187338Y0057904D01*
X0187338Y0058502D02*
X0165773Y0058502D01*
X0165525Y0059101D02*
X0187338Y0059101D01*
X0187338Y0059699D02*
X0165086Y0059699D01*
X0164487Y0060298D02*
X0187338Y0060298D01*
X0187338Y0060896D02*
X0181538Y0060896D01*
X0181384Y0060794D02*
X0182023Y0061220D01*
X0182566Y0061764D01*
X0182993Y0062402D01*
X0183287Y0063112D01*
X0183437Y0063866D01*
X0183437Y0063950D01*
X0177237Y0063950D01*
X0177237Y0064550D01*
X0176637Y0064550D01*
X0176637Y0068150D01*
X0173953Y0068150D01*
X0173199Y0068000D01*
X0172490Y0067706D01*
X0171851Y0067279D01*
X0171308Y0066736D01*
X0170881Y0066097D01*
X0170587Y0065387D01*
X0170437Y0064634D01*
X0170437Y0064550D01*
X0176637Y0064550D01*
X0176637Y0063950D01*
X0170437Y0063950D01*
X0170437Y0063866D01*
X0170587Y0063112D01*
X0170881Y0062402D01*
X0171308Y0061764D01*
X0171851Y0061220D01*
X0172490Y0060794D01*
X0173199Y0060500D01*
X0173953Y0060350D01*
X0176637Y0060350D01*
X0176637Y0063950D01*
X0177237Y0063950D01*
X0177237Y0060350D01*
X0179921Y0060350D01*
X0180675Y0060500D01*
X0181384Y0060794D01*
X0182298Y0061495D02*
X0187338Y0061495D01*
X0187338Y0062093D02*
X0182787Y0062093D01*
X0183113Y0062692D02*
X0187338Y0062692D01*
X0187338Y0063290D02*
X0183323Y0063290D01*
X0183437Y0063889D02*
X0187338Y0063889D01*
X0187338Y0064487D02*
X0177237Y0064487D01*
X0177237Y0064550D02*
X0183437Y0064550D01*
X0183437Y0064634D01*
X0183287Y0065387D01*
X0182993Y0066097D01*
X0182566Y0066736D01*
X0182023Y0067279D01*
X0181384Y0067706D01*
X0180675Y0068000D01*
X0179921Y0068150D01*
X0177237Y0068150D01*
X0177237Y0064550D01*
X0177237Y0065086D02*
X0176637Y0065086D01*
X0176637Y0065684D02*
X0177237Y0065684D01*
X0177237Y0066283D02*
X0176637Y0066283D01*
X0176637Y0066881D02*
X0177237Y0066881D01*
X0177237Y0067480D02*
X0176637Y0067480D01*
X0176637Y0068078D02*
X0177237Y0068078D01*
X0180279Y0068078D02*
X0187338Y0068078D01*
X0187338Y0067480D02*
X0181722Y0067480D01*
X0182421Y0066881D02*
X0187338Y0066881D01*
X0187338Y0066283D02*
X0182869Y0066283D01*
X0183164Y0065684D02*
X0187338Y0065684D01*
X0187338Y0065086D02*
X0183347Y0065086D01*
X0187338Y0068677D02*
X0163737Y0068677D01*
X0163737Y0069275D02*
X0187338Y0069275D01*
X0187338Y0069874D02*
X0163737Y0069874D01*
X0163737Y0070473D02*
X0173265Y0070473D01*
X0172000Y0071071D02*
X0163737Y0071071D01*
X0163737Y0071670D02*
X0171402Y0071670D01*
X0170936Y0072268D02*
X0163737Y0072268D01*
X0163737Y0068078D02*
X0173595Y0068078D01*
X0172152Y0067480D02*
X0163737Y0067480D01*
X0163737Y0066881D02*
X0171453Y0066881D01*
X0171005Y0066283D02*
X0163737Y0066283D01*
X0163737Y0065684D02*
X0170710Y0065684D01*
X0170527Y0065086D02*
X0163737Y0065086D01*
X0163737Y0064487D02*
X0176637Y0064487D01*
X0176637Y0063889D02*
X0177237Y0063889D01*
X0177237Y0063290D02*
X0176637Y0063290D01*
X0176637Y0062692D02*
X0177237Y0062692D01*
X0177237Y0062093D02*
X0176637Y0062093D01*
X0176637Y0061495D02*
X0177237Y0061495D01*
X0177237Y0060896D02*
X0176637Y0060896D01*
X0172336Y0060896D02*
X0163737Y0060896D01*
X0163737Y0061495D02*
X0171576Y0061495D01*
X0171087Y0062093D02*
X0163737Y0062093D01*
X0163737Y0062692D02*
X0170761Y0062692D01*
X0170551Y0063290D02*
X0163737Y0063290D01*
X0163737Y0063889D02*
X0170437Y0063889D01*
X0180609Y0070473D02*
X0187338Y0070473D01*
X0187338Y0071071D02*
X0181874Y0071071D01*
X0182472Y0071670D02*
X0187338Y0071670D01*
X0187338Y0072268D02*
X0182938Y0072268D01*
X0183185Y0072867D02*
X0187338Y0072867D01*
X0187338Y0073465D02*
X0183433Y0073465D01*
X0183437Y0074064D02*
X0187338Y0074064D01*
X0187338Y0074662D02*
X0183437Y0074662D01*
X0183340Y0075261D02*
X0187338Y0075261D01*
X0187338Y0075859D02*
X0183092Y0075859D01*
X0182844Y0076458D02*
X0187338Y0076458D01*
X0187338Y0077056D02*
X0182246Y0077056D01*
X0181508Y0077655D02*
X0187338Y0077655D01*
X0187338Y0078253D02*
X0162550Y0078253D01*
X0162702Y0078102D02*
X0162702Y0078102D01*
X0162887Y0077655D02*
X0172366Y0077655D01*
X0171628Y0077056D02*
X0163135Y0077056D01*
X0163383Y0076458D02*
X0171030Y0076458D01*
X0172128Y0080943D02*
X0173561Y0080350D01*
X0180313Y0080350D01*
X0181746Y0080943D01*
X0182843Y0082040D01*
X0183437Y0083474D01*
X0183437Y0085025D01*
X0182843Y0086459D01*
X0181746Y0087556D01*
X0180313Y0088150D01*
X0173561Y0088150D01*
X0172128Y0087556D01*
X0171031Y0086459D01*
X0170437Y0085025D01*
X0170437Y0083474D01*
X0171031Y0082040D01*
X0172128Y0080943D01*
X0171826Y0081246D02*
X0153348Y0081246D01*
X0152941Y0081844D02*
X0171227Y0081844D01*
X0170864Y0082443D02*
X0152342Y0082443D01*
X0151387Y0083041D02*
X0170616Y0083041D01*
X0170437Y0083640D02*
X0151387Y0083640D01*
X0151237Y0084238D02*
X0170437Y0084238D01*
X0170437Y0084837D02*
X0151387Y0084837D01*
X0151387Y0085435D02*
X0170607Y0085435D01*
X0170855Y0086034D02*
X0152319Y0086034D01*
X0152918Y0086632D02*
X0171204Y0086632D01*
X0171803Y0087231D02*
X0153339Y0087231D01*
X0153586Y0087829D02*
X0172788Y0087829D01*
X0172421Y0090822D02*
X0153524Y0090822D01*
X0153771Y0090223D02*
X0187338Y0090223D01*
X0187338Y0089625D02*
X0153837Y0089625D01*
X0153837Y0089026D02*
X0187338Y0089026D01*
X0187338Y0088428D02*
X0153834Y0088428D01*
X0153276Y0091420D02*
X0171651Y0091420D01*
X0171052Y0092019D02*
X0152766Y0092019D01*
X0152167Y0092617D02*
X0165967Y0092617D01*
X0163734Y0093216D02*
X0150875Y0093216D01*
X0160076Y0099201D02*
X0187338Y0099201D01*
X0187338Y0098603D02*
X0160953Y0098603D01*
X0161990Y0098004D02*
X0173210Y0098004D01*
X0171977Y0097406D02*
X0163027Y0097406D01*
X0164710Y0096807D02*
X0171379Y0096807D01*
X0170927Y0096208D02*
X0166944Y0096208D01*
X0180664Y0098004D02*
X0187338Y0098004D01*
X0187338Y0097406D02*
X0181897Y0097406D01*
X0182495Y0096807D02*
X0187338Y0096807D01*
X0187338Y0096208D02*
X0182947Y0096208D01*
X0183195Y0095610D02*
X0187338Y0095610D01*
X0187338Y0095011D02*
X0183437Y0095011D01*
X0183437Y0094413D02*
X0187338Y0094413D01*
X0187338Y0093814D02*
X0183437Y0093814D01*
X0183330Y0093216D02*
X0187338Y0093216D01*
X0187338Y0092617D02*
X0183082Y0092617D01*
X0182822Y0092019D02*
X0187338Y0092019D01*
X0187338Y0091420D02*
X0182223Y0091420D01*
X0181453Y0090822D02*
X0187338Y0090822D01*
X0187338Y0087829D02*
X0181086Y0087829D01*
X0182071Y0087231D02*
X0187338Y0087231D01*
X0187338Y0086632D02*
X0182670Y0086632D01*
X0183019Y0086034D02*
X0187338Y0086034D01*
X0187338Y0085435D02*
X0183267Y0085435D01*
X0183437Y0084837D02*
X0187338Y0084837D01*
X0187338Y0084238D02*
X0183437Y0084238D01*
X0183437Y0083640D02*
X0187338Y0083640D01*
X0187338Y0083041D02*
X0183258Y0083041D01*
X0183010Y0082443D02*
X0187338Y0082443D01*
X0187338Y0081844D02*
X0182647Y0081844D01*
X0182048Y0081246D02*
X0187338Y0081246D01*
X0187338Y0080647D02*
X0181031Y0080647D01*
X0187338Y0080049D02*
X0160706Y0080049D01*
X0160789Y0080014D02*
X0160789Y0080014D01*
X0161353Y0079450D02*
X0187338Y0079450D01*
X0187338Y0078852D02*
X0161952Y0078852D01*
X0159261Y0080647D02*
X0172843Y0080647D01*
X0159667Y0075859D02*
X0152145Y0075859D01*
X0152743Y0076458D02*
X0159168Y0076458D01*
X0158363Y0077056D02*
X0153266Y0077056D01*
X0149299Y0064487D02*
X0160137Y0064487D01*
X0160137Y0063889D02*
X0150585Y0063889D01*
X0151197Y0063290D02*
X0160137Y0063290D01*
X0160137Y0062692D02*
X0151810Y0062692D01*
X0152422Y0062093D02*
X0160137Y0062093D01*
X0160137Y0061495D02*
X0152936Y0061495D01*
X0152865Y0061661D02*
X0152865Y0061661D01*
X0153364Y0060896D02*
X0160137Y0060896D01*
X0159387Y0060298D02*
X0154487Y0060298D01*
X0155086Y0059699D02*
X0158788Y0059699D01*
X0158349Y0059101D02*
X0155525Y0059101D01*
X0147837Y0054911D02*
X0141190Y0054911D01*
X0141190Y0054313D02*
X0147837Y0054313D01*
X0147837Y0053714D02*
X0141190Y0053714D01*
X0141190Y0053116D02*
X0147837Y0053116D01*
X0147837Y0052517D02*
X0141120Y0052517D01*
X0140696Y0051919D02*
X0147837Y0051919D01*
X0114927Y0077056D02*
X0095569Y0077056D01*
X0095637Y0076458D02*
X0105055Y0076458D01*
X0104684Y0072268D02*
X0095637Y0072268D01*
X0095637Y0071670D02*
X0104684Y0071670D01*
X0104684Y0071071D02*
X0095597Y0071071D01*
X0094998Y0070473D02*
X0104684Y0070473D01*
X0104703Y0069874D02*
X0060937Y0069874D01*
X0060937Y0069275D02*
X0105301Y0069275D01*
X0104834Y0068677D02*
X0060937Y0068677D01*
X0060937Y0063290D02*
X0088355Y0063290D01*
X0088577Y0062692D02*
X0060937Y0062692D01*
X0060937Y0062093D02*
X0088928Y0062093D01*
X0089459Y0061495D02*
X0060937Y0061495D01*
X0060937Y0060896D02*
X0090364Y0060896D01*
X0091637Y0060896D02*
X0092237Y0060896D01*
X0092237Y0061495D02*
X0091637Y0061495D01*
X0091637Y0062093D02*
X0092237Y0062093D01*
X0092237Y0062692D02*
X0091637Y0062692D01*
X0091637Y0063290D02*
X0092237Y0063290D01*
X0095139Y0049525D02*
X0095739Y0049525D01*
X0095739Y0048926D02*
X0095139Y0048926D01*
X0095139Y0048328D02*
X0095739Y0048328D01*
X0095739Y0047729D02*
X0095139Y0047729D01*
X0095139Y0047131D02*
X0095739Y0047131D01*
X0092231Y0048328D02*
X0080606Y0048328D01*
X0082051Y0047729D02*
X0091956Y0047729D01*
X0091798Y0047131D02*
X0082654Y0047131D01*
X0094046Y0032766D02*
X0110141Y0032766D01*
X0110141Y0032168D02*
X0095491Y0032168D01*
X0096936Y0031569D02*
X0110141Y0031569D01*
X0110141Y0030971D02*
X0097791Y0030971D01*
X0098390Y0030372D02*
X0110141Y0030372D01*
X0110141Y0029774D02*
X0098988Y0029774D01*
X0061306Y0051320D02*
X0060937Y0051320D01*
X0041937Y0054250D02*
X0031937Y0059250D01*
X0028197Y0067990D01*
X0026937Y0067990D01*
X0033197Y0067990D01*
X0036937Y0059250D01*
X0041937Y0054250D01*
X0041937Y0059250D02*
X0038197Y0067990D01*
X0026937Y0067990D01*
X0026937Y0059250D01*
X0021937Y0059250D02*
X0025677Y0067990D01*
X0026937Y0067990D01*
X0020677Y0067990D01*
X0016937Y0059250D01*
X0011937Y0059250D02*
X0015677Y0067990D01*
X0026937Y0067990D01*
X0094970Y0077655D02*
X0115361Y0077655D01*
X0114439Y0076458D02*
X0112819Y0076458D01*
X0113190Y0075859D02*
X0113616Y0075859D01*
X0128785Y0106383D02*
X0131288Y0106383D01*
X0130690Y0106982D02*
X0129287Y0106982D01*
X0139536Y0125536D02*
X0173419Y0125536D01*
X0173074Y0126134D02*
X0139536Y0126134D01*
X0139536Y0126733D02*
X0172728Y0126733D01*
X0172363Y0127331D02*
X0139536Y0127331D01*
X0156837Y0109974D02*
X0187338Y0109974D01*
X0187338Y0109376D02*
X0156837Y0109376D01*
X0156837Y0108777D02*
X0187338Y0108777D01*
X0187338Y0108179D02*
X0156381Y0108179D01*
X0187338Y0165636D02*
X0082737Y0165636D01*
X0082737Y0166234D02*
X0187338Y0166234D01*
X0187338Y0166833D02*
X0082737Y0166833D01*
X0082737Y0167431D02*
X0187338Y0167431D01*
X0187338Y0168030D02*
X0082737Y0168030D01*
X0082737Y0168628D02*
X0187338Y0168628D01*
X0187338Y0169227D02*
X0082737Y0169227D01*
X0082737Y0169825D02*
X0187338Y0169825D01*
X0187338Y0170424D02*
X0082737Y0170424D01*
D29*
X0066937Y0164250D02*
X0056937Y0164250D01*
X0041937Y0159250D02*
X0041937Y0154250D01*
X0026937Y0154250D01*
X0026937Y0141750D01*
D30*
X0026937Y0154250D02*
X0026937Y0164250D01*
X0056937Y0164250D01*
D31*
X0062437Y0089350D02*
X0062537Y0089250D01*
X0061937Y0089250D01*
X0076937Y0089250D01*
D32*
X0171937Y0155250D03*
X0171937Y0023250D03*
M02*
