%
M48
M72
T01C0.01969
T02C0.03200
T03C0.03543
T04C0.03600
T05C0.05600
T06C0.12598
T07C0.21654
%
T01
X11937Y54296
X11937Y59296
X16937Y59296
X21937Y59296
X26937Y59296
X31937Y59296
X36937Y59296
X41937Y59296
X41937Y54296
X41937Y119296
X36937Y119296
X31937Y119296
X26937Y119296
X21937Y119296
X16937Y119296
X11937Y119296
X11937Y124296
X41937Y124296
T02
X66252Y55966
X93327Y43828
X96252Y55966
X93327Y13828
X136937Y109296
X156937Y109296
T03
X128832Y26204
X115052Y26204
T04
X76937Y14296
X66937Y14296
X66937Y44296
X76937Y44296
X86937Y74296
X96937Y74296
X96937Y104296
X86937Y104296
X106937Y149296
X116937Y149296
X126937Y149296
X136937Y149296
X176937Y124296
X176937Y114296
X151937Y89296
X141937Y89296
X151937Y64296
X161937Y64296
X176937Y59296
X176937Y69296
X76937Y164296
X66937Y164296
T05
X66937Y103076
X66937Y89296
X66937Y75517
T06
X166937Y24296
X166937Y154296
T07
X26937Y36796
X26937Y141796
M30
