G75*
%MOIN*%
%OFA0B0*%
%FSLAX25Y25*%
%IPPOS*%
%LPD*%
%AMOC8*
5,1,8,0,0,1.08239X$1,22.5*
%
%ADD10C,0.05600*%
%ADD11OC8,0.05200*%
%ADD12R,0.34449X0.20472*%
%ADD13C,0.35433*%
%ADD14C,0.08400*%
%ADD15C,0.05200*%
%ADD16C,0.01000*%
%ADD17C,0.03569*%
%ADD18C,0.00600*%
%ADD19C,0.11000*%
%ADD20C,0.25591*%
%ADD21C,0.05315*%
D10*
X0074137Y0034732D02*
X0079737Y0034732D01*
X0079737Y0044732D02*
X0074137Y0044732D01*
X0086937Y0071932D02*
X0086937Y0077532D01*
X0096937Y0077532D02*
X0096937Y0071932D01*
X0096937Y0101932D02*
X0096937Y0107532D01*
X0086937Y0107532D02*
X0086937Y0101932D01*
X0089737Y0134732D02*
X0084137Y0134732D01*
X0084137Y0144732D02*
X0089737Y0144732D01*
X0106937Y0146932D02*
X0106937Y0152532D01*
X0116937Y0152532D02*
X0116937Y0146932D01*
X0126937Y0146932D02*
X0126937Y0152532D01*
X0136937Y0152532D02*
X0136937Y0146932D01*
X0144137Y0089732D02*
X0149737Y0089732D01*
X0149737Y0079732D02*
X0144137Y0079732D01*
X0151937Y0057532D02*
X0151937Y0051932D01*
X0161937Y0051932D02*
X0161937Y0057532D01*
X0066937Y0161932D02*
X0066937Y0167532D01*
X0056937Y0167532D02*
X0056937Y0161932D01*
D11*
X0136937Y0109732D03*
X0156937Y0109732D03*
X0106789Y0050337D03*
X0096789Y0050337D03*
X0083834Y0022013D03*
X0063413Y0035211D03*
X0043834Y0022013D03*
X0063413Y0055211D03*
D12*
X0026937Y0068472D03*
X0026937Y0110992D03*
D13*
X0026937Y0142232D03*
X0026937Y0037232D03*
D14*
X0062737Y0075952D02*
X0071137Y0075952D01*
X0071137Y0089732D02*
X0062737Y0089732D01*
X0062737Y0103511D02*
X0071137Y0103511D01*
D15*
X0174337Y0104732D02*
X0179537Y0104732D01*
X0179537Y0094732D02*
X0174337Y0094732D01*
X0174337Y0084732D02*
X0179537Y0084732D01*
X0179537Y0074732D02*
X0174337Y0074732D01*
X0174337Y0064732D02*
X0179537Y0064732D01*
X0179537Y0114732D02*
X0174337Y0114732D01*
D16*
X0005437Y0084732D02*
X0005437Y0008232D01*
X0046937Y0008232D01*
X0046937Y0084732D01*
X0005437Y0084732D01*
X0005437Y0084605D02*
X0046937Y0084605D01*
X0046937Y0083607D02*
X0005437Y0083607D01*
X0005437Y0082608D02*
X0046937Y0082608D01*
X0046937Y0081610D02*
X0005437Y0081610D01*
X0005437Y0080611D02*
X0046937Y0080611D01*
X0046937Y0079613D02*
X0005437Y0079613D01*
X0005437Y0078614D02*
X0046937Y0078614D01*
X0046937Y0077616D02*
X0005437Y0077616D01*
X0005437Y0076617D02*
X0046937Y0076617D01*
X0046937Y0075619D02*
X0005437Y0075619D01*
X0005437Y0074620D02*
X0046937Y0074620D01*
X0046937Y0073622D02*
X0005437Y0073622D01*
X0005437Y0072623D02*
X0046937Y0072623D01*
X0046937Y0071625D02*
X0005437Y0071625D01*
X0005437Y0070626D02*
X0046937Y0070626D01*
X0046937Y0069628D02*
X0005437Y0069628D01*
X0005437Y0068629D02*
X0046937Y0068629D01*
X0046937Y0067631D02*
X0005437Y0067631D01*
X0005437Y0066632D02*
X0046937Y0066632D01*
X0046937Y0065634D02*
X0005437Y0065634D01*
X0005437Y0064635D02*
X0046937Y0064635D01*
X0046937Y0063637D02*
X0005437Y0063637D01*
X0005437Y0062638D02*
X0046937Y0062638D01*
X0046937Y0061640D02*
X0005437Y0061640D01*
X0005437Y0060641D02*
X0046937Y0060641D01*
X0046937Y0059643D02*
X0005437Y0059643D01*
X0005437Y0058644D02*
X0046937Y0058644D01*
X0046937Y0057645D02*
X0005437Y0057645D01*
X0005437Y0056647D02*
X0046937Y0056647D01*
X0046937Y0055648D02*
X0005437Y0055648D01*
X0005437Y0054650D02*
X0046937Y0054650D01*
X0046937Y0053651D02*
X0005437Y0053651D01*
X0005437Y0052653D02*
X0046937Y0052653D01*
X0046937Y0051654D02*
X0005437Y0051654D01*
X0005437Y0050656D02*
X0046937Y0050656D01*
X0046937Y0049657D02*
X0005437Y0049657D01*
X0005437Y0048659D02*
X0046937Y0048659D01*
X0046937Y0047660D02*
X0005437Y0047660D01*
X0005437Y0046662D02*
X0046937Y0046662D01*
X0046937Y0045663D02*
X0005437Y0045663D01*
X0005437Y0044665D02*
X0046937Y0044665D01*
X0046937Y0043666D02*
X0005437Y0043666D01*
X0005437Y0042668D02*
X0046937Y0042668D01*
X0046937Y0041669D02*
X0005437Y0041669D01*
X0005437Y0040671D02*
X0046937Y0040671D01*
X0046937Y0039672D02*
X0005437Y0039672D01*
X0005437Y0038674D02*
X0046937Y0038674D01*
X0046937Y0037675D02*
X0005437Y0037675D01*
X0005437Y0036677D02*
X0046937Y0036677D01*
X0046937Y0035678D02*
X0005437Y0035678D01*
X0005437Y0034680D02*
X0046937Y0034680D01*
X0046937Y0033681D02*
X0005437Y0033681D01*
X0005437Y0032683D02*
X0046937Y0032683D01*
X0046937Y0031684D02*
X0005437Y0031684D01*
X0005437Y0030686D02*
X0046937Y0030686D01*
X0046937Y0029687D02*
X0005437Y0029687D01*
X0005437Y0028689D02*
X0046937Y0028689D01*
X0046937Y0027690D02*
X0005437Y0027690D01*
X0005437Y0026692D02*
X0046937Y0026692D01*
X0046937Y0025693D02*
X0005437Y0025693D01*
X0005437Y0024695D02*
X0046937Y0024695D01*
X0046937Y0023696D02*
X0005437Y0023696D01*
X0005437Y0022698D02*
X0046937Y0022698D01*
X0046937Y0021699D02*
X0005437Y0021699D01*
X0005437Y0020701D02*
X0046937Y0020701D01*
X0046937Y0019702D02*
X0005437Y0019702D01*
X0005437Y0018704D02*
X0046937Y0018704D01*
X0046937Y0017705D02*
X0005437Y0017705D01*
X0005437Y0016707D02*
X0046937Y0016707D01*
X0046937Y0015708D02*
X0005437Y0015708D01*
X0005437Y0014710D02*
X0046937Y0014710D01*
X0046937Y0013711D02*
X0005437Y0013711D01*
X0005437Y0012712D02*
X0046937Y0012712D01*
X0046937Y0011714D02*
X0005437Y0011714D01*
X0005437Y0010715D02*
X0046937Y0010715D01*
X0046937Y0009717D02*
X0005437Y0009717D01*
X0005437Y0008718D02*
X0046937Y0008718D01*
X0076937Y0044732D02*
X0121937Y0044732D01*
X0122251Y0044736D01*
X0122565Y0044747D01*
X0122879Y0044766D01*
X0123192Y0044793D01*
X0123504Y0044827D01*
X0123815Y0044868D01*
X0124126Y0044918D01*
X0124435Y0044974D01*
X0124742Y0045038D01*
X0125048Y0045110D01*
X0125352Y0045189D01*
X0125654Y0045275D01*
X0125954Y0045368D01*
X0126252Y0045469D01*
X0126547Y0045577D01*
X0126839Y0045692D01*
X0127129Y0045814D01*
X0127415Y0045943D01*
X0127698Y0046078D01*
X0127978Y0046221D01*
X0128255Y0046370D01*
X0128527Y0046526D01*
X0128796Y0046689D01*
X0129061Y0046858D01*
X0129322Y0047033D01*
X0129578Y0047215D01*
X0129830Y0047402D01*
X0130077Y0047596D01*
X0130320Y0047796D01*
X0130558Y0048001D01*
X0130790Y0048213D01*
X0131018Y0048429D01*
X0131240Y0048651D01*
X0131456Y0048879D01*
X0131668Y0049111D01*
X0131873Y0049349D01*
X0132073Y0049592D01*
X0132267Y0049839D01*
X0132454Y0050091D01*
X0132636Y0050347D01*
X0132811Y0050608D01*
X0132980Y0050873D01*
X0133143Y0051142D01*
X0133299Y0051414D01*
X0133448Y0051691D01*
X0133591Y0051971D01*
X0133726Y0052254D01*
X0133855Y0052540D01*
X0133977Y0052830D01*
X0134092Y0053122D01*
X0134200Y0053417D01*
X0134301Y0053715D01*
X0134394Y0054015D01*
X0134480Y0054317D01*
X0134559Y0054621D01*
X0134631Y0054927D01*
X0134695Y0055234D01*
X0134751Y0055543D01*
X0134801Y0055854D01*
X0134842Y0056165D01*
X0134876Y0056477D01*
X0134903Y0056790D01*
X0134922Y0057104D01*
X0134933Y0057418D01*
X0134937Y0057732D01*
X0134937Y0084732D01*
X0134940Y0084974D01*
X0134949Y0085215D01*
X0134963Y0085456D01*
X0134984Y0085697D01*
X0135010Y0085937D01*
X0135042Y0086177D01*
X0135080Y0086416D01*
X0135123Y0086653D01*
X0135173Y0086890D01*
X0135228Y0087125D01*
X0135288Y0087359D01*
X0135355Y0087591D01*
X0135426Y0087822D01*
X0135504Y0088051D01*
X0135587Y0088278D01*
X0135675Y0088503D01*
X0135769Y0088726D01*
X0135868Y0088946D01*
X0135973Y0089164D01*
X0136082Y0089379D01*
X0136197Y0089592D01*
X0136317Y0089802D01*
X0136442Y0090008D01*
X0136572Y0090212D01*
X0136707Y0090413D01*
X0136847Y0090610D01*
X0136991Y0090804D01*
X0137140Y0090994D01*
X0137294Y0091180D01*
X0137452Y0091363D01*
X0137614Y0091542D01*
X0137781Y0091717D01*
X0137952Y0091888D01*
X0138127Y0092055D01*
X0138306Y0092217D01*
X0138489Y0092375D01*
X0138675Y0092529D01*
X0138865Y0092678D01*
X0139059Y0092822D01*
X0139256Y0092962D01*
X0139457Y0093097D01*
X0139661Y0093227D01*
X0139867Y0093352D01*
X0140077Y0093472D01*
X0140290Y0093587D01*
X0140505Y0093696D01*
X0140723Y0093801D01*
X0140943Y0093900D01*
X0141166Y0093994D01*
X0141391Y0094082D01*
X0141618Y0094165D01*
X0141847Y0094243D01*
X0142078Y0094314D01*
X0142310Y0094381D01*
X0142544Y0094441D01*
X0142779Y0094496D01*
X0143016Y0094546D01*
X0143253Y0094589D01*
X0143492Y0094627D01*
X0143732Y0094659D01*
X0143972Y0094685D01*
X0144213Y0094706D01*
X0144454Y0094720D01*
X0144695Y0094729D01*
X0144937Y0094732D01*
X0176937Y0094732D01*
X0046937Y0094732D02*
X0046937Y0171192D01*
X0005437Y0171192D01*
X0005437Y0094732D01*
X0046937Y0094732D01*
X0046937Y0095589D02*
X0005437Y0095589D01*
X0005437Y0096587D02*
X0046937Y0096587D01*
X0046937Y0097586D02*
X0005437Y0097586D01*
X0005437Y0098584D02*
X0046937Y0098584D01*
X0046937Y0099583D02*
X0005437Y0099583D01*
X0005437Y0100581D02*
X0046937Y0100581D01*
X0046937Y0101580D02*
X0005437Y0101580D01*
X0005437Y0102579D02*
X0046937Y0102579D01*
X0046937Y0103577D02*
X0005437Y0103577D01*
X0005437Y0104576D02*
X0046937Y0104576D01*
X0046937Y0105574D02*
X0005437Y0105574D01*
X0005437Y0106573D02*
X0046937Y0106573D01*
X0046937Y0107571D02*
X0005437Y0107571D01*
X0005437Y0108570D02*
X0046937Y0108570D01*
X0046937Y0109568D02*
X0005437Y0109568D01*
X0005437Y0110567D02*
X0046937Y0110567D01*
X0046937Y0111565D02*
X0005437Y0111565D01*
X0005437Y0112564D02*
X0046937Y0112564D01*
X0046937Y0113562D02*
X0005437Y0113562D01*
X0005437Y0114561D02*
X0046937Y0114561D01*
X0046937Y0115559D02*
X0005437Y0115559D01*
X0005437Y0116558D02*
X0046937Y0116558D01*
X0046937Y0117556D02*
X0005437Y0117556D01*
X0005437Y0118555D02*
X0046937Y0118555D01*
X0046937Y0119553D02*
X0005437Y0119553D01*
X0005437Y0120552D02*
X0046937Y0120552D01*
X0046937Y0121550D02*
X0005437Y0121550D01*
X0005437Y0122549D02*
X0046937Y0122549D01*
X0046937Y0123547D02*
X0005437Y0123547D01*
X0005437Y0124546D02*
X0046937Y0124546D01*
X0046937Y0125544D02*
X0005437Y0125544D01*
X0005437Y0126543D02*
X0046937Y0126543D01*
X0046937Y0127541D02*
X0005437Y0127541D01*
X0005437Y0128540D02*
X0046937Y0128540D01*
X0046937Y0129538D02*
X0005437Y0129538D01*
X0005437Y0130537D02*
X0046937Y0130537D01*
X0046937Y0131535D02*
X0005437Y0131535D01*
X0005437Y0132534D02*
X0046937Y0132534D01*
X0046937Y0133532D02*
X0005437Y0133532D01*
X0005437Y0134531D02*
X0046937Y0134531D01*
X0046937Y0135529D02*
X0005437Y0135529D01*
X0005437Y0136528D02*
X0046937Y0136528D01*
X0046937Y0137526D02*
X0005437Y0137526D01*
X0005437Y0138525D02*
X0046937Y0138525D01*
X0046937Y0139523D02*
X0005437Y0139523D01*
X0005437Y0140522D02*
X0046937Y0140522D01*
X0046937Y0141520D02*
X0005437Y0141520D01*
X0005437Y0142519D02*
X0046937Y0142519D01*
X0046937Y0143517D02*
X0005437Y0143517D01*
X0005437Y0144516D02*
X0046937Y0144516D01*
X0046937Y0145514D02*
X0005437Y0145514D01*
X0005437Y0146513D02*
X0046937Y0146513D01*
X0046937Y0147512D02*
X0005437Y0147512D01*
X0005437Y0148510D02*
X0046937Y0148510D01*
X0046937Y0149509D02*
X0005437Y0149509D01*
X0005437Y0150507D02*
X0046937Y0150507D01*
X0046937Y0151506D02*
X0005437Y0151506D01*
X0005437Y0152504D02*
X0046937Y0152504D01*
X0046937Y0153503D02*
X0005437Y0153503D01*
X0005437Y0154501D02*
X0046937Y0154501D01*
X0046937Y0155500D02*
X0005437Y0155500D01*
X0005437Y0156498D02*
X0046937Y0156498D01*
X0046937Y0157497D02*
X0005437Y0157497D01*
X0005437Y0158495D02*
X0046937Y0158495D01*
X0046937Y0159494D02*
X0005437Y0159494D01*
X0005437Y0160492D02*
X0046937Y0160492D01*
X0046937Y0161491D02*
X0005437Y0161491D01*
X0005437Y0162489D02*
X0046937Y0162489D01*
X0046937Y0163488D02*
X0005437Y0163488D01*
X0005437Y0164486D02*
X0046937Y0164486D01*
X0046937Y0165485D02*
X0005437Y0165485D01*
X0005437Y0166483D02*
X0046937Y0166483D01*
X0046937Y0167482D02*
X0005437Y0167482D01*
X0005437Y0168480D02*
X0046937Y0168480D01*
X0046937Y0169479D02*
X0005437Y0169479D01*
X0005437Y0170477D02*
X0046937Y0170477D01*
D17*
X0041937Y0124732D03*
X0041937Y0119732D03*
X0036937Y0119732D03*
X0031937Y0119732D03*
X0026937Y0119732D03*
X0021937Y0119732D03*
X0016937Y0119732D03*
X0011937Y0119732D03*
X0011937Y0124732D03*
X0011937Y0059732D03*
X0016937Y0059732D03*
X0011937Y0054732D03*
X0021937Y0059732D03*
X0026937Y0059732D03*
X0031937Y0059732D03*
X0036937Y0059732D03*
X0041937Y0059732D03*
X0041937Y0054732D03*
X0125776Y0071935D03*
X0125776Y0075935D03*
D18*
X0133137Y0075743D02*
X0101037Y0075743D01*
X0101037Y0076341D02*
X0133137Y0076341D01*
X0133137Y0076940D02*
X0101037Y0076940D01*
X0101037Y0077538D02*
X0133137Y0077538D01*
X0133137Y0078137D02*
X0101037Y0078137D01*
X0101037Y0078347D02*
X0100413Y0079854D01*
X0099259Y0081008D01*
X0097753Y0081632D01*
X0096121Y0081632D01*
X0094615Y0081008D01*
X0093461Y0079854D01*
X0092837Y0078347D01*
X0092837Y0071116D01*
X0093461Y0069609D01*
X0094615Y0068456D01*
X0096121Y0067832D01*
X0097753Y0067832D01*
X0099259Y0068456D01*
X0100413Y0069609D01*
X0101037Y0071116D01*
X0101037Y0078347D01*
X0100876Y0078735D02*
X0133137Y0078735D01*
X0133137Y0079334D02*
X0100628Y0079334D01*
X0100335Y0079932D02*
X0133137Y0079932D01*
X0133137Y0080531D02*
X0099736Y0080531D01*
X0098966Y0081129D02*
X0133137Y0081129D01*
X0133137Y0081728D02*
X0059437Y0081728D01*
X0059437Y0082326D02*
X0133137Y0082326D01*
X0133137Y0082925D02*
X0059437Y0082925D01*
X0059437Y0083523D02*
X0133137Y0083523D01*
X0133137Y0084122D02*
X0059437Y0084122D01*
X0059437Y0084720D02*
X0060458Y0084720D01*
X0060626Y0084635D02*
X0061449Y0084367D01*
X0062304Y0084232D01*
X0066637Y0084232D01*
X0066637Y0089432D01*
X0059437Y0089432D01*
X0059437Y0090032D01*
X0066637Y0090032D01*
X0066637Y0095232D01*
X0062304Y0095232D01*
X0061449Y0095096D01*
X0060626Y0094829D01*
X0059854Y0094436D01*
X0059437Y0094133D01*
X0059437Y0099033D01*
X0059622Y0098849D01*
X0061643Y0098011D01*
X0072231Y0098011D01*
X0074252Y0098849D01*
X0075800Y0100396D01*
X0076637Y0102417D01*
X0076637Y0104605D01*
X0075800Y0106627D01*
X0074252Y0108174D01*
X0072231Y0109011D01*
X0061643Y0109011D01*
X0059622Y0108174D01*
X0059437Y0107990D01*
X0059437Y0149932D01*
X0082268Y0149932D01*
X0082737Y0150400D01*
X0082737Y0171392D01*
X0186937Y0171392D01*
X0186937Y0008032D01*
X0059437Y0008032D01*
X0059437Y0071474D01*
X0059622Y0071290D01*
X0061643Y0070452D01*
X0072231Y0070452D01*
X0074252Y0071290D01*
X0075800Y0072837D01*
X0076637Y0074858D01*
X0076637Y0077046D01*
X0075800Y0079068D01*
X0074252Y0080615D01*
X0072231Y0081452D01*
X0061643Y0081452D01*
X0059622Y0080615D01*
X0059437Y0080430D01*
X0059437Y0085331D01*
X0059854Y0085028D01*
X0060626Y0084635D01*
X0059454Y0085319D02*
X0059437Y0085319D01*
X0059437Y0089509D02*
X0066637Y0089509D01*
X0066637Y0089432D02*
X0066637Y0090032D01*
X0067237Y0090032D01*
X0067237Y0095232D01*
X0071570Y0095232D01*
X0072425Y0095096D01*
X0073248Y0094829D01*
X0074020Y0094436D01*
X0074720Y0093927D01*
X0075332Y0093315D01*
X0075841Y0092614D01*
X0076234Y0091843D01*
X0076502Y0091020D01*
X0076637Y0090165D01*
X0076637Y0090032D01*
X0067237Y0090032D01*
X0067237Y0089432D01*
X0076637Y0089432D01*
X0076637Y0089299D01*
X0076502Y0088444D01*
X0076234Y0087621D01*
X0075841Y0086849D01*
X0075332Y0086149D01*
X0074720Y0085537D01*
X0074020Y0085028D01*
X0073248Y0084635D01*
X0072425Y0084367D01*
X0071570Y0084232D01*
X0067237Y0084232D01*
X0067237Y0089432D01*
X0066637Y0089432D01*
X0066637Y0088910D02*
X0067237Y0088910D01*
X0067237Y0088312D02*
X0066637Y0088312D01*
X0066637Y0087713D02*
X0067237Y0087713D01*
X0067237Y0087114D02*
X0066637Y0087114D01*
X0066637Y0086516D02*
X0067237Y0086516D01*
X0067237Y0085917D02*
X0066637Y0085917D01*
X0066637Y0085319D02*
X0067237Y0085319D01*
X0067237Y0084720D02*
X0066637Y0084720D01*
X0067237Y0089509D02*
X0134082Y0089509D01*
X0134276Y0090107D02*
X0076637Y0090107D01*
X0076551Y0090706D02*
X0134692Y0090706D01*
X0134292Y0090156D02*
X0133137Y0086601D01*
X0133137Y0057732D01*
X0133041Y0056270D01*
X0132284Y0053446D01*
X0130823Y0050914D01*
X0128755Y0048846D01*
X0126223Y0047384D01*
X0123399Y0046628D01*
X0121937Y0046532D01*
X0108500Y0046532D01*
X0110689Y0048721D01*
X0110689Y0051952D01*
X0108404Y0054237D01*
X0105173Y0054237D01*
X0102889Y0051952D01*
X0102889Y0048721D01*
X0105078Y0046532D01*
X0098500Y0046532D01*
X0100689Y0048721D01*
X0100689Y0050037D01*
X0097089Y0050037D01*
X0097089Y0050637D01*
X0096489Y0050637D01*
X0096489Y0054237D01*
X0095173Y0054237D01*
X0092889Y0051952D01*
X0092889Y0050637D01*
X0096489Y0050637D01*
X0096489Y0050037D01*
X0092889Y0050037D01*
X0092889Y0048721D01*
X0095078Y0046532D01*
X0083429Y0046532D01*
X0083213Y0047054D01*
X0082059Y0048208D01*
X0080553Y0048832D01*
X0073321Y0048832D01*
X0071815Y0048208D01*
X0070661Y0047054D01*
X0070037Y0045547D01*
X0070037Y0043916D01*
X0070661Y0042409D01*
X0071815Y0041256D01*
X0073321Y0040632D01*
X0080553Y0040632D01*
X0082059Y0041256D01*
X0083213Y0042409D01*
X0083429Y0042932D01*
X0123885Y0042932D01*
X0127650Y0043940D01*
X0131024Y0045889D01*
X0131024Y0045889D01*
X0133780Y0048644D01*
X0133780Y0048644D01*
X0133780Y0048644D01*
X0135728Y0052019D01*
X0135728Y0052019D01*
X0136737Y0055783D01*
X0136737Y0084732D01*
X0136838Y0086015D01*
X0137631Y0088455D01*
X0139139Y0090530D01*
X0140414Y0091456D01*
X0140037Y0090547D01*
X0140037Y0088916D01*
X0140661Y0087409D01*
X0141815Y0086256D01*
X0143321Y0085632D01*
X0150553Y0085632D01*
X0152059Y0086256D01*
X0153213Y0087409D01*
X0153837Y0088916D01*
X0153837Y0090547D01*
X0153213Y0092054D01*
X0152335Y0092932D01*
X0170861Y0092932D01*
X0171031Y0092523D01*
X0172128Y0091426D01*
X0173561Y0090832D01*
X0180313Y0090832D01*
X0181746Y0091426D01*
X0182843Y0092523D01*
X0183437Y0093956D01*
X0183437Y0095508D01*
X0182843Y0096941D01*
X0181746Y0098038D01*
X0180313Y0098632D01*
X0173561Y0098632D01*
X0172128Y0098038D01*
X0171031Y0096941D01*
X0170861Y0096532D01*
X0143068Y0096532D01*
X0139513Y0095377D01*
X0136489Y0093180D01*
X0136489Y0093180D01*
X0136489Y0093180D01*
X0134292Y0090156D01*
X0134292Y0090156D01*
X0133887Y0088910D02*
X0076575Y0088910D01*
X0076459Y0088312D02*
X0133693Y0088312D01*
X0133498Y0087713D02*
X0076264Y0087713D01*
X0075976Y0087114D02*
X0133304Y0087114D01*
X0133137Y0086516D02*
X0075599Y0086516D01*
X0075101Y0085917D02*
X0133137Y0085917D01*
X0133137Y0085319D02*
X0074420Y0085319D01*
X0073416Y0084720D02*
X0133137Y0084720D01*
X0136737Y0084720D02*
X0170437Y0084720D01*
X0170437Y0084122D02*
X0136737Y0084122D01*
X0136737Y0083523D02*
X0142577Y0083523D01*
X0143321Y0083832D02*
X0141815Y0083208D01*
X0140661Y0082054D01*
X0140037Y0080547D01*
X0140037Y0078916D01*
X0140661Y0077409D01*
X0141815Y0076256D01*
X0143321Y0075632D01*
X0150553Y0075632D01*
X0152059Y0076256D01*
X0153213Y0077409D01*
X0153837Y0078916D01*
X0153837Y0080547D01*
X0153213Y0082054D01*
X0152059Y0083208D01*
X0150553Y0083832D01*
X0143321Y0083832D01*
X0141532Y0082925D02*
X0136737Y0082925D01*
X0136737Y0082326D02*
X0140933Y0082326D01*
X0140526Y0081728D02*
X0136737Y0081728D01*
X0136737Y0081129D02*
X0140278Y0081129D01*
X0140037Y0080531D02*
X0136737Y0080531D01*
X0136737Y0079932D02*
X0140037Y0079932D01*
X0140037Y0079334D02*
X0136737Y0079334D01*
X0136737Y0078735D02*
X0140112Y0078735D01*
X0140360Y0078137D02*
X0136737Y0078137D01*
X0136737Y0077538D02*
X0140608Y0077538D01*
X0141131Y0076940D02*
X0136737Y0076940D01*
X0136737Y0076341D02*
X0141729Y0076341D01*
X0143054Y0075743D02*
X0136737Y0075743D01*
X0136737Y0075144D02*
X0170437Y0075144D01*
X0170437Y0075508D02*
X0170437Y0073956D01*
X0171031Y0072523D01*
X0172128Y0071426D01*
X0173561Y0070832D01*
X0180313Y0070832D01*
X0181746Y0071426D01*
X0182843Y0072523D01*
X0183437Y0073956D01*
X0183437Y0075508D01*
X0182843Y0076941D01*
X0181746Y0078038D01*
X0180313Y0078632D01*
X0173561Y0078632D01*
X0172128Y0078038D01*
X0171031Y0076941D01*
X0170437Y0075508D01*
X0170534Y0075743D02*
X0150820Y0075743D01*
X0152145Y0076341D02*
X0170782Y0076341D01*
X0171030Y0076940D02*
X0152743Y0076940D01*
X0153266Y0077538D02*
X0171628Y0077538D01*
X0172366Y0078137D02*
X0153514Y0078137D01*
X0153762Y0078735D02*
X0186937Y0078735D01*
X0186937Y0078137D02*
X0181508Y0078137D01*
X0182246Y0077538D02*
X0186937Y0077538D01*
X0186937Y0076940D02*
X0182844Y0076940D01*
X0183092Y0076341D02*
X0186937Y0076341D01*
X0186937Y0075743D02*
X0183340Y0075743D01*
X0183437Y0075144D02*
X0186937Y0075144D01*
X0186937Y0074546D02*
X0183437Y0074546D01*
X0183433Y0073947D02*
X0186937Y0073947D01*
X0186937Y0073349D02*
X0183185Y0073349D01*
X0182938Y0072750D02*
X0186937Y0072750D01*
X0186937Y0072152D02*
X0182472Y0072152D01*
X0181874Y0071553D02*
X0186937Y0071553D01*
X0186937Y0070955D02*
X0180609Y0070955D01*
X0180279Y0068561D02*
X0186937Y0068561D01*
X0186937Y0069159D02*
X0136737Y0069159D01*
X0136737Y0068561D02*
X0173595Y0068561D01*
X0173953Y0068632D02*
X0173199Y0068482D01*
X0172490Y0068188D01*
X0171851Y0067761D01*
X0171308Y0067218D01*
X0170881Y0066579D01*
X0170587Y0065869D01*
X0170437Y0065116D01*
X0170437Y0065032D01*
X0176637Y0065032D01*
X0176637Y0068632D01*
X0173953Y0068632D01*
X0172152Y0067962D02*
X0136737Y0067962D01*
X0136737Y0067364D02*
X0171453Y0067364D01*
X0171005Y0066765D02*
X0136737Y0066765D01*
X0136737Y0066167D02*
X0170710Y0066167D01*
X0170527Y0065568D02*
X0136737Y0065568D01*
X0136737Y0064970D02*
X0176637Y0064970D01*
X0176637Y0065032D02*
X0176637Y0064432D01*
X0170437Y0064432D01*
X0170437Y0064348D01*
X0170587Y0063594D01*
X0170881Y0062884D01*
X0171308Y0062246D01*
X0171851Y0061703D01*
X0172490Y0061276D01*
X0173199Y0060982D01*
X0173953Y0060832D01*
X0176637Y0060832D01*
X0176637Y0064432D01*
X0177237Y0064432D01*
X0177237Y0065032D01*
X0176637Y0065032D01*
X0176637Y0065568D02*
X0177237Y0065568D01*
X0177237Y0065032D02*
X0177237Y0068632D01*
X0179921Y0068632D01*
X0180675Y0068482D01*
X0181384Y0068188D01*
X0182023Y0067761D01*
X0182566Y0067218D01*
X0182993Y0066579D01*
X0183287Y0065869D01*
X0183437Y0065116D01*
X0183437Y0065032D01*
X0177237Y0065032D01*
X0177237Y0064970D02*
X0186937Y0064970D01*
X0186937Y0065568D02*
X0183347Y0065568D01*
X0183164Y0066167D02*
X0186937Y0066167D01*
X0186937Y0066765D02*
X0182869Y0066765D01*
X0182421Y0067364D02*
X0186937Y0067364D01*
X0186937Y0067962D02*
X0181722Y0067962D01*
X0183437Y0064432D02*
X0177237Y0064432D01*
X0177237Y0060832D01*
X0179921Y0060832D01*
X0180675Y0060982D01*
X0181384Y0061276D01*
X0182023Y0061703D01*
X0182566Y0062246D01*
X0182993Y0062884D01*
X0183287Y0063594D01*
X0183437Y0064348D01*
X0183437Y0064432D01*
X0183437Y0064371D02*
X0186937Y0064371D01*
X0186937Y0063773D02*
X0183323Y0063773D01*
X0183113Y0063174D02*
X0186937Y0063174D01*
X0186937Y0062576D02*
X0182787Y0062576D01*
X0182298Y0061977D02*
X0186937Y0061977D01*
X0186937Y0061379D02*
X0181538Y0061379D01*
X0177237Y0061379D02*
X0176637Y0061379D01*
X0176637Y0061977D02*
X0177237Y0061977D01*
X0177237Y0062576D02*
X0176637Y0062576D01*
X0176637Y0063174D02*
X0177237Y0063174D01*
X0177237Y0063773D02*
X0176637Y0063773D01*
X0176637Y0064371D02*
X0177237Y0064371D01*
X0177237Y0066167D02*
X0176637Y0066167D01*
X0176637Y0066765D02*
X0177237Y0066765D01*
X0177237Y0067364D02*
X0176637Y0067364D01*
X0176637Y0067962D02*
X0177237Y0067962D01*
X0177237Y0068561D02*
X0176637Y0068561D01*
X0173265Y0070955D02*
X0136737Y0070955D01*
X0136737Y0071553D02*
X0172000Y0071553D01*
X0171402Y0072152D02*
X0136737Y0072152D01*
X0136737Y0072750D02*
X0170936Y0072750D01*
X0170689Y0073349D02*
X0136737Y0073349D01*
X0136737Y0073947D02*
X0170441Y0073947D01*
X0170437Y0074546D02*
X0136737Y0074546D01*
X0133137Y0074546D02*
X0101037Y0074546D01*
X0101037Y0075144D02*
X0133137Y0075144D01*
X0133137Y0073947D02*
X0101037Y0073947D01*
X0101037Y0073349D02*
X0133137Y0073349D01*
X0133137Y0072750D02*
X0101037Y0072750D01*
X0101037Y0072152D02*
X0133137Y0072152D01*
X0133137Y0071553D02*
X0101037Y0071553D01*
X0100970Y0070955D02*
X0133137Y0070955D01*
X0133137Y0070356D02*
X0100722Y0070356D01*
X0100474Y0069758D02*
X0133137Y0069758D01*
X0133137Y0069159D02*
X0099963Y0069159D01*
X0099364Y0068561D02*
X0133137Y0068561D01*
X0133137Y0067962D02*
X0098067Y0067962D01*
X0095807Y0067962D02*
X0088067Y0067962D01*
X0087753Y0067832D02*
X0089259Y0068456D01*
X0090413Y0069609D01*
X0091037Y0071116D01*
X0091037Y0078347D01*
X0090413Y0079854D01*
X0089259Y0081008D01*
X0087753Y0081632D01*
X0086121Y0081632D01*
X0084615Y0081008D01*
X0083461Y0079854D01*
X0082837Y0078347D01*
X0082837Y0071116D01*
X0083461Y0069609D01*
X0084615Y0068456D01*
X0086121Y0067832D01*
X0087753Y0067832D01*
X0089364Y0068561D02*
X0094510Y0068561D01*
X0093911Y0069159D02*
X0089963Y0069159D01*
X0090474Y0069758D02*
X0093400Y0069758D01*
X0093152Y0070356D02*
X0090722Y0070356D01*
X0090970Y0070955D02*
X0092904Y0070955D01*
X0092837Y0071553D02*
X0091037Y0071553D01*
X0091037Y0072152D02*
X0092837Y0072152D01*
X0092837Y0072750D02*
X0091037Y0072750D01*
X0091037Y0073349D02*
X0092837Y0073349D01*
X0092837Y0073947D02*
X0091037Y0073947D01*
X0091037Y0074546D02*
X0092837Y0074546D01*
X0092837Y0075144D02*
X0091037Y0075144D01*
X0091037Y0075743D02*
X0092837Y0075743D01*
X0092837Y0076341D02*
X0091037Y0076341D01*
X0091037Y0076940D02*
X0092837Y0076940D01*
X0092837Y0077538D02*
X0091037Y0077538D01*
X0091037Y0078137D02*
X0092837Y0078137D01*
X0092998Y0078735D02*
X0090876Y0078735D01*
X0090628Y0079334D02*
X0093246Y0079334D01*
X0093539Y0079932D02*
X0090335Y0079932D01*
X0089736Y0080531D02*
X0094138Y0080531D01*
X0094908Y0081129D02*
X0088966Y0081129D01*
X0084908Y0081129D02*
X0073011Y0081129D01*
X0074337Y0080531D02*
X0084138Y0080531D01*
X0083539Y0079932D02*
X0074935Y0079932D01*
X0075534Y0079334D02*
X0083246Y0079334D01*
X0082998Y0078735D02*
X0075937Y0078735D01*
X0076185Y0078137D02*
X0082837Y0078137D01*
X0082837Y0077538D02*
X0076433Y0077538D01*
X0076637Y0076940D02*
X0082837Y0076940D01*
X0082837Y0076341D02*
X0076637Y0076341D01*
X0076637Y0075743D02*
X0082837Y0075743D01*
X0082837Y0075144D02*
X0076637Y0075144D01*
X0076508Y0074546D02*
X0082837Y0074546D01*
X0082837Y0073947D02*
X0076260Y0073947D01*
X0076012Y0073349D02*
X0082837Y0073349D01*
X0082837Y0072750D02*
X0075713Y0072750D01*
X0075115Y0072152D02*
X0082837Y0072152D01*
X0082837Y0071553D02*
X0074516Y0071553D01*
X0073444Y0070955D02*
X0082904Y0070955D01*
X0083152Y0070356D02*
X0059437Y0070356D01*
X0059437Y0069758D02*
X0083400Y0069758D01*
X0083911Y0069159D02*
X0059437Y0069159D01*
X0059437Y0068561D02*
X0084510Y0068561D01*
X0085807Y0067962D02*
X0059437Y0067962D01*
X0059437Y0067364D02*
X0133137Y0067364D01*
X0133137Y0066765D02*
X0059437Y0066765D01*
X0059437Y0066167D02*
X0133137Y0066167D01*
X0133137Y0065568D02*
X0059437Y0065568D01*
X0059437Y0064970D02*
X0133137Y0064970D01*
X0133137Y0064371D02*
X0059437Y0064371D01*
X0059437Y0063773D02*
X0133137Y0063773D01*
X0133137Y0063174D02*
X0059437Y0063174D01*
X0059437Y0062576D02*
X0133137Y0062576D01*
X0133137Y0061977D02*
X0059437Y0061977D01*
X0059437Y0061379D02*
X0133137Y0061379D01*
X0133137Y0060780D02*
X0059437Y0060780D01*
X0059437Y0060181D02*
X0133137Y0060181D01*
X0133137Y0059583D02*
X0059437Y0059583D01*
X0059437Y0058984D02*
X0061672Y0058984D01*
X0061798Y0059111D02*
X0059513Y0056826D01*
X0059513Y0055511D01*
X0063113Y0055511D01*
X0063113Y0054911D01*
X0059513Y0054911D01*
X0059513Y0053595D01*
X0061798Y0051311D01*
X0063113Y0051311D01*
X0063113Y0054911D01*
X0063713Y0054911D01*
X0063713Y0051311D01*
X0065029Y0051311D01*
X0067313Y0053595D01*
X0067313Y0054911D01*
X0063713Y0054911D01*
X0063713Y0055511D01*
X0063113Y0055511D01*
X0063113Y0059111D01*
X0061798Y0059111D01*
X0061073Y0058386D02*
X0059437Y0058386D01*
X0059437Y0057787D02*
X0060475Y0057787D01*
X0059876Y0057189D02*
X0059437Y0057189D01*
X0059437Y0056590D02*
X0059513Y0056590D01*
X0059513Y0055992D02*
X0059437Y0055992D01*
X0059437Y0055393D02*
X0063113Y0055393D01*
X0063113Y0054795D02*
X0063713Y0054795D01*
X0063713Y0055393D02*
X0132806Y0055393D01*
X0132646Y0054795D02*
X0067313Y0054795D01*
X0067313Y0054196D02*
X0095133Y0054196D01*
X0094535Y0053598D02*
X0067313Y0053598D01*
X0066717Y0052999D02*
X0093936Y0052999D01*
X0093338Y0052401D02*
X0066119Y0052401D01*
X0065520Y0051802D02*
X0092889Y0051802D01*
X0092889Y0051204D02*
X0059437Y0051204D01*
X0059437Y0051802D02*
X0061306Y0051802D01*
X0060708Y0052401D02*
X0059437Y0052401D01*
X0059437Y0052999D02*
X0060109Y0052999D01*
X0059513Y0053598D02*
X0059437Y0053598D01*
X0059437Y0054196D02*
X0059513Y0054196D01*
X0059513Y0054795D02*
X0059437Y0054795D01*
X0063113Y0054196D02*
X0063713Y0054196D01*
X0063713Y0053598D02*
X0063113Y0053598D01*
X0063113Y0052999D02*
X0063713Y0052999D01*
X0063713Y0052401D02*
X0063113Y0052401D01*
X0063113Y0051802D02*
X0063713Y0051802D01*
X0063713Y0055511D02*
X0067313Y0055511D01*
X0067313Y0056826D01*
X0065029Y0059111D01*
X0063713Y0059111D01*
X0063713Y0055511D01*
X0063713Y0055992D02*
X0063113Y0055992D01*
X0063113Y0056590D02*
X0063713Y0056590D01*
X0063713Y0057189D02*
X0063113Y0057189D01*
X0063113Y0057787D02*
X0063713Y0057787D01*
X0063713Y0058386D02*
X0063113Y0058386D01*
X0063113Y0058984D02*
X0063713Y0058984D01*
X0065155Y0058984D02*
X0133137Y0058984D01*
X0133137Y0058386D02*
X0065754Y0058386D01*
X0066352Y0057787D02*
X0133137Y0057787D01*
X0133101Y0057189D02*
X0066951Y0057189D01*
X0067313Y0056590D02*
X0133062Y0056590D01*
X0132967Y0055992D02*
X0067313Y0055992D01*
X0059437Y0050605D02*
X0096489Y0050605D01*
X0096489Y0051204D02*
X0097089Y0051204D01*
X0097089Y0050637D02*
X0097089Y0054237D01*
X0098404Y0054237D01*
X0100689Y0051952D01*
X0100689Y0050637D01*
X0097089Y0050637D01*
X0097089Y0050605D02*
X0102889Y0050605D01*
X0102889Y0050007D02*
X0100689Y0050007D01*
X0100689Y0049408D02*
X0102889Y0049408D01*
X0102889Y0048810D02*
X0100689Y0048810D01*
X0100179Y0048211D02*
X0103399Y0048211D01*
X0103997Y0047613D02*
X0099580Y0047613D01*
X0098982Y0047014D02*
X0104596Y0047014D01*
X0108982Y0047014D02*
X0124842Y0047014D01*
X0126619Y0047613D02*
X0109580Y0047613D01*
X0110179Y0048211D02*
X0127655Y0048211D01*
X0128692Y0048810D02*
X0110689Y0048810D01*
X0110689Y0049408D02*
X0129317Y0049408D01*
X0129916Y0050007D02*
X0110689Y0050007D01*
X0110689Y0050605D02*
X0130514Y0050605D01*
X0130990Y0051204D02*
X0110689Y0051204D01*
X0110689Y0051802D02*
X0131336Y0051802D01*
X0131681Y0052401D02*
X0110240Y0052401D01*
X0109641Y0052999D02*
X0132027Y0052999D01*
X0132325Y0053598D02*
X0109043Y0053598D01*
X0108444Y0054196D02*
X0132486Y0054196D01*
X0135991Y0052999D02*
X0147837Y0052999D01*
X0147837Y0052401D02*
X0135831Y0052401D01*
X0135603Y0051802D02*
X0147837Y0051802D01*
X0147837Y0051204D02*
X0135258Y0051204D01*
X0134912Y0050605D02*
X0148049Y0050605D01*
X0147837Y0051116D02*
X0148461Y0049609D01*
X0149615Y0048456D01*
X0151121Y0047832D01*
X0152753Y0047832D01*
X0154259Y0048456D01*
X0155413Y0049609D01*
X0156037Y0051116D01*
X0156037Y0058347D01*
X0155413Y0059854D01*
X0154259Y0061008D01*
X0152753Y0061632D01*
X0151121Y0061632D01*
X0149615Y0061008D01*
X0148461Y0059854D01*
X0147837Y0058347D01*
X0147837Y0051116D01*
X0148297Y0050007D02*
X0134566Y0050007D01*
X0134221Y0049408D02*
X0148662Y0049408D01*
X0149261Y0048810D02*
X0133875Y0048810D01*
X0133347Y0048211D02*
X0150205Y0048211D01*
X0153669Y0048211D02*
X0160205Y0048211D01*
X0159615Y0048456D02*
X0161121Y0047832D01*
X0162753Y0047832D01*
X0164259Y0048456D01*
X0165413Y0049609D01*
X0166037Y0051116D01*
X0166037Y0058347D01*
X0165413Y0059854D01*
X0164259Y0061008D01*
X0162753Y0061632D01*
X0161121Y0061632D01*
X0159615Y0061008D01*
X0158461Y0059854D01*
X0157837Y0058347D01*
X0157837Y0051116D01*
X0158461Y0049609D01*
X0159615Y0048456D01*
X0159261Y0048810D02*
X0154613Y0048810D01*
X0155212Y0049408D02*
X0158662Y0049408D01*
X0158297Y0050007D02*
X0155577Y0050007D01*
X0155825Y0050605D02*
X0158049Y0050605D01*
X0157837Y0051204D02*
X0156037Y0051204D01*
X0156037Y0051802D02*
X0157837Y0051802D01*
X0157837Y0052401D02*
X0156037Y0052401D01*
X0156037Y0052999D02*
X0157837Y0052999D01*
X0157837Y0053598D02*
X0156037Y0053598D01*
X0156037Y0054196D02*
X0157837Y0054196D01*
X0157837Y0054795D02*
X0156037Y0054795D01*
X0156037Y0055393D02*
X0157837Y0055393D01*
X0157837Y0055992D02*
X0156037Y0055992D01*
X0156037Y0056590D02*
X0157837Y0056590D01*
X0157837Y0057189D02*
X0156037Y0057189D01*
X0156037Y0057787D02*
X0157837Y0057787D01*
X0157853Y0058386D02*
X0156021Y0058386D01*
X0155773Y0058984D02*
X0158101Y0058984D01*
X0158349Y0059583D02*
X0155525Y0059583D01*
X0155086Y0060181D02*
X0158788Y0060181D01*
X0159387Y0060780D02*
X0154487Y0060780D01*
X0153364Y0061379D02*
X0160510Y0061379D01*
X0163364Y0061379D02*
X0172336Y0061379D01*
X0171576Y0061977D02*
X0136737Y0061977D01*
X0136737Y0061379D02*
X0150510Y0061379D01*
X0149387Y0060780D02*
X0136737Y0060780D01*
X0136737Y0060181D02*
X0148788Y0060181D01*
X0148349Y0059583D02*
X0136737Y0059583D01*
X0136737Y0058984D02*
X0148101Y0058984D01*
X0147853Y0058386D02*
X0136737Y0058386D01*
X0136737Y0057787D02*
X0147837Y0057787D01*
X0147837Y0057189D02*
X0136737Y0057189D01*
X0136737Y0056590D02*
X0147837Y0056590D01*
X0147837Y0055992D02*
X0136737Y0055992D01*
X0136632Y0055393D02*
X0147837Y0055393D01*
X0147837Y0054795D02*
X0136472Y0054795D01*
X0136312Y0054196D02*
X0147837Y0054196D01*
X0147837Y0053598D02*
X0136151Y0053598D01*
X0132748Y0047613D02*
X0186937Y0047613D01*
X0186937Y0048211D02*
X0163669Y0048211D01*
X0164613Y0048810D02*
X0186937Y0048810D01*
X0186937Y0049408D02*
X0165212Y0049408D01*
X0165577Y0050007D02*
X0186937Y0050007D01*
X0186937Y0050605D02*
X0165825Y0050605D01*
X0166037Y0051204D02*
X0186937Y0051204D01*
X0186937Y0051802D02*
X0166037Y0051802D01*
X0166037Y0052401D02*
X0186937Y0052401D01*
X0186937Y0052999D02*
X0166037Y0052999D01*
X0166037Y0053598D02*
X0186937Y0053598D01*
X0186937Y0054196D02*
X0166037Y0054196D01*
X0166037Y0054795D02*
X0186937Y0054795D01*
X0186937Y0055393D02*
X0166037Y0055393D01*
X0166037Y0055992D02*
X0186937Y0055992D01*
X0186937Y0056590D02*
X0166037Y0056590D01*
X0166037Y0057189D02*
X0186937Y0057189D01*
X0186937Y0057787D02*
X0166037Y0057787D01*
X0166021Y0058386D02*
X0186937Y0058386D01*
X0186937Y0058984D02*
X0165773Y0058984D01*
X0165525Y0059583D02*
X0186937Y0059583D01*
X0186937Y0060181D02*
X0165086Y0060181D01*
X0164487Y0060780D02*
X0186937Y0060780D01*
X0186937Y0069758D02*
X0136737Y0069758D01*
X0136737Y0070356D02*
X0186937Y0070356D01*
X0186937Y0079334D02*
X0153837Y0079334D01*
X0153837Y0079932D02*
X0186937Y0079932D01*
X0186937Y0080531D02*
X0153837Y0080531D01*
X0153596Y0081129D02*
X0172843Y0081129D01*
X0172128Y0081426D02*
X0173561Y0080832D01*
X0180313Y0080832D01*
X0181746Y0081426D01*
X0182843Y0082523D01*
X0183437Y0083956D01*
X0183437Y0085508D01*
X0182843Y0086941D01*
X0181746Y0088038D01*
X0180313Y0088632D01*
X0173561Y0088632D01*
X0172128Y0088038D01*
X0171031Y0086941D01*
X0170437Y0085508D01*
X0170437Y0083956D01*
X0171031Y0082523D01*
X0172128Y0081426D01*
X0171826Y0081728D02*
X0153348Y0081728D01*
X0152941Y0082326D02*
X0171227Y0082326D01*
X0170864Y0082925D02*
X0152342Y0082925D01*
X0151297Y0083523D02*
X0170616Y0083523D01*
X0170437Y0085319D02*
X0136783Y0085319D01*
X0136830Y0085917D02*
X0142632Y0085917D01*
X0141555Y0086516D02*
X0137001Y0086516D01*
X0137195Y0087114D02*
X0140956Y0087114D01*
X0140535Y0087713D02*
X0137390Y0087713D01*
X0137584Y0088312D02*
X0140288Y0088312D01*
X0140040Y0088910D02*
X0137962Y0088910D01*
X0138396Y0089509D02*
X0140037Y0089509D01*
X0140037Y0090107D02*
X0138831Y0090107D01*
X0139380Y0090706D02*
X0140103Y0090706D01*
X0140204Y0091304D02*
X0140350Y0091304D01*
X0138026Y0094297D02*
X0074211Y0094297D01*
X0074949Y0093698D02*
X0137203Y0093698D01*
X0136431Y0093100D02*
X0075489Y0093100D01*
X0075899Y0092501D02*
X0135996Y0092501D01*
X0135561Y0091903D02*
X0076204Y0091903D01*
X0076409Y0091304D02*
X0135126Y0091304D01*
X0138850Y0094895D02*
X0073044Y0094895D01*
X0073377Y0098486D02*
X0084584Y0098486D01*
X0084615Y0098456D02*
X0086121Y0097832D01*
X0087753Y0097832D01*
X0089259Y0098456D01*
X0090413Y0099609D01*
X0091037Y0101116D01*
X0091037Y0108347D01*
X0090413Y0109854D01*
X0089259Y0111008D01*
X0087753Y0111632D01*
X0086121Y0111632D01*
X0084615Y0111008D01*
X0083461Y0109854D01*
X0082837Y0108347D01*
X0082837Y0101116D01*
X0083461Y0099609D01*
X0084615Y0098456D01*
X0083986Y0099085D02*
X0074489Y0099085D01*
X0075087Y0099683D02*
X0083431Y0099683D01*
X0083183Y0100282D02*
X0075686Y0100282D01*
X0076000Y0100880D02*
X0082935Y0100880D01*
X0082837Y0101479D02*
X0076248Y0101479D01*
X0076496Y0102077D02*
X0082837Y0102077D01*
X0082837Y0102676D02*
X0076637Y0102676D01*
X0076637Y0103274D02*
X0082837Y0103274D01*
X0082837Y0103873D02*
X0076637Y0103873D01*
X0076637Y0104471D02*
X0082837Y0104471D01*
X0082837Y0105070D02*
X0076445Y0105070D01*
X0076197Y0105668D02*
X0082837Y0105668D01*
X0082837Y0106267D02*
X0075949Y0106267D01*
X0075561Y0106865D02*
X0082837Y0106865D01*
X0082837Y0107464D02*
X0074963Y0107464D01*
X0074364Y0108062D02*
X0082837Y0108062D01*
X0082967Y0108661D02*
X0073077Y0108661D01*
X0083215Y0109259D02*
X0059437Y0109259D01*
X0059437Y0108661D02*
X0060797Y0108661D01*
X0059510Y0108062D02*
X0059437Y0108062D01*
X0059437Y0109858D02*
X0083465Y0109858D01*
X0084063Y0110456D02*
X0059437Y0110456D01*
X0059437Y0111055D02*
X0084729Y0111055D01*
X0089145Y0111055D02*
X0094729Y0111055D01*
X0094615Y0111008D02*
X0093461Y0109854D01*
X0092837Y0108347D01*
X0092837Y0101116D01*
X0093461Y0099609D01*
X0094615Y0098456D01*
X0096121Y0097832D01*
X0097753Y0097832D01*
X0099259Y0098456D01*
X0100413Y0099609D01*
X0101037Y0101116D01*
X0101037Y0108347D01*
X0100413Y0109854D01*
X0099259Y0111008D01*
X0097753Y0111632D01*
X0096121Y0111632D01*
X0094615Y0111008D01*
X0094063Y0110456D02*
X0089811Y0110456D01*
X0090409Y0109858D02*
X0093465Y0109858D01*
X0093215Y0109259D02*
X0090659Y0109259D01*
X0090907Y0108661D02*
X0092967Y0108661D01*
X0092837Y0108062D02*
X0091037Y0108062D01*
X0091037Y0107464D02*
X0092837Y0107464D01*
X0092837Y0106865D02*
X0091037Y0106865D01*
X0091037Y0106267D02*
X0092837Y0106267D01*
X0092837Y0105668D02*
X0091037Y0105668D01*
X0091037Y0105070D02*
X0092837Y0105070D01*
X0092837Y0104471D02*
X0091037Y0104471D01*
X0091037Y0103873D02*
X0092837Y0103873D01*
X0092837Y0103274D02*
X0091037Y0103274D01*
X0091037Y0102676D02*
X0092837Y0102676D01*
X0092837Y0102077D02*
X0091037Y0102077D01*
X0091037Y0101479D02*
X0092837Y0101479D01*
X0092935Y0100880D02*
X0090939Y0100880D01*
X0090691Y0100282D02*
X0093183Y0100282D01*
X0093431Y0099683D02*
X0090443Y0099683D01*
X0089888Y0099085D02*
X0093986Y0099085D01*
X0094584Y0098486D02*
X0089290Y0098486D01*
X0087887Y0097888D02*
X0095987Y0097888D01*
X0097887Y0097888D02*
X0171977Y0097888D01*
X0171379Y0097289D02*
X0059437Y0097289D01*
X0059437Y0096691D02*
X0170927Y0096691D01*
X0173210Y0098486D02*
X0099290Y0098486D01*
X0099888Y0099085D02*
X0186937Y0099085D01*
X0186937Y0099683D02*
X0100443Y0099683D01*
X0100691Y0100282D02*
X0186937Y0100282D01*
X0186937Y0100880D02*
X0180430Y0100880D01*
X0180313Y0100832D02*
X0181746Y0101426D01*
X0182843Y0102523D01*
X0183437Y0103956D01*
X0183437Y0105508D01*
X0182843Y0106941D01*
X0181746Y0108038D01*
X0180313Y0108632D01*
X0173561Y0108632D01*
X0172128Y0108038D01*
X0171031Y0106941D01*
X0170437Y0105508D01*
X0170437Y0103956D01*
X0171031Y0102523D01*
X0172128Y0101426D01*
X0173561Y0100832D01*
X0180313Y0100832D01*
X0181799Y0101479D02*
X0186937Y0101479D01*
X0186937Y0102077D02*
X0182398Y0102077D01*
X0182907Y0102676D02*
X0186937Y0102676D01*
X0186937Y0103274D02*
X0183155Y0103274D01*
X0183402Y0103873D02*
X0186937Y0103873D01*
X0186937Y0104471D02*
X0183437Y0104471D01*
X0183437Y0105070D02*
X0186937Y0105070D01*
X0186937Y0105668D02*
X0183370Y0105668D01*
X0183123Y0106267D02*
X0186937Y0106267D01*
X0186937Y0106865D02*
X0182875Y0106865D01*
X0182320Y0107464D02*
X0186937Y0107464D01*
X0186937Y0108062D02*
X0181688Y0108062D01*
X0180313Y0110832D02*
X0181746Y0111426D01*
X0182843Y0112523D01*
X0183437Y0113956D01*
X0183437Y0115508D01*
X0182843Y0116941D01*
X0181746Y0118038D01*
X0180313Y0118632D01*
X0173561Y0118632D01*
X0172128Y0118038D01*
X0171031Y0116941D01*
X0170437Y0115508D01*
X0170437Y0113956D01*
X0171031Y0112523D01*
X0172128Y0111426D01*
X0173561Y0110832D01*
X0180313Y0110832D01*
X0180851Y0111055D02*
X0186937Y0111055D01*
X0186937Y0111653D02*
X0181974Y0111653D01*
X0182573Y0112252D02*
X0186937Y0112252D01*
X0186937Y0112850D02*
X0182979Y0112850D01*
X0183227Y0113449D02*
X0186937Y0113449D01*
X0186937Y0114048D02*
X0183437Y0114048D01*
X0183437Y0114646D02*
X0186937Y0114646D01*
X0186937Y0115245D02*
X0183437Y0115245D01*
X0183298Y0115843D02*
X0186937Y0115843D01*
X0186937Y0116442D02*
X0183050Y0116442D01*
X0182744Y0117040D02*
X0186937Y0117040D01*
X0186937Y0117639D02*
X0182146Y0117639D01*
X0181266Y0118237D02*
X0186937Y0118237D01*
X0186937Y0118836D02*
X0059437Y0118836D01*
X0059437Y0119434D02*
X0186937Y0119434D01*
X0186937Y0120033D02*
X0059437Y0120033D01*
X0059437Y0120631D02*
X0186937Y0120631D01*
X0186937Y0121230D02*
X0059437Y0121230D01*
X0059437Y0121828D02*
X0186937Y0121828D01*
X0186937Y0122427D02*
X0059437Y0122427D01*
X0059437Y0123025D02*
X0186937Y0123025D01*
X0186937Y0123624D02*
X0059437Y0123624D01*
X0059437Y0124222D02*
X0186937Y0124222D01*
X0186937Y0124821D02*
X0059437Y0124821D01*
X0059437Y0125419D02*
X0186937Y0125419D01*
X0186937Y0126018D02*
X0059437Y0126018D01*
X0059437Y0126616D02*
X0186937Y0126616D01*
X0186937Y0127215D02*
X0059437Y0127215D01*
X0059437Y0127813D02*
X0186937Y0127813D01*
X0186937Y0128412D02*
X0059437Y0128412D01*
X0059437Y0129010D02*
X0186937Y0129010D01*
X0186937Y0129609D02*
X0059437Y0129609D01*
X0059437Y0130207D02*
X0186937Y0130207D01*
X0186937Y0130806D02*
X0090922Y0130806D01*
X0090697Y0130733D02*
X0091311Y0130932D01*
X0091886Y0131225D01*
X0092408Y0131605D01*
X0092864Y0132061D01*
X0093244Y0132583D01*
X0093537Y0133158D01*
X0093736Y0133772D01*
X0093837Y0134409D01*
X0093837Y0134432D01*
X0087237Y0134432D01*
X0087237Y0135032D01*
X0086637Y0135032D01*
X0086637Y0138832D01*
X0083814Y0138832D01*
X0083177Y0138731D01*
X0082563Y0138531D01*
X0081988Y0138238D01*
X0081466Y0137859D01*
X0081010Y0137403D01*
X0080630Y0136881D01*
X0080337Y0136306D01*
X0080138Y0135692D01*
X0080037Y0135055D01*
X0080037Y0135032D01*
X0086637Y0135032D01*
X0086637Y0134432D01*
X0080037Y0134432D01*
X0080037Y0134409D01*
X0080138Y0133772D01*
X0080337Y0133158D01*
X0080630Y0132583D01*
X0081010Y0132061D01*
X0081466Y0131605D01*
X0081988Y0131225D01*
X0082563Y0130932D01*
X0083177Y0130733D01*
X0083814Y0130632D01*
X0086637Y0130632D01*
X0086637Y0134432D01*
X0087237Y0134432D01*
X0087237Y0130632D01*
X0090060Y0130632D01*
X0090697Y0130733D01*
X0092132Y0131404D02*
X0186937Y0131404D01*
X0186937Y0132003D02*
X0092806Y0132003D01*
X0093253Y0132601D02*
X0186937Y0132601D01*
X0186937Y0133200D02*
X0093550Y0133200D01*
X0093740Y0133798D02*
X0186937Y0133798D01*
X0186937Y0134397D02*
X0093835Y0134397D01*
X0093837Y0135032D02*
X0093837Y0135055D01*
X0093736Y0135692D01*
X0093537Y0136306D01*
X0093244Y0136881D01*
X0092864Y0137403D01*
X0092408Y0137859D01*
X0091886Y0138238D01*
X0091311Y0138531D01*
X0090697Y0138731D01*
X0090060Y0138832D01*
X0087237Y0138832D01*
X0087237Y0135032D01*
X0093837Y0135032D01*
X0093752Y0135594D02*
X0186937Y0135594D01*
X0186937Y0136192D02*
X0093573Y0136192D01*
X0093289Y0136791D02*
X0186937Y0136791D01*
X0186937Y0137389D02*
X0092874Y0137389D01*
X0092231Y0137988D02*
X0186937Y0137988D01*
X0186937Y0138586D02*
X0091142Y0138586D01*
X0090697Y0140733D02*
X0091311Y0140932D01*
X0091886Y0141225D01*
X0092408Y0141605D01*
X0092864Y0142061D01*
X0093244Y0142583D01*
X0093537Y0143158D01*
X0093736Y0143772D01*
X0093837Y0144409D01*
X0093837Y0144432D01*
X0087237Y0144432D01*
X0087237Y0145032D01*
X0086637Y0145032D01*
X0086637Y0148832D01*
X0083814Y0148832D01*
X0083177Y0148731D01*
X0082563Y0148531D01*
X0081988Y0148238D01*
X0081466Y0147859D01*
X0081010Y0147403D01*
X0080630Y0146881D01*
X0080337Y0146306D01*
X0080138Y0145692D01*
X0080037Y0145055D01*
X0080037Y0145032D01*
X0086637Y0145032D01*
X0086637Y0144432D01*
X0080037Y0144432D01*
X0080037Y0144409D01*
X0080138Y0143772D01*
X0080337Y0143158D01*
X0080630Y0142583D01*
X0081010Y0142061D01*
X0081466Y0141605D01*
X0081988Y0141225D01*
X0082563Y0140932D01*
X0083177Y0140733D01*
X0083814Y0140632D01*
X0086637Y0140632D01*
X0086637Y0144432D01*
X0087237Y0144432D01*
X0087237Y0140632D01*
X0090060Y0140632D01*
X0090697Y0140733D01*
X0091406Y0140981D02*
X0186937Y0140981D01*
X0186937Y0141579D02*
X0092373Y0141579D01*
X0092949Y0142178D02*
X0186937Y0142178D01*
X0186937Y0142776D02*
X0093342Y0142776D01*
X0093607Y0143375D02*
X0104888Y0143375D01*
X0104788Y0143425D02*
X0105363Y0143132D01*
X0105977Y0142933D01*
X0106614Y0142832D01*
X0106637Y0142832D01*
X0106637Y0149432D01*
X0102837Y0149432D01*
X0102837Y0146609D01*
X0102938Y0145972D01*
X0103137Y0145358D01*
X0103430Y0144783D01*
X0103810Y0144261D01*
X0104266Y0143805D01*
X0104788Y0143425D01*
X0104097Y0143973D02*
X0093768Y0143973D01*
X0093837Y0145032D02*
X0093837Y0145055D01*
X0093736Y0145692D01*
X0093537Y0146306D01*
X0093244Y0146881D01*
X0092864Y0147403D01*
X0092408Y0147859D01*
X0091886Y0148238D01*
X0091311Y0148531D01*
X0090697Y0148731D01*
X0090060Y0148832D01*
X0087237Y0148832D01*
X0087237Y0145032D01*
X0093837Y0145032D01*
X0093819Y0145170D02*
X0103233Y0145170D01*
X0103004Y0145769D02*
X0093711Y0145769D01*
X0093505Y0146367D02*
X0102875Y0146367D01*
X0102837Y0146966D02*
X0093182Y0146966D01*
X0092703Y0147564D02*
X0102837Y0147564D01*
X0102837Y0148163D02*
X0091990Y0148163D01*
X0090506Y0148761D02*
X0102837Y0148761D01*
X0102837Y0149360D02*
X0059437Y0149360D01*
X0059437Y0148761D02*
X0083368Y0148761D01*
X0081884Y0148163D02*
X0059437Y0148163D01*
X0059437Y0147564D02*
X0081171Y0147564D01*
X0080692Y0146966D02*
X0059437Y0146966D01*
X0059437Y0146367D02*
X0080369Y0146367D01*
X0080163Y0145769D02*
X0059437Y0145769D01*
X0059437Y0145170D02*
X0080055Y0145170D01*
X0080106Y0143973D02*
X0059437Y0143973D01*
X0059437Y0143375D02*
X0080267Y0143375D01*
X0080532Y0142776D02*
X0059437Y0142776D01*
X0059437Y0142178D02*
X0080925Y0142178D01*
X0081501Y0141579D02*
X0059437Y0141579D01*
X0059437Y0140981D02*
X0082468Y0140981D01*
X0082732Y0138586D02*
X0059437Y0138586D01*
X0059437Y0137988D02*
X0081643Y0137988D01*
X0081000Y0137389D02*
X0059437Y0137389D01*
X0059437Y0136791D02*
X0080585Y0136791D01*
X0080301Y0136192D02*
X0059437Y0136192D01*
X0059437Y0135594D02*
X0080122Y0135594D01*
X0080039Y0134397D02*
X0059437Y0134397D01*
X0059437Y0134995D02*
X0086637Y0134995D01*
X0086637Y0134397D02*
X0087237Y0134397D01*
X0087237Y0134995D02*
X0186937Y0134995D01*
X0186937Y0139185D02*
X0059437Y0139185D01*
X0059437Y0139783D02*
X0186937Y0139783D01*
X0186937Y0140382D02*
X0059437Y0140382D01*
X0059437Y0144572D02*
X0086637Y0144572D01*
X0086637Y0145170D02*
X0087237Y0145170D01*
X0087237Y0144572D02*
X0103584Y0144572D01*
X0106637Y0144572D02*
X0107237Y0144572D01*
X0107237Y0145170D02*
X0106637Y0145170D01*
X0106637Y0145769D02*
X0107237Y0145769D01*
X0107237Y0146367D02*
X0106637Y0146367D01*
X0106637Y0146966D02*
X0107237Y0146966D01*
X0107237Y0147564D02*
X0106637Y0147564D01*
X0106637Y0148163D02*
X0107237Y0148163D01*
X0107237Y0148761D02*
X0106637Y0148761D01*
X0106637Y0149360D02*
X0107237Y0149360D01*
X0107237Y0149432D02*
X0107237Y0142832D01*
X0107260Y0142832D01*
X0107897Y0142933D01*
X0108511Y0143132D01*
X0109086Y0143425D01*
X0109608Y0143805D01*
X0110064Y0144261D01*
X0110444Y0144783D01*
X0110737Y0145358D01*
X0110936Y0145972D01*
X0111037Y0146609D01*
X0111037Y0149432D01*
X0107237Y0149432D01*
X0107237Y0150032D01*
X0106637Y0150032D01*
X0106637Y0156632D01*
X0106614Y0156632D01*
X0105977Y0156531D01*
X0105363Y0156331D01*
X0104788Y0156038D01*
X0104266Y0155659D01*
X0103810Y0155203D01*
X0103430Y0154681D01*
X0103137Y0154106D01*
X0102938Y0153492D01*
X0102837Y0152855D01*
X0102837Y0150032D01*
X0106637Y0150032D01*
X0106637Y0149432D01*
X0107237Y0149432D01*
X0107237Y0149958D02*
X0112837Y0149958D01*
X0112837Y0149360D02*
X0111037Y0149360D01*
X0111037Y0148761D02*
X0112837Y0148761D01*
X0112837Y0148163D02*
X0111037Y0148163D01*
X0111037Y0147564D02*
X0112837Y0147564D01*
X0112837Y0146966D02*
X0111037Y0146966D01*
X0110999Y0146367D02*
X0112837Y0146367D01*
X0112837Y0146116D02*
X0113461Y0144609D01*
X0114615Y0143456D01*
X0116121Y0142832D01*
X0117753Y0142832D01*
X0119259Y0143456D01*
X0120413Y0144609D01*
X0121037Y0146116D01*
X0121037Y0153347D01*
X0120413Y0154854D01*
X0119259Y0156008D01*
X0117753Y0156632D01*
X0116121Y0156632D01*
X0114615Y0156008D01*
X0113461Y0154854D01*
X0112837Y0153347D01*
X0112837Y0146116D01*
X0112981Y0145769D02*
X0110870Y0145769D01*
X0110641Y0145170D02*
X0113229Y0145170D01*
X0113499Y0144572D02*
X0110290Y0144572D01*
X0109777Y0143973D02*
X0114098Y0143973D01*
X0114811Y0143375D02*
X0108986Y0143375D01*
X0107237Y0143375D02*
X0106637Y0143375D01*
X0106637Y0143973D02*
X0107237Y0143973D01*
X0106637Y0149958D02*
X0082295Y0149958D01*
X0082737Y0150557D02*
X0102837Y0150557D01*
X0102837Y0151155D02*
X0082737Y0151155D01*
X0082737Y0151754D02*
X0102837Y0151754D01*
X0102837Y0152352D02*
X0082737Y0152352D01*
X0082737Y0152951D02*
X0102852Y0152951D01*
X0102957Y0153549D02*
X0082737Y0153549D01*
X0082737Y0154148D02*
X0103159Y0154148D01*
X0103478Y0154746D02*
X0082737Y0154746D01*
X0082737Y0155345D02*
X0103952Y0155345D01*
X0104657Y0155943D02*
X0082737Y0155943D01*
X0082737Y0156542D02*
X0106046Y0156542D01*
X0106637Y0156542D02*
X0107237Y0156542D01*
X0107237Y0156632D02*
X0107237Y0150032D01*
X0111037Y0150032D01*
X0111037Y0152855D01*
X0110936Y0153492D01*
X0110737Y0154106D01*
X0110444Y0154681D01*
X0110064Y0155203D01*
X0109608Y0155659D01*
X0109086Y0156038D01*
X0108511Y0156331D01*
X0107897Y0156531D01*
X0107260Y0156632D01*
X0107237Y0156632D01*
X0107828Y0156542D02*
X0115904Y0156542D01*
X0114550Y0155943D02*
X0109217Y0155943D01*
X0109922Y0155345D02*
X0113952Y0155345D01*
X0113416Y0154746D02*
X0110396Y0154746D01*
X0110715Y0154148D02*
X0113169Y0154148D01*
X0112921Y0153549D02*
X0110917Y0153549D01*
X0111022Y0152951D02*
X0112837Y0152951D01*
X0112837Y0152352D02*
X0111037Y0152352D01*
X0111037Y0151754D02*
X0112837Y0151754D01*
X0112837Y0151155D02*
X0111037Y0151155D01*
X0111037Y0150557D02*
X0112837Y0150557D01*
X0107237Y0150557D02*
X0106637Y0150557D01*
X0106637Y0151155D02*
X0107237Y0151155D01*
X0107237Y0151754D02*
X0106637Y0151754D01*
X0106637Y0152352D02*
X0107237Y0152352D01*
X0107237Y0152951D02*
X0106637Y0152951D01*
X0106637Y0153549D02*
X0107237Y0153549D01*
X0107237Y0154148D02*
X0106637Y0154148D01*
X0106637Y0154746D02*
X0107237Y0154746D01*
X0107237Y0155345D02*
X0106637Y0155345D01*
X0106637Y0155943D02*
X0107237Y0155943D01*
X0117970Y0156542D02*
X0125904Y0156542D01*
X0126121Y0156632D02*
X0124615Y0156008D01*
X0123461Y0154854D01*
X0122837Y0153347D01*
X0122837Y0146116D01*
X0123461Y0144609D01*
X0124615Y0143456D01*
X0126121Y0142832D01*
X0127753Y0142832D01*
X0129259Y0143456D01*
X0130413Y0144609D01*
X0131037Y0146116D01*
X0131037Y0153347D01*
X0130413Y0154854D01*
X0129259Y0156008D01*
X0127753Y0156632D01*
X0126121Y0156632D01*
X0124550Y0155943D02*
X0119324Y0155943D01*
X0119922Y0155345D02*
X0123952Y0155345D01*
X0123416Y0154746D02*
X0120458Y0154746D01*
X0120705Y0154148D02*
X0123169Y0154148D01*
X0122921Y0153549D02*
X0120953Y0153549D01*
X0121037Y0152951D02*
X0122837Y0152951D01*
X0122837Y0152352D02*
X0121037Y0152352D01*
X0121037Y0151754D02*
X0122837Y0151754D01*
X0122837Y0151155D02*
X0121037Y0151155D01*
X0121037Y0150557D02*
X0122837Y0150557D01*
X0122837Y0149958D02*
X0121037Y0149958D01*
X0121037Y0149360D02*
X0122837Y0149360D01*
X0122837Y0148761D02*
X0121037Y0148761D01*
X0121037Y0148163D02*
X0122837Y0148163D01*
X0122837Y0147564D02*
X0121037Y0147564D01*
X0121037Y0146966D02*
X0122837Y0146966D01*
X0122837Y0146367D02*
X0121037Y0146367D01*
X0120893Y0145769D02*
X0122981Y0145769D01*
X0123229Y0145170D02*
X0120645Y0145170D01*
X0120375Y0144572D02*
X0123499Y0144572D01*
X0124098Y0143973D02*
X0119777Y0143973D01*
X0119063Y0143375D02*
X0124811Y0143375D01*
X0129063Y0143375D02*
X0134888Y0143375D01*
X0134788Y0143425D02*
X0135363Y0143132D01*
X0135977Y0142933D01*
X0136614Y0142832D01*
X0136637Y0142832D01*
X0136637Y0149432D01*
X0132837Y0149432D01*
X0132837Y0146609D01*
X0132938Y0145972D01*
X0133137Y0145358D01*
X0133430Y0144783D01*
X0133810Y0144261D01*
X0134266Y0143805D01*
X0134788Y0143425D01*
X0134097Y0143973D02*
X0129777Y0143973D01*
X0130375Y0144572D02*
X0133584Y0144572D01*
X0133233Y0145170D02*
X0130645Y0145170D01*
X0130893Y0145769D02*
X0133004Y0145769D01*
X0132875Y0146367D02*
X0131037Y0146367D01*
X0131037Y0146966D02*
X0132837Y0146966D01*
X0132837Y0147564D02*
X0131037Y0147564D01*
X0131037Y0148163D02*
X0132837Y0148163D01*
X0132837Y0148761D02*
X0131037Y0148761D01*
X0131037Y0149360D02*
X0132837Y0149360D01*
X0132837Y0150032D02*
X0136637Y0150032D01*
X0136637Y0156632D01*
X0136614Y0156632D01*
X0135977Y0156531D01*
X0135363Y0156331D01*
X0134788Y0156038D01*
X0134266Y0155659D01*
X0133810Y0155203D01*
X0133430Y0154681D01*
X0133137Y0154106D01*
X0132938Y0153492D01*
X0132837Y0152855D01*
X0132837Y0150032D01*
X0132837Y0150557D02*
X0131037Y0150557D01*
X0131037Y0151155D02*
X0132837Y0151155D01*
X0132837Y0151754D02*
X0131037Y0151754D01*
X0131037Y0152352D02*
X0132837Y0152352D01*
X0132852Y0152951D02*
X0131037Y0152951D01*
X0130953Y0153549D02*
X0132957Y0153549D01*
X0133159Y0154148D02*
X0130705Y0154148D01*
X0130458Y0154746D02*
X0133478Y0154746D01*
X0133952Y0155345D02*
X0129922Y0155345D01*
X0129324Y0155943D02*
X0134657Y0155943D01*
X0136046Y0156542D02*
X0127970Y0156542D01*
X0131037Y0149958D02*
X0136637Y0149958D01*
X0136637Y0150032D02*
X0136637Y0149432D01*
X0137237Y0149432D01*
X0137237Y0150032D01*
X0136637Y0150032D01*
X0136637Y0150557D02*
X0137237Y0150557D01*
X0137237Y0150032D02*
X0137237Y0156632D01*
X0137260Y0156632D01*
X0137897Y0156531D01*
X0138511Y0156331D01*
X0139086Y0156038D01*
X0139608Y0155659D01*
X0140064Y0155203D01*
X0140444Y0154681D01*
X0140737Y0154106D01*
X0140936Y0153492D01*
X0141037Y0152855D01*
X0141037Y0150032D01*
X0137237Y0150032D01*
X0137237Y0149958D02*
X0186937Y0149958D01*
X0186937Y0149360D02*
X0141037Y0149360D01*
X0141037Y0149432D02*
X0137237Y0149432D01*
X0137237Y0142832D01*
X0137260Y0142832D01*
X0137897Y0142933D01*
X0138511Y0143132D01*
X0139086Y0143425D01*
X0139608Y0143805D01*
X0140064Y0144261D01*
X0140444Y0144783D01*
X0140737Y0145358D01*
X0140936Y0145972D01*
X0141037Y0146609D01*
X0141037Y0149432D01*
X0141037Y0148761D02*
X0186937Y0148761D01*
X0186937Y0148163D02*
X0141037Y0148163D01*
X0141037Y0147564D02*
X0186937Y0147564D01*
X0186937Y0146966D02*
X0141037Y0146966D01*
X0140999Y0146367D02*
X0186937Y0146367D01*
X0186937Y0145769D02*
X0140870Y0145769D01*
X0140641Y0145170D02*
X0186937Y0145170D01*
X0186937Y0144572D02*
X0140290Y0144572D01*
X0139777Y0143973D02*
X0186937Y0143973D01*
X0186937Y0143375D02*
X0138986Y0143375D01*
X0137237Y0143375D02*
X0136637Y0143375D01*
X0136637Y0143973D02*
X0137237Y0143973D01*
X0137237Y0144572D02*
X0136637Y0144572D01*
X0136637Y0145170D02*
X0137237Y0145170D01*
X0137237Y0145769D02*
X0136637Y0145769D01*
X0136637Y0146367D02*
X0137237Y0146367D01*
X0137237Y0146966D02*
X0136637Y0146966D01*
X0136637Y0147564D02*
X0137237Y0147564D01*
X0137237Y0148163D02*
X0136637Y0148163D01*
X0136637Y0148761D02*
X0137237Y0148761D01*
X0137237Y0149360D02*
X0136637Y0149360D01*
X0136637Y0151155D02*
X0137237Y0151155D01*
X0137237Y0151754D02*
X0136637Y0151754D01*
X0136637Y0152352D02*
X0137237Y0152352D01*
X0137237Y0152951D02*
X0136637Y0152951D01*
X0136637Y0153549D02*
X0137237Y0153549D01*
X0137237Y0154148D02*
X0136637Y0154148D01*
X0136637Y0154746D02*
X0137237Y0154746D01*
X0137237Y0155345D02*
X0136637Y0155345D01*
X0136637Y0155943D02*
X0137237Y0155943D01*
X0137237Y0156542D02*
X0136637Y0156542D01*
X0137828Y0156542D02*
X0186937Y0156542D01*
X0186937Y0157140D02*
X0082737Y0157140D01*
X0082737Y0157739D02*
X0186937Y0157739D01*
X0186937Y0158337D02*
X0082737Y0158337D01*
X0082737Y0158936D02*
X0186937Y0158936D01*
X0186937Y0159534D02*
X0082737Y0159534D01*
X0082737Y0160133D02*
X0186937Y0160133D01*
X0186937Y0160731D02*
X0082737Y0160731D01*
X0082737Y0161330D02*
X0186937Y0161330D01*
X0186937Y0161928D02*
X0082737Y0161928D01*
X0082737Y0162527D02*
X0186937Y0162527D01*
X0186937Y0163125D02*
X0082737Y0163125D01*
X0082737Y0163724D02*
X0186937Y0163724D01*
X0186937Y0164322D02*
X0082737Y0164322D01*
X0082737Y0164921D02*
X0186937Y0164921D01*
X0186937Y0165519D02*
X0082737Y0165519D01*
X0082737Y0166118D02*
X0186937Y0166118D01*
X0186937Y0166716D02*
X0082737Y0166716D01*
X0082737Y0167315D02*
X0186937Y0167315D01*
X0186937Y0167914D02*
X0082737Y0167914D01*
X0082737Y0168512D02*
X0186937Y0168512D01*
X0186937Y0169111D02*
X0082737Y0169111D01*
X0082737Y0169709D02*
X0186937Y0169709D01*
X0186937Y0170308D02*
X0082737Y0170308D01*
X0082737Y0170906D02*
X0186937Y0170906D01*
X0186937Y0155943D02*
X0139217Y0155943D01*
X0139922Y0155345D02*
X0186937Y0155345D01*
X0186937Y0154746D02*
X0140396Y0154746D01*
X0140715Y0154148D02*
X0186937Y0154148D01*
X0186937Y0153549D02*
X0140917Y0153549D01*
X0141022Y0152951D02*
X0186937Y0152951D01*
X0186937Y0152352D02*
X0141037Y0152352D01*
X0141037Y0151754D02*
X0186937Y0151754D01*
X0186937Y0151155D02*
X0141037Y0151155D01*
X0141037Y0150557D02*
X0186937Y0150557D01*
X0172608Y0118237D02*
X0059437Y0118237D01*
X0059437Y0117639D02*
X0171728Y0117639D01*
X0171130Y0117040D02*
X0059437Y0117040D01*
X0059437Y0116442D02*
X0170824Y0116442D01*
X0170576Y0115843D02*
X0059437Y0115843D01*
X0059437Y0115245D02*
X0170437Y0115245D01*
X0170437Y0114646D02*
X0059437Y0114646D01*
X0059437Y0114048D02*
X0170437Y0114048D01*
X0170647Y0113449D02*
X0158735Y0113449D01*
X0158552Y0113632D02*
X0155322Y0113632D01*
X0153037Y0111347D01*
X0153037Y0108116D01*
X0155322Y0105832D01*
X0158552Y0105832D01*
X0160837Y0108116D01*
X0160837Y0111347D01*
X0158552Y0113632D01*
X0159334Y0112850D02*
X0170895Y0112850D01*
X0171301Y0112252D02*
X0159932Y0112252D01*
X0160531Y0111653D02*
X0171900Y0111653D01*
X0173023Y0111055D02*
X0160837Y0111055D01*
X0160837Y0110456D02*
X0186937Y0110456D01*
X0186937Y0109858D02*
X0160837Y0109858D01*
X0160837Y0109259D02*
X0186937Y0109259D01*
X0186937Y0108661D02*
X0160837Y0108661D01*
X0160783Y0108062D02*
X0172187Y0108062D01*
X0171554Y0107464D02*
X0160184Y0107464D01*
X0159586Y0106865D02*
X0170999Y0106865D01*
X0170752Y0106267D02*
X0158987Y0106267D01*
X0154887Y0106267D02*
X0138987Y0106267D01*
X0138552Y0105832D02*
X0140837Y0108116D01*
X0140837Y0111347D01*
X0138552Y0113632D01*
X0135322Y0113632D01*
X0133037Y0111347D01*
X0133037Y0108116D01*
X0135322Y0105832D01*
X0138552Y0105832D01*
X0139586Y0106865D02*
X0154288Y0106865D01*
X0153690Y0107464D02*
X0140184Y0107464D01*
X0140783Y0108062D02*
X0153091Y0108062D01*
X0153037Y0108661D02*
X0140837Y0108661D01*
X0140837Y0109259D02*
X0153037Y0109259D01*
X0153037Y0109858D02*
X0140837Y0109858D01*
X0140837Y0110456D02*
X0153037Y0110456D01*
X0153037Y0111055D02*
X0140837Y0111055D01*
X0140531Y0111653D02*
X0153343Y0111653D01*
X0153942Y0112252D02*
X0139932Y0112252D01*
X0139334Y0112850D02*
X0154540Y0112850D01*
X0155139Y0113449D02*
X0138735Y0113449D01*
X0135139Y0113449D02*
X0059437Y0113449D01*
X0059437Y0112850D02*
X0134540Y0112850D01*
X0133942Y0112252D02*
X0059437Y0112252D01*
X0059437Y0111653D02*
X0133343Y0111653D01*
X0133037Y0111055D02*
X0099145Y0111055D01*
X0099811Y0110456D02*
X0133037Y0110456D01*
X0133037Y0109858D02*
X0100409Y0109858D01*
X0100659Y0109259D02*
X0133037Y0109259D01*
X0133037Y0108661D02*
X0100907Y0108661D01*
X0101037Y0108062D02*
X0133091Y0108062D01*
X0133690Y0107464D02*
X0101037Y0107464D01*
X0101037Y0106865D02*
X0134288Y0106865D01*
X0134887Y0106267D02*
X0101037Y0106267D01*
X0101037Y0105668D02*
X0170504Y0105668D01*
X0170437Y0105070D02*
X0101037Y0105070D01*
X0101037Y0104471D02*
X0170437Y0104471D01*
X0170471Y0103873D02*
X0101037Y0103873D01*
X0101037Y0103274D02*
X0170719Y0103274D01*
X0170967Y0102676D02*
X0101037Y0102676D01*
X0101037Y0102077D02*
X0171476Y0102077D01*
X0172075Y0101479D02*
X0101037Y0101479D01*
X0100939Y0100880D02*
X0173444Y0100880D01*
X0180664Y0098486D02*
X0186937Y0098486D01*
X0186937Y0097888D02*
X0181897Y0097888D01*
X0182495Y0097289D02*
X0186937Y0097289D01*
X0186937Y0096691D02*
X0182947Y0096691D01*
X0183195Y0096092D02*
X0186937Y0096092D01*
X0186937Y0095494D02*
X0183437Y0095494D01*
X0183437Y0094895D02*
X0186937Y0094895D01*
X0186937Y0094297D02*
X0183437Y0094297D01*
X0183330Y0093698D02*
X0186937Y0093698D01*
X0186937Y0093100D02*
X0183082Y0093100D01*
X0182822Y0092501D02*
X0186937Y0092501D01*
X0186937Y0091903D02*
X0182223Y0091903D01*
X0181453Y0091304D02*
X0186937Y0091304D01*
X0186937Y0090706D02*
X0153771Y0090706D01*
X0153837Y0090107D02*
X0186937Y0090107D01*
X0186937Y0089509D02*
X0153837Y0089509D01*
X0153834Y0088910D02*
X0186937Y0088910D01*
X0186937Y0088312D02*
X0181086Y0088312D01*
X0182071Y0087713D02*
X0186937Y0087713D01*
X0186937Y0087114D02*
X0182670Y0087114D01*
X0183019Y0086516D02*
X0186937Y0086516D01*
X0186937Y0085917D02*
X0183267Y0085917D01*
X0183437Y0085319D02*
X0186937Y0085319D01*
X0186937Y0084720D02*
X0183437Y0084720D01*
X0183437Y0084122D02*
X0186937Y0084122D01*
X0186937Y0083523D02*
X0183258Y0083523D01*
X0183010Y0082925D02*
X0186937Y0082925D01*
X0186937Y0082326D02*
X0182647Y0082326D01*
X0182048Y0081728D02*
X0186937Y0081728D01*
X0186937Y0081129D02*
X0181031Y0081129D01*
X0172788Y0088312D02*
X0153586Y0088312D01*
X0153339Y0087713D02*
X0171803Y0087713D01*
X0171204Y0087114D02*
X0152918Y0087114D01*
X0152319Y0086516D02*
X0170855Y0086516D01*
X0170607Y0085917D02*
X0151242Y0085917D01*
X0153524Y0091304D02*
X0172421Y0091304D01*
X0171651Y0091903D02*
X0153276Y0091903D01*
X0152766Y0092501D02*
X0171052Y0092501D01*
X0141715Y0096092D02*
X0059437Y0096092D01*
X0059437Y0095494D02*
X0139873Y0095494D01*
X0139513Y0095377D02*
X0139513Y0095377D01*
X0136737Y0064371D02*
X0170437Y0064371D01*
X0170551Y0063773D02*
X0136737Y0063773D01*
X0136737Y0063174D02*
X0170761Y0063174D01*
X0171087Y0062576D02*
X0136737Y0062576D01*
X0132150Y0047014D02*
X0186937Y0047014D01*
X0186937Y0046416D02*
X0131551Y0046416D01*
X0130900Y0045817D02*
X0186937Y0045817D01*
X0186937Y0045219D02*
X0129864Y0045219D01*
X0128827Y0044620D02*
X0186937Y0044620D01*
X0186937Y0044022D02*
X0127790Y0044022D01*
X0125719Y0043423D02*
X0186937Y0043423D01*
X0186937Y0042825D02*
X0083385Y0042825D01*
X0083030Y0042226D02*
X0186937Y0042226D01*
X0186937Y0041628D02*
X0082431Y0041628D01*
X0081512Y0041029D02*
X0186937Y0041029D01*
X0186937Y0040431D02*
X0059437Y0040431D01*
X0059437Y0041029D02*
X0072362Y0041029D01*
X0071443Y0041628D02*
X0059437Y0041628D01*
X0059437Y0042226D02*
X0070844Y0042226D01*
X0070489Y0042825D02*
X0059437Y0042825D01*
X0059437Y0043423D02*
X0070241Y0043423D01*
X0070037Y0044022D02*
X0059437Y0044022D01*
X0059437Y0044620D02*
X0070037Y0044620D01*
X0070037Y0045219D02*
X0059437Y0045219D01*
X0059437Y0045817D02*
X0070149Y0045817D01*
X0070397Y0046416D02*
X0059437Y0046416D01*
X0059437Y0047014D02*
X0070645Y0047014D01*
X0071220Y0047613D02*
X0059437Y0047613D01*
X0059437Y0048211D02*
X0071823Y0048211D01*
X0073268Y0048810D02*
X0059437Y0048810D01*
X0059437Y0049408D02*
X0092889Y0049408D01*
X0092889Y0048810D02*
X0080606Y0048810D01*
X0082051Y0048211D02*
X0093399Y0048211D01*
X0093997Y0047613D02*
X0082654Y0047613D01*
X0083229Y0047014D02*
X0094596Y0047014D01*
X0092889Y0050007D02*
X0059437Y0050007D01*
X0059437Y0039832D02*
X0186937Y0039832D01*
X0186937Y0039234D02*
X0059437Y0039234D01*
X0059437Y0038635D02*
X0061322Y0038635D01*
X0061798Y0039111D02*
X0059513Y0036826D01*
X0059513Y0033595D01*
X0061798Y0031311D01*
X0065029Y0031311D01*
X0067313Y0033595D01*
X0067313Y0036826D01*
X0065029Y0039111D01*
X0061798Y0039111D01*
X0060724Y0038037D02*
X0059437Y0038037D01*
X0059437Y0037438D02*
X0060125Y0037438D01*
X0059527Y0036840D02*
X0059437Y0036840D01*
X0059437Y0036241D02*
X0059513Y0036241D01*
X0059513Y0035643D02*
X0059437Y0035643D01*
X0059437Y0035044D02*
X0059513Y0035044D01*
X0059513Y0034445D02*
X0059437Y0034445D01*
X0059437Y0033847D02*
X0059513Y0033847D01*
X0059437Y0033248D02*
X0059860Y0033248D01*
X0059437Y0032650D02*
X0060459Y0032650D01*
X0061057Y0032051D02*
X0059437Y0032051D01*
X0059437Y0031453D02*
X0061656Y0031453D01*
X0059437Y0030854D02*
X0072784Y0030854D01*
X0073321Y0030632D02*
X0080553Y0030632D01*
X0082059Y0031256D01*
X0083213Y0032409D01*
X0083837Y0033916D01*
X0083837Y0035547D01*
X0083213Y0037054D01*
X0082059Y0038208D01*
X0080553Y0038832D01*
X0073321Y0038832D01*
X0071815Y0038208D01*
X0070661Y0037054D01*
X0070037Y0035547D01*
X0070037Y0033916D01*
X0070661Y0032409D01*
X0071815Y0031256D01*
X0073321Y0030632D01*
X0071618Y0031453D02*
X0065171Y0031453D01*
X0065769Y0032051D02*
X0071019Y0032051D01*
X0070562Y0032650D02*
X0066368Y0032650D01*
X0066966Y0033248D02*
X0070314Y0033248D01*
X0070066Y0033847D02*
X0067313Y0033847D01*
X0067313Y0034445D02*
X0070037Y0034445D01*
X0070037Y0035044D02*
X0067313Y0035044D01*
X0067313Y0035643D02*
X0070076Y0035643D01*
X0070324Y0036241D02*
X0067313Y0036241D01*
X0067300Y0036840D02*
X0070572Y0036840D01*
X0071045Y0037438D02*
X0066702Y0037438D01*
X0066103Y0038037D02*
X0071643Y0038037D01*
X0072846Y0038635D02*
X0065505Y0038635D01*
X0059437Y0030256D02*
X0111932Y0030256D01*
X0112179Y0030503D02*
X0110753Y0029076D01*
X0109980Y0027212D01*
X0109980Y0025195D01*
X0110753Y0023331D01*
X0112179Y0021904D01*
X0114043Y0021132D01*
X0116061Y0021132D01*
X0117925Y0021904D01*
X0119352Y0023331D01*
X0120124Y0025195D01*
X0120124Y0027212D01*
X0119352Y0029076D01*
X0117925Y0030503D01*
X0116061Y0031275D01*
X0114043Y0031275D01*
X0112179Y0030503D01*
X0113028Y0030854D02*
X0081090Y0030854D01*
X0082256Y0031453D02*
X0186937Y0031453D01*
X0186937Y0032051D02*
X0082855Y0032051D01*
X0083312Y0032650D02*
X0186937Y0032650D01*
X0186937Y0033248D02*
X0083560Y0033248D01*
X0083808Y0033847D02*
X0186937Y0033847D01*
X0186937Y0034445D02*
X0083837Y0034445D01*
X0083837Y0035044D02*
X0186937Y0035044D01*
X0186937Y0035643D02*
X0083798Y0035643D01*
X0083550Y0036241D02*
X0186937Y0036241D01*
X0186937Y0036840D02*
X0083302Y0036840D01*
X0082829Y0037438D02*
X0186937Y0037438D01*
X0186937Y0038037D02*
X0082231Y0038037D01*
X0081028Y0038635D02*
X0186937Y0038635D01*
X0186937Y0030854D02*
X0130856Y0030854D01*
X0131705Y0030503D02*
X0129840Y0031275D01*
X0127823Y0031275D01*
X0125959Y0030503D01*
X0124532Y0029076D01*
X0123760Y0027212D01*
X0123760Y0025195D01*
X0124532Y0023331D01*
X0125959Y0021904D01*
X0127823Y0021132D01*
X0129840Y0021132D01*
X0131705Y0021904D01*
X0133131Y0023331D01*
X0133903Y0025195D01*
X0133903Y0027212D01*
X0133131Y0029076D01*
X0131705Y0030503D01*
X0131952Y0030256D02*
X0186937Y0030256D01*
X0186937Y0029657D02*
X0132550Y0029657D01*
X0133138Y0029059D02*
X0186937Y0029059D01*
X0186937Y0028460D02*
X0133386Y0028460D01*
X0133634Y0027862D02*
X0186937Y0027862D01*
X0186937Y0027263D02*
X0133882Y0027263D01*
X0133903Y0026665D02*
X0186937Y0026665D01*
X0186937Y0026066D02*
X0133903Y0026066D01*
X0133903Y0025468D02*
X0186937Y0025468D01*
X0186937Y0024869D02*
X0133769Y0024869D01*
X0133521Y0024271D02*
X0186937Y0024271D01*
X0186937Y0023672D02*
X0133273Y0023672D01*
X0132874Y0023074D02*
X0186937Y0023074D01*
X0186937Y0022475D02*
X0132276Y0022475D01*
X0131639Y0021877D02*
X0186937Y0021877D01*
X0186937Y0021278D02*
X0130194Y0021278D01*
X0127470Y0021278D02*
X0116414Y0021278D01*
X0117859Y0021877D02*
X0126025Y0021877D01*
X0125388Y0022475D02*
X0118496Y0022475D01*
X0119095Y0023074D02*
X0124789Y0023074D01*
X0124391Y0023672D02*
X0119493Y0023672D01*
X0119741Y0024271D02*
X0124143Y0024271D01*
X0123895Y0024869D02*
X0119989Y0024869D01*
X0120124Y0025468D02*
X0123760Y0025468D01*
X0123760Y0026066D02*
X0120124Y0026066D01*
X0120124Y0026665D02*
X0123760Y0026665D01*
X0123781Y0027263D02*
X0120103Y0027263D01*
X0119855Y0027862D02*
X0124029Y0027862D01*
X0124277Y0028460D02*
X0119607Y0028460D01*
X0119359Y0029059D02*
X0124525Y0029059D01*
X0125113Y0029657D02*
X0118771Y0029657D01*
X0118172Y0030256D02*
X0125712Y0030256D01*
X0126807Y0030854D02*
X0117077Y0030854D01*
X0111334Y0029657D02*
X0059437Y0029657D01*
X0059437Y0029059D02*
X0110745Y0029059D01*
X0110497Y0028460D02*
X0059437Y0028460D01*
X0059437Y0027862D02*
X0110250Y0027862D01*
X0110002Y0027263D02*
X0059437Y0027263D01*
X0059437Y0026665D02*
X0109980Y0026665D01*
X0109980Y0026066D02*
X0059437Y0026066D01*
X0059437Y0025468D02*
X0081773Y0025468D01*
X0082219Y0025913D02*
X0079934Y0023629D01*
X0079934Y0020398D01*
X0082219Y0018113D01*
X0085449Y0018113D01*
X0087734Y0020398D01*
X0087734Y0023629D01*
X0085449Y0025913D01*
X0082219Y0025913D01*
X0081175Y0024869D02*
X0059437Y0024869D01*
X0059437Y0024271D02*
X0080576Y0024271D01*
X0079978Y0023672D02*
X0059437Y0023672D01*
X0059437Y0023074D02*
X0079934Y0023074D01*
X0079934Y0022475D02*
X0059437Y0022475D01*
X0059437Y0021877D02*
X0079934Y0021877D01*
X0079934Y0021278D02*
X0059437Y0021278D01*
X0059437Y0020680D02*
X0079934Y0020680D01*
X0080251Y0020081D02*
X0059437Y0020081D01*
X0059437Y0019483D02*
X0080849Y0019483D01*
X0081448Y0018884D02*
X0059437Y0018884D01*
X0059437Y0018286D02*
X0082046Y0018286D01*
X0085622Y0018286D02*
X0186937Y0018286D01*
X0186937Y0018884D02*
X0086220Y0018884D01*
X0086819Y0019483D02*
X0186937Y0019483D01*
X0186937Y0020081D02*
X0087417Y0020081D01*
X0087734Y0020680D02*
X0186937Y0020680D01*
X0186937Y0017687D02*
X0059437Y0017687D01*
X0059437Y0017089D02*
X0186937Y0017089D01*
X0186937Y0016490D02*
X0059437Y0016490D01*
X0059437Y0015892D02*
X0186937Y0015892D01*
X0186937Y0015293D02*
X0059437Y0015293D01*
X0059437Y0014695D02*
X0186937Y0014695D01*
X0186937Y0014096D02*
X0059437Y0014096D01*
X0059437Y0013498D02*
X0186937Y0013498D01*
X0186937Y0012899D02*
X0059437Y0012899D01*
X0059437Y0012301D02*
X0186937Y0012301D01*
X0186937Y0011702D02*
X0059437Y0011702D01*
X0059437Y0011104D02*
X0186937Y0011104D01*
X0186937Y0010505D02*
X0059437Y0010505D01*
X0059437Y0009907D02*
X0186937Y0009907D01*
X0186937Y0009308D02*
X0059437Y0009308D01*
X0059437Y0008710D02*
X0186937Y0008710D01*
X0186937Y0008111D02*
X0059437Y0008111D01*
X0085895Y0025468D02*
X0109980Y0025468D01*
X0110115Y0024869D02*
X0086493Y0024869D01*
X0087092Y0024271D02*
X0110363Y0024271D01*
X0110611Y0023672D02*
X0087690Y0023672D01*
X0087734Y0023074D02*
X0111009Y0023074D01*
X0111608Y0022475D02*
X0087734Y0022475D01*
X0087734Y0021877D02*
X0112245Y0021877D01*
X0113690Y0021278D02*
X0087734Y0021278D01*
X0096489Y0051802D02*
X0097089Y0051802D01*
X0097089Y0052401D02*
X0096489Y0052401D01*
X0096489Y0052999D02*
X0097089Y0052999D01*
X0097089Y0053598D02*
X0096489Y0053598D01*
X0096489Y0054196D02*
X0097089Y0054196D01*
X0098444Y0054196D02*
X0105133Y0054196D01*
X0104535Y0053598D02*
X0099043Y0053598D01*
X0099641Y0052999D02*
X0103936Y0052999D01*
X0103338Y0052401D02*
X0100240Y0052401D01*
X0100689Y0051802D02*
X0102889Y0051802D01*
X0102889Y0051204D02*
X0100689Y0051204D01*
X0060430Y0070955D02*
X0059437Y0070955D01*
X0059437Y0080531D02*
X0059537Y0080531D01*
X0059437Y0081129D02*
X0060863Y0081129D01*
X0066637Y0090107D02*
X0067237Y0090107D01*
X0067237Y0090706D02*
X0066637Y0090706D01*
X0066637Y0091304D02*
X0067237Y0091304D01*
X0067237Y0091903D02*
X0066637Y0091903D01*
X0066637Y0092501D02*
X0067237Y0092501D01*
X0067237Y0093100D02*
X0066637Y0093100D01*
X0066637Y0093698D02*
X0067237Y0093698D01*
X0067237Y0094297D02*
X0066637Y0094297D01*
X0066637Y0094895D02*
X0067237Y0094895D01*
X0060830Y0094895D02*
X0059437Y0094895D01*
X0059437Y0094297D02*
X0059663Y0094297D01*
X0059437Y0097888D02*
X0085987Y0097888D01*
X0060497Y0098486D02*
X0059437Y0098486D01*
X0059437Y0130806D02*
X0082952Y0130806D01*
X0081742Y0131404D02*
X0059437Y0131404D01*
X0059437Y0132003D02*
X0081068Y0132003D01*
X0080621Y0132601D02*
X0059437Y0132601D01*
X0059437Y0133200D02*
X0080324Y0133200D01*
X0080134Y0133798D02*
X0059437Y0133798D01*
X0086637Y0133798D02*
X0087237Y0133798D01*
X0087237Y0133200D02*
X0086637Y0133200D01*
X0086637Y0132601D02*
X0087237Y0132601D01*
X0087237Y0132003D02*
X0086637Y0132003D01*
X0086637Y0131404D02*
X0087237Y0131404D01*
X0087237Y0130806D02*
X0086637Y0130806D01*
X0086637Y0135594D02*
X0087237Y0135594D01*
X0087237Y0136192D02*
X0086637Y0136192D01*
X0086637Y0136791D02*
X0087237Y0136791D01*
X0087237Y0137389D02*
X0086637Y0137389D01*
X0086637Y0137988D02*
X0087237Y0137988D01*
X0087237Y0138586D02*
X0086637Y0138586D01*
X0086637Y0140981D02*
X0087237Y0140981D01*
X0087237Y0141579D02*
X0086637Y0141579D01*
X0086637Y0142178D02*
X0087237Y0142178D01*
X0087237Y0142776D02*
X0086637Y0142776D01*
X0086637Y0143375D02*
X0087237Y0143375D01*
X0087237Y0143973D02*
X0086637Y0143973D01*
X0086637Y0145769D02*
X0087237Y0145769D01*
X0087237Y0146367D02*
X0086637Y0146367D01*
X0086637Y0146966D02*
X0087237Y0146966D01*
X0087237Y0147564D02*
X0086637Y0147564D01*
X0086637Y0148163D02*
X0087237Y0148163D01*
X0087237Y0148761D02*
X0086637Y0148761D01*
D19*
X0076937Y0089732D02*
X0066937Y0089732D01*
X0062837Y0089732D01*
D20*
X0166937Y0154732D03*
X0166937Y0024732D03*
D21*
X0091937Y0064732D03*
X0091937Y0114732D03*
M02*
