G75*
%MOIN*%
%OFA0B0*%
%FSLAX25Y25*%
%IPPOS*%
%LPD*%
%AMOC8*
5,1,8,0,0,1.08239X$1,22.5*
%
%ADD10C,0.00000*%
%ADD11R,0.05906X0.05118*%
%ADD12R,0.05118X0.05906*%
%ADD13C,0.05600*%
%ADD14R,0.01575X0.04724*%
%ADD15OC8,0.05200*%
%ADD16C,0.35433*%
%ADD17R,0.34449X0.20472*%
%ADD18R,0.09843X0.08661*%
%ADD19R,0.01969X0.07874*%
%ADD20C,0.08400*%
%ADD21R,0.06300X0.04600*%
%ADD22C,0.05200*%
%ADD23C,0.01000*%
%ADD24C,0.03569*%
%ADD25C,0.00600*%
%ADD26C,0.04000*%
%ADD27C,0.10000*%
%ADD28C,0.11000*%
%ADD29C,0.25591*%
%ADD30C,0.05315*%
D10*
X0001937Y0004732D02*
X0001937Y0174692D01*
X0190638Y0174692D01*
X0190638Y0004732D01*
X0001937Y0004732D01*
X0113280Y0026204D02*
X0113282Y0026288D01*
X0113288Y0026371D01*
X0113298Y0026454D01*
X0113312Y0026537D01*
X0113329Y0026619D01*
X0113351Y0026700D01*
X0113376Y0026779D01*
X0113405Y0026858D01*
X0113438Y0026935D01*
X0113474Y0027010D01*
X0113514Y0027084D01*
X0113557Y0027156D01*
X0113604Y0027225D01*
X0113654Y0027292D01*
X0113707Y0027357D01*
X0113763Y0027419D01*
X0113821Y0027479D01*
X0113883Y0027536D01*
X0113947Y0027589D01*
X0114014Y0027640D01*
X0114083Y0027687D01*
X0114154Y0027732D01*
X0114227Y0027772D01*
X0114302Y0027809D01*
X0114379Y0027843D01*
X0114457Y0027873D01*
X0114536Y0027899D01*
X0114617Y0027922D01*
X0114699Y0027940D01*
X0114781Y0027955D01*
X0114864Y0027966D01*
X0114947Y0027973D01*
X0115031Y0027976D01*
X0115115Y0027975D01*
X0115198Y0027970D01*
X0115282Y0027961D01*
X0115364Y0027948D01*
X0115446Y0027932D01*
X0115527Y0027911D01*
X0115608Y0027887D01*
X0115686Y0027859D01*
X0115764Y0027827D01*
X0115840Y0027791D01*
X0115914Y0027752D01*
X0115986Y0027710D01*
X0116056Y0027664D01*
X0116124Y0027615D01*
X0116189Y0027563D01*
X0116252Y0027508D01*
X0116312Y0027450D01*
X0116370Y0027389D01*
X0116424Y0027325D01*
X0116476Y0027259D01*
X0116524Y0027191D01*
X0116569Y0027120D01*
X0116610Y0027047D01*
X0116649Y0026973D01*
X0116683Y0026897D01*
X0116714Y0026819D01*
X0116741Y0026740D01*
X0116765Y0026659D01*
X0116784Y0026578D01*
X0116800Y0026496D01*
X0116812Y0026413D01*
X0116820Y0026329D01*
X0116824Y0026246D01*
X0116824Y0026162D01*
X0116820Y0026079D01*
X0116812Y0025995D01*
X0116800Y0025912D01*
X0116784Y0025830D01*
X0116765Y0025749D01*
X0116741Y0025668D01*
X0116714Y0025589D01*
X0116683Y0025511D01*
X0116649Y0025435D01*
X0116610Y0025361D01*
X0116569Y0025288D01*
X0116524Y0025217D01*
X0116476Y0025149D01*
X0116424Y0025083D01*
X0116370Y0025019D01*
X0116312Y0024958D01*
X0116252Y0024900D01*
X0116189Y0024845D01*
X0116124Y0024793D01*
X0116056Y0024744D01*
X0115986Y0024698D01*
X0115914Y0024656D01*
X0115840Y0024617D01*
X0115764Y0024581D01*
X0115686Y0024549D01*
X0115608Y0024521D01*
X0115527Y0024497D01*
X0115446Y0024476D01*
X0115364Y0024460D01*
X0115282Y0024447D01*
X0115198Y0024438D01*
X0115115Y0024433D01*
X0115031Y0024432D01*
X0114947Y0024435D01*
X0114864Y0024442D01*
X0114781Y0024453D01*
X0114699Y0024468D01*
X0114617Y0024486D01*
X0114536Y0024509D01*
X0114457Y0024535D01*
X0114379Y0024565D01*
X0114302Y0024599D01*
X0114227Y0024636D01*
X0114154Y0024676D01*
X0114083Y0024721D01*
X0114014Y0024768D01*
X0113947Y0024819D01*
X0113883Y0024872D01*
X0113821Y0024929D01*
X0113763Y0024989D01*
X0113707Y0025051D01*
X0113654Y0025116D01*
X0113604Y0025183D01*
X0113557Y0025252D01*
X0113514Y0025324D01*
X0113474Y0025398D01*
X0113438Y0025473D01*
X0113405Y0025550D01*
X0113376Y0025629D01*
X0113351Y0025708D01*
X0113329Y0025789D01*
X0113312Y0025871D01*
X0113298Y0025954D01*
X0113288Y0026037D01*
X0113282Y0026120D01*
X0113280Y0026204D01*
X0127060Y0026204D02*
X0127062Y0026288D01*
X0127068Y0026371D01*
X0127078Y0026454D01*
X0127092Y0026537D01*
X0127109Y0026619D01*
X0127131Y0026700D01*
X0127156Y0026779D01*
X0127185Y0026858D01*
X0127218Y0026935D01*
X0127254Y0027010D01*
X0127294Y0027084D01*
X0127337Y0027156D01*
X0127384Y0027225D01*
X0127434Y0027292D01*
X0127487Y0027357D01*
X0127543Y0027419D01*
X0127601Y0027479D01*
X0127663Y0027536D01*
X0127727Y0027589D01*
X0127794Y0027640D01*
X0127863Y0027687D01*
X0127934Y0027732D01*
X0128007Y0027772D01*
X0128082Y0027809D01*
X0128159Y0027843D01*
X0128237Y0027873D01*
X0128316Y0027899D01*
X0128397Y0027922D01*
X0128479Y0027940D01*
X0128561Y0027955D01*
X0128644Y0027966D01*
X0128727Y0027973D01*
X0128811Y0027976D01*
X0128895Y0027975D01*
X0128978Y0027970D01*
X0129062Y0027961D01*
X0129144Y0027948D01*
X0129226Y0027932D01*
X0129307Y0027911D01*
X0129388Y0027887D01*
X0129466Y0027859D01*
X0129544Y0027827D01*
X0129620Y0027791D01*
X0129694Y0027752D01*
X0129766Y0027710D01*
X0129836Y0027664D01*
X0129904Y0027615D01*
X0129969Y0027563D01*
X0130032Y0027508D01*
X0130092Y0027450D01*
X0130150Y0027389D01*
X0130204Y0027325D01*
X0130256Y0027259D01*
X0130304Y0027191D01*
X0130349Y0027120D01*
X0130390Y0027047D01*
X0130429Y0026973D01*
X0130463Y0026897D01*
X0130494Y0026819D01*
X0130521Y0026740D01*
X0130545Y0026659D01*
X0130564Y0026578D01*
X0130580Y0026496D01*
X0130592Y0026413D01*
X0130600Y0026329D01*
X0130604Y0026246D01*
X0130604Y0026162D01*
X0130600Y0026079D01*
X0130592Y0025995D01*
X0130580Y0025912D01*
X0130564Y0025830D01*
X0130545Y0025749D01*
X0130521Y0025668D01*
X0130494Y0025589D01*
X0130463Y0025511D01*
X0130429Y0025435D01*
X0130390Y0025361D01*
X0130349Y0025288D01*
X0130304Y0025217D01*
X0130256Y0025149D01*
X0130204Y0025083D01*
X0130150Y0025019D01*
X0130092Y0024958D01*
X0130032Y0024900D01*
X0129969Y0024845D01*
X0129904Y0024793D01*
X0129836Y0024744D01*
X0129766Y0024698D01*
X0129694Y0024656D01*
X0129620Y0024617D01*
X0129544Y0024581D01*
X0129466Y0024549D01*
X0129388Y0024521D01*
X0129307Y0024497D01*
X0129226Y0024476D01*
X0129144Y0024460D01*
X0129062Y0024447D01*
X0128978Y0024438D01*
X0128895Y0024433D01*
X0128811Y0024432D01*
X0128727Y0024435D01*
X0128644Y0024442D01*
X0128561Y0024453D01*
X0128479Y0024468D01*
X0128397Y0024486D01*
X0128316Y0024509D01*
X0128237Y0024535D01*
X0128159Y0024565D01*
X0128082Y0024599D01*
X0128007Y0024636D01*
X0127934Y0024676D01*
X0127863Y0024721D01*
X0127794Y0024768D01*
X0127727Y0024819D01*
X0127663Y0024872D01*
X0127601Y0024929D01*
X0127543Y0024989D01*
X0127487Y0025051D01*
X0127434Y0025116D01*
X0127384Y0025183D01*
X0127337Y0025252D01*
X0127294Y0025324D01*
X0127254Y0025398D01*
X0127218Y0025473D01*
X0127185Y0025550D01*
X0127156Y0025629D01*
X0127131Y0025708D01*
X0127109Y0025789D01*
X0127092Y0025871D01*
X0127078Y0025954D01*
X0127068Y0026037D01*
X0127062Y0026120D01*
X0127060Y0026204D01*
D11*
X0121937Y0055992D03*
X0121937Y0063472D03*
X0106937Y0065992D03*
X0106937Y0073472D03*
X0136937Y0063472D03*
X0136937Y0055992D03*
X0106937Y0105992D03*
X0106937Y0113472D03*
D12*
X0108197Y0124732D03*
X0115677Y0124732D03*
X0128197Y0124732D03*
X0135677Y0124732D03*
D13*
X0136937Y0146932D02*
X0136937Y0152532D01*
X0126937Y0152532D02*
X0126937Y0146932D01*
X0116937Y0146932D02*
X0116937Y0152532D01*
X0106937Y0152532D02*
X0106937Y0146932D01*
X0089737Y0144732D02*
X0084137Y0144732D01*
X0084137Y0134732D02*
X0089737Y0134732D01*
X0086937Y0107532D02*
X0086937Y0101932D01*
X0096937Y0101932D02*
X0096937Y0107532D01*
X0096937Y0077532D02*
X0096937Y0071932D01*
X0086937Y0071932D02*
X0086937Y0077532D01*
X0079737Y0044732D02*
X0074137Y0044732D01*
X0074137Y0034732D02*
X0079737Y0034732D01*
X0144137Y0079732D02*
X0149737Y0079732D01*
X0149737Y0089732D02*
X0144137Y0089732D01*
X0151937Y0057532D02*
X0151937Y0051932D01*
X0161937Y0051932D02*
X0161937Y0057532D01*
X0066937Y0161932D02*
X0066937Y0167532D01*
X0056937Y0167532D02*
X0056937Y0161932D01*
D14*
X0118098Y0098223D03*
X0120657Y0098223D03*
X0123217Y0098223D03*
X0125776Y0098223D03*
X0125776Y0081241D03*
X0123217Y0081241D03*
X0120657Y0081241D03*
X0118098Y0081241D03*
D15*
X0136937Y0109732D03*
X0156937Y0109732D03*
X0106789Y0050337D03*
X0096789Y0050337D03*
X0083834Y0022013D03*
X0063413Y0035211D03*
X0043834Y0022013D03*
X0063413Y0055211D03*
D16*
X0026937Y0037232D03*
X0026937Y0142232D03*
D17*
X0026937Y0110992D03*
X0026937Y0068472D03*
D18*
X0105406Y0034078D03*
X0105406Y0013211D03*
X0138477Y0013211D03*
X0138477Y0034078D03*
D19*
X0128241Y0035062D03*
X0125092Y0035062D03*
X0121942Y0035062D03*
X0118792Y0035062D03*
X0115643Y0035062D03*
D20*
X0071137Y0075952D02*
X0062737Y0075952D01*
X0062737Y0089732D02*
X0071137Y0089732D01*
X0071137Y0103511D02*
X0062737Y0103511D01*
D21*
X0106937Y0095232D03*
X0106937Y0089232D03*
D22*
X0174337Y0084732D02*
X0179537Y0084732D01*
X0179537Y0094732D02*
X0174337Y0094732D01*
X0174337Y0104732D02*
X0179537Y0104732D01*
X0179537Y0114732D02*
X0174337Y0114732D01*
X0174337Y0074732D02*
X0179537Y0074732D01*
X0179537Y0064732D02*
X0174337Y0064732D01*
D23*
X0176937Y0074732D02*
X0161937Y0074732D01*
X0161937Y0054732D01*
X0161937Y0050382D01*
X0161949Y0050243D01*
X0161957Y0050103D01*
X0161961Y0049963D01*
X0161962Y0049823D01*
X0161958Y0049683D01*
X0161951Y0049543D01*
X0161939Y0049404D01*
X0161924Y0049265D01*
X0161905Y0049126D01*
X0161883Y0048988D01*
X0161856Y0048850D01*
X0161826Y0048714D01*
X0161792Y0048578D01*
X0161754Y0048443D01*
X0161712Y0048310D01*
X0161667Y0048177D01*
X0161619Y0048046D01*
X0161566Y0047916D01*
X0161510Y0047788D01*
X0161451Y0047661D01*
X0161388Y0047536D01*
X0161321Y0047413D01*
X0161252Y0047292D01*
X0161179Y0047172D01*
X0161102Y0047055D01*
X0161023Y0046940D01*
X0160940Y0046827D01*
X0160855Y0046716D01*
X0160766Y0046608D01*
X0160674Y0046502D01*
X0160580Y0046399D01*
X0160482Y0046298D01*
X0160382Y0046201D01*
X0160279Y0046106D01*
X0160174Y0046013D01*
X0160066Y0045924D01*
X0159956Y0045838D01*
X0159843Y0045755D01*
X0159728Y0045675D01*
X0159611Y0045598D01*
X0159492Y0045524D01*
X0159371Y0045454D01*
X0159248Y0045387D01*
X0159124Y0045324D01*
X0158997Y0045264D01*
X0158869Y0045207D01*
X0158739Y0045154D01*
X0158608Y0045105D01*
X0158476Y0045059D01*
X0158343Y0045017D01*
X0158208Y0044979D01*
X0158073Y0044944D01*
X0157936Y0044913D01*
X0157799Y0044886D01*
X0157661Y0044863D01*
X0157522Y0044843D01*
X0157383Y0044828D01*
X0156937Y0044732D01*
X0115643Y0044732D01*
X0115643Y0035062D01*
X0106789Y0050337D02*
X0114937Y0061732D01*
X0115049Y0061841D01*
X0115163Y0061946D01*
X0115279Y0062050D01*
X0115398Y0062150D01*
X0115520Y0062247D01*
X0115644Y0062341D01*
X0115770Y0062432D01*
X0115898Y0062521D01*
X0116028Y0062605D01*
X0116161Y0062687D01*
X0116295Y0062766D01*
X0116432Y0062841D01*
X0116570Y0062912D01*
X0116709Y0062981D01*
X0116851Y0063046D01*
X0116994Y0063107D01*
X0117138Y0063165D01*
X0117284Y0063219D01*
X0117431Y0063270D01*
X0117580Y0063317D01*
X0117729Y0063361D01*
X0117880Y0063400D01*
X0118031Y0063436D01*
X0118183Y0063469D01*
X0118336Y0063497D01*
X0118490Y0063522D01*
X0118644Y0063543D01*
X0118799Y0063561D01*
X0118954Y0063574D01*
X0119109Y0063584D01*
X0119264Y0063590D01*
X0119420Y0063592D01*
X0119576Y0063590D01*
X0119731Y0063585D01*
X0119887Y0063575D01*
X0120042Y0063562D01*
X0120196Y0063545D01*
X0120351Y0063525D01*
X0120504Y0063500D01*
X0120657Y0063472D01*
X0120657Y0081241D01*
X0120657Y0085511D01*
X0116937Y0089232D01*
X0106937Y0089232D01*
X0106937Y0095232D02*
X0106937Y0104732D01*
X0106937Y0105992D01*
X0106937Y0104732D02*
X0111937Y0104732D01*
X0118098Y0098570D01*
X0118098Y0098223D01*
X0120657Y0098223D02*
X0120657Y0124732D01*
X0115677Y0124732D01*
X0120657Y0124732D02*
X0120657Y0144732D01*
X0116937Y0149732D01*
X0123217Y0144732D02*
X0126937Y0149732D01*
X0123217Y0144732D02*
X0123217Y0134732D01*
X0161937Y0134732D01*
X0162299Y0134728D01*
X0162662Y0134714D01*
X0163024Y0134693D01*
X0163385Y0134662D01*
X0163745Y0134623D01*
X0164104Y0134575D01*
X0164462Y0134518D01*
X0164819Y0134453D01*
X0165174Y0134379D01*
X0165527Y0134296D01*
X0165878Y0134205D01*
X0166226Y0134106D01*
X0166572Y0133998D01*
X0166916Y0133882D01*
X0167256Y0133757D01*
X0167593Y0133625D01*
X0167927Y0133484D01*
X0168258Y0133335D01*
X0168585Y0133178D01*
X0168908Y0133014D01*
X0169227Y0132842D01*
X0169541Y0132662D01*
X0169852Y0132474D01*
X0170157Y0132279D01*
X0170458Y0132077D01*
X0170754Y0131867D01*
X0171044Y0131651D01*
X0171330Y0131427D01*
X0171610Y0131197D01*
X0171884Y0130960D01*
X0172152Y0130716D01*
X0172415Y0130466D01*
X0172671Y0130210D01*
X0172921Y0129947D01*
X0173165Y0129679D01*
X0173402Y0129405D01*
X0173632Y0129125D01*
X0173856Y0128839D01*
X0174072Y0128549D01*
X0174282Y0128253D01*
X0174484Y0127952D01*
X0174679Y0127647D01*
X0174867Y0127336D01*
X0175047Y0127022D01*
X0175219Y0126703D01*
X0175383Y0126380D01*
X0175540Y0126053D01*
X0175689Y0125722D01*
X0175830Y0125388D01*
X0175962Y0125051D01*
X0176087Y0124711D01*
X0176203Y0124367D01*
X0176311Y0124021D01*
X0176410Y0123673D01*
X0176501Y0123322D01*
X0176584Y0122969D01*
X0176658Y0122614D01*
X0176723Y0122257D01*
X0176780Y0121899D01*
X0176828Y0121540D01*
X0176867Y0121180D01*
X0176898Y0120819D01*
X0176919Y0120457D01*
X0176933Y0120094D01*
X0176937Y0119732D01*
X0176937Y0114732D01*
X0176937Y0104732D02*
X0161937Y0104732D01*
X0161797Y0104734D01*
X0161657Y0104740D01*
X0161517Y0104750D01*
X0161377Y0104763D01*
X0161238Y0104781D01*
X0161099Y0104803D01*
X0160962Y0104828D01*
X0160824Y0104857D01*
X0160688Y0104890D01*
X0160553Y0104927D01*
X0160419Y0104968D01*
X0160286Y0105013D01*
X0160154Y0105061D01*
X0160024Y0105113D01*
X0159895Y0105168D01*
X0159768Y0105227D01*
X0159642Y0105290D01*
X0159518Y0105356D01*
X0159397Y0105425D01*
X0159277Y0105498D01*
X0159159Y0105575D01*
X0159044Y0105654D01*
X0158930Y0105737D01*
X0158820Y0105823D01*
X0158711Y0105912D01*
X0158605Y0106004D01*
X0158502Y0106099D01*
X0158401Y0106196D01*
X0158304Y0106297D01*
X0158209Y0106400D01*
X0158117Y0106506D01*
X0158028Y0106615D01*
X0157942Y0106725D01*
X0157859Y0106839D01*
X0157780Y0106954D01*
X0157703Y0107072D01*
X0157630Y0107192D01*
X0157561Y0107313D01*
X0157495Y0107437D01*
X0157432Y0107563D01*
X0157373Y0107690D01*
X0157318Y0107819D01*
X0157266Y0107949D01*
X0157218Y0108081D01*
X0157173Y0108214D01*
X0157132Y0108348D01*
X0157095Y0108483D01*
X0157062Y0108619D01*
X0157033Y0108757D01*
X0157008Y0108894D01*
X0156986Y0109033D01*
X0156968Y0109172D01*
X0156955Y0109312D01*
X0156945Y0109452D01*
X0156939Y0109592D01*
X0156937Y0109732D01*
X0136937Y0109731D02*
X0136667Y0109728D01*
X0136398Y0109718D01*
X0136129Y0109702D01*
X0135860Y0109679D01*
X0135592Y0109650D01*
X0135324Y0109614D01*
X0135058Y0109572D01*
X0134793Y0109523D01*
X0134529Y0109468D01*
X0134266Y0109407D01*
X0134005Y0109339D01*
X0133746Y0109265D01*
X0133488Y0109185D01*
X0133233Y0109098D01*
X0132979Y0109006D01*
X0132728Y0108907D01*
X0132480Y0108802D01*
X0132234Y0108692D01*
X0131991Y0108575D01*
X0131750Y0108453D01*
X0131513Y0108324D01*
X0131279Y0108190D01*
X0131048Y0108051D01*
X0130821Y0107906D01*
X0130597Y0107755D01*
X0130377Y0107599D01*
X0130160Y0107438D01*
X0129948Y0107272D01*
X0129740Y0107101D01*
X0129536Y0106924D01*
X0129336Y0106743D01*
X0129141Y0106557D01*
X0128950Y0106366D01*
X0128764Y0106171D01*
X0128583Y0105971D01*
X0128406Y0105767D01*
X0128235Y0105559D01*
X0128069Y0105347D01*
X0127908Y0105130D01*
X0127752Y0104910D01*
X0127601Y0104686D01*
X0127456Y0104459D01*
X0127317Y0104228D01*
X0127183Y0103994D01*
X0127054Y0103757D01*
X0126932Y0103516D01*
X0126815Y0103273D01*
X0126705Y0103027D01*
X0126600Y0102779D01*
X0126501Y0102528D01*
X0126409Y0102274D01*
X0126322Y0102019D01*
X0126242Y0101761D01*
X0126168Y0101502D01*
X0126100Y0101241D01*
X0126039Y0100978D01*
X0125984Y0100714D01*
X0125935Y0100449D01*
X0125893Y0100183D01*
X0125857Y0099915D01*
X0125828Y0099647D01*
X0125805Y0099378D01*
X0125789Y0099109D01*
X0125779Y0098840D01*
X0125776Y0098570D01*
X0125776Y0098223D01*
X0123217Y0098223D02*
X0123217Y0092232D01*
X0125717Y0089732D01*
X0146937Y0089732D01*
X0146937Y0079732D02*
X0156937Y0079732D01*
X0157077Y0079730D01*
X0157217Y0079724D01*
X0157357Y0079714D01*
X0157497Y0079701D01*
X0157636Y0079683D01*
X0157775Y0079661D01*
X0157912Y0079636D01*
X0158050Y0079607D01*
X0158186Y0079574D01*
X0158321Y0079537D01*
X0158455Y0079496D01*
X0158588Y0079451D01*
X0158720Y0079403D01*
X0158850Y0079351D01*
X0158979Y0079296D01*
X0159106Y0079237D01*
X0159232Y0079174D01*
X0159356Y0079108D01*
X0159477Y0079039D01*
X0159597Y0078966D01*
X0159715Y0078889D01*
X0159830Y0078810D01*
X0159944Y0078727D01*
X0160054Y0078641D01*
X0160163Y0078552D01*
X0160269Y0078460D01*
X0160372Y0078365D01*
X0160473Y0078268D01*
X0160570Y0078167D01*
X0160665Y0078064D01*
X0160757Y0077958D01*
X0160846Y0077849D01*
X0160932Y0077739D01*
X0161015Y0077625D01*
X0161094Y0077510D01*
X0161171Y0077392D01*
X0161244Y0077272D01*
X0161313Y0077151D01*
X0161379Y0077027D01*
X0161442Y0076901D01*
X0161501Y0076774D01*
X0161556Y0076645D01*
X0161608Y0076515D01*
X0161656Y0076383D01*
X0161701Y0076250D01*
X0161742Y0076116D01*
X0161779Y0075981D01*
X0161812Y0075845D01*
X0161841Y0075707D01*
X0161866Y0075570D01*
X0161888Y0075431D01*
X0161906Y0075292D01*
X0161919Y0075152D01*
X0161929Y0075012D01*
X0161935Y0074872D01*
X0161937Y0074732D01*
X0148197Y0063472D02*
X0136937Y0063472D01*
X0121937Y0063472D01*
X0120657Y0063472D01*
X0111589Y0074732D02*
X0106937Y0074732D01*
X0106937Y0073472D01*
X0106937Y0074732D02*
X0096937Y0074732D01*
X0086937Y0074732D01*
X0068157Y0074732D01*
X0068089Y0074734D01*
X0068020Y0074740D01*
X0067953Y0074749D01*
X0067886Y0074763D01*
X0067819Y0074780D01*
X0067754Y0074800D01*
X0067690Y0074825D01*
X0067628Y0074853D01*
X0067567Y0074884D01*
X0067508Y0074919D01*
X0067451Y0074957D01*
X0067396Y0074998D01*
X0067344Y0075042D01*
X0067294Y0075089D01*
X0067247Y0075139D01*
X0067203Y0075191D01*
X0067162Y0075246D01*
X0067124Y0075303D01*
X0067089Y0075362D01*
X0067058Y0075423D01*
X0067030Y0075485D01*
X0067005Y0075549D01*
X0066985Y0075614D01*
X0066968Y0075681D01*
X0066954Y0075748D01*
X0066945Y0075815D01*
X0066939Y0075884D01*
X0066937Y0075952D01*
X0061937Y0074732D01*
X0026937Y0074732D01*
X0046937Y0074620D02*
X0005437Y0074620D01*
X0005437Y0073622D02*
X0046937Y0073622D01*
X0046937Y0072623D02*
X0005437Y0072623D01*
X0005437Y0071625D02*
X0046937Y0071625D01*
X0046937Y0070626D02*
X0005437Y0070626D01*
X0005437Y0069628D02*
X0046937Y0069628D01*
X0046937Y0068629D02*
X0005437Y0068629D01*
X0005437Y0067631D02*
X0046937Y0067631D01*
X0046937Y0066632D02*
X0005437Y0066632D01*
X0005437Y0065634D02*
X0046937Y0065634D01*
X0046937Y0064635D02*
X0005437Y0064635D01*
X0005437Y0063637D02*
X0046937Y0063637D01*
X0046937Y0062638D02*
X0005437Y0062638D01*
X0005437Y0061640D02*
X0046937Y0061640D01*
X0046937Y0060641D02*
X0005437Y0060641D01*
X0005437Y0059643D02*
X0046937Y0059643D01*
X0046937Y0058644D02*
X0005437Y0058644D01*
X0005437Y0057645D02*
X0046937Y0057645D01*
X0046937Y0056647D02*
X0005437Y0056647D01*
X0005437Y0055648D02*
X0046937Y0055648D01*
X0046937Y0054650D02*
X0005437Y0054650D01*
X0005437Y0053651D02*
X0046937Y0053651D01*
X0046937Y0052653D02*
X0005437Y0052653D01*
X0005437Y0051654D02*
X0046937Y0051654D01*
X0046937Y0050656D02*
X0005437Y0050656D01*
X0005437Y0049657D02*
X0046937Y0049657D01*
X0046937Y0048659D02*
X0005437Y0048659D01*
X0005437Y0047660D02*
X0046937Y0047660D01*
X0046937Y0046662D02*
X0005437Y0046662D01*
X0005437Y0045663D02*
X0046937Y0045663D01*
X0046937Y0044665D02*
X0005437Y0044665D01*
X0005437Y0043666D02*
X0046937Y0043666D01*
X0046937Y0042668D02*
X0005437Y0042668D01*
X0005437Y0041669D02*
X0046937Y0041669D01*
X0046937Y0040671D02*
X0005437Y0040671D01*
X0005437Y0039672D02*
X0046937Y0039672D01*
X0046937Y0038674D02*
X0005437Y0038674D01*
X0005437Y0037675D02*
X0046937Y0037675D01*
X0046937Y0036677D02*
X0005437Y0036677D01*
X0005437Y0035678D02*
X0046937Y0035678D01*
X0046937Y0034680D02*
X0005437Y0034680D01*
X0005437Y0033681D02*
X0046937Y0033681D01*
X0046937Y0032683D02*
X0005437Y0032683D01*
X0005437Y0031684D02*
X0046937Y0031684D01*
X0046937Y0030686D02*
X0005437Y0030686D01*
X0005437Y0029687D02*
X0046937Y0029687D01*
X0046937Y0028689D02*
X0005437Y0028689D01*
X0005437Y0027690D02*
X0046937Y0027690D01*
X0046937Y0026692D02*
X0005437Y0026692D01*
X0005437Y0025693D02*
X0046937Y0025693D01*
X0046937Y0024695D02*
X0005437Y0024695D01*
X0005437Y0023696D02*
X0046937Y0023696D01*
X0046937Y0022698D02*
X0005437Y0022698D01*
X0005437Y0021699D02*
X0046937Y0021699D01*
X0046937Y0020701D02*
X0005437Y0020701D01*
X0005437Y0019702D02*
X0046937Y0019702D01*
X0046937Y0018704D02*
X0005437Y0018704D01*
X0005437Y0017705D02*
X0046937Y0017705D01*
X0046937Y0016707D02*
X0005437Y0016707D01*
X0005437Y0015708D02*
X0046937Y0015708D01*
X0046937Y0014710D02*
X0005437Y0014710D01*
X0005437Y0013711D02*
X0046937Y0013711D01*
X0046937Y0012712D02*
X0005437Y0012712D01*
X0005437Y0011714D02*
X0046937Y0011714D01*
X0046937Y0010715D02*
X0005437Y0010715D01*
X0005437Y0009717D02*
X0046937Y0009717D01*
X0046937Y0008718D02*
X0005437Y0008718D01*
X0005437Y0008232D02*
X0005437Y0084732D01*
X0046937Y0084732D01*
X0046937Y0008232D01*
X0005437Y0008232D01*
X0063413Y0035211D02*
X0076937Y0035211D01*
X0076937Y0034732D01*
X0079611Y0022013D02*
X0079255Y0021981D01*
X0078899Y0021958D01*
X0078542Y0021943D01*
X0078185Y0021937D01*
X0077828Y0021940D01*
X0077472Y0021951D01*
X0077115Y0021971D01*
X0076759Y0021999D01*
X0076404Y0022036D01*
X0076050Y0022081D01*
X0075697Y0022136D01*
X0075346Y0022198D01*
X0074996Y0022269D01*
X0074648Y0022349D01*
X0074302Y0022437D01*
X0073958Y0022533D01*
X0073616Y0022637D01*
X0073278Y0022750D01*
X0072942Y0022871D01*
X0072609Y0023000D01*
X0072279Y0023137D01*
X0071953Y0023282D01*
X0071630Y0023434D01*
X0071311Y0023595D01*
X0070996Y0023763D01*
X0070685Y0023939D01*
X0070379Y0024122D01*
X0070077Y0024312D01*
X0069780Y0024510D01*
X0069487Y0024715D01*
X0069200Y0024927D01*
X0068918Y0025146D01*
X0068641Y0025371D01*
X0068370Y0025603D01*
X0068104Y0025842D01*
X0067845Y0026087D01*
X0067591Y0026338D01*
X0067343Y0026595D01*
X0067102Y0026858D01*
X0066867Y0027127D01*
X0066639Y0027402D01*
X0066417Y0027682D01*
X0066203Y0027967D01*
X0065995Y0028257D01*
X0065794Y0028552D01*
X0065600Y0028852D01*
X0065414Y0029157D01*
X0065235Y0029466D01*
X0065064Y0029779D01*
X0064900Y0030097D01*
X0064744Y0030418D01*
X0064596Y0030743D01*
X0064456Y0031071D01*
X0064324Y0031402D01*
X0064199Y0031737D01*
X0064083Y0032075D01*
X0063975Y0032415D01*
X0063876Y0032758D01*
X0063784Y0033103D01*
X0063701Y0033450D01*
X0063627Y0033799D01*
X0063561Y0034150D01*
X0063503Y0034503D01*
X0063454Y0034856D01*
X0063413Y0035211D01*
X0079611Y0022013D02*
X0083834Y0022013D01*
X0111589Y0074732D02*
X0118098Y0081241D01*
X0123217Y0098223D02*
X0123217Y0124732D01*
X0128197Y0124732D01*
X0123217Y0124732D02*
X0123217Y0134732D01*
X0106937Y0104732D02*
X0096937Y0104732D01*
X0086937Y0104732D01*
X0061937Y0104732D01*
X0066937Y0103511D01*
X0061937Y0104732D02*
X0033197Y0104732D01*
X0026937Y0110992D01*
X0046937Y0110567D02*
X0005437Y0110567D01*
X0005437Y0111565D02*
X0046937Y0111565D01*
X0046937Y0112564D02*
X0005437Y0112564D01*
X0005437Y0113562D02*
X0046937Y0113562D01*
X0046937Y0114561D02*
X0005437Y0114561D01*
X0005437Y0115559D02*
X0046937Y0115559D01*
X0046937Y0116558D02*
X0005437Y0116558D01*
X0005437Y0117556D02*
X0046937Y0117556D01*
X0046937Y0118555D02*
X0005437Y0118555D01*
X0005437Y0119553D02*
X0046937Y0119553D01*
X0046937Y0120552D02*
X0005437Y0120552D01*
X0005437Y0121550D02*
X0046937Y0121550D01*
X0046937Y0122549D02*
X0005437Y0122549D01*
X0005437Y0123547D02*
X0046937Y0123547D01*
X0046937Y0124546D02*
X0005437Y0124546D01*
X0005437Y0125544D02*
X0046937Y0125544D01*
X0046937Y0126543D02*
X0005437Y0126543D01*
X0005437Y0127541D02*
X0046937Y0127541D01*
X0046937Y0128540D02*
X0005437Y0128540D01*
X0005437Y0129538D02*
X0046937Y0129538D01*
X0046937Y0130537D02*
X0005437Y0130537D01*
X0005437Y0131535D02*
X0046937Y0131535D01*
X0046937Y0132534D02*
X0005437Y0132534D01*
X0005437Y0133532D02*
X0046937Y0133532D01*
X0046937Y0134531D02*
X0005437Y0134531D01*
X0005437Y0135529D02*
X0046937Y0135529D01*
X0046937Y0136528D02*
X0005437Y0136528D01*
X0005437Y0137526D02*
X0046937Y0137526D01*
X0046937Y0138525D02*
X0005437Y0138525D01*
X0005437Y0139523D02*
X0046937Y0139523D01*
X0046937Y0140522D02*
X0005437Y0140522D01*
X0005437Y0141520D02*
X0046937Y0141520D01*
X0046937Y0142519D02*
X0005437Y0142519D01*
X0005437Y0143517D02*
X0046937Y0143517D01*
X0046937Y0144516D02*
X0005437Y0144516D01*
X0005437Y0145514D02*
X0046937Y0145514D01*
X0046937Y0146513D02*
X0005437Y0146513D01*
X0005437Y0147512D02*
X0046937Y0147512D01*
X0046937Y0148510D02*
X0005437Y0148510D01*
X0005437Y0149509D02*
X0046937Y0149509D01*
X0046937Y0150507D02*
X0005437Y0150507D01*
X0005437Y0151506D02*
X0046937Y0151506D01*
X0046937Y0152504D02*
X0005437Y0152504D01*
X0005437Y0153503D02*
X0046937Y0153503D01*
X0046937Y0154501D02*
X0005437Y0154501D01*
X0005437Y0155500D02*
X0046937Y0155500D01*
X0046937Y0156498D02*
X0005437Y0156498D01*
X0005437Y0157497D02*
X0046937Y0157497D01*
X0046937Y0158495D02*
X0005437Y0158495D01*
X0005437Y0159494D02*
X0046937Y0159494D01*
X0046937Y0160492D02*
X0005437Y0160492D01*
X0005437Y0161491D02*
X0046937Y0161491D01*
X0046937Y0162489D02*
X0005437Y0162489D01*
X0005437Y0163488D02*
X0046937Y0163488D01*
X0046937Y0164486D02*
X0005437Y0164486D01*
X0005437Y0165485D02*
X0046937Y0165485D01*
X0046937Y0166483D02*
X0005437Y0166483D01*
X0005437Y0167482D02*
X0046937Y0167482D01*
X0046937Y0168480D02*
X0005437Y0168480D01*
X0005437Y0169479D02*
X0046937Y0169479D01*
X0046937Y0170477D02*
X0005437Y0170477D01*
X0005437Y0171192D02*
X0046937Y0171192D01*
X0046937Y0094732D01*
X0005437Y0094732D01*
X0005437Y0171192D01*
X0005437Y0109568D02*
X0046937Y0109568D01*
X0046937Y0108570D02*
X0005437Y0108570D01*
X0005437Y0107571D02*
X0046937Y0107571D01*
X0046937Y0106573D02*
X0005437Y0106573D01*
X0005437Y0105574D02*
X0046937Y0105574D01*
X0046937Y0104576D02*
X0005437Y0104576D01*
X0005437Y0103577D02*
X0046937Y0103577D01*
X0046937Y0102579D02*
X0005437Y0102579D01*
X0005437Y0101580D02*
X0046937Y0101580D01*
X0046937Y0100581D02*
X0005437Y0100581D01*
X0005437Y0099583D02*
X0046937Y0099583D01*
X0046937Y0098584D02*
X0005437Y0098584D01*
X0005437Y0097586D02*
X0046937Y0097586D01*
X0046937Y0096587D02*
X0005437Y0096587D01*
X0005437Y0095589D02*
X0046937Y0095589D01*
X0046937Y0084605D02*
X0005437Y0084605D01*
X0005437Y0083607D02*
X0046937Y0083607D01*
X0046937Y0082608D02*
X0005437Y0082608D01*
X0005437Y0081610D02*
X0046937Y0081610D01*
X0046937Y0080611D02*
X0005437Y0080611D01*
X0005437Y0079613D02*
X0046937Y0079613D01*
X0046937Y0078614D02*
X0005437Y0078614D01*
X0005437Y0077616D02*
X0046937Y0077616D01*
X0046937Y0076617D02*
X0005437Y0076617D01*
X0005437Y0075619D02*
X0046937Y0075619D01*
X0148197Y0063472D02*
X0148347Y0063410D01*
X0148495Y0063344D01*
X0148642Y0063274D01*
X0148787Y0063201D01*
X0148931Y0063125D01*
X0149072Y0063045D01*
X0149212Y0062962D01*
X0149349Y0062875D01*
X0149484Y0062785D01*
X0149618Y0062692D01*
X0149748Y0062596D01*
X0149877Y0062496D01*
X0150003Y0062394D01*
X0150126Y0062288D01*
X0150247Y0062180D01*
X0150365Y0062069D01*
X0150481Y0061954D01*
X0150594Y0061837D01*
X0150703Y0061718D01*
X0150810Y0061595D01*
X0150914Y0061471D01*
X0151015Y0061343D01*
X0151113Y0061214D01*
X0151208Y0061081D01*
X0151299Y0060947D01*
X0151387Y0060811D01*
X0151472Y0060672D01*
X0151553Y0060532D01*
X0151631Y0060389D01*
X0151706Y0060245D01*
X0151777Y0060099D01*
X0151845Y0059951D01*
X0151908Y0059802D01*
X0151969Y0059651D01*
X0152025Y0059499D01*
X0152078Y0059345D01*
X0152127Y0059190D01*
X0152173Y0059034D01*
X0152215Y0058877D01*
X0152252Y0058719D01*
X0152286Y0058560D01*
X0152317Y0058401D01*
X0152343Y0058241D01*
X0152365Y0058080D01*
X0152384Y0057918D01*
X0152399Y0057756D01*
X0152409Y0057594D01*
X0152416Y0057432D01*
X0152419Y0057270D01*
X0152418Y0057107D01*
X0152413Y0056945D01*
X0152404Y0056783D01*
X0152391Y0056621D01*
X0152374Y0056459D01*
X0152354Y0056298D01*
X0152329Y0056137D01*
X0152301Y0055978D01*
X0152269Y0055818D01*
X0152233Y0055660D01*
X0152193Y0055502D01*
X0152149Y0055346D01*
X0152102Y0055191D01*
X0152050Y0055037D01*
X0151995Y0054884D01*
X0151937Y0054732D01*
D24*
X0125776Y0071935D03*
X0125776Y0075935D03*
X0041937Y0059732D03*
X0041937Y0054732D03*
X0036937Y0059732D03*
X0031937Y0059732D03*
X0026937Y0059732D03*
X0021937Y0059732D03*
X0016937Y0059732D03*
X0011937Y0059732D03*
X0011937Y0054732D03*
X0011937Y0119732D03*
X0016937Y0119732D03*
X0021937Y0119732D03*
X0026937Y0119732D03*
X0031937Y0119732D03*
X0036937Y0119732D03*
X0041937Y0119732D03*
X0041937Y0124732D03*
X0011937Y0124732D03*
D25*
X0011937Y0119732D01*
X0015677Y0110992D01*
X0026937Y0110992D01*
X0028197Y0110992D01*
X0031937Y0119732D01*
X0041937Y0124732D01*
X0041937Y0119732D02*
X0036937Y0119732D01*
X0033197Y0110992D01*
X0026937Y0110992D01*
X0038197Y0110992D01*
X0041937Y0119732D01*
X0026937Y0119732D02*
X0026937Y0110992D01*
X0025677Y0110992D01*
X0021937Y0119732D01*
X0016937Y0119732D02*
X0020677Y0110992D01*
X0026937Y0110992D01*
X0058237Y0111055D02*
X0084729Y0111055D01*
X0084615Y0111008D02*
X0083461Y0109854D01*
X0082837Y0108347D01*
X0082837Y0106532D01*
X0075839Y0106532D01*
X0075800Y0106627D01*
X0074252Y0108174D01*
X0072231Y0109011D01*
X0061643Y0109011D01*
X0059622Y0108174D01*
X0058237Y0106790D01*
X0058237Y0149932D01*
X0082268Y0149932D01*
X0082737Y0150400D01*
X0082737Y0171392D01*
X0186937Y0171392D01*
X0186937Y0008032D01*
X0144388Y0008032D01*
X0144699Y0008342D01*
X0144699Y0018081D01*
X0143937Y0018842D01*
X0137399Y0018842D01*
X0137399Y0024556D01*
X0137224Y0024732D01*
X0133712Y0024732D01*
X0133903Y0025195D01*
X0133903Y0027212D01*
X0133392Y0028447D01*
X0143937Y0028447D01*
X0144699Y0029208D01*
X0144699Y0038947D01*
X0143937Y0039708D01*
X0133018Y0039708D01*
X0132256Y0038947D01*
X0132256Y0029952D01*
X0131705Y0030503D01*
X0130525Y0030991D01*
X0130525Y0034870D01*
X0128433Y0034870D01*
X0128433Y0035254D01*
X0128049Y0035254D01*
X0128049Y0040299D01*
X0127086Y0040299D01*
X0126755Y0040210D01*
X0126722Y0040191D01*
X0126614Y0040299D01*
X0123569Y0040299D01*
X0123517Y0040247D01*
X0123465Y0040299D01*
X0120419Y0040299D01*
X0120367Y0040247D01*
X0120315Y0040299D01*
X0117443Y0040299D01*
X0117443Y0042932D01*
X0156406Y0042932D01*
X0156587Y0042815D01*
X0157128Y0042932D01*
X0157683Y0042932D01*
X0157812Y0043061D01*
X0158922Y0043171D01*
X0161335Y0044462D01*
X0163070Y0046578D01*
X0163070Y0046578D01*
X0163549Y0048162D01*
X0164259Y0048456D01*
X0165413Y0049609D01*
X0166037Y0051116D01*
X0166037Y0058347D01*
X0165413Y0059854D01*
X0164259Y0061008D01*
X0163737Y0061224D01*
X0163737Y0072932D01*
X0170861Y0072932D01*
X0171031Y0072523D01*
X0172128Y0071426D01*
X0173561Y0070832D01*
X0180313Y0070832D01*
X0181746Y0071426D01*
X0182843Y0072523D01*
X0183437Y0073956D01*
X0183437Y0075508D01*
X0182843Y0076941D01*
X0181746Y0078038D01*
X0180313Y0078632D01*
X0173561Y0078632D01*
X0172128Y0078038D01*
X0171031Y0076941D01*
X0170861Y0076532D01*
X0163552Y0076532D01*
X0162702Y0078584D01*
X0160789Y0080497D01*
X0158290Y0081532D01*
X0153429Y0081532D01*
X0153213Y0082054D01*
X0152059Y0083208D01*
X0150553Y0083832D01*
X0143321Y0083832D01*
X0141815Y0083208D01*
X0140661Y0082054D01*
X0140037Y0080547D01*
X0140037Y0078916D01*
X0140661Y0077409D01*
X0141815Y0076256D01*
X0143321Y0075632D01*
X0150553Y0075632D01*
X0152059Y0076256D01*
X0153213Y0077409D01*
X0153429Y0077932D01*
X0156937Y0077932D01*
X0157561Y0077870D01*
X0158715Y0077393D01*
X0159598Y0076510D01*
X0160076Y0075356D01*
X0160137Y0074732D01*
X0160137Y0061224D01*
X0159615Y0061008D01*
X0158461Y0059854D01*
X0157837Y0058347D01*
X0157837Y0051116D01*
X0158461Y0049609D01*
X0159615Y0048456D01*
X0159789Y0048384D01*
X0159775Y0048338D01*
X0158964Y0047348D01*
X0157836Y0046745D01*
X0157757Y0046729D01*
X0157733Y0046744D01*
X0157104Y0046609D01*
X0156464Y0046546D01*
X0156452Y0046532D01*
X0114897Y0046532D01*
X0113843Y0045477D01*
X0113843Y0040022D01*
X0113358Y0039537D01*
X0113358Y0030991D01*
X0112179Y0030503D01*
X0111628Y0029952D01*
X0111628Y0038947D01*
X0110866Y0039708D01*
X0099947Y0039708D01*
X0099185Y0038947D01*
X0099185Y0029208D01*
X0099947Y0028447D01*
X0110492Y0028447D01*
X0109980Y0027212D01*
X0109980Y0025195D01*
X0110172Y0024732D01*
X0106660Y0024732D01*
X0106484Y0024556D01*
X0106484Y0018842D01*
X0099947Y0018842D01*
X0099185Y0018081D01*
X0099185Y0008342D01*
X0099496Y0008032D01*
X0058237Y0008032D01*
X0058237Y0072674D01*
X0059622Y0071290D01*
X0061643Y0070452D01*
X0072231Y0070452D01*
X0074252Y0071290D01*
X0075800Y0072837D01*
X0075839Y0072932D01*
X0082837Y0072932D01*
X0082837Y0071116D01*
X0083461Y0069609D01*
X0084615Y0068456D01*
X0086121Y0067832D01*
X0087753Y0067832D01*
X0089259Y0068456D01*
X0090413Y0069609D01*
X0091037Y0071116D01*
X0091037Y0072932D01*
X0092837Y0072932D01*
X0092837Y0071116D01*
X0093461Y0069609D01*
X0094615Y0068456D01*
X0096121Y0067832D01*
X0097753Y0067832D01*
X0099259Y0068456D01*
X0100413Y0069609D01*
X0101037Y0071116D01*
X0101037Y0072932D01*
X0102684Y0072932D01*
X0102684Y0070374D01*
X0103365Y0069694D01*
X0103186Y0069591D01*
X0102944Y0069349D01*
X0102773Y0069053D01*
X0102684Y0068722D01*
X0102684Y0066292D01*
X0106637Y0066292D01*
X0106637Y0065692D01*
X0102684Y0065692D01*
X0102684Y0063261D01*
X0102773Y0062931D01*
X0102944Y0062634D01*
X0103186Y0062392D01*
X0103482Y0062221D01*
X0103813Y0062133D01*
X0106637Y0062133D01*
X0106637Y0065692D01*
X0107237Y0065692D01*
X0107237Y0066292D01*
X0111190Y0066292D01*
X0111190Y0068722D01*
X0111101Y0069053D01*
X0110930Y0069349D01*
X0110688Y0069591D01*
X0110509Y0069694D01*
X0111190Y0070374D01*
X0111190Y0072932D01*
X0112335Y0072932D01*
X0113389Y0073986D01*
X0116982Y0077579D01*
X0118857Y0077579D01*
X0118857Y0067331D01*
X0118446Y0067331D01*
X0117684Y0066570D01*
X0117684Y0065232D01*
X0117024Y0065144D01*
X0114614Y0063955D01*
X0114072Y0063413D01*
X0113906Y0063385D01*
X0113559Y0062900D01*
X0113137Y0062477D01*
X0113137Y0062309D01*
X0107365Y0054237D01*
X0105173Y0054237D01*
X0102889Y0051952D01*
X0102889Y0048721D01*
X0105173Y0046437D01*
X0108404Y0046437D01*
X0110689Y0048721D01*
X0110689Y0051952D01*
X0110379Y0052262D01*
X0116286Y0060524D01*
X0116776Y0060940D01*
X0117684Y0061388D01*
X0117684Y0060374D01*
X0118365Y0059694D01*
X0118186Y0059591D01*
X0117944Y0059349D01*
X0117773Y0059053D01*
X0117684Y0058722D01*
X0117684Y0056292D01*
X0121637Y0056292D01*
X0121637Y0055692D01*
X0117684Y0055692D01*
X0117684Y0053261D01*
X0117773Y0052931D01*
X0117944Y0052634D01*
X0118186Y0052392D01*
X0118482Y0052221D01*
X0118813Y0052133D01*
X0121637Y0052133D01*
X0121637Y0055692D01*
X0122237Y0055692D01*
X0122237Y0056292D01*
X0126190Y0056292D01*
X0126190Y0058722D01*
X0126101Y0059053D01*
X0125930Y0059349D01*
X0125688Y0059591D01*
X0125509Y0059694D01*
X0126190Y0060374D01*
X0126190Y0061672D01*
X0132684Y0061672D01*
X0132684Y0060374D01*
X0133365Y0059694D01*
X0133186Y0059591D01*
X0132944Y0059349D01*
X0132773Y0059053D01*
X0132684Y0058722D01*
X0132684Y0056292D01*
X0136637Y0056292D01*
X0136637Y0055692D01*
X0132684Y0055692D01*
X0132684Y0053261D01*
X0132773Y0052931D01*
X0132944Y0052634D01*
X0133186Y0052392D01*
X0133482Y0052221D01*
X0133813Y0052133D01*
X0136637Y0052133D01*
X0136637Y0055692D01*
X0137237Y0055692D01*
X0137237Y0056292D01*
X0141190Y0056292D01*
X0141190Y0058722D01*
X0141101Y0059053D01*
X0140930Y0059349D01*
X0140688Y0059591D01*
X0140509Y0059694D01*
X0141190Y0060374D01*
X0141190Y0061672D01*
X0147776Y0061672D01*
X0148384Y0061356D01*
X0149183Y0060576D01*
X0148461Y0059854D01*
X0147837Y0058347D01*
X0147837Y0051116D01*
X0148461Y0049609D01*
X0149615Y0048456D01*
X0151121Y0047832D01*
X0152753Y0047832D01*
X0154259Y0048456D01*
X0155413Y0049609D01*
X0156037Y0051116D01*
X0156037Y0058347D01*
X0155413Y0059854D01*
X0154259Y0061008D01*
X0153155Y0061465D01*
X0152865Y0062143D01*
X0152865Y0062143D01*
X0150440Y0064512D01*
X0149209Y0065006D01*
X0148942Y0065272D01*
X0148544Y0065272D01*
X0148174Y0065420D01*
X0147828Y0065272D01*
X0141190Y0065272D01*
X0141190Y0066570D01*
X0140428Y0067331D01*
X0133446Y0067331D01*
X0132684Y0066570D01*
X0132684Y0065272D01*
X0126190Y0065272D01*
X0126190Y0066570D01*
X0125428Y0067331D01*
X0122457Y0067331D01*
X0122457Y0077579D01*
X0124542Y0077579D01*
X0124600Y0077637D01*
X0124817Y0077579D01*
X0125682Y0077579D01*
X0125682Y0081147D01*
X0125869Y0081147D01*
X0125869Y0077579D01*
X0126734Y0077579D01*
X0127065Y0077667D01*
X0127361Y0077838D01*
X0127603Y0078080D01*
X0127774Y0078377D01*
X0127863Y0078708D01*
X0127863Y0081147D01*
X0125869Y0081147D01*
X0125869Y0081335D01*
X0125682Y0081335D01*
X0125682Y0084903D01*
X0124817Y0084903D01*
X0124600Y0084845D01*
X0124542Y0084903D01*
X0122457Y0084903D01*
X0122457Y0086257D01*
X0121403Y0087311D01*
X0117683Y0091032D01*
X0111387Y0091032D01*
X0111387Y0092070D01*
X0111225Y0092232D01*
X0111387Y0092393D01*
X0111387Y0098070D01*
X0110625Y0098832D01*
X0108737Y0098832D01*
X0108737Y0102133D01*
X0110428Y0102133D01*
X0111190Y0102894D01*
X0111190Y0102932D01*
X0111191Y0102932D01*
X0116011Y0098112D01*
X0116011Y0095322D01*
X0116773Y0094561D01*
X0121417Y0094561D01*
X0121417Y0091486D01*
X0124971Y0087932D01*
X0140445Y0087932D01*
X0140661Y0087409D01*
X0141815Y0086256D01*
X0143321Y0085632D01*
X0150553Y0085632D01*
X0152059Y0086256D01*
X0153213Y0087409D01*
X0153837Y0088916D01*
X0153837Y0090547D01*
X0153213Y0092054D01*
X0152059Y0093208D01*
X0150553Y0093832D01*
X0143321Y0093832D01*
X0141815Y0093208D01*
X0140661Y0092054D01*
X0140445Y0091532D01*
X0126462Y0091532D01*
X0125017Y0092977D01*
X0125017Y0094561D01*
X0127101Y0094561D01*
X0127863Y0095322D01*
X0127863Y0100565D01*
X0128596Y0102820D01*
X0130317Y0105190D01*
X0132687Y0106912D01*
X0133861Y0107293D01*
X0135322Y0105832D01*
X0138552Y0105832D01*
X0140837Y0108116D01*
X0140837Y0111347D01*
X0138552Y0113632D01*
X0135322Y0113632D01*
X0133037Y0111347D01*
X0133037Y0110932D01*
X0130979Y0110263D01*
X0127658Y0107850D01*
X0127658Y0107850D01*
X0127658Y0107850D01*
X0125244Y0104528D01*
X0125017Y0103827D01*
X0125017Y0120562D01*
X0125099Y0120479D01*
X0131294Y0120479D01*
X0131975Y0121159D01*
X0132078Y0120981D01*
X0132320Y0120739D01*
X0132616Y0120568D01*
X0132947Y0120479D01*
X0135377Y0120479D01*
X0135377Y0124432D01*
X0135977Y0124432D01*
X0135977Y0120479D01*
X0138407Y0120479D01*
X0138738Y0120568D01*
X0139034Y0120739D01*
X0139276Y0120981D01*
X0139448Y0121277D01*
X0139536Y0121608D01*
X0139536Y0124432D01*
X0135977Y0124432D01*
X0135977Y0125032D01*
X0135377Y0125032D01*
X0135377Y0128985D01*
X0132947Y0128985D01*
X0132616Y0128896D01*
X0132320Y0128725D01*
X0132078Y0128483D01*
X0131975Y0128304D01*
X0131294Y0128985D01*
X0125099Y0128985D01*
X0125017Y0128902D01*
X0125017Y0132932D01*
X0161937Y0132932D01*
X0163660Y0132819D01*
X0166988Y0131927D01*
X0169973Y0130204D01*
X0172409Y0127767D01*
X0174132Y0124783D01*
X0175024Y0121455D01*
X0175137Y0119732D01*
X0175137Y0118632D01*
X0173561Y0118632D01*
X0172128Y0118038D01*
X0171031Y0116941D01*
X0170437Y0115508D01*
X0170437Y0113956D01*
X0171031Y0112523D01*
X0172128Y0111426D01*
X0173561Y0110832D01*
X0180313Y0110832D01*
X0181746Y0111426D01*
X0182843Y0112523D01*
X0183437Y0113956D01*
X0183437Y0115508D01*
X0182843Y0116941D01*
X0181746Y0118038D01*
X0180313Y0118632D01*
X0178737Y0118632D01*
X0178737Y0121944D01*
X0177592Y0126216D01*
X0175380Y0130047D01*
X0175380Y0130047D01*
X0172252Y0133175D01*
X0168422Y0135387D01*
X0168422Y0135387D01*
X0164149Y0136532D01*
X0125017Y0136532D01*
X0125017Y0143290D01*
X0126121Y0142832D01*
X0127753Y0142832D01*
X0129259Y0143456D01*
X0130413Y0144609D01*
X0131037Y0146116D01*
X0131037Y0153347D01*
X0130413Y0154854D01*
X0129259Y0156008D01*
X0127753Y0156632D01*
X0126121Y0156632D01*
X0124615Y0156008D01*
X0123461Y0154854D01*
X0122837Y0153347D01*
X0122837Y0147237D01*
X0121937Y0146028D01*
X0121037Y0147237D01*
X0121037Y0153347D01*
X0120413Y0154854D01*
X0119259Y0156008D01*
X0117753Y0156632D01*
X0116121Y0156632D01*
X0114615Y0156008D01*
X0113461Y0154854D01*
X0112837Y0153347D01*
X0112837Y0146116D01*
X0113461Y0144609D01*
X0114615Y0143456D01*
X0116121Y0142832D01*
X0117753Y0142832D01*
X0118857Y0143290D01*
X0118857Y0128902D01*
X0118775Y0128985D01*
X0112580Y0128985D01*
X0111899Y0128304D01*
X0111796Y0128483D01*
X0111554Y0128725D01*
X0111258Y0128896D01*
X0110927Y0128985D01*
X0108497Y0128985D01*
X0108497Y0125032D01*
X0107897Y0125032D01*
X0107897Y0128985D01*
X0105467Y0128985D01*
X0105136Y0128896D01*
X0104840Y0128725D01*
X0104598Y0128483D01*
X0104426Y0128186D01*
X0104338Y0127856D01*
X0104338Y0125032D01*
X0107897Y0125032D01*
X0107897Y0124432D01*
X0108497Y0124432D01*
X0108497Y0120479D01*
X0110927Y0120479D01*
X0111258Y0120568D01*
X0111554Y0120739D01*
X0111796Y0120981D01*
X0111899Y0121159D01*
X0112580Y0120479D01*
X0118775Y0120479D01*
X0118857Y0120562D01*
X0118857Y0101885D01*
X0117329Y0101885D01*
X0113737Y0105477D01*
X0113737Y0105477D01*
X0112683Y0106532D01*
X0111190Y0106532D01*
X0111190Y0109089D01*
X0110509Y0109770D01*
X0110688Y0109873D01*
X0110930Y0110115D01*
X0111101Y0110411D01*
X0111190Y0110742D01*
X0111190Y0113172D01*
X0107237Y0113172D01*
X0107237Y0113772D01*
X0106637Y0113772D01*
X0106637Y0117331D01*
X0103813Y0117331D01*
X0103482Y0117242D01*
X0103186Y0117071D01*
X0102944Y0116829D01*
X0102773Y0116533D01*
X0102684Y0116202D01*
X0102684Y0113772D01*
X0106637Y0113772D01*
X0106637Y0113172D01*
X0102684Y0113172D01*
X0102684Y0110742D01*
X0102773Y0110411D01*
X0102944Y0110115D01*
X0103186Y0109873D01*
X0103365Y0109770D01*
X0102684Y0109089D01*
X0102684Y0106532D01*
X0101037Y0106532D01*
X0101037Y0108347D01*
X0100413Y0109854D01*
X0099259Y0111008D01*
X0097753Y0111632D01*
X0096121Y0111632D01*
X0094615Y0111008D01*
X0093461Y0109854D01*
X0092837Y0108347D01*
X0092837Y0106532D01*
X0091037Y0106532D01*
X0091037Y0108347D01*
X0090413Y0109854D01*
X0089259Y0111008D01*
X0087753Y0111632D01*
X0086121Y0111632D01*
X0084615Y0111008D01*
X0084063Y0110456D02*
X0058237Y0110456D01*
X0058237Y0109858D02*
X0083465Y0109858D01*
X0083215Y0109259D02*
X0058237Y0109259D01*
X0058237Y0108661D02*
X0060797Y0108661D01*
X0059510Y0108062D02*
X0058237Y0108062D01*
X0058237Y0107464D02*
X0058911Y0107464D01*
X0058313Y0106865D02*
X0058237Y0106865D01*
X0058237Y0111653D02*
X0102684Y0111653D01*
X0102684Y0111055D02*
X0099145Y0111055D01*
X0099811Y0110456D02*
X0102761Y0110456D01*
X0103212Y0109858D02*
X0100409Y0109858D01*
X0100659Y0109259D02*
X0102854Y0109259D01*
X0102684Y0108661D02*
X0100907Y0108661D01*
X0101037Y0108062D02*
X0102684Y0108062D01*
X0102684Y0107464D02*
X0101037Y0107464D01*
X0101037Y0106865D02*
X0102684Y0106865D01*
X0102684Y0102932D02*
X0101037Y0102932D01*
X0101037Y0101116D01*
X0100413Y0099609D01*
X0099259Y0098456D01*
X0097753Y0097832D01*
X0096121Y0097832D01*
X0094615Y0098456D01*
X0093461Y0099609D01*
X0092837Y0101116D01*
X0092837Y0102932D01*
X0091037Y0102932D01*
X0091037Y0101116D01*
X0090413Y0099609D01*
X0089259Y0098456D01*
X0087753Y0097832D01*
X0086121Y0097832D01*
X0084615Y0098456D01*
X0083461Y0099609D01*
X0082837Y0101116D01*
X0082837Y0102932D01*
X0076637Y0102932D01*
X0076637Y0102417D01*
X0075800Y0100396D01*
X0074252Y0098849D01*
X0072231Y0098011D01*
X0061643Y0098011D01*
X0059622Y0098849D01*
X0058237Y0100233D01*
X0058237Y0092895D01*
X0058542Y0093315D01*
X0059154Y0093927D01*
X0059854Y0094436D01*
X0060626Y0094829D01*
X0061449Y0095096D01*
X0062304Y0095232D01*
X0066637Y0095232D01*
X0066637Y0090032D01*
X0067237Y0090032D01*
X0067237Y0095232D01*
X0071570Y0095232D01*
X0072425Y0095096D01*
X0073248Y0094829D01*
X0074020Y0094436D01*
X0074720Y0093927D01*
X0075332Y0093315D01*
X0075841Y0092614D01*
X0076234Y0091843D01*
X0076502Y0091020D01*
X0076637Y0090165D01*
X0076637Y0090032D01*
X0067237Y0090032D01*
X0067237Y0089432D01*
X0076637Y0089432D01*
X0076637Y0089299D01*
X0076502Y0088444D01*
X0076234Y0087621D01*
X0075841Y0086849D01*
X0075332Y0086149D01*
X0074720Y0085537D01*
X0074020Y0085028D01*
X0073248Y0084635D01*
X0072425Y0084367D01*
X0071570Y0084232D01*
X0067237Y0084232D01*
X0067237Y0089432D01*
X0066637Y0089432D01*
X0058237Y0089432D01*
X0058237Y0090032D01*
X0066637Y0090032D01*
X0066637Y0089432D01*
X0066637Y0084232D01*
X0062304Y0084232D01*
X0061449Y0084367D01*
X0060626Y0084635D01*
X0059854Y0085028D01*
X0059154Y0085537D01*
X0058542Y0086149D01*
X0058237Y0086568D01*
X0058237Y0079230D01*
X0059622Y0080615D01*
X0061643Y0081452D01*
X0072231Y0081452D01*
X0074252Y0080615D01*
X0075800Y0079068D01*
X0076637Y0077046D01*
X0076637Y0076532D01*
X0082837Y0076532D01*
X0082837Y0078347D01*
X0083461Y0079854D01*
X0084615Y0081008D01*
X0086121Y0081632D01*
X0087753Y0081632D01*
X0089259Y0081008D01*
X0090413Y0079854D01*
X0091037Y0078347D01*
X0091037Y0076532D01*
X0092837Y0076532D01*
X0092837Y0078347D01*
X0093461Y0079854D01*
X0094615Y0081008D01*
X0096121Y0081632D01*
X0097753Y0081632D01*
X0099259Y0081008D01*
X0100413Y0079854D01*
X0101037Y0078347D01*
X0101037Y0076532D01*
X0102684Y0076532D01*
X0102684Y0076570D01*
X0103446Y0077331D01*
X0110428Y0077331D01*
X0111036Y0076724D01*
X0116011Y0081699D01*
X0116011Y0084142D01*
X0116773Y0084903D01*
X0118720Y0084903D01*
X0116191Y0087432D01*
X0111387Y0087432D01*
X0111387Y0086393D01*
X0110625Y0085632D01*
X0103249Y0085632D01*
X0102487Y0086393D01*
X0102487Y0092070D01*
X0102649Y0092232D01*
X0102487Y0092393D01*
X0102487Y0098070D01*
X0103249Y0098832D01*
X0105137Y0098832D01*
X0105137Y0102133D01*
X0103446Y0102133D01*
X0102684Y0102894D01*
X0102684Y0102932D01*
X0102903Y0102676D02*
X0101037Y0102676D01*
X0101037Y0102077D02*
X0105137Y0102077D01*
X0105137Y0101479D02*
X0101037Y0101479D01*
X0100939Y0100880D02*
X0105137Y0100880D01*
X0105137Y0100282D02*
X0100691Y0100282D01*
X0100443Y0099683D02*
X0105137Y0099683D01*
X0105137Y0099085D02*
X0099888Y0099085D01*
X0099290Y0098486D02*
X0102903Y0098486D01*
X0102487Y0097888D02*
X0097887Y0097888D01*
X0095987Y0097888D02*
X0087887Y0097888D01*
X0089290Y0098486D02*
X0094584Y0098486D01*
X0093986Y0099085D02*
X0089888Y0099085D01*
X0090443Y0099683D02*
X0093431Y0099683D01*
X0093183Y0100282D02*
X0090691Y0100282D01*
X0090939Y0100880D02*
X0092935Y0100880D01*
X0092837Y0101479D02*
X0091037Y0101479D01*
X0091037Y0102077D02*
X0092837Y0102077D01*
X0092837Y0102676D02*
X0091037Y0102676D01*
X0091037Y0106865D02*
X0092837Y0106865D01*
X0092837Y0107464D02*
X0091037Y0107464D01*
X0091037Y0108062D02*
X0092837Y0108062D01*
X0092967Y0108661D02*
X0090907Y0108661D01*
X0090659Y0109259D02*
X0093215Y0109259D01*
X0093465Y0109858D02*
X0090409Y0109858D01*
X0089811Y0110456D02*
X0094063Y0110456D01*
X0094729Y0111055D02*
X0089145Y0111055D01*
X0082967Y0108661D02*
X0073077Y0108661D01*
X0074364Y0108062D02*
X0082837Y0108062D01*
X0082837Y0107464D02*
X0074963Y0107464D01*
X0075561Y0106865D02*
X0082837Y0106865D01*
X0082837Y0102676D02*
X0076637Y0102676D01*
X0076496Y0102077D02*
X0082837Y0102077D01*
X0082837Y0101479D02*
X0076248Y0101479D01*
X0076000Y0100880D02*
X0082935Y0100880D01*
X0083183Y0100282D02*
X0075686Y0100282D01*
X0075087Y0099683D02*
X0083431Y0099683D01*
X0083986Y0099085D02*
X0074489Y0099085D01*
X0073377Y0098486D02*
X0084584Y0098486D01*
X0085987Y0097888D02*
X0058237Y0097888D01*
X0058237Y0098486D02*
X0060497Y0098486D01*
X0059385Y0099085D02*
X0058237Y0099085D01*
X0058237Y0099683D02*
X0058787Y0099683D01*
X0058237Y0097289D02*
X0102487Y0097289D01*
X0102487Y0096691D02*
X0058237Y0096691D01*
X0058237Y0096092D02*
X0102487Y0096092D01*
X0102487Y0095494D02*
X0058237Y0095494D01*
X0058237Y0094895D02*
X0060830Y0094895D01*
X0059663Y0094297D02*
X0058237Y0094297D01*
X0058237Y0093698D02*
X0058925Y0093698D01*
X0058385Y0093100D02*
X0058237Y0093100D01*
X0058237Y0089509D02*
X0066637Y0089509D01*
X0066637Y0090107D02*
X0067237Y0090107D01*
X0067237Y0089509D02*
X0102487Y0089509D01*
X0102487Y0090107D02*
X0076637Y0090107D01*
X0076551Y0090706D02*
X0102487Y0090706D01*
X0102487Y0091304D02*
X0076409Y0091304D01*
X0076204Y0091903D02*
X0102487Y0091903D01*
X0102487Y0092501D02*
X0075899Y0092501D01*
X0075489Y0093100D02*
X0102487Y0093100D01*
X0102487Y0093698D02*
X0074949Y0093698D01*
X0074211Y0094297D02*
X0102487Y0094297D01*
X0102487Y0094895D02*
X0073044Y0094895D01*
X0067237Y0094895D02*
X0066637Y0094895D01*
X0066637Y0094297D02*
X0067237Y0094297D01*
X0067237Y0093698D02*
X0066637Y0093698D01*
X0066637Y0093100D02*
X0067237Y0093100D01*
X0067237Y0092501D02*
X0066637Y0092501D01*
X0066637Y0091903D02*
X0067237Y0091903D01*
X0067237Y0091304D02*
X0066637Y0091304D01*
X0066637Y0090706D02*
X0067237Y0090706D01*
X0067237Y0088910D02*
X0066637Y0088910D01*
X0066637Y0088312D02*
X0067237Y0088312D01*
X0067237Y0087713D02*
X0066637Y0087713D01*
X0066637Y0087114D02*
X0067237Y0087114D01*
X0067237Y0086516D02*
X0066637Y0086516D01*
X0066637Y0085917D02*
X0067237Y0085917D01*
X0067237Y0085319D02*
X0066637Y0085319D01*
X0066637Y0084720D02*
X0067237Y0084720D01*
X0073416Y0084720D02*
X0116590Y0084720D01*
X0116011Y0084122D02*
X0058237Y0084122D01*
X0058237Y0084720D02*
X0060458Y0084720D01*
X0059454Y0085319D02*
X0058237Y0085319D01*
X0058237Y0085917D02*
X0058773Y0085917D01*
X0058275Y0086516D02*
X0058237Y0086516D01*
X0058237Y0083523D02*
X0116011Y0083523D01*
X0116011Y0082925D02*
X0058237Y0082925D01*
X0058237Y0082326D02*
X0116011Y0082326D01*
X0116011Y0081728D02*
X0058237Y0081728D01*
X0058237Y0081129D02*
X0060863Y0081129D01*
X0059537Y0080531D02*
X0058237Y0080531D01*
X0058237Y0079932D02*
X0058939Y0079932D01*
X0058340Y0079334D02*
X0058237Y0079334D01*
X0058237Y0072152D02*
X0058759Y0072152D01*
X0058237Y0071553D02*
X0059358Y0071553D01*
X0060430Y0070955D02*
X0058237Y0070955D01*
X0058237Y0070356D02*
X0083152Y0070356D01*
X0083400Y0069758D02*
X0058237Y0069758D01*
X0058237Y0069159D02*
X0083911Y0069159D01*
X0084510Y0068561D02*
X0058237Y0068561D01*
X0058237Y0067962D02*
X0085807Y0067962D01*
X0088067Y0067962D02*
X0095807Y0067962D01*
X0094510Y0068561D02*
X0089364Y0068561D01*
X0089963Y0069159D02*
X0093911Y0069159D01*
X0093400Y0069758D02*
X0090474Y0069758D01*
X0090722Y0070356D02*
X0093152Y0070356D01*
X0092904Y0070955D02*
X0090970Y0070955D01*
X0091037Y0071553D02*
X0092837Y0071553D01*
X0092837Y0072152D02*
X0091037Y0072152D01*
X0091037Y0072750D02*
X0092837Y0072750D01*
X0092837Y0076940D02*
X0091037Y0076940D01*
X0091037Y0077538D02*
X0092837Y0077538D01*
X0092837Y0078137D02*
X0091037Y0078137D01*
X0090876Y0078735D02*
X0092998Y0078735D01*
X0093246Y0079334D02*
X0090628Y0079334D01*
X0090335Y0079932D02*
X0093539Y0079932D01*
X0094138Y0080531D02*
X0089736Y0080531D01*
X0088966Y0081129D02*
X0094908Y0081129D01*
X0098966Y0081129D02*
X0115441Y0081129D01*
X0114843Y0080531D02*
X0099736Y0080531D01*
X0100335Y0079932D02*
X0114244Y0079932D01*
X0113646Y0079334D02*
X0100628Y0079334D01*
X0100876Y0078735D02*
X0113047Y0078735D01*
X0112449Y0078137D02*
X0101037Y0078137D01*
X0101037Y0077538D02*
X0111850Y0077538D01*
X0111252Y0076940D02*
X0110819Y0076940D01*
X0112752Y0073349D02*
X0118857Y0073349D01*
X0118857Y0073947D02*
X0113350Y0073947D01*
X0113949Y0074546D02*
X0118857Y0074546D01*
X0118857Y0075144D02*
X0114547Y0075144D01*
X0115146Y0075743D02*
X0118857Y0075743D01*
X0118857Y0076341D02*
X0115744Y0076341D01*
X0116343Y0076940D02*
X0118857Y0076940D01*
X0118857Y0077538D02*
X0116941Y0077538D01*
X0118857Y0072750D02*
X0111190Y0072750D01*
X0111190Y0072152D02*
X0118857Y0072152D01*
X0118857Y0071553D02*
X0111190Y0071553D01*
X0111190Y0070955D02*
X0118857Y0070955D01*
X0118857Y0070356D02*
X0111171Y0070356D01*
X0110573Y0069758D02*
X0118857Y0069758D01*
X0118857Y0069159D02*
X0111040Y0069159D01*
X0111190Y0068561D02*
X0118857Y0068561D01*
X0118857Y0067962D02*
X0111190Y0067962D01*
X0111190Y0067364D02*
X0118857Y0067364D01*
X0117880Y0066765D02*
X0111190Y0066765D01*
X0111190Y0065692D02*
X0107237Y0065692D01*
X0107237Y0062133D01*
X0110061Y0062133D01*
X0110392Y0062221D01*
X0110688Y0062392D01*
X0110930Y0062634D01*
X0111101Y0062931D01*
X0111190Y0063261D01*
X0111190Y0065692D01*
X0111190Y0065568D02*
X0117684Y0065568D01*
X0117684Y0066167D02*
X0107237Y0066167D01*
X0107237Y0065568D02*
X0106637Y0065568D01*
X0106637Y0064970D02*
X0107237Y0064970D01*
X0107237Y0064371D02*
X0106637Y0064371D01*
X0106637Y0063773D02*
X0107237Y0063773D01*
X0107237Y0063174D02*
X0106637Y0063174D01*
X0106637Y0062576D02*
X0107237Y0062576D01*
X0110871Y0062576D02*
X0113235Y0062576D01*
X0112900Y0061977D02*
X0058237Y0061977D01*
X0058237Y0061379D02*
X0112472Y0061379D01*
X0112044Y0060780D02*
X0058237Y0060780D01*
X0058237Y0060181D02*
X0111616Y0060181D01*
X0111188Y0059583D02*
X0058237Y0059583D01*
X0058237Y0058984D02*
X0061672Y0058984D01*
X0061798Y0059111D02*
X0059513Y0056826D01*
X0059513Y0055511D01*
X0063113Y0055511D01*
X0063113Y0054911D01*
X0059513Y0054911D01*
X0059513Y0053595D01*
X0061798Y0051311D01*
X0063113Y0051311D01*
X0063113Y0054911D01*
X0063713Y0054911D01*
X0063713Y0051311D01*
X0065029Y0051311D01*
X0067313Y0053595D01*
X0067313Y0054911D01*
X0063713Y0054911D01*
X0063713Y0055511D01*
X0063113Y0055511D01*
X0063113Y0059111D01*
X0061798Y0059111D01*
X0061073Y0058386D02*
X0058237Y0058386D01*
X0058237Y0057787D02*
X0060475Y0057787D01*
X0059876Y0057189D02*
X0058237Y0057189D01*
X0058237Y0056590D02*
X0059513Y0056590D01*
X0059513Y0055992D02*
X0058237Y0055992D01*
X0058237Y0055393D02*
X0063113Y0055393D01*
X0063113Y0054795D02*
X0063713Y0054795D01*
X0063713Y0055393D02*
X0108192Y0055393D01*
X0107764Y0054795D02*
X0067313Y0054795D01*
X0067313Y0054196D02*
X0095133Y0054196D01*
X0095173Y0054237D02*
X0092889Y0051952D01*
X0092889Y0050637D01*
X0096489Y0050637D01*
X0096489Y0054237D01*
X0095173Y0054237D01*
X0094535Y0053598D02*
X0067313Y0053598D01*
X0066717Y0052999D02*
X0093936Y0052999D01*
X0093338Y0052401D02*
X0066119Y0052401D01*
X0065520Y0051802D02*
X0092889Y0051802D01*
X0092889Y0051204D02*
X0058237Y0051204D01*
X0058237Y0051802D02*
X0061306Y0051802D01*
X0060708Y0052401D02*
X0058237Y0052401D01*
X0058237Y0052999D02*
X0060109Y0052999D01*
X0059513Y0053598D02*
X0058237Y0053598D01*
X0058237Y0054196D02*
X0059513Y0054196D01*
X0059513Y0054795D02*
X0058237Y0054795D01*
X0063113Y0054196D02*
X0063713Y0054196D01*
X0063713Y0053598D02*
X0063113Y0053598D01*
X0063113Y0052999D02*
X0063713Y0052999D01*
X0063713Y0052401D02*
X0063113Y0052401D01*
X0063113Y0051802D02*
X0063713Y0051802D01*
X0063713Y0055511D02*
X0067313Y0055511D01*
X0067313Y0056826D01*
X0065029Y0059111D01*
X0063713Y0059111D01*
X0063713Y0055511D01*
X0063713Y0055992D02*
X0063113Y0055992D01*
X0063113Y0056590D02*
X0063713Y0056590D01*
X0063713Y0057189D02*
X0063113Y0057189D01*
X0063113Y0057787D02*
X0063713Y0057787D01*
X0063713Y0058386D02*
X0063113Y0058386D01*
X0063113Y0058984D02*
X0063713Y0058984D01*
X0065155Y0058984D02*
X0110760Y0058984D01*
X0110332Y0058386D02*
X0065754Y0058386D01*
X0066352Y0057787D02*
X0109904Y0057787D01*
X0109476Y0057189D02*
X0066951Y0057189D01*
X0067313Y0056590D02*
X0109048Y0056590D01*
X0108620Y0055992D02*
X0067313Y0055992D01*
X0071815Y0048208D02*
X0070661Y0047054D01*
X0070037Y0045547D01*
X0070037Y0043916D01*
X0070661Y0042409D01*
X0071815Y0041256D01*
X0073321Y0040632D01*
X0080553Y0040632D01*
X0082059Y0041256D01*
X0083213Y0042409D01*
X0083837Y0043916D01*
X0083837Y0045547D01*
X0083213Y0047054D01*
X0082059Y0048208D01*
X0080553Y0048832D01*
X0073321Y0048832D01*
X0071815Y0048208D01*
X0071823Y0048211D02*
X0058237Y0048211D01*
X0058237Y0047613D02*
X0071220Y0047613D01*
X0070645Y0047014D02*
X0058237Y0047014D01*
X0058237Y0046416D02*
X0070397Y0046416D01*
X0070149Y0045817D02*
X0058237Y0045817D01*
X0058237Y0045219D02*
X0070037Y0045219D01*
X0070037Y0044620D02*
X0058237Y0044620D01*
X0058237Y0044022D02*
X0070037Y0044022D01*
X0070241Y0043423D02*
X0058237Y0043423D01*
X0058237Y0042825D02*
X0070489Y0042825D01*
X0070844Y0042226D02*
X0058237Y0042226D01*
X0058237Y0041628D02*
X0071443Y0041628D01*
X0072362Y0041029D02*
X0058237Y0041029D01*
X0058237Y0040431D02*
X0113843Y0040431D01*
X0113843Y0041029D02*
X0081512Y0041029D01*
X0082431Y0041628D02*
X0113843Y0041628D01*
X0113843Y0042226D02*
X0083030Y0042226D01*
X0083385Y0042825D02*
X0113843Y0042825D01*
X0113843Y0043423D02*
X0083633Y0043423D01*
X0083837Y0044022D02*
X0113843Y0044022D01*
X0113843Y0044620D02*
X0083837Y0044620D01*
X0083837Y0045219D02*
X0113843Y0045219D01*
X0114182Y0045817D02*
X0083725Y0045817D01*
X0083477Y0046416D02*
X0114781Y0046416D01*
X0117443Y0042825D02*
X0156572Y0042825D01*
X0156630Y0042825D02*
X0186937Y0042825D01*
X0186937Y0043423D02*
X0159393Y0043423D01*
X0158922Y0043171D02*
X0158922Y0043171D01*
X0160511Y0044022D02*
X0186937Y0044022D01*
X0186937Y0044620D02*
X0161464Y0044620D01*
X0161335Y0044462D02*
X0161335Y0044462D01*
X0161955Y0045219D02*
X0186937Y0045219D01*
X0186937Y0045817D02*
X0162446Y0045817D01*
X0162936Y0046416D02*
X0186937Y0046416D01*
X0186937Y0047014D02*
X0163202Y0047014D01*
X0163383Y0047613D02*
X0186937Y0047613D01*
X0186937Y0048211D02*
X0163669Y0048211D01*
X0164613Y0048810D02*
X0186937Y0048810D01*
X0186937Y0049408D02*
X0165212Y0049408D01*
X0165577Y0050007D02*
X0186937Y0050007D01*
X0186937Y0050605D02*
X0165825Y0050605D01*
X0166037Y0051204D02*
X0186937Y0051204D01*
X0186937Y0051802D02*
X0166037Y0051802D01*
X0166037Y0052401D02*
X0186937Y0052401D01*
X0186937Y0052999D02*
X0166037Y0052999D01*
X0166037Y0053598D02*
X0186937Y0053598D01*
X0186937Y0054196D02*
X0166037Y0054196D01*
X0166037Y0054795D02*
X0186937Y0054795D01*
X0186937Y0055393D02*
X0166037Y0055393D01*
X0166037Y0055992D02*
X0186937Y0055992D01*
X0186937Y0056590D02*
X0166037Y0056590D01*
X0166037Y0057189D02*
X0186937Y0057189D01*
X0186937Y0057787D02*
X0166037Y0057787D01*
X0166021Y0058386D02*
X0186937Y0058386D01*
X0186937Y0058984D02*
X0165773Y0058984D01*
X0165525Y0059583D02*
X0186937Y0059583D01*
X0186937Y0060181D02*
X0165086Y0060181D01*
X0164487Y0060780D02*
X0186937Y0060780D01*
X0186937Y0061379D02*
X0181538Y0061379D01*
X0181384Y0061276D02*
X0182023Y0061703D01*
X0182566Y0062246D01*
X0182993Y0062884D01*
X0183287Y0063594D01*
X0183437Y0064348D01*
X0183437Y0064432D01*
X0177237Y0064432D01*
X0177237Y0065032D01*
X0176637Y0065032D01*
X0176637Y0068632D01*
X0173953Y0068632D01*
X0173199Y0068482D01*
X0172490Y0068188D01*
X0171851Y0067761D01*
X0171308Y0067218D01*
X0170881Y0066579D01*
X0170587Y0065869D01*
X0170437Y0065116D01*
X0170437Y0065032D01*
X0176637Y0065032D01*
X0176637Y0064432D01*
X0170437Y0064432D01*
X0170437Y0064348D01*
X0170587Y0063594D01*
X0170881Y0062884D01*
X0171308Y0062246D01*
X0171851Y0061703D01*
X0172490Y0061276D01*
X0173199Y0060982D01*
X0173953Y0060832D01*
X0176637Y0060832D01*
X0176637Y0064432D01*
X0177237Y0064432D01*
X0177237Y0060832D01*
X0179921Y0060832D01*
X0180675Y0060982D01*
X0181384Y0061276D01*
X0182298Y0061977D02*
X0186937Y0061977D01*
X0186937Y0062576D02*
X0182787Y0062576D01*
X0183113Y0063174D02*
X0186937Y0063174D01*
X0186937Y0063773D02*
X0183323Y0063773D01*
X0183437Y0064371D02*
X0186937Y0064371D01*
X0186937Y0064970D02*
X0177237Y0064970D01*
X0177237Y0065032D02*
X0183437Y0065032D01*
X0183437Y0065116D01*
X0183287Y0065869D01*
X0182993Y0066579D01*
X0182566Y0067218D01*
X0182023Y0067761D01*
X0181384Y0068188D01*
X0180675Y0068482D01*
X0179921Y0068632D01*
X0177237Y0068632D01*
X0177237Y0065032D01*
X0177237Y0065568D02*
X0176637Y0065568D01*
X0176637Y0064970D02*
X0163737Y0064970D01*
X0163737Y0065568D02*
X0170527Y0065568D01*
X0170710Y0066167D02*
X0163737Y0066167D01*
X0163737Y0066765D02*
X0171005Y0066765D01*
X0171453Y0067364D02*
X0163737Y0067364D01*
X0163737Y0067962D02*
X0172152Y0067962D01*
X0173595Y0068561D02*
X0163737Y0068561D01*
X0163737Y0069159D02*
X0186937Y0069159D01*
X0186937Y0068561D02*
X0180279Y0068561D01*
X0181722Y0067962D02*
X0186937Y0067962D01*
X0186937Y0067364D02*
X0182421Y0067364D01*
X0182869Y0066765D02*
X0186937Y0066765D01*
X0186937Y0066167D02*
X0183164Y0066167D01*
X0183347Y0065568D02*
X0186937Y0065568D01*
X0186937Y0069758D02*
X0163737Y0069758D01*
X0163737Y0070356D02*
X0186937Y0070356D01*
X0186937Y0070955D02*
X0180609Y0070955D01*
X0181874Y0071553D02*
X0186937Y0071553D01*
X0186937Y0072152D02*
X0182472Y0072152D01*
X0182938Y0072750D02*
X0186937Y0072750D01*
X0186937Y0073349D02*
X0183185Y0073349D01*
X0183433Y0073947D02*
X0186937Y0073947D01*
X0186937Y0074546D02*
X0183437Y0074546D01*
X0183437Y0075144D02*
X0186937Y0075144D01*
X0186937Y0075743D02*
X0183340Y0075743D01*
X0183092Y0076341D02*
X0186937Y0076341D01*
X0186937Y0076940D02*
X0182844Y0076940D01*
X0182246Y0077538D02*
X0186937Y0077538D01*
X0186937Y0078137D02*
X0181508Y0078137D01*
X0180313Y0080832D02*
X0181746Y0081426D01*
X0182843Y0082523D01*
X0183437Y0083956D01*
X0183437Y0085508D01*
X0182843Y0086941D01*
X0181746Y0088038D01*
X0180313Y0088632D01*
X0173561Y0088632D01*
X0172128Y0088038D01*
X0171031Y0086941D01*
X0170437Y0085508D01*
X0170437Y0083956D01*
X0171031Y0082523D01*
X0172128Y0081426D01*
X0173561Y0080832D01*
X0180313Y0080832D01*
X0181031Y0081129D02*
X0186937Y0081129D01*
X0186937Y0080531D02*
X0160706Y0080531D01*
X0160789Y0080497D02*
X0160789Y0080497D01*
X0161353Y0079932D02*
X0186937Y0079932D01*
X0186937Y0079334D02*
X0161952Y0079334D01*
X0162550Y0078735D02*
X0186937Y0078735D01*
X0186937Y0081728D02*
X0182048Y0081728D01*
X0182647Y0082326D02*
X0186937Y0082326D01*
X0186937Y0082925D02*
X0183010Y0082925D01*
X0183258Y0083523D02*
X0186937Y0083523D01*
X0186937Y0084122D02*
X0183437Y0084122D01*
X0183437Y0084720D02*
X0186937Y0084720D01*
X0186937Y0085319D02*
X0183437Y0085319D01*
X0183267Y0085917D02*
X0186937Y0085917D01*
X0186937Y0086516D02*
X0183019Y0086516D01*
X0182670Y0087114D02*
X0186937Y0087114D01*
X0186937Y0087713D02*
X0182071Y0087713D01*
X0181086Y0088312D02*
X0186937Y0088312D01*
X0186937Y0088910D02*
X0153834Y0088910D01*
X0153837Y0089509D02*
X0186937Y0089509D01*
X0186937Y0090107D02*
X0153837Y0090107D01*
X0153771Y0090706D02*
X0186937Y0090706D01*
X0186937Y0091304D02*
X0181453Y0091304D01*
X0181746Y0091426D02*
X0182843Y0092523D01*
X0183437Y0093956D01*
X0183437Y0095508D01*
X0182843Y0096941D01*
X0181746Y0098038D01*
X0180313Y0098632D01*
X0173561Y0098632D01*
X0172128Y0098038D01*
X0171031Y0096941D01*
X0170437Y0095508D01*
X0170437Y0093956D01*
X0171031Y0092523D01*
X0172128Y0091426D01*
X0173561Y0090832D01*
X0180313Y0090832D01*
X0181746Y0091426D01*
X0182223Y0091903D02*
X0186937Y0091903D01*
X0186937Y0092501D02*
X0182822Y0092501D01*
X0183082Y0093100D02*
X0186937Y0093100D01*
X0186937Y0093698D02*
X0183330Y0093698D01*
X0183437Y0094297D02*
X0186937Y0094297D01*
X0186937Y0094895D02*
X0183437Y0094895D01*
X0183437Y0095494D02*
X0186937Y0095494D01*
X0186937Y0096092D02*
X0183195Y0096092D01*
X0182947Y0096691D02*
X0186937Y0096691D01*
X0186937Y0097289D02*
X0182495Y0097289D01*
X0181897Y0097888D02*
X0186937Y0097888D01*
X0186937Y0098486D02*
X0180664Y0098486D01*
X0180313Y0100832D02*
X0181746Y0101426D01*
X0182843Y0102523D01*
X0183437Y0103956D01*
X0183437Y0105508D01*
X0182843Y0106941D01*
X0181746Y0108038D01*
X0180313Y0108632D01*
X0173561Y0108632D01*
X0172128Y0108038D01*
X0171031Y0106941D01*
X0170861Y0106532D01*
X0161937Y0106532D01*
X0161313Y0106593D01*
X0160159Y0107071D01*
X0159975Y0107255D01*
X0160837Y0108116D01*
X0160837Y0111347D01*
X0158552Y0113632D01*
X0155322Y0113632D01*
X0153037Y0111347D01*
X0153037Y0108116D01*
X0155322Y0105832D01*
X0156220Y0105832D01*
X0158085Y0103967D01*
X0158085Y0103967D01*
X0160584Y0102932D01*
X0170861Y0102932D01*
X0171031Y0102523D01*
X0172128Y0101426D01*
X0173561Y0100832D01*
X0180313Y0100832D01*
X0180430Y0100880D02*
X0186937Y0100880D01*
X0186937Y0100282D02*
X0127863Y0100282D01*
X0127863Y0099683D02*
X0186937Y0099683D01*
X0186937Y0099085D02*
X0127863Y0099085D01*
X0127863Y0098486D02*
X0173210Y0098486D01*
X0171977Y0097888D02*
X0127863Y0097888D01*
X0127863Y0097289D02*
X0171379Y0097289D01*
X0170927Y0096691D02*
X0127863Y0096691D01*
X0127863Y0096092D02*
X0170679Y0096092D01*
X0170437Y0095494D02*
X0127863Y0095494D01*
X0127436Y0094895D02*
X0170437Y0094895D01*
X0170437Y0094297D02*
X0125017Y0094297D01*
X0125017Y0093698D02*
X0142999Y0093698D01*
X0141707Y0093100D02*
X0125017Y0093100D01*
X0125493Y0092501D02*
X0141108Y0092501D01*
X0140598Y0091903D02*
X0126091Y0091903D01*
X0123394Y0089509D02*
X0119206Y0089509D01*
X0118607Y0090107D02*
X0122796Y0090107D01*
X0122197Y0090706D02*
X0118009Y0090706D01*
X0119804Y0088910D02*
X0123993Y0088910D01*
X0124591Y0088312D02*
X0120403Y0088312D01*
X0121001Y0087713D02*
X0140535Y0087713D01*
X0140956Y0087114D02*
X0121600Y0087114D01*
X0122198Y0086516D02*
X0141555Y0086516D01*
X0142632Y0085917D02*
X0122457Y0085917D01*
X0122457Y0085319D02*
X0170437Y0085319D01*
X0170437Y0084720D02*
X0127228Y0084720D01*
X0127361Y0084643D02*
X0127065Y0084814D01*
X0126734Y0084903D01*
X0125869Y0084903D01*
X0125869Y0081335D01*
X0127863Y0081335D01*
X0127863Y0083774D01*
X0127774Y0084105D01*
X0127603Y0084401D01*
X0127361Y0084643D01*
X0127765Y0084122D02*
X0170437Y0084122D01*
X0170616Y0083523D02*
X0151297Y0083523D01*
X0152342Y0082925D02*
X0170864Y0082925D01*
X0171227Y0082326D02*
X0152941Y0082326D01*
X0153348Y0081728D02*
X0171826Y0081728D01*
X0172843Y0081129D02*
X0159261Y0081129D01*
X0158363Y0077538D02*
X0153266Y0077538D01*
X0152743Y0076940D02*
X0159168Y0076940D01*
X0159667Y0076341D02*
X0152145Y0076341D01*
X0150820Y0075743D02*
X0159915Y0075743D01*
X0160096Y0075144D02*
X0122457Y0075144D01*
X0122457Y0074546D02*
X0160137Y0074546D01*
X0160137Y0073947D02*
X0122457Y0073947D01*
X0122457Y0073349D02*
X0160137Y0073349D01*
X0160137Y0072750D02*
X0122457Y0072750D01*
X0122457Y0072152D02*
X0160137Y0072152D01*
X0160137Y0071553D02*
X0122457Y0071553D01*
X0122457Y0070955D02*
X0160137Y0070955D01*
X0160137Y0070356D02*
X0122457Y0070356D01*
X0122457Y0069758D02*
X0160137Y0069758D01*
X0160137Y0069159D02*
X0122457Y0069159D01*
X0122457Y0068561D02*
X0160137Y0068561D01*
X0160137Y0067962D02*
X0122457Y0067962D01*
X0122457Y0067364D02*
X0160137Y0067364D01*
X0160137Y0066765D02*
X0140994Y0066765D01*
X0141190Y0066167D02*
X0160137Y0066167D01*
X0160137Y0065568D02*
X0141190Y0065568D01*
X0141190Y0061379D02*
X0148341Y0061379D01*
X0148973Y0060780D02*
X0141190Y0060780D01*
X0140997Y0060181D02*
X0148788Y0060181D01*
X0148349Y0059583D02*
X0140696Y0059583D01*
X0141119Y0058984D02*
X0148101Y0058984D01*
X0147853Y0058386D02*
X0141190Y0058386D01*
X0141190Y0057787D02*
X0147837Y0057787D01*
X0147837Y0057189D02*
X0141190Y0057189D01*
X0141190Y0056590D02*
X0147837Y0056590D01*
X0147837Y0055992D02*
X0137237Y0055992D01*
X0137237Y0055692D02*
X0141190Y0055692D01*
X0141190Y0053261D01*
X0141101Y0052931D01*
X0140930Y0052634D01*
X0140688Y0052392D01*
X0140392Y0052221D01*
X0140061Y0052133D01*
X0137237Y0052133D01*
X0137237Y0055692D01*
X0137237Y0055393D02*
X0136637Y0055393D01*
X0136637Y0054795D02*
X0137237Y0054795D01*
X0137237Y0054196D02*
X0136637Y0054196D01*
X0136637Y0053598D02*
X0137237Y0053598D01*
X0137237Y0052999D02*
X0136637Y0052999D01*
X0136637Y0052401D02*
X0137237Y0052401D01*
X0133178Y0052401D02*
X0125696Y0052401D01*
X0125688Y0052392D02*
X0125930Y0052634D01*
X0126101Y0052931D01*
X0126190Y0053261D01*
X0126190Y0055692D01*
X0122237Y0055692D01*
X0122237Y0052133D01*
X0125061Y0052133D01*
X0125392Y0052221D01*
X0125688Y0052392D01*
X0126120Y0052999D02*
X0132754Y0052999D01*
X0132684Y0053598D02*
X0126190Y0053598D01*
X0126190Y0054196D02*
X0132684Y0054196D01*
X0132684Y0054795D02*
X0126190Y0054795D01*
X0126190Y0055393D02*
X0132684Y0055393D01*
X0132684Y0056590D02*
X0126190Y0056590D01*
X0126190Y0057189D02*
X0132684Y0057189D01*
X0132684Y0057787D02*
X0126190Y0057787D01*
X0126190Y0058386D02*
X0132684Y0058386D01*
X0132755Y0058984D02*
X0126119Y0058984D01*
X0125696Y0059583D02*
X0133178Y0059583D01*
X0132877Y0060181D02*
X0125997Y0060181D01*
X0126190Y0060780D02*
X0132684Y0060780D01*
X0132684Y0061379D02*
X0126190Y0061379D01*
X0126190Y0065568D02*
X0132684Y0065568D01*
X0132684Y0066167D02*
X0126190Y0066167D01*
X0125994Y0066765D02*
X0132880Y0066765D01*
X0141729Y0076341D02*
X0122457Y0076341D01*
X0122457Y0075743D02*
X0143054Y0075743D01*
X0141131Y0076940D02*
X0122457Y0076940D01*
X0122457Y0077538D02*
X0140608Y0077538D01*
X0140360Y0078137D02*
X0127636Y0078137D01*
X0127863Y0078735D02*
X0140112Y0078735D01*
X0140037Y0079334D02*
X0127863Y0079334D01*
X0127863Y0079932D02*
X0140037Y0079932D01*
X0140037Y0080531D02*
X0127863Y0080531D01*
X0127863Y0081129D02*
X0140278Y0081129D01*
X0140526Y0081728D02*
X0127863Y0081728D01*
X0127863Y0082326D02*
X0140933Y0082326D01*
X0141532Y0082925D02*
X0127863Y0082925D01*
X0127863Y0083523D02*
X0142577Y0083523D01*
X0151242Y0085917D02*
X0170607Y0085917D01*
X0170855Y0086516D02*
X0152319Y0086516D01*
X0152918Y0087114D02*
X0171204Y0087114D01*
X0171803Y0087713D02*
X0153339Y0087713D01*
X0153586Y0088312D02*
X0172788Y0088312D01*
X0172421Y0091304D02*
X0153524Y0091304D01*
X0153276Y0091903D02*
X0171651Y0091903D01*
X0171052Y0092501D02*
X0152766Y0092501D01*
X0152167Y0093100D02*
X0170792Y0093100D01*
X0170544Y0093698D02*
X0150875Y0093698D01*
X0159758Y0103274D02*
X0128926Y0103274D01*
X0128549Y0102676D02*
X0170967Y0102676D01*
X0171476Y0102077D02*
X0128354Y0102077D01*
X0128160Y0101479D02*
X0172075Y0101479D01*
X0173444Y0100880D02*
X0127966Y0100880D01*
X0129361Y0103873D02*
X0158313Y0103873D01*
X0157581Y0104471D02*
X0129795Y0104471D01*
X0130230Y0105070D02*
X0156982Y0105070D01*
X0156384Y0105668D02*
X0130976Y0105668D01*
X0131800Y0106267D02*
X0134887Y0106267D01*
X0134288Y0106865D02*
X0132623Y0106865D01*
X0128774Y0108661D02*
X0125017Y0108661D01*
X0125017Y0109259D02*
X0129598Y0109259D01*
X0130422Y0109858D02*
X0125017Y0109858D01*
X0125017Y0110456D02*
X0131574Y0110456D01*
X0130979Y0110263D02*
X0130979Y0110263D01*
X0133037Y0111055D02*
X0125017Y0111055D01*
X0125017Y0111653D02*
X0133343Y0111653D01*
X0133942Y0112252D02*
X0125017Y0112252D01*
X0125017Y0112850D02*
X0134540Y0112850D01*
X0135139Y0113449D02*
X0125017Y0113449D01*
X0125017Y0114048D02*
X0170437Y0114048D01*
X0170437Y0114646D02*
X0125017Y0114646D01*
X0125017Y0115245D02*
X0170437Y0115245D01*
X0170576Y0115843D02*
X0125017Y0115843D01*
X0125017Y0116442D02*
X0170824Y0116442D01*
X0171130Y0117040D02*
X0125017Y0117040D01*
X0125017Y0117639D02*
X0171728Y0117639D01*
X0172608Y0118237D02*
X0125017Y0118237D01*
X0125017Y0118836D02*
X0175137Y0118836D01*
X0175137Y0119434D02*
X0125017Y0119434D01*
X0125017Y0120033D02*
X0175117Y0120033D01*
X0175078Y0120631D02*
X0138848Y0120631D01*
X0139420Y0121230D02*
X0175039Y0121230D01*
X0174924Y0121828D02*
X0139536Y0121828D01*
X0139536Y0122427D02*
X0174764Y0122427D01*
X0174603Y0123025D02*
X0139536Y0123025D01*
X0139536Y0123624D02*
X0174443Y0123624D01*
X0174283Y0124222D02*
X0139536Y0124222D01*
X0139536Y0125032D02*
X0139536Y0127856D01*
X0139448Y0128186D01*
X0139276Y0128483D01*
X0139034Y0128725D01*
X0138738Y0128896D01*
X0138407Y0128985D01*
X0135977Y0128985D01*
X0135977Y0125032D01*
X0139536Y0125032D01*
X0139536Y0125419D02*
X0173765Y0125419D01*
X0174111Y0124821D02*
X0135977Y0124821D01*
X0135977Y0125419D02*
X0135377Y0125419D01*
X0135377Y0126018D02*
X0135977Y0126018D01*
X0135977Y0126616D02*
X0135377Y0126616D01*
X0135377Y0127215D02*
X0135977Y0127215D01*
X0135977Y0127813D02*
X0135377Y0127813D01*
X0135377Y0128412D02*
X0135977Y0128412D01*
X0139317Y0128412D02*
X0171765Y0128412D01*
X0171166Y0129010D02*
X0125017Y0129010D01*
X0125017Y0129609D02*
X0170568Y0129609D01*
X0169967Y0130207D02*
X0125017Y0130207D01*
X0125017Y0130806D02*
X0168930Y0130806D01*
X0167894Y0131404D02*
X0125017Y0131404D01*
X0125017Y0132003D02*
X0166706Y0132003D01*
X0164472Y0132601D02*
X0125017Y0132601D01*
X0125017Y0136791D02*
X0186937Y0136791D01*
X0186937Y0137389D02*
X0125017Y0137389D01*
X0125017Y0137988D02*
X0186937Y0137988D01*
X0186937Y0138586D02*
X0125017Y0138586D01*
X0125017Y0139185D02*
X0186937Y0139185D01*
X0186937Y0139783D02*
X0125017Y0139783D01*
X0125017Y0140382D02*
X0186937Y0140382D01*
X0186937Y0140981D02*
X0125017Y0140981D01*
X0125017Y0141579D02*
X0186937Y0141579D01*
X0186937Y0142178D02*
X0125017Y0142178D01*
X0125017Y0142776D02*
X0186937Y0142776D01*
X0186937Y0143375D02*
X0138986Y0143375D01*
X0139086Y0143425D02*
X0139608Y0143805D01*
X0140064Y0144261D01*
X0140444Y0144783D01*
X0140737Y0145358D01*
X0140936Y0145972D01*
X0141037Y0146609D01*
X0141037Y0149432D01*
X0137237Y0149432D01*
X0137237Y0150032D01*
X0136637Y0150032D01*
X0136637Y0156632D01*
X0136614Y0156632D01*
X0135977Y0156531D01*
X0135363Y0156331D01*
X0134788Y0156038D01*
X0134266Y0155659D01*
X0133810Y0155203D01*
X0133430Y0154681D01*
X0133137Y0154106D01*
X0132938Y0153492D01*
X0132837Y0152855D01*
X0132837Y0150032D01*
X0136637Y0150032D01*
X0136637Y0149432D01*
X0132837Y0149432D01*
X0132837Y0146609D01*
X0132938Y0145972D01*
X0133137Y0145358D01*
X0133430Y0144783D01*
X0133810Y0144261D01*
X0134266Y0143805D01*
X0134788Y0143425D01*
X0135363Y0143132D01*
X0135977Y0142933D01*
X0136614Y0142832D01*
X0136637Y0142832D01*
X0136637Y0149432D01*
X0137237Y0149432D01*
X0137237Y0142832D01*
X0137260Y0142832D01*
X0137897Y0142933D01*
X0138511Y0143132D01*
X0139086Y0143425D01*
X0139777Y0143973D02*
X0186937Y0143973D01*
X0186937Y0144572D02*
X0140290Y0144572D01*
X0140641Y0145170D02*
X0186937Y0145170D01*
X0186937Y0145769D02*
X0140870Y0145769D01*
X0140999Y0146367D02*
X0186937Y0146367D01*
X0186937Y0146966D02*
X0141037Y0146966D01*
X0141037Y0147564D02*
X0186937Y0147564D01*
X0186937Y0148163D02*
X0141037Y0148163D01*
X0141037Y0148761D02*
X0186937Y0148761D01*
X0186937Y0149360D02*
X0141037Y0149360D01*
X0141037Y0150032D02*
X0141037Y0152855D01*
X0140936Y0153492D01*
X0140737Y0154106D01*
X0140444Y0154681D01*
X0140064Y0155203D01*
X0139608Y0155659D01*
X0139086Y0156038D01*
X0138511Y0156331D01*
X0137897Y0156531D01*
X0137260Y0156632D01*
X0137237Y0156632D01*
X0137237Y0150032D01*
X0141037Y0150032D01*
X0141037Y0150557D02*
X0186937Y0150557D01*
X0186937Y0151155D02*
X0141037Y0151155D01*
X0141037Y0151754D02*
X0186937Y0151754D01*
X0186937Y0152352D02*
X0141037Y0152352D01*
X0141022Y0152951D02*
X0186937Y0152951D01*
X0186937Y0153549D02*
X0140917Y0153549D01*
X0140715Y0154148D02*
X0186937Y0154148D01*
X0186937Y0154746D02*
X0140396Y0154746D01*
X0139922Y0155345D02*
X0186937Y0155345D01*
X0186937Y0155943D02*
X0139217Y0155943D01*
X0137828Y0156542D02*
X0186937Y0156542D01*
X0186937Y0157140D02*
X0082737Y0157140D01*
X0082737Y0156542D02*
X0106046Y0156542D01*
X0105977Y0156531D02*
X0105363Y0156331D01*
X0104788Y0156038D01*
X0104266Y0155659D01*
X0103810Y0155203D01*
X0103430Y0154681D01*
X0103137Y0154106D01*
X0102938Y0153492D01*
X0102837Y0152855D01*
X0102837Y0150032D01*
X0106637Y0150032D01*
X0106637Y0156632D01*
X0106614Y0156632D01*
X0105977Y0156531D01*
X0106637Y0156542D02*
X0107237Y0156542D01*
X0107237Y0156632D02*
X0107237Y0150032D01*
X0106637Y0150032D01*
X0106637Y0149432D01*
X0102837Y0149432D01*
X0102837Y0146609D01*
X0102938Y0145972D01*
X0103137Y0145358D01*
X0103430Y0144783D01*
X0103810Y0144261D01*
X0104266Y0143805D01*
X0104788Y0143425D01*
X0105363Y0143132D01*
X0105977Y0142933D01*
X0106614Y0142832D01*
X0106637Y0142832D01*
X0106637Y0149432D01*
X0107237Y0149432D01*
X0107237Y0150032D01*
X0111037Y0150032D01*
X0111037Y0152855D01*
X0110936Y0153492D01*
X0110737Y0154106D01*
X0110444Y0154681D01*
X0110064Y0155203D01*
X0109608Y0155659D01*
X0109086Y0156038D01*
X0108511Y0156331D01*
X0107897Y0156531D01*
X0107260Y0156632D01*
X0107237Y0156632D01*
X0107828Y0156542D02*
X0115904Y0156542D01*
X0114550Y0155943D02*
X0109217Y0155943D01*
X0109922Y0155345D02*
X0113952Y0155345D01*
X0113416Y0154746D02*
X0110396Y0154746D01*
X0110715Y0154148D02*
X0113169Y0154148D01*
X0112921Y0153549D02*
X0110917Y0153549D01*
X0111022Y0152951D02*
X0112837Y0152951D01*
X0112837Y0152352D02*
X0111037Y0152352D01*
X0111037Y0151754D02*
X0112837Y0151754D01*
X0112837Y0151155D02*
X0111037Y0151155D01*
X0111037Y0150557D02*
X0112837Y0150557D01*
X0112837Y0149958D02*
X0107237Y0149958D01*
X0107237Y0149432D02*
X0111037Y0149432D01*
X0111037Y0146609D01*
X0110936Y0145972D01*
X0110737Y0145358D01*
X0110444Y0144783D01*
X0110064Y0144261D01*
X0109608Y0143805D01*
X0109086Y0143425D01*
X0108511Y0143132D01*
X0107897Y0142933D01*
X0107260Y0142832D01*
X0107237Y0142832D01*
X0107237Y0149432D01*
X0107237Y0149360D02*
X0106637Y0149360D01*
X0106637Y0149958D02*
X0082295Y0149958D01*
X0082737Y0150557D02*
X0102837Y0150557D01*
X0102837Y0151155D02*
X0082737Y0151155D01*
X0082737Y0151754D02*
X0102837Y0151754D01*
X0102837Y0152352D02*
X0082737Y0152352D01*
X0082737Y0152951D02*
X0102852Y0152951D01*
X0102957Y0153549D02*
X0082737Y0153549D01*
X0082737Y0154148D02*
X0103159Y0154148D01*
X0103478Y0154746D02*
X0082737Y0154746D01*
X0082737Y0155345D02*
X0103952Y0155345D01*
X0104657Y0155943D02*
X0082737Y0155943D01*
X0082737Y0157739D02*
X0186937Y0157739D01*
X0186937Y0158337D02*
X0082737Y0158337D01*
X0082737Y0158936D02*
X0186937Y0158936D01*
X0186937Y0159534D02*
X0082737Y0159534D01*
X0082737Y0160133D02*
X0186937Y0160133D01*
X0186937Y0160731D02*
X0082737Y0160731D01*
X0082737Y0161330D02*
X0186937Y0161330D01*
X0186937Y0161928D02*
X0082737Y0161928D01*
X0082737Y0162527D02*
X0186937Y0162527D01*
X0186937Y0163125D02*
X0082737Y0163125D01*
X0082737Y0163724D02*
X0186937Y0163724D01*
X0186937Y0164322D02*
X0082737Y0164322D01*
X0082737Y0164921D02*
X0186937Y0164921D01*
X0186937Y0165519D02*
X0082737Y0165519D01*
X0082737Y0166118D02*
X0186937Y0166118D01*
X0186937Y0166716D02*
X0082737Y0166716D01*
X0082737Y0167315D02*
X0186937Y0167315D01*
X0186937Y0167914D02*
X0082737Y0167914D01*
X0082737Y0168512D02*
X0186937Y0168512D01*
X0186937Y0169111D02*
X0082737Y0169111D01*
X0082737Y0169709D02*
X0186937Y0169709D01*
X0186937Y0170308D02*
X0082737Y0170308D01*
X0082737Y0170906D02*
X0186937Y0170906D01*
X0186937Y0149958D02*
X0137237Y0149958D01*
X0137237Y0149360D02*
X0136637Y0149360D01*
X0136637Y0149958D02*
X0131037Y0149958D01*
X0131037Y0149360D02*
X0132837Y0149360D01*
X0132837Y0148761D02*
X0131037Y0148761D01*
X0131037Y0148163D02*
X0132837Y0148163D01*
X0132837Y0147564D02*
X0131037Y0147564D01*
X0131037Y0146966D02*
X0132837Y0146966D01*
X0132875Y0146367D02*
X0131037Y0146367D01*
X0130893Y0145769D02*
X0133004Y0145769D01*
X0133233Y0145170D02*
X0130645Y0145170D01*
X0130375Y0144572D02*
X0133584Y0144572D01*
X0134097Y0143973D02*
X0129777Y0143973D01*
X0129063Y0143375D02*
X0134888Y0143375D01*
X0136637Y0143375D02*
X0137237Y0143375D01*
X0137237Y0143973D02*
X0136637Y0143973D01*
X0136637Y0144572D02*
X0137237Y0144572D01*
X0137237Y0145170D02*
X0136637Y0145170D01*
X0136637Y0145769D02*
X0137237Y0145769D01*
X0137237Y0146367D02*
X0136637Y0146367D01*
X0136637Y0146966D02*
X0137237Y0146966D01*
X0137237Y0147564D02*
X0136637Y0147564D01*
X0136637Y0148163D02*
X0137237Y0148163D01*
X0137237Y0148761D02*
X0136637Y0148761D01*
X0136637Y0150557D02*
X0137237Y0150557D01*
X0137237Y0151155D02*
X0136637Y0151155D01*
X0136637Y0151754D02*
X0137237Y0151754D01*
X0137237Y0152352D02*
X0136637Y0152352D01*
X0136637Y0152951D02*
X0137237Y0152951D01*
X0137237Y0153549D02*
X0136637Y0153549D01*
X0136637Y0154148D02*
X0137237Y0154148D01*
X0137237Y0154746D02*
X0136637Y0154746D01*
X0136637Y0155345D02*
X0137237Y0155345D01*
X0137237Y0155943D02*
X0136637Y0155943D01*
X0136637Y0156542D02*
X0137237Y0156542D01*
X0136046Y0156542D02*
X0127970Y0156542D01*
X0129324Y0155943D02*
X0134657Y0155943D01*
X0133952Y0155345D02*
X0129922Y0155345D01*
X0130458Y0154746D02*
X0133478Y0154746D01*
X0133159Y0154148D02*
X0130705Y0154148D01*
X0130953Y0153549D02*
X0132957Y0153549D01*
X0132852Y0152951D02*
X0131037Y0152951D01*
X0131037Y0152352D02*
X0132837Y0152352D01*
X0132837Y0151754D02*
X0131037Y0151754D01*
X0131037Y0151155D02*
X0132837Y0151155D01*
X0132837Y0150557D02*
X0131037Y0150557D01*
X0125904Y0156542D02*
X0117970Y0156542D01*
X0119324Y0155943D02*
X0124550Y0155943D01*
X0123952Y0155345D02*
X0119922Y0155345D01*
X0120458Y0154746D02*
X0123416Y0154746D01*
X0123169Y0154148D02*
X0120705Y0154148D01*
X0120953Y0153549D02*
X0122921Y0153549D01*
X0122837Y0152951D02*
X0121037Y0152951D01*
X0121037Y0152352D02*
X0122837Y0152352D01*
X0122837Y0151754D02*
X0121037Y0151754D01*
X0121037Y0151155D02*
X0122837Y0151155D01*
X0122837Y0150557D02*
X0121037Y0150557D01*
X0121037Y0149958D02*
X0122837Y0149958D01*
X0122837Y0149360D02*
X0121037Y0149360D01*
X0121037Y0148761D02*
X0122837Y0148761D01*
X0122837Y0148163D02*
X0121037Y0148163D01*
X0121037Y0147564D02*
X0122837Y0147564D01*
X0122635Y0146966D02*
X0121239Y0146966D01*
X0121684Y0146367D02*
X0122190Y0146367D01*
X0118857Y0142776D02*
X0093342Y0142776D01*
X0093244Y0142583D02*
X0093537Y0143158D01*
X0093736Y0143772D01*
X0093837Y0144409D01*
X0093837Y0144432D01*
X0087237Y0144432D01*
X0087237Y0145032D01*
X0086637Y0145032D01*
X0086637Y0148832D01*
X0083814Y0148832D01*
X0083177Y0148731D01*
X0082563Y0148531D01*
X0081988Y0148238D01*
X0081466Y0147859D01*
X0081010Y0147403D01*
X0080630Y0146881D01*
X0080337Y0146306D01*
X0080138Y0145692D01*
X0080037Y0145055D01*
X0080037Y0145032D01*
X0086637Y0145032D01*
X0086637Y0144432D01*
X0080037Y0144432D01*
X0080037Y0144409D01*
X0080138Y0143772D01*
X0080337Y0143158D01*
X0080630Y0142583D01*
X0081010Y0142061D01*
X0081466Y0141605D01*
X0081988Y0141225D01*
X0082563Y0140932D01*
X0083177Y0140733D01*
X0083814Y0140632D01*
X0086637Y0140632D01*
X0086637Y0144432D01*
X0087237Y0144432D01*
X0087237Y0140632D01*
X0090060Y0140632D01*
X0090697Y0140733D01*
X0091311Y0140932D01*
X0091886Y0141225D01*
X0092408Y0141605D01*
X0092864Y0142061D01*
X0093244Y0142583D01*
X0092949Y0142178D02*
X0118857Y0142178D01*
X0118857Y0141579D02*
X0092373Y0141579D01*
X0091406Y0140981D02*
X0118857Y0140981D01*
X0118857Y0140382D02*
X0058237Y0140382D01*
X0058237Y0139783D02*
X0118857Y0139783D01*
X0118857Y0139185D02*
X0058237Y0139185D01*
X0058237Y0138586D02*
X0082732Y0138586D01*
X0082563Y0138531D02*
X0081988Y0138238D01*
X0081466Y0137859D01*
X0081010Y0137403D01*
X0080630Y0136881D01*
X0080337Y0136306D01*
X0080138Y0135692D01*
X0080037Y0135055D01*
X0080037Y0135032D01*
X0086637Y0135032D01*
X0086637Y0138832D01*
X0083814Y0138832D01*
X0083177Y0138731D01*
X0082563Y0138531D01*
X0081643Y0137988D02*
X0058237Y0137988D01*
X0058237Y0137389D02*
X0081000Y0137389D01*
X0080585Y0136791D02*
X0058237Y0136791D01*
X0058237Y0136192D02*
X0080301Y0136192D01*
X0080122Y0135594D02*
X0058237Y0135594D01*
X0058237Y0134995D02*
X0086637Y0134995D01*
X0086637Y0135032D02*
X0086637Y0134432D01*
X0080037Y0134432D01*
X0080037Y0134409D01*
X0080138Y0133772D01*
X0080337Y0133158D01*
X0080630Y0132583D01*
X0081010Y0132061D01*
X0081466Y0131605D01*
X0081988Y0131225D01*
X0082563Y0130932D01*
X0083177Y0130733D01*
X0083814Y0130632D01*
X0086637Y0130632D01*
X0086637Y0134432D01*
X0087237Y0134432D01*
X0087237Y0135032D01*
X0086637Y0135032D01*
X0086637Y0135594D02*
X0087237Y0135594D01*
X0087237Y0135032D02*
X0087237Y0138832D01*
X0090060Y0138832D01*
X0090697Y0138731D01*
X0091311Y0138531D01*
X0091886Y0138238D01*
X0092408Y0137859D01*
X0092864Y0137403D01*
X0093244Y0136881D01*
X0093537Y0136306D01*
X0093736Y0135692D01*
X0093837Y0135055D01*
X0093837Y0135032D01*
X0087237Y0135032D01*
X0087237Y0134995D02*
X0118857Y0134995D01*
X0118857Y0134397D02*
X0093835Y0134397D01*
X0093837Y0134409D02*
X0093837Y0134432D01*
X0087237Y0134432D01*
X0087237Y0130632D01*
X0090060Y0130632D01*
X0090697Y0130733D01*
X0091311Y0130932D01*
X0091886Y0131225D01*
X0092408Y0131605D01*
X0092864Y0132061D01*
X0093244Y0132583D01*
X0093537Y0133158D01*
X0093736Y0133772D01*
X0093837Y0134409D01*
X0093740Y0133798D02*
X0118857Y0133798D01*
X0118857Y0133200D02*
X0093550Y0133200D01*
X0093253Y0132601D02*
X0118857Y0132601D01*
X0118857Y0132003D02*
X0092806Y0132003D01*
X0092132Y0131404D02*
X0118857Y0131404D01*
X0118857Y0130806D02*
X0090922Y0130806D01*
X0087237Y0130806D02*
X0086637Y0130806D01*
X0086637Y0131404D02*
X0087237Y0131404D01*
X0087237Y0132003D02*
X0086637Y0132003D01*
X0086637Y0132601D02*
X0087237Y0132601D01*
X0087237Y0133200D02*
X0086637Y0133200D01*
X0086637Y0133798D02*
X0087237Y0133798D01*
X0087237Y0134397D02*
X0086637Y0134397D01*
X0086637Y0136192D02*
X0087237Y0136192D01*
X0087237Y0136791D02*
X0086637Y0136791D01*
X0086637Y0137389D02*
X0087237Y0137389D01*
X0087237Y0137988D02*
X0086637Y0137988D01*
X0086637Y0138586D02*
X0087237Y0138586D01*
X0091142Y0138586D02*
X0118857Y0138586D01*
X0118857Y0137988D02*
X0092231Y0137988D01*
X0092874Y0137389D02*
X0118857Y0137389D01*
X0118857Y0136791D02*
X0093289Y0136791D01*
X0093573Y0136192D02*
X0118857Y0136192D01*
X0118857Y0135594D02*
X0093752Y0135594D01*
X0087237Y0140981D02*
X0086637Y0140981D01*
X0086637Y0141579D02*
X0087237Y0141579D01*
X0087237Y0142178D02*
X0086637Y0142178D01*
X0086637Y0142776D02*
X0087237Y0142776D01*
X0087237Y0143375D02*
X0086637Y0143375D01*
X0086637Y0143973D02*
X0087237Y0143973D01*
X0087237Y0144572D02*
X0103584Y0144572D01*
X0103233Y0145170D02*
X0093819Y0145170D01*
X0093837Y0145055D02*
X0093736Y0145692D01*
X0093537Y0146306D01*
X0093244Y0146881D01*
X0092864Y0147403D01*
X0092408Y0147859D01*
X0091886Y0148238D01*
X0091311Y0148531D01*
X0090697Y0148731D01*
X0090060Y0148832D01*
X0087237Y0148832D01*
X0087237Y0145032D01*
X0093837Y0145032D01*
X0093837Y0145055D01*
X0093711Y0145769D02*
X0103004Y0145769D01*
X0102875Y0146367D02*
X0093505Y0146367D01*
X0093182Y0146966D02*
X0102837Y0146966D01*
X0102837Y0147564D02*
X0092703Y0147564D01*
X0091990Y0148163D02*
X0102837Y0148163D01*
X0102837Y0148761D02*
X0090506Y0148761D01*
X0087237Y0148761D02*
X0086637Y0148761D01*
X0086637Y0148163D02*
X0087237Y0148163D01*
X0087237Y0147564D02*
X0086637Y0147564D01*
X0086637Y0146966D02*
X0087237Y0146966D01*
X0087237Y0146367D02*
X0086637Y0146367D01*
X0086637Y0145769D02*
X0087237Y0145769D01*
X0087237Y0145170D02*
X0086637Y0145170D01*
X0086637Y0144572D02*
X0058237Y0144572D01*
X0058237Y0145170D02*
X0080055Y0145170D01*
X0080163Y0145769D02*
X0058237Y0145769D01*
X0058237Y0146367D02*
X0080369Y0146367D01*
X0080692Y0146966D02*
X0058237Y0146966D01*
X0058237Y0147564D02*
X0081171Y0147564D01*
X0081884Y0148163D02*
X0058237Y0148163D01*
X0058237Y0148761D02*
X0083368Y0148761D01*
X0080106Y0143973D02*
X0058237Y0143973D01*
X0058237Y0143375D02*
X0080267Y0143375D01*
X0080532Y0142776D02*
X0058237Y0142776D01*
X0058237Y0142178D02*
X0080925Y0142178D01*
X0081501Y0141579D02*
X0058237Y0141579D01*
X0058237Y0140981D02*
X0082468Y0140981D01*
X0080039Y0134397D02*
X0058237Y0134397D01*
X0058237Y0133798D02*
X0080134Y0133798D01*
X0080324Y0133200D02*
X0058237Y0133200D01*
X0058237Y0132601D02*
X0080621Y0132601D01*
X0081068Y0132003D02*
X0058237Y0132003D01*
X0058237Y0131404D02*
X0081742Y0131404D01*
X0082952Y0130806D02*
X0058237Y0130806D01*
X0058237Y0130207D02*
X0118857Y0130207D01*
X0118857Y0129609D02*
X0058237Y0129609D01*
X0058237Y0129010D02*
X0118857Y0129010D01*
X0112007Y0128412D02*
X0111837Y0128412D01*
X0108497Y0128412D02*
X0107897Y0128412D01*
X0107897Y0127813D02*
X0108497Y0127813D01*
X0108497Y0127215D02*
X0107897Y0127215D01*
X0107897Y0126616D02*
X0108497Y0126616D01*
X0108497Y0126018D02*
X0107897Y0126018D01*
X0107897Y0125419D02*
X0108497Y0125419D01*
X0107897Y0124821D02*
X0058237Y0124821D01*
X0058237Y0125419D02*
X0104338Y0125419D01*
X0104338Y0126018D02*
X0058237Y0126018D01*
X0058237Y0126616D02*
X0104338Y0126616D01*
X0104338Y0127215D02*
X0058237Y0127215D01*
X0058237Y0127813D02*
X0104338Y0127813D01*
X0104557Y0128412D02*
X0058237Y0128412D01*
X0058237Y0124222D02*
X0104338Y0124222D01*
X0104338Y0124432D02*
X0104338Y0121608D01*
X0104426Y0121277D01*
X0104598Y0120981D01*
X0104840Y0120739D01*
X0105136Y0120568D01*
X0105467Y0120479D01*
X0107897Y0120479D01*
X0107897Y0124432D01*
X0104338Y0124432D01*
X0104338Y0123624D02*
X0058237Y0123624D01*
X0058237Y0123025D02*
X0104338Y0123025D01*
X0104338Y0122427D02*
X0058237Y0122427D01*
X0058237Y0121828D02*
X0104338Y0121828D01*
X0104454Y0121230D02*
X0058237Y0121230D01*
X0058237Y0120631D02*
X0105026Y0120631D01*
X0107897Y0120631D02*
X0108497Y0120631D01*
X0108497Y0121230D02*
X0107897Y0121230D01*
X0107897Y0121828D02*
X0108497Y0121828D01*
X0108497Y0122427D02*
X0107897Y0122427D01*
X0107897Y0123025D02*
X0108497Y0123025D01*
X0108497Y0123624D02*
X0107897Y0123624D01*
X0107897Y0124222D02*
X0108497Y0124222D01*
X0111368Y0120631D02*
X0112428Y0120631D01*
X0110392Y0117242D02*
X0110061Y0117331D01*
X0107237Y0117331D01*
X0107237Y0113772D01*
X0111190Y0113772D01*
X0111190Y0116202D01*
X0111101Y0116533D01*
X0110930Y0116829D01*
X0110688Y0117071D01*
X0110392Y0117242D01*
X0110719Y0117040D02*
X0118857Y0117040D01*
X0118857Y0116442D02*
X0111126Y0116442D01*
X0111190Y0115843D02*
X0118857Y0115843D01*
X0118857Y0115245D02*
X0111190Y0115245D01*
X0111190Y0114646D02*
X0118857Y0114646D01*
X0118857Y0114048D02*
X0111190Y0114048D01*
X0111190Y0112850D02*
X0118857Y0112850D01*
X0118857Y0112252D02*
X0111190Y0112252D01*
X0111190Y0111653D02*
X0118857Y0111653D01*
X0118857Y0111055D02*
X0111190Y0111055D01*
X0111113Y0110456D02*
X0118857Y0110456D01*
X0118857Y0109858D02*
X0110662Y0109858D01*
X0111020Y0109259D02*
X0118857Y0109259D01*
X0118857Y0108661D02*
X0111190Y0108661D01*
X0111190Y0108062D02*
X0118857Y0108062D01*
X0118857Y0107464D02*
X0111190Y0107464D01*
X0111190Y0106865D02*
X0118857Y0106865D01*
X0118857Y0106267D02*
X0112948Y0106267D01*
X0113546Y0105668D02*
X0118857Y0105668D01*
X0118857Y0105070D02*
X0114145Y0105070D01*
X0114743Y0104471D02*
X0118857Y0104471D01*
X0118857Y0103873D02*
X0115342Y0103873D01*
X0115940Y0103274D02*
X0118857Y0103274D01*
X0118857Y0102676D02*
X0116539Y0102676D01*
X0117137Y0102077D02*
X0118857Y0102077D01*
X0115637Y0098486D02*
X0110971Y0098486D01*
X0111387Y0097888D02*
X0116011Y0097888D01*
X0116011Y0097289D02*
X0111387Y0097289D01*
X0111387Y0096691D02*
X0116011Y0096691D01*
X0116011Y0096092D02*
X0111387Y0096092D01*
X0111387Y0095494D02*
X0116011Y0095494D01*
X0116438Y0094895D02*
X0111387Y0094895D01*
X0111387Y0094297D02*
X0121417Y0094297D01*
X0121417Y0093698D02*
X0111387Y0093698D01*
X0111387Y0093100D02*
X0121417Y0093100D01*
X0121417Y0092501D02*
X0111387Y0092501D01*
X0111387Y0091903D02*
X0121417Y0091903D01*
X0121599Y0091304D02*
X0111387Y0091304D01*
X0111387Y0087114D02*
X0116509Y0087114D01*
X0117107Y0086516D02*
X0111387Y0086516D01*
X0110911Y0085917D02*
X0117706Y0085917D01*
X0118304Y0085319D02*
X0074420Y0085319D01*
X0075101Y0085917D02*
X0102963Y0085917D01*
X0102487Y0086516D02*
X0075599Y0086516D01*
X0075976Y0087114D02*
X0102487Y0087114D01*
X0102487Y0087713D02*
X0076264Y0087713D01*
X0076459Y0088312D02*
X0102487Y0088312D01*
X0102487Y0088910D02*
X0076575Y0088910D01*
X0073011Y0081129D02*
X0084908Y0081129D01*
X0084138Y0080531D02*
X0074337Y0080531D01*
X0074935Y0079932D02*
X0083539Y0079932D01*
X0083246Y0079334D02*
X0075534Y0079334D01*
X0075937Y0078735D02*
X0082998Y0078735D01*
X0082837Y0078137D02*
X0076185Y0078137D01*
X0076433Y0077538D02*
X0082837Y0077538D01*
X0082837Y0076940D02*
X0076637Y0076940D01*
X0075713Y0072750D02*
X0082837Y0072750D01*
X0082837Y0072152D02*
X0075115Y0072152D01*
X0074516Y0071553D02*
X0082837Y0071553D01*
X0082904Y0070955D02*
X0073444Y0070955D01*
X0058237Y0067364D02*
X0102684Y0067364D01*
X0102684Y0067962D02*
X0098067Y0067962D01*
X0099364Y0068561D02*
X0102684Y0068561D01*
X0102834Y0069159D02*
X0099963Y0069159D01*
X0100474Y0069758D02*
X0103301Y0069758D01*
X0102703Y0070356D02*
X0100722Y0070356D01*
X0100970Y0070955D02*
X0102684Y0070955D01*
X0102684Y0071553D02*
X0101037Y0071553D01*
X0101037Y0072152D02*
X0102684Y0072152D01*
X0102684Y0072750D02*
X0101037Y0072750D01*
X0101037Y0076940D02*
X0103055Y0076940D01*
X0102684Y0066765D02*
X0058237Y0066765D01*
X0058237Y0066167D02*
X0106637Y0066167D01*
X0102684Y0065568D02*
X0058237Y0065568D01*
X0058237Y0064970D02*
X0102684Y0064970D01*
X0102684Y0064371D02*
X0058237Y0064371D01*
X0058237Y0063773D02*
X0102684Y0063773D01*
X0102708Y0063174D02*
X0058237Y0063174D01*
X0058237Y0062576D02*
X0103003Y0062576D01*
X0111166Y0063174D02*
X0113755Y0063174D01*
X0114432Y0063773D02*
X0111190Y0063773D01*
X0111190Y0064371D02*
X0115458Y0064371D01*
X0114614Y0063955D02*
X0114614Y0063955D01*
X0116670Y0064970D02*
X0111190Y0064970D01*
X0117024Y0065144D02*
X0117024Y0065144D01*
X0117665Y0061379D02*
X0117684Y0061379D01*
X0117684Y0060780D02*
X0116588Y0060780D01*
X0116041Y0060181D02*
X0117877Y0060181D01*
X0118178Y0059583D02*
X0115613Y0059583D01*
X0115185Y0058984D02*
X0117755Y0058984D01*
X0117684Y0058386D02*
X0114757Y0058386D01*
X0114329Y0057787D02*
X0117684Y0057787D01*
X0117684Y0057189D02*
X0113901Y0057189D01*
X0113473Y0056590D02*
X0117684Y0056590D01*
X0117684Y0055393D02*
X0112618Y0055393D01*
X0112190Y0054795D02*
X0117684Y0054795D01*
X0117684Y0054196D02*
X0111762Y0054196D01*
X0111334Y0053598D02*
X0117684Y0053598D01*
X0117754Y0052999D02*
X0110906Y0052999D01*
X0110478Y0052401D02*
X0118178Y0052401D01*
X0121637Y0052401D02*
X0122237Y0052401D01*
X0122237Y0052999D02*
X0121637Y0052999D01*
X0121637Y0053598D02*
X0122237Y0053598D01*
X0122237Y0054196D02*
X0121637Y0054196D01*
X0121637Y0054795D02*
X0122237Y0054795D01*
X0122237Y0055393D02*
X0121637Y0055393D01*
X0121637Y0055992D02*
X0113046Y0055992D01*
X0110689Y0051802D02*
X0147837Y0051802D01*
X0147837Y0051204D02*
X0110689Y0051204D01*
X0110689Y0050605D02*
X0148049Y0050605D01*
X0148297Y0050007D02*
X0110689Y0050007D01*
X0110689Y0049408D02*
X0148662Y0049408D01*
X0149261Y0048810D02*
X0110689Y0048810D01*
X0110179Y0048211D02*
X0150205Y0048211D01*
X0153669Y0048211D02*
X0159672Y0048211D01*
X0159261Y0048810D02*
X0154613Y0048810D01*
X0155212Y0049408D02*
X0158662Y0049408D01*
X0158297Y0050007D02*
X0155577Y0050007D01*
X0155825Y0050605D02*
X0158049Y0050605D01*
X0157837Y0051204D02*
X0156037Y0051204D01*
X0156037Y0051802D02*
X0157837Y0051802D01*
X0157837Y0052401D02*
X0156037Y0052401D01*
X0156037Y0052999D02*
X0157837Y0052999D01*
X0157837Y0053598D02*
X0156037Y0053598D01*
X0156037Y0054196D02*
X0157837Y0054196D01*
X0157837Y0054795D02*
X0156037Y0054795D01*
X0156037Y0055393D02*
X0157837Y0055393D01*
X0157837Y0055992D02*
X0156037Y0055992D01*
X0156037Y0056590D02*
X0157837Y0056590D01*
X0157837Y0057189D02*
X0156037Y0057189D01*
X0156037Y0057787D02*
X0157837Y0057787D01*
X0157853Y0058386D02*
X0156021Y0058386D01*
X0155773Y0058984D02*
X0158101Y0058984D01*
X0158349Y0059583D02*
X0155525Y0059583D01*
X0155086Y0060181D02*
X0158788Y0060181D01*
X0159387Y0060780D02*
X0154487Y0060780D01*
X0153364Y0061379D02*
X0160137Y0061379D01*
X0160137Y0061977D02*
X0152936Y0061977D01*
X0152422Y0062576D02*
X0160137Y0062576D01*
X0160137Y0063174D02*
X0151810Y0063174D01*
X0151197Y0063773D02*
X0160137Y0063773D01*
X0160137Y0064371D02*
X0150585Y0064371D01*
X0150440Y0064512D02*
X0150440Y0064512D01*
X0149299Y0064970D02*
X0160137Y0064970D01*
X0163737Y0064371D02*
X0170437Y0064371D01*
X0170551Y0063773D02*
X0163737Y0063773D01*
X0163737Y0063174D02*
X0170761Y0063174D01*
X0171087Y0062576D02*
X0163737Y0062576D01*
X0163737Y0061977D02*
X0171576Y0061977D01*
X0172336Y0061379D02*
X0163737Y0061379D01*
X0163737Y0070955D02*
X0173265Y0070955D01*
X0172000Y0071553D02*
X0163737Y0071553D01*
X0163737Y0072152D02*
X0171402Y0072152D01*
X0170936Y0072750D02*
X0163737Y0072750D01*
X0163383Y0076940D02*
X0171030Y0076940D01*
X0171628Y0077538D02*
X0163135Y0077538D01*
X0162887Y0078137D02*
X0172366Y0078137D01*
X0162702Y0078584D02*
X0162702Y0078584D01*
X0176637Y0068561D02*
X0177237Y0068561D01*
X0177237Y0067962D02*
X0176637Y0067962D01*
X0176637Y0067364D02*
X0177237Y0067364D01*
X0177237Y0066765D02*
X0176637Y0066765D01*
X0176637Y0066167D02*
X0177237Y0066167D01*
X0177237Y0064371D02*
X0176637Y0064371D01*
X0176637Y0063773D02*
X0177237Y0063773D01*
X0177237Y0063174D02*
X0176637Y0063174D01*
X0176637Y0062576D02*
X0177237Y0062576D01*
X0177237Y0061977D02*
X0176637Y0061977D01*
X0176637Y0061379D02*
X0177237Y0061379D01*
X0159181Y0047613D02*
X0109580Y0047613D01*
X0108982Y0047014D02*
X0158340Y0047014D01*
X0147837Y0052401D02*
X0140696Y0052401D01*
X0141120Y0052999D02*
X0147837Y0052999D01*
X0147837Y0053598D02*
X0141190Y0053598D01*
X0141190Y0054196D02*
X0147837Y0054196D01*
X0147837Y0054795D02*
X0141190Y0054795D01*
X0141190Y0055393D02*
X0147837Y0055393D01*
X0136637Y0055992D02*
X0122237Y0055992D01*
X0117443Y0042226D02*
X0186937Y0042226D01*
X0186937Y0041628D02*
X0117443Y0041628D01*
X0117443Y0041029D02*
X0186937Y0041029D01*
X0186937Y0040431D02*
X0117443Y0040431D01*
X0113653Y0039832D02*
X0058237Y0039832D01*
X0058237Y0039234D02*
X0099472Y0039234D01*
X0099185Y0038635D02*
X0081028Y0038635D01*
X0080553Y0038832D02*
X0082059Y0038208D01*
X0083213Y0037054D01*
X0083837Y0035547D01*
X0083837Y0033916D01*
X0083213Y0032409D01*
X0082059Y0031256D01*
X0080553Y0030632D01*
X0073321Y0030632D01*
X0071815Y0031256D01*
X0070661Y0032409D01*
X0070246Y0033411D01*
X0067129Y0033411D01*
X0066024Y0032306D01*
X0066691Y0030555D01*
X0068673Y0027809D01*
X0071299Y0025669D01*
X0074389Y0024282D01*
X0077732Y0023742D01*
X0078835Y0023782D01*
X0078865Y0023813D01*
X0079519Y0023813D01*
X0080170Y0023880D01*
X0080178Y0023873D01*
X0082219Y0025913D01*
X0085449Y0025913D01*
X0087734Y0023629D01*
X0087734Y0020398D01*
X0085449Y0018113D01*
X0082219Y0018113D01*
X0080119Y0020213D01*
X0079703Y0020213D01*
X0077623Y0020001D01*
X0077623Y0020001D01*
X0073315Y0020697D01*
X0073315Y0020697D01*
X0069333Y0022484D01*
X0069333Y0022484D01*
X0065950Y0025240D01*
X0065950Y0025240D01*
X0065950Y0025240D01*
X0063396Y0028778D01*
X0063396Y0028779D01*
X0062433Y0031311D01*
X0061798Y0031311D01*
X0059513Y0033595D01*
X0059513Y0036826D01*
X0061798Y0039111D01*
X0065029Y0039111D01*
X0067129Y0037011D01*
X0070643Y0037011D01*
X0070661Y0037054D01*
X0071815Y0038208D01*
X0073321Y0038832D01*
X0080553Y0038832D01*
X0082231Y0038037D02*
X0099185Y0038037D01*
X0099185Y0037438D02*
X0082829Y0037438D01*
X0083302Y0036840D02*
X0099185Y0036840D01*
X0099185Y0036241D02*
X0083550Y0036241D01*
X0083798Y0035643D02*
X0099185Y0035643D01*
X0099185Y0035044D02*
X0083837Y0035044D01*
X0083837Y0034445D02*
X0099185Y0034445D01*
X0099185Y0033847D02*
X0083808Y0033847D01*
X0083560Y0033248D02*
X0099185Y0033248D01*
X0099185Y0032650D02*
X0083312Y0032650D01*
X0082855Y0032051D02*
X0099185Y0032051D01*
X0099185Y0031453D02*
X0082256Y0031453D01*
X0081090Y0030854D02*
X0099185Y0030854D01*
X0099185Y0030256D02*
X0066906Y0030256D01*
X0066577Y0030854D02*
X0072784Y0030854D01*
X0071618Y0031453D02*
X0066349Y0031453D01*
X0066121Y0032051D02*
X0071019Y0032051D01*
X0070562Y0032650D02*
X0066368Y0032650D01*
X0066966Y0033248D02*
X0070314Y0033248D01*
X0071045Y0037438D02*
X0066702Y0037438D01*
X0066103Y0038037D02*
X0071643Y0038037D01*
X0072846Y0038635D02*
X0065505Y0038635D01*
X0061322Y0038635D02*
X0058237Y0038635D01*
X0058237Y0038037D02*
X0060724Y0038037D01*
X0060125Y0037438D02*
X0058237Y0037438D01*
X0058237Y0036840D02*
X0059527Y0036840D01*
X0059513Y0036241D02*
X0058237Y0036241D01*
X0058237Y0035643D02*
X0059513Y0035643D01*
X0059513Y0035044D02*
X0058237Y0035044D01*
X0058237Y0034445D02*
X0059513Y0034445D01*
X0059513Y0033847D02*
X0058237Y0033847D01*
X0058237Y0033248D02*
X0059860Y0033248D01*
X0060459Y0032650D02*
X0058237Y0032650D01*
X0058237Y0032051D02*
X0061057Y0032051D01*
X0061656Y0031453D02*
X0058237Y0031453D01*
X0058237Y0030854D02*
X0062606Y0030854D01*
X0062834Y0030256D02*
X0058237Y0030256D01*
X0058237Y0029657D02*
X0063062Y0029657D01*
X0063289Y0029059D02*
X0058237Y0029059D01*
X0058237Y0028460D02*
X0063626Y0028460D01*
X0064058Y0027862D02*
X0058237Y0027862D01*
X0058237Y0027263D02*
X0064490Y0027263D01*
X0064922Y0026665D02*
X0058237Y0026665D01*
X0058237Y0026066D02*
X0065354Y0026066D01*
X0065786Y0025468D02*
X0058237Y0025468D01*
X0058237Y0024869D02*
X0066406Y0024869D01*
X0067140Y0024271D02*
X0058237Y0024271D01*
X0058237Y0023672D02*
X0067875Y0023672D01*
X0068609Y0023074D02*
X0058237Y0023074D01*
X0058237Y0022475D02*
X0069352Y0022475D01*
X0070686Y0021877D02*
X0058237Y0021877D01*
X0058237Y0021278D02*
X0072019Y0021278D01*
X0073420Y0020680D02*
X0058237Y0020680D01*
X0058237Y0020081D02*
X0077126Y0020081D01*
X0078409Y0020081D02*
X0080251Y0020081D01*
X0080849Y0019483D02*
X0058237Y0019483D01*
X0058237Y0018884D02*
X0081448Y0018884D01*
X0082046Y0018286D02*
X0058237Y0018286D01*
X0058237Y0017687D02*
X0099185Y0017687D01*
X0099185Y0017089D02*
X0058237Y0017089D01*
X0058237Y0016490D02*
X0099185Y0016490D01*
X0099185Y0015892D02*
X0058237Y0015892D01*
X0058237Y0015293D02*
X0099185Y0015293D01*
X0099185Y0014695D02*
X0058237Y0014695D01*
X0058237Y0014096D02*
X0099185Y0014096D01*
X0099185Y0013498D02*
X0058237Y0013498D01*
X0058237Y0012899D02*
X0099185Y0012899D01*
X0099185Y0012301D02*
X0058237Y0012301D01*
X0058237Y0011702D02*
X0099185Y0011702D01*
X0099185Y0011104D02*
X0058237Y0011104D01*
X0058237Y0010505D02*
X0099185Y0010505D01*
X0099185Y0009907D02*
X0058237Y0009907D01*
X0058237Y0009308D02*
X0099185Y0009308D01*
X0099185Y0008710D02*
X0058237Y0008710D01*
X0058237Y0008111D02*
X0099416Y0008111D01*
X0099390Y0018286D02*
X0085622Y0018286D01*
X0086220Y0018884D02*
X0106484Y0018884D01*
X0106484Y0019483D02*
X0086819Y0019483D01*
X0087417Y0020081D02*
X0106484Y0020081D01*
X0106484Y0020680D02*
X0087734Y0020680D01*
X0087734Y0021278D02*
X0106484Y0021278D01*
X0106484Y0021877D02*
X0087734Y0021877D01*
X0087734Y0022475D02*
X0106484Y0022475D01*
X0106484Y0023074D02*
X0087734Y0023074D01*
X0087690Y0023672D02*
X0106484Y0023672D01*
X0106484Y0024271D02*
X0087092Y0024271D01*
X0086493Y0024869D02*
X0110115Y0024869D01*
X0109980Y0025468D02*
X0085895Y0025468D01*
X0081773Y0025468D02*
X0071747Y0025468D01*
X0070811Y0026066D02*
X0109980Y0026066D01*
X0109980Y0026665D02*
X0070077Y0026665D01*
X0069342Y0027263D02*
X0110002Y0027263D01*
X0110250Y0027862D02*
X0068635Y0027862D01*
X0068203Y0028460D02*
X0099933Y0028460D01*
X0099335Y0029059D02*
X0067770Y0029059D01*
X0067338Y0029657D02*
X0099185Y0029657D01*
X0111628Y0030256D02*
X0111932Y0030256D01*
X0111628Y0030854D02*
X0113028Y0030854D01*
X0113358Y0031453D02*
X0111628Y0031453D01*
X0111628Y0032051D02*
X0113358Y0032051D01*
X0113358Y0032650D02*
X0111628Y0032650D01*
X0111628Y0033248D02*
X0113358Y0033248D01*
X0113358Y0033847D02*
X0111628Y0033847D01*
X0111628Y0034445D02*
X0113358Y0034445D01*
X0113358Y0035044D02*
X0111628Y0035044D01*
X0111628Y0035643D02*
X0113358Y0035643D01*
X0113358Y0036241D02*
X0111628Y0036241D01*
X0111628Y0036840D02*
X0113358Y0036840D01*
X0113358Y0037438D02*
X0111628Y0037438D01*
X0111628Y0038037D02*
X0113358Y0038037D01*
X0113358Y0038635D02*
X0111628Y0038635D01*
X0111341Y0039234D02*
X0113358Y0039234D01*
X0104596Y0047014D02*
X0098982Y0047014D01*
X0098404Y0046437D02*
X0097089Y0046437D01*
X0097089Y0050036D01*
X0096489Y0050036D01*
X0096489Y0046437D01*
X0095173Y0046437D01*
X0092889Y0048721D01*
X0092889Y0050037D01*
X0096489Y0050037D01*
X0096489Y0050637D01*
X0097089Y0050637D01*
X0097089Y0054237D01*
X0098404Y0054237D01*
X0100689Y0051952D01*
X0100689Y0050637D01*
X0097089Y0050637D01*
X0097089Y0050037D01*
X0100689Y0050037D01*
X0100689Y0048721D01*
X0098404Y0046437D01*
X0097089Y0047014D02*
X0096489Y0047014D01*
X0096489Y0047613D02*
X0097089Y0047613D01*
X0097089Y0048211D02*
X0096489Y0048211D01*
X0096489Y0048810D02*
X0097089Y0048810D01*
X0097089Y0049408D02*
X0096489Y0049408D01*
X0096489Y0050007D02*
X0097089Y0050007D01*
X0097089Y0050605D02*
X0102889Y0050605D01*
X0102889Y0050007D02*
X0100689Y0050007D01*
X0100689Y0049408D02*
X0102889Y0049408D01*
X0102889Y0048810D02*
X0100689Y0048810D01*
X0100179Y0048211D02*
X0103399Y0048211D01*
X0103997Y0047613D02*
X0099580Y0047613D01*
X0096489Y0050605D02*
X0058237Y0050605D01*
X0058237Y0050007D02*
X0092889Y0050007D01*
X0092889Y0049408D02*
X0058237Y0049408D01*
X0058237Y0048810D02*
X0073268Y0048810D01*
X0080606Y0048810D02*
X0092889Y0048810D01*
X0093399Y0048211D02*
X0082051Y0048211D01*
X0082654Y0047613D02*
X0093997Y0047613D01*
X0094596Y0047014D02*
X0083229Y0047014D01*
X0096489Y0051204D02*
X0097089Y0051204D01*
X0097089Y0051802D02*
X0096489Y0051802D01*
X0096489Y0052401D02*
X0097089Y0052401D01*
X0097089Y0052999D02*
X0096489Y0052999D01*
X0096489Y0053598D02*
X0097089Y0053598D01*
X0097089Y0054196D02*
X0096489Y0054196D01*
X0098444Y0054196D02*
X0105133Y0054196D01*
X0104535Y0053598D02*
X0099043Y0053598D01*
X0099641Y0052999D02*
X0103936Y0052999D01*
X0103338Y0052401D02*
X0100240Y0052401D01*
X0100689Y0051802D02*
X0102889Y0051802D01*
X0102889Y0051204D02*
X0100689Y0051204D01*
X0128049Y0039832D02*
X0128433Y0039832D01*
X0128433Y0040299D02*
X0128433Y0035254D01*
X0130525Y0035254D01*
X0130525Y0039170D01*
X0130437Y0039501D01*
X0130266Y0039797D01*
X0130024Y0040039D01*
X0129727Y0040210D01*
X0129397Y0040299D01*
X0128433Y0040299D01*
X0128433Y0039234D02*
X0128049Y0039234D01*
X0128049Y0038635D02*
X0128433Y0038635D01*
X0128433Y0038037D02*
X0128049Y0038037D01*
X0128049Y0037438D02*
X0128433Y0037438D01*
X0128433Y0036840D02*
X0128049Y0036840D01*
X0128049Y0036241D02*
X0128433Y0036241D01*
X0128433Y0035643D02*
X0128049Y0035643D01*
X0128433Y0035044D02*
X0132256Y0035044D01*
X0132256Y0034445D02*
X0130525Y0034445D01*
X0130525Y0033847D02*
X0132256Y0033847D01*
X0132256Y0033248D02*
X0130525Y0033248D01*
X0130525Y0032650D02*
X0132256Y0032650D01*
X0132256Y0032051D02*
X0130525Y0032051D01*
X0130525Y0031453D02*
X0132256Y0031453D01*
X0132256Y0030854D02*
X0130856Y0030854D01*
X0131952Y0030256D02*
X0132256Y0030256D01*
X0133634Y0027862D02*
X0186937Y0027862D01*
X0186937Y0028460D02*
X0143951Y0028460D01*
X0144549Y0029059D02*
X0186937Y0029059D01*
X0186937Y0029657D02*
X0144699Y0029657D01*
X0144699Y0030256D02*
X0186937Y0030256D01*
X0186937Y0030854D02*
X0144699Y0030854D01*
X0144699Y0031453D02*
X0186937Y0031453D01*
X0186937Y0032051D02*
X0144699Y0032051D01*
X0144699Y0032650D02*
X0186937Y0032650D01*
X0186937Y0033248D02*
X0144699Y0033248D01*
X0144699Y0033847D02*
X0186937Y0033847D01*
X0186937Y0034445D02*
X0144699Y0034445D01*
X0144699Y0035044D02*
X0186937Y0035044D01*
X0186937Y0035643D02*
X0144699Y0035643D01*
X0144699Y0036241D02*
X0186937Y0036241D01*
X0186937Y0036840D02*
X0144699Y0036840D01*
X0144699Y0037438D02*
X0186937Y0037438D01*
X0186937Y0038037D02*
X0144699Y0038037D01*
X0144699Y0038635D02*
X0186937Y0038635D01*
X0186937Y0039234D02*
X0144412Y0039234D01*
X0132543Y0039234D02*
X0130508Y0039234D01*
X0130525Y0038635D02*
X0132256Y0038635D01*
X0132256Y0038037D02*
X0130525Y0038037D01*
X0130525Y0037438D02*
X0132256Y0037438D01*
X0132256Y0036840D02*
X0130525Y0036840D01*
X0130525Y0036241D02*
X0132256Y0036241D01*
X0132256Y0035643D02*
X0130525Y0035643D01*
X0130231Y0039832D02*
X0186937Y0039832D01*
X0186937Y0027263D02*
X0133882Y0027263D01*
X0133903Y0026665D02*
X0186937Y0026665D01*
X0186937Y0026066D02*
X0133903Y0026066D01*
X0133903Y0025468D02*
X0186937Y0025468D01*
X0186937Y0024869D02*
X0133769Y0024869D01*
X0137399Y0024271D02*
X0186937Y0024271D01*
X0186937Y0023672D02*
X0137399Y0023672D01*
X0137399Y0023074D02*
X0186937Y0023074D01*
X0186937Y0022475D02*
X0137399Y0022475D01*
X0137399Y0021877D02*
X0186937Y0021877D01*
X0186937Y0021278D02*
X0137399Y0021278D01*
X0137399Y0020680D02*
X0186937Y0020680D01*
X0186937Y0020081D02*
X0137399Y0020081D01*
X0137399Y0019483D02*
X0186937Y0019483D01*
X0186937Y0018884D02*
X0137399Y0018884D01*
X0144494Y0018286D02*
X0186937Y0018286D01*
X0186937Y0017687D02*
X0144699Y0017687D01*
X0144699Y0017089D02*
X0186937Y0017089D01*
X0186937Y0016490D02*
X0144699Y0016490D01*
X0144699Y0015892D02*
X0186937Y0015892D01*
X0186937Y0015293D02*
X0144699Y0015293D01*
X0144699Y0014695D02*
X0186937Y0014695D01*
X0186937Y0014096D02*
X0144699Y0014096D01*
X0144699Y0013498D02*
X0186937Y0013498D01*
X0186937Y0012899D02*
X0144699Y0012899D01*
X0144699Y0012301D02*
X0186937Y0012301D01*
X0186937Y0011702D02*
X0144699Y0011702D01*
X0144699Y0011104D02*
X0186937Y0011104D01*
X0186937Y0010505D02*
X0144699Y0010505D01*
X0144699Y0009907D02*
X0186937Y0009907D01*
X0186937Y0009308D02*
X0144699Y0009308D01*
X0144699Y0008710D02*
X0186937Y0008710D01*
X0186937Y0008111D02*
X0144467Y0008111D01*
X0081175Y0024869D02*
X0073081Y0024869D01*
X0074460Y0024271D02*
X0080576Y0024271D01*
X0041937Y0054732D02*
X0031937Y0059732D01*
X0028197Y0068472D01*
X0026937Y0068472D01*
X0033197Y0068472D01*
X0036937Y0059732D01*
X0041937Y0054732D01*
X0041937Y0059732D02*
X0038197Y0068472D01*
X0026937Y0068472D01*
X0026937Y0059732D01*
X0021937Y0059732D02*
X0025677Y0068472D01*
X0026937Y0068472D01*
X0020677Y0068472D01*
X0016937Y0059732D01*
X0011937Y0059732D02*
X0015677Y0068472D01*
X0026937Y0068472D01*
X0058237Y0112252D02*
X0102684Y0112252D01*
X0102684Y0112850D02*
X0058237Y0112850D01*
X0058237Y0113449D02*
X0106637Y0113449D01*
X0106637Y0114048D02*
X0107237Y0114048D01*
X0107237Y0114646D02*
X0106637Y0114646D01*
X0106637Y0115245D02*
X0107237Y0115245D01*
X0107237Y0115843D02*
X0106637Y0115843D01*
X0106637Y0116442D02*
X0107237Y0116442D01*
X0107237Y0117040D02*
X0106637Y0117040D01*
X0103155Y0117040D02*
X0058237Y0117040D01*
X0058237Y0116442D02*
X0102748Y0116442D01*
X0102684Y0115843D02*
X0058237Y0115843D01*
X0058237Y0115245D02*
X0102684Y0115245D01*
X0102684Y0114646D02*
X0058237Y0114646D01*
X0058237Y0114048D02*
X0102684Y0114048D01*
X0107237Y0113449D02*
X0118857Y0113449D01*
X0118857Y0117639D02*
X0058237Y0117639D01*
X0058237Y0118237D02*
X0118857Y0118237D01*
X0118857Y0118836D02*
X0058237Y0118836D01*
X0058237Y0119434D02*
X0118857Y0119434D01*
X0118857Y0120033D02*
X0058237Y0120033D01*
X0058237Y0149360D02*
X0102837Y0149360D01*
X0106637Y0148761D02*
X0107237Y0148761D01*
X0107237Y0148163D02*
X0106637Y0148163D01*
X0106637Y0147564D02*
X0107237Y0147564D01*
X0107237Y0146966D02*
X0106637Y0146966D01*
X0106637Y0146367D02*
X0107237Y0146367D01*
X0107237Y0145769D02*
X0106637Y0145769D01*
X0106637Y0145170D02*
X0107237Y0145170D01*
X0107237Y0144572D02*
X0106637Y0144572D01*
X0106637Y0143973D02*
X0107237Y0143973D01*
X0107237Y0143375D02*
X0106637Y0143375D01*
X0104888Y0143375D02*
X0093607Y0143375D01*
X0093768Y0143973D02*
X0104097Y0143973D01*
X0108986Y0143375D02*
X0114811Y0143375D01*
X0114098Y0143973D02*
X0109777Y0143973D01*
X0110290Y0144572D02*
X0113499Y0144572D01*
X0113229Y0145170D02*
X0110641Y0145170D01*
X0110870Y0145769D02*
X0112981Y0145769D01*
X0112837Y0146367D02*
X0110999Y0146367D01*
X0111037Y0146966D02*
X0112837Y0146966D01*
X0112837Y0147564D02*
X0111037Y0147564D01*
X0111037Y0148163D02*
X0112837Y0148163D01*
X0112837Y0148761D02*
X0111037Y0148761D01*
X0111037Y0149360D02*
X0112837Y0149360D01*
X0107237Y0150557D02*
X0106637Y0150557D01*
X0106637Y0151155D02*
X0107237Y0151155D01*
X0107237Y0151754D02*
X0106637Y0151754D01*
X0106637Y0152352D02*
X0107237Y0152352D01*
X0107237Y0152951D02*
X0106637Y0152951D01*
X0106637Y0153549D02*
X0107237Y0153549D01*
X0107237Y0154148D02*
X0106637Y0154148D01*
X0106637Y0154746D02*
X0107237Y0154746D01*
X0107237Y0155345D02*
X0106637Y0155345D01*
X0106637Y0155943D02*
X0107237Y0155943D01*
X0131867Y0128412D02*
X0132037Y0128412D01*
X0135377Y0124222D02*
X0135977Y0124222D01*
X0135977Y0123624D02*
X0135377Y0123624D01*
X0135377Y0123025D02*
X0135977Y0123025D01*
X0135977Y0122427D02*
X0135377Y0122427D01*
X0135377Y0121828D02*
X0135977Y0121828D01*
X0135977Y0121230D02*
X0135377Y0121230D01*
X0135377Y0120631D02*
X0135977Y0120631D01*
X0132506Y0120631D02*
X0131446Y0120631D01*
X0139536Y0126018D02*
X0173419Y0126018D01*
X0173074Y0126616D02*
X0139536Y0126616D01*
X0139536Y0127215D02*
X0172728Y0127215D01*
X0172363Y0127813D02*
X0139536Y0127813D01*
X0138735Y0113449D02*
X0155139Y0113449D01*
X0154540Y0112850D02*
X0139334Y0112850D01*
X0139932Y0112252D02*
X0153942Y0112252D01*
X0153343Y0111653D02*
X0140531Y0111653D01*
X0140837Y0111055D02*
X0153037Y0111055D01*
X0153037Y0110456D02*
X0140837Y0110456D01*
X0140837Y0109858D02*
X0153037Y0109858D01*
X0153037Y0109259D02*
X0140837Y0109259D01*
X0140837Y0108661D02*
X0153037Y0108661D01*
X0153091Y0108062D02*
X0140783Y0108062D01*
X0140184Y0107464D02*
X0153690Y0107464D01*
X0154288Y0106865D02*
X0139586Y0106865D01*
X0138987Y0106267D02*
X0154887Y0106267D01*
X0160184Y0107464D02*
X0171554Y0107464D01*
X0170999Y0106865D02*
X0160656Y0106865D01*
X0160783Y0108062D02*
X0172187Y0108062D01*
X0173023Y0111055D02*
X0160837Y0111055D01*
X0160837Y0110456D02*
X0186937Y0110456D01*
X0186937Y0109858D02*
X0160837Y0109858D01*
X0160837Y0109259D02*
X0186937Y0109259D01*
X0186937Y0108661D02*
X0160837Y0108661D01*
X0160531Y0111653D02*
X0171900Y0111653D01*
X0171301Y0112252D02*
X0159932Y0112252D01*
X0159334Y0112850D02*
X0170895Y0112850D01*
X0170647Y0113449D02*
X0158735Y0113449D01*
X0176325Y0128412D02*
X0186937Y0128412D01*
X0186937Y0129010D02*
X0175979Y0129010D01*
X0175634Y0129609D02*
X0186937Y0129609D01*
X0186937Y0130207D02*
X0175220Y0130207D01*
X0174622Y0130806D02*
X0186937Y0130806D01*
X0186937Y0131404D02*
X0174023Y0131404D01*
X0173425Y0132003D02*
X0186937Y0132003D01*
X0186937Y0132601D02*
X0172826Y0132601D01*
X0172252Y0133175D02*
X0172252Y0133175D01*
X0172210Y0133200D02*
X0186937Y0133200D01*
X0186937Y0133798D02*
X0171173Y0133798D01*
X0170136Y0134397D02*
X0186937Y0134397D01*
X0186937Y0134995D02*
X0169100Y0134995D01*
X0167649Y0135594D02*
X0186937Y0135594D01*
X0186937Y0136192D02*
X0165415Y0136192D01*
X0176670Y0127813D02*
X0186937Y0127813D01*
X0186937Y0127215D02*
X0177016Y0127215D01*
X0177361Y0126616D02*
X0186937Y0126616D01*
X0186937Y0126018D02*
X0177645Y0126018D01*
X0177592Y0126216D02*
X0177592Y0126216D01*
X0177806Y0125419D02*
X0186937Y0125419D01*
X0186937Y0124821D02*
X0177966Y0124821D01*
X0178126Y0124222D02*
X0186937Y0124222D01*
X0186937Y0123624D02*
X0178287Y0123624D01*
X0178447Y0123025D02*
X0186937Y0123025D01*
X0186937Y0122427D02*
X0178608Y0122427D01*
X0178737Y0121828D02*
X0186937Y0121828D01*
X0186937Y0121230D02*
X0178737Y0121230D01*
X0178737Y0120631D02*
X0186937Y0120631D01*
X0186937Y0120033D02*
X0178737Y0120033D01*
X0178737Y0119434D02*
X0186937Y0119434D01*
X0186937Y0118836D02*
X0178737Y0118836D01*
X0181266Y0118237D02*
X0186937Y0118237D01*
X0186937Y0117639D02*
X0182146Y0117639D01*
X0182744Y0117040D02*
X0186937Y0117040D01*
X0186937Y0116442D02*
X0183050Y0116442D01*
X0183298Y0115843D02*
X0186937Y0115843D01*
X0186937Y0115245D02*
X0183437Y0115245D01*
X0183437Y0114646D02*
X0186937Y0114646D01*
X0186937Y0114048D02*
X0183437Y0114048D01*
X0183227Y0113449D02*
X0186937Y0113449D01*
X0186937Y0112850D02*
X0182979Y0112850D01*
X0182573Y0112252D02*
X0186937Y0112252D01*
X0186937Y0111653D02*
X0181974Y0111653D01*
X0180851Y0111055D02*
X0186937Y0111055D01*
X0186937Y0108062D02*
X0181688Y0108062D01*
X0182320Y0107464D02*
X0186937Y0107464D01*
X0186937Y0106865D02*
X0182875Y0106865D01*
X0183123Y0106267D02*
X0186937Y0106267D01*
X0186937Y0105668D02*
X0183370Y0105668D01*
X0183437Y0105070D02*
X0186937Y0105070D01*
X0186937Y0104471D02*
X0183437Y0104471D01*
X0183402Y0103873D02*
X0186937Y0103873D01*
X0186937Y0103274D02*
X0183155Y0103274D01*
X0182907Y0102676D02*
X0186937Y0102676D01*
X0186937Y0102077D02*
X0182398Y0102077D01*
X0181799Y0101479D02*
X0186937Y0101479D01*
X0127950Y0108062D02*
X0125017Y0108062D01*
X0125017Y0107464D02*
X0127377Y0107464D01*
X0126942Y0106865D02*
X0125017Y0106865D01*
X0125017Y0106267D02*
X0126508Y0106267D01*
X0126073Y0105668D02*
X0125017Y0105668D01*
X0125017Y0105070D02*
X0125638Y0105070D01*
X0125244Y0104528D02*
X0125244Y0104528D01*
X0125226Y0104471D02*
X0125017Y0104471D01*
X0125017Y0103873D02*
X0125031Y0103873D01*
X0115039Y0099085D02*
X0108737Y0099085D01*
X0108737Y0099683D02*
X0114440Y0099683D01*
X0113842Y0100282D02*
X0108737Y0100282D01*
X0108737Y0100880D02*
X0113243Y0100880D01*
X0112644Y0101479D02*
X0108737Y0101479D01*
X0108737Y0102077D02*
X0112046Y0102077D01*
X0111447Y0102676D02*
X0110971Y0102676D01*
X0125682Y0084720D02*
X0125869Y0084720D01*
X0125869Y0084122D02*
X0125682Y0084122D01*
X0125682Y0083523D02*
X0125869Y0083523D01*
X0125869Y0082925D02*
X0125682Y0082925D01*
X0125682Y0082326D02*
X0125869Y0082326D01*
X0125869Y0081728D02*
X0125682Y0081728D01*
X0125682Y0081129D02*
X0125869Y0081129D01*
X0125869Y0080531D02*
X0125682Y0080531D01*
X0125682Y0079932D02*
X0125869Y0079932D01*
X0125869Y0079334D02*
X0125682Y0079334D01*
X0125682Y0078735D02*
X0125869Y0078735D01*
X0125869Y0078137D02*
X0125682Y0078137D01*
D26*
X0041937Y0154732D02*
X0026937Y0154732D01*
X0026937Y0142232D01*
X0041937Y0154732D02*
X0041937Y0159732D01*
X0056937Y0164732D02*
X0066937Y0164732D01*
D27*
X0056937Y0164732D02*
X0026937Y0164732D01*
X0026937Y0154732D01*
D28*
X0062437Y0089832D02*
X0062537Y0089732D01*
X0066937Y0089732D01*
X0076937Y0089732D01*
D29*
X0166937Y0154732D03*
X0166937Y0024732D03*
D30*
X0091937Y0064732D03*
X0091937Y0114732D03*
M02*
