%
M48
M72
T01C0.01969
T02C0.03200
T03C0.03543
T04C0.03600
T05C0.05600
T06C0.12598
T07C0.21654
%
T01
X11937Y54732
X11937Y59732
X16937Y59732
X21937Y59732
X26937Y59732
X31937Y59732
X36937Y59732
X41937Y59732
X41937Y54732
X41937Y119732
X41937Y124732
X36937Y119732
X31937Y119732
X26937Y119732
X21937Y119732
X16937Y119732
X11937Y119732
X11937Y124732
X125776Y75935
X125776Y71935
T02
X106789Y50337
X96789Y50337
X83834Y22013
X63413Y35211
X43834Y22013
X63413Y55211
X136937Y109732
X156937Y109732
X176937Y114732
X176937Y104732
X176937Y94732
X176937Y84732
X176937Y74732
X176937Y64732
T03
X128832Y26204
X115052Y26204
X91937Y64732
X91937Y114732
T04
X86937Y104732
X96937Y104732
X96937Y74732
X86937Y74732
X76937Y44732
X76937Y34732
X146937Y79732
X146937Y89732
X151937Y54732
X161937Y54732
X86937Y134732
X86937Y144732
X106937Y149732
X116937Y149732
X126937Y149732
X136937Y149732
X66937Y164732
X56937Y164732
T05
X66937Y103511
X66937Y89732
X66937Y75952
T06
X166937Y24732
X166937Y154732
T07
X26937Y37232
X26937Y142232
M30
