G75*
%MOIN*%
%OFA0B0*%
%FSLAX25Y25*%
%IPPOS*%
%LPD*%
%AMOC8*
5,1,8,0,0,1.08239X$1,22.5*
%
%ADD10C,0.06400*%
%ADD11OC8,0.06000*%
%ADD12R,0.35249X0.21272*%
%ADD13C,0.36233*%
%ADD14C,0.04343*%
%ADD15C,0.09200*%
%ADD16C,0.06000*%
%ADD17C,0.04369*%
%ADD18C,0.26391*%
%ADD19C,0.06115*%
D10*
X0074137Y0034732D02*
X0079737Y0034732D01*
X0079737Y0044732D02*
X0074137Y0044732D01*
X0086937Y0071932D02*
X0086937Y0077532D01*
X0096937Y0077532D02*
X0096937Y0071932D01*
X0096937Y0101932D02*
X0096937Y0107532D01*
X0086937Y0107532D02*
X0086937Y0101932D01*
X0089737Y0134732D02*
X0084137Y0134732D01*
X0084137Y0144732D02*
X0089737Y0144732D01*
X0106937Y0146932D02*
X0106937Y0152532D01*
X0116937Y0152532D02*
X0116937Y0146932D01*
X0126937Y0146932D02*
X0126937Y0152532D01*
X0136937Y0152532D02*
X0136937Y0146932D01*
X0144137Y0089732D02*
X0149737Y0089732D01*
X0149737Y0079732D02*
X0144137Y0079732D01*
X0151937Y0057532D02*
X0151937Y0051932D01*
X0161937Y0051932D02*
X0161937Y0057532D01*
X0066937Y0161932D02*
X0066937Y0167532D01*
X0056937Y0167532D02*
X0056937Y0161932D01*
D11*
X0136937Y0109732D03*
X0156937Y0109732D03*
X0106789Y0050337D03*
X0096789Y0050337D03*
X0083834Y0022013D03*
X0063413Y0035211D03*
X0043834Y0022013D03*
X0063413Y0055211D03*
D12*
X0026937Y0068472D03*
X0026937Y0110992D03*
D13*
X0026937Y0037232D03*
X0026937Y0142232D03*
D14*
X0115052Y0026204D03*
X0128832Y0026204D03*
D15*
X0071137Y0075952D02*
X0062737Y0075952D01*
X0062737Y0089732D02*
X0071137Y0089732D01*
X0071137Y0103511D02*
X0062737Y0103511D01*
D16*
X0174337Y0104732D02*
X0179537Y0104732D01*
X0179537Y0094732D02*
X0174337Y0094732D01*
X0174337Y0084732D02*
X0179537Y0084732D01*
X0179537Y0074732D02*
X0174337Y0074732D01*
X0174337Y0064732D02*
X0179537Y0064732D01*
X0179537Y0114732D02*
X0174337Y0114732D01*
D17*
X0125776Y0075935D03*
X0125776Y0071935D03*
X0041937Y0059732D03*
X0041937Y0054732D03*
X0036937Y0059732D03*
X0031937Y0059732D03*
X0026937Y0059732D03*
X0021937Y0059732D03*
X0016937Y0059732D03*
X0011937Y0059732D03*
X0011937Y0054732D03*
X0011937Y0119732D03*
X0016937Y0119732D03*
X0021937Y0119732D03*
X0026937Y0119732D03*
X0031937Y0119732D03*
X0036937Y0119732D03*
X0041937Y0119732D03*
X0041937Y0124732D03*
X0011937Y0124732D03*
D18*
X0166937Y0154732D03*
X0166937Y0024732D03*
D19*
X0091937Y0064732D03*
X0091937Y0114732D03*
M02*
